<svg width="15" height="24" viewBox="0 0 15 24" fill="none" xmlns="http://www.w3.org/2000/svg">
<path d="M15 0.674329C15 0.497576 14.9282 0.328063 14.8003 0.203079C14.6724 0.0780961 14.499 0.00788117 14.3182 0.00788117H10.9091C9.19244 -0.0757035 7.51172 0.508239 6.23417 1.63212C4.95661 2.756 4.18607 4.32846 4.09091 6.00591V9.60473H0.681818C0.500989 9.60473 0.327566 9.67494 0.1997 9.79993C0.0718343 9.92491 0 10.0944 0 10.2712V13.7367C0 13.9135 0.0718343 14.083 0.1997 14.208C0.327566 14.3329 0.500989 14.4032 0.681818 14.4032H4.09091V23.3336C4.09091 23.5103 4.16274 23.6798 4.29061 23.8048C4.41847 23.9298 4.5919 24 4.77273 24H8.86364C9.04447 24 9.21789 23.9298 9.34576 23.8048C9.47362 23.6798 9.54545 23.5103 9.54545 23.3336V14.4032H13.1182C13.2698 14.4053 13.4178 14.3579 13.5388 14.2686C13.6599 14.1793 13.747 14.0531 13.7864 13.91L14.7682 10.4445C14.7953 10.346 14.799 10.2427 14.7788 10.1427C14.7587 10.0426 14.7154 9.94839 14.6522 9.86727C14.5889 9.78615 14.5075 9.7203 14.4141 9.67478C14.3208 9.62927 14.218 9.6053 14.1136 9.60473H9.54545V6.00591C9.57937 5.67599 9.73788 5.37027 9.99003 5.14845C10.2422 4.92663 10.5699 4.80464 10.9091 4.8063H14.3182C14.499 4.8063 14.6724 4.73609 14.8003 4.61111C14.9282 4.48612 15 4.31661 15 4.13986V0.674329Z" fill="white"/>
</svg>
