<svg width="26" height="26" viewBox="0 0 26 26" fill="none" xmlns="http://www.w3.org/2000/svg">
<path fill-rule="evenodd" clip-rule="evenodd" d="M7.64038 0.078C9.02706 0.0144418 9.46906 0 13 0C16.5316 0 16.9729 0.0151627 18.3588 0.078C19.7433 0.140837 20.6888 0.361116 21.5157 0.6825C22.383 1.00905 23.1687 1.52069 23.8181 2.18184C24.4794 2.83116 24.9911 3.61691 25.3175 4.48428C25.6388 5.31122 25.8584 6.25662 25.922 7.64038C25.9856 9.02706 26 9.46906 26 13C26 16.5309 25.9849 16.9729 25.922 18.3597C25.8591 19.7433 25.6388 20.6888 25.3175 21.5157C24.9853 22.3702 24.5403 23.0959 23.8181 23.8181C23.1688 24.4794 22.383 24.9911 21.5157 25.3175C20.6888 25.6388 19.7433 25.8584 18.3597 25.922C16.9729 25.9856 16.5309 26 13 26C9.46906 26 9.02706 25.9849 7.64038 25.922C6.25662 25.8591 5.31122 25.6388 4.48428 25.3175C3.62988 24.9853 2.90406 24.5403 2.18184 23.8181C1.52057 23.1688 1.00889 22.383 0.6825 21.5157C0.361116 20.6888 0.141558 19.7433 0.078 18.3597C0.0144418 16.9729 0 16.5316 0 13C0 9.46834 0.0151627 9.02706 0.078 7.64112C0.140837 6.25662 0.361116 5.31122 0.6825 4.48428C1.00905 3.61697 1.52069 2.83126 2.18184 2.18184C2.83115 1.52057 3.6169 1.00889 4.48428 0.6825C5.31122 0.361116 6.25662 0.141558 7.64038 0.078ZM18.2534 2.418C16.8826 2.35588 16.471 2.34216 13 2.34216C9.529 2.34216 9.11734 2.35588 7.74656 2.418C6.47906 2.47578 5.79078 2.68738 5.33288 2.86578C4.72622 3.10122 4.29288 3.38288 3.83788 3.83788C3.38362 4.29288 3.10122 4.72622 2.86578 5.33288C2.68738 5.79078 2.47578 6.47906 2.418 7.74656C2.35588 9.11734 2.34216 9.529 2.34216 13C2.34216 16.471 2.35588 16.8826 2.418 18.2534C2.47578 19.5209 2.68738 20.2092 2.86578 20.6672C3.07404 21.2318 3.40622 21.7426 3.83788 22.1622C4.25731 22.5938 4.76818 22.926 5.33288 23.1342C5.79078 23.3127 6.47906 23.5242 7.74656 23.582C9.11734 23.6442 9.52828 23.6579 13 23.6579C16.4717 23.6579 16.8826 23.6442 18.2534 23.582C19.5209 23.5242 20.2092 23.3127 20.6672 23.1342C21.2738 22.8988 21.7072 22.6172 22.1622 22.1622C22.5938 21.7427 22.926 21.2318 23.1342 20.6672C23.3127 20.2092 23.5242 19.5209 23.582 18.2534C23.6442 16.8826 23.6579 16.471 23.6579 13C23.6579 9.529 23.6442 9.11734 23.582 7.74656C23.5242 6.47906 23.3127 5.79078 23.1342 5.33288C22.8988 4.72622 22.6172 4.29288 22.1622 3.83788C21.7072 3.38362 21.2738 3.10122 20.6672 2.86578C20.2092 2.68738 19.5209 2.47578 18.2534 2.418ZM11.3401 17.0074C11.8664 17.2255 12.4304 17.3376 13 17.3376C14.1505 17.3376 15.2537 16.8806 16.0672 16.0672C16.8807 15.2537 17.3377 14.1504 17.3377 13C17.3377 11.8496 16.8807 10.7463 16.0672 9.9328C15.2537 9.11933 14.1505 8.66233 13 8.66233C12.4304 8.66233 11.8664 8.77453 11.3401 8.99251C10.8138 9.2105 10.3356 9.53 9.93284 9.9328C9.53005 10.3356 9.21054 10.8138 8.99255 11.34C8.77456 11.8663 8.66237 12.4304 8.66237 13C8.66237 13.5696 8.77456 14.1337 8.99255 14.66C9.21054 15.1862 9.53005 15.6644 9.93284 16.0672C10.3356 16.4699 10.8138 16.7895 11.3401 17.0074ZM8.27515 8.2751C9.52827 7.02199 11.2279 6.31799 13 6.31799C14.7723 6.31799 16.4718 7.02199 17.7249 8.2751C18.978 9.52822 19.682 11.2279 19.682 13C19.682 14.7721 18.978 16.4717 17.7249 17.7249C16.4718 18.978 14.7723 19.682 13 19.682C11.2279 19.682 9.52827 18.978 8.27515 17.7249C7.02203 16.4717 6.31804 14.7721 6.31804 13C6.31804 11.2279 7.02203 9.52822 8.27515 8.2751ZM21.1636 7.31354C21.4598 7.01732 21.6262 6.61557 21.6262 6.19666C21.6262 5.77774 21.4598 5.376 21.1636 5.07978C20.8674 4.78357 20.4657 4.61716 20.0467 4.61716C19.6279 4.61716 19.2261 4.78357 18.9299 5.07978C18.6336 5.376 18.4672 5.77774 18.4672 6.19666C18.4672 6.61557 18.6336 7.01732 18.9299 7.31354C19.2261 7.60975 19.6279 7.77616 20.0467 7.77616C20.4657 7.77616 20.8674 7.60975 21.1636 7.31354Z" fill="white"/>
</svg>
