<svg width="24" height="22" viewBox="0 0 24 22" fill="none" xmlns="http://www.w3.org/2000/svg">
<path d="M6.76403 21.9915C8.73433 22.0595 10.6978 21.7193 12.5385 20.9911C14.3792 20.2628 16.0598 19.1613 17.4808 17.7515C18.9019 16.3418 20.0346 14.6524 20.812 12.7833C21.5895 10.9142 21.9959 8.9033 22.0073 6.86938C22.9102 5.71654 23.5807 4.38912 23.9793 2.96513C24.0091 2.85262 24.0067 2.73364 23.9724 2.62251C23.9381 2.51138 23.8735 2.41284 23.7862 2.33875C23.6989 2.26467 23.5927 2.2182 23.4804 2.20494C23.3681 2.19168 23.2545 2.21219 23.1532 2.26401C22.6808 2.49862 22.149 2.5744 21.6327 2.48068C21.1163 2.38696 20.6415 2.12847 20.2751 1.74161C19.8073 1.21313 19.2415 0.7869 18.6112 0.488166C17.9809 0.189431 17.2988 0.0242739 16.6055 0.00248023C15.9121 -0.0193134 15.2216 0.1027 14.5748 0.361291C13.928 0.619881 13.3381 1.00979 12.84 1.50791C12.1581 2.18931 11.6586 3.04114 11.3901 3.98061C11.1216 4.92009 11.0932 5.91525 11.3077 6.86938C6.84398 7.14433 3.77934 4.9585 1.32763 1.96157C1.25397 1.87551 1.15763 1.81345 1.05035 1.78295C0.943071 1.75245 0.829508 1.75485 0.723528 1.78984C0.617547 1.82483 0.523734 1.8909 0.453547 1.97999C0.38336 2.06908 0.339836 2.17732 0.328289 2.29151C-0.138777 4.96458 0.198147 7.7211 1.29381 10.1908C2.38947 12.6606 4.19139 14.7253 6.45757 16.1076C4.93809 17.9055 2.80426 19.0285 0.501508 19.242C0.378139 19.2631 0.264253 19.3235 0.175791 19.4147C0.0873293 19.5059 0.0287175 19.6233 0.00815881 19.7506C-0.0123999 19.8779 0.00612352 20.0086 0.0611366 20.1245C0.11615 20.2403 0.204899 20.3355 0.314964 20.3968C2.31833 21.4297 4.52449 21.9753 6.76403 21.9915Z" fill="white"/>
</svg>
