<svg width="26" height="18" viewBox="0 0 26 18" fill="none" xmlns="http://www.w3.org/2000/svg">
<path d="M25.4547 2.82289C25.3115 2.28418 25.0257 1.79164 24.6259 1.39465C24.226 0.99767 23.7262 0.710194 23.1765 0.561043C21.1423 0.00549628 12.9921 0.00549614 12.9921 0.00549614C9.59372 -0.0343383 6.19624 0.142393 2.82141 0.534587C2.27153 0.694634 1.77254 0.988732 1.37155 1.38912C0.97056 1.7895 0.680793 2.28295 0.529606 2.82289C0.165001 4.86246 -0.0119959 6.92977 0.000727459 8.99997C-0.0128684 11.0703 0.164135 13.1377 0.529606 15.1772C0.677681 15.7156 0.966823 16.2073 1.36863 16.6039C1.77044 17.0005 2.27109 17.2882 2.82141 17.439C4.88269 17.9945 12.9921 17.9945 12.9921 17.9945C16.3951 18.0344 19.7971 17.8577 23.1765 17.4654C23.7262 17.3163 24.226 17.0288 24.6259 16.6318C25.0257 16.2348 25.3115 15.7423 25.4547 15.2036C25.8286 13.165 26.0102 11.0974 25.9972 9.0265C26.0252 6.94629 25.8435 4.86842 25.4547 2.82289ZM10.402 12.8492V5.15089L17.1826 8.99997L10.402 12.8492Z" fill="white"/>
</svg>
