<svg width="24" height="24" viewBox="0 0 24 24" fill="none" xmlns="http://www.w3.org/2000/svg">
<g clip-path="url(#clip0_51_25)">
<path d="M17.063 12.6749L13.993 12.0789L17.063 10.8459L17.664 11.5459L17.063 12.6749Z" fill="white"/>
<path d="M21.118 11.096C20.751 10.294 20.482 9.60803 20.386 9.44303C20.106 8.96903 19.688 8.99503 19.33 9.05703C18.374 9.22103 18.001 9.39003 16.317 9.83703C16.069 9.90603 15.601 10.043 15.344 9.95303C14.662 9.72003 14.455 9.53303 14.128 9.57003C13.621 9.62803 12.578 10.118 11.448 10.945C11.094 11.199 11.134 11.504 11.068 11.702C11.0648 11.7121 11.064 11.7228 11.0654 11.7333C11.0669 11.7438 11.0707 11.7538 11.0766 11.7626C11.0824 11.7714 11.0902 11.7788 11.0992 11.7842C11.1083 11.7897 11.1185 11.793 11.129 11.794C11.294 11.811 13.089 11.967 13.171 11.978C13.1589 11.9717 13.1487 11.9623 13.1415 11.9507C13.1342 11.939 13.1303 11.9257 13.13 11.912C13.1297 11.8994 13.133 11.8869 13.1396 11.8761C13.1461 11.8653 13.1557 11.8566 13.167 11.851C13.679 11.575 15.54 10.589 16.664 10.146C18.201 9.53603 18.573 9.47103 19.039 9.42603C19.164 9.42003 19.289 9.42103 19.413 9.43103C19.4568 9.43378 19.4989 9.44911 19.5342 9.47519C19.5695 9.50126 19.5965 9.53697 19.612 9.57803C19.824 10.201 20.445 11.608 20.774 12.074C20.7569 12.1048 20.733 12.1312 20.704 12.1511C20.675 12.1711 20.6418 12.184 20.607 12.189C20.521 12.189 20.345 12.027 20.236 11.931C20.2239 11.9216 20.2092 11.9161 20.1938 11.9152C20.1784 11.9143 20.1632 11.9181 20.15 11.926C18.306 13.062 16.977 13.558 16.785 13.626C16.7697 13.6324 16.7524 13.6324 16.737 13.626L15.795 13.276C15.8462 13.214 15.8877 13.1445 15.918 13.07C15.9351 13.0333 15.9443 12.9935 15.945 12.953C15.938 12.801 15.793 12.769 15.728 12.76C15.478 12.73 8.74802 11.736 7.06002 11.57C6.34402 11.495 5.66302 11.865 5.36802 12.252V12.262L6.32302 13.258C6.33316 13.2692 6.34661 13.2767 6.36138 13.2796C6.37615 13.2825 6.39145 13.2805 6.40503 13.274L7.15602 12.928C7.15602 12.928 7.25902 13.246 7.16302 13.3C6.53902 13.642 5.93402 13.948 5.34902 14.255C5.11402 14.379 5.12202 14.615 5.04602 14.945C5.01402 15.083 4.99703 15.209 4.99703 15.209C4.99703 15.209 6.30802 14.552 7.11202 14.169C7.12563 14.1636 7.14052 14.1622 7.15489 14.1651C7.16926 14.1679 7.1825 14.1748 7.19302 14.185C7.30802 14.308 7.34502 14.336 7.42102 14.412C7.4291 14.4198 7.43519 14.4294 7.4388 14.44C7.44241 14.4506 7.44342 14.4619 7.44175 14.4729C7.44009 14.484 7.43579 14.4945 7.42923 14.5036C7.42266 14.5126 7.41402 14.52 7.40402 14.525C7.21402 14.625 7.01902 14.729 6.86902 14.818C6.75002 14.888 6.86902 15.126 6.86902 15.126L9.05102 14.092C9.05102 14.092 9.18602 14.226 8.94602 14.376C8.57402 14.609 5.13302 16.363 4.83802 16.371C4.05702 16.391 2.58503 14.922 2.05303 14.699C1.60403 14.509 1.12102 14.818 0.465025 15.202C0.287025 15.309 0.395025 15.565 0.395025 15.565L1.34502 15.084C1.34502 15.084 1.46302 15.219 1.33102 15.302C0.871025 15.593 0.206025 15.885 0.104025 15.959C-0.0479751 16.066 0.0110249 16.57 0.0110249 16.57L0.911025 16.153C0.922861 16.1472 0.936028 16.1446 0.949197 16.1455C0.962365 16.1463 0.975069 16.1507 0.986025 16.158L2.91202 17.992C3.03402 17.962 3.15403 17.922 3.26903 17.872L1.66202 16.162C1.6552 16.1537 1.65026 16.1439 1.64754 16.1335C1.64483 16.123 1.64441 16.1121 1.64631 16.1014C1.64821 16.0908 1.65238 16.0807 1.65855 16.0718C1.66471 16.063 1.67272 16.0555 1.68202 16.05C1.84602 15.966 2.04202 15.905 2.32002 16.118C2.55402 16.295 3.37002 16.956 4.16002 16.885C4.42502 16.863 4.42802 16.944 4.42802 16.944C4.42802 16.944 4.09302 17.105 3.69502 17.323C3.49802 17.432 3.65803 17.719 3.65803 17.719C5.29281 17.0513 6.9245 16.3759 8.55303 15.693C8.56542 15.6877 8.57902 15.6858 8.5924 15.6876C8.60577 15.6893 8.61843 15.6947 8.62902 15.703L9.21702 16.17C9.30102 16.3 13.489 14.69 14.78 14.038C14.856 14.002 15.51 14.032 15.827 14.029C15.972 14.029 15.967 14.093 15.967 14.093C15.967 14.093 5.48703 18.271 2.91703 18.175H2.91202L2.36403 18.41C2.68503 18.622 2.60902 18.989 3.15602 18.706C3.18902 18.781 3.22603 18.857 3.26603 18.945C3.37303 19.172 3.37302 19.177 4.06802 18.94C6.03802 18.275 14.88 15.631 16.861 14.811C17.979 14.35 19.526 13.713 20.49 13.116C21.44 12.531 21.635 12.227 21.118 11.096ZM12.656 11.137C12.537 11.222 11.754 11.076 11.754 11.076C11.754 11.076 12.621 10.305 13.446 10.206C13.691 10.177 14.188 10.369 14.188 10.369C14.188 10.369 13.08 10.832 12.656 11.137ZM15.286 10.37L14.166 10.945C14.166 10.945 13.907 10.788 14.199 10.655C14.275 10.622 14.445 10.524 14.584 10.452C14.5969 10.4453 14.6082 10.4359 14.6171 10.4244C14.626 10.413 14.6324 10.3997 14.6357 10.3856C14.639 10.3714 14.6392 10.3567 14.6364 10.3425C14.6335 10.3282 14.6276 10.3148 14.619 10.303C14.6077 10.2873 14.592 10.2752 14.574 10.268L13.744 9.93503C13.8226 9.87253 13.9148 9.82944 14.0131 9.80929C14.1115 9.78913 14.2132 9.79247 14.31 9.81903C14.43 9.85603 14.935 10.069 15.266 10.207C15.2792 10.21 15.2915 10.216 15.302 10.2245C15.3124 10.2331 15.3207 10.244 15.3263 10.2563C15.3318 10.2686 15.3344 10.282 15.3338 10.2955C15.3333 10.309 15.3296 10.3222 15.323 10.334C15.3146 10.3495 15.3017 10.362 15.286 10.37ZM15.564 13.078C15.455 13.239 15.201 13.539 14.826 13.478C14.644 13.448 7.21202 11.94 7.19302 11.938C7.14102 11.924 7.14802 11.812 7.24302 11.824L15.515 12.966C15.5271 12.9682 15.5385 12.9733 15.5482 12.981C15.5578 12.9886 15.5654 12.9985 15.5704 13.0097C15.5753 13.021 15.5774 13.0333 15.5765 13.0455C15.5756 13.0578 15.5716 13.0696 15.565 13.08L15.564 13.078ZM20.935 9.68803C20.9276 9.68909 20.9202 9.69076 20.913 9.69303C20.9056 9.69598 20.8988 9.7004 20.893 9.70603L20.969 9.68603L20.935 9.68803ZM23.99 15.276C23.929 15.026 23.472 13.375 23.21 12.768L22.008 10.613C21.8951 10.7705 21.7687 10.9177 21.63 11.053C21.6068 11.073 21.5813 11.0902 21.554 11.104C21.5182 11.1189 21.4799 11.1271 21.441 11.128L22.088 13.25C22.184 13.59 22.409 13.88 22.603 14.176L23.653 15.742C23.6657 15.7612 23.6829 15.777 23.7032 15.7879C23.7234 15.7987 23.746 15.8044 23.769 15.8044C23.792 15.8044 23.8146 15.7987 23.8349 15.7879C23.8551 15.777 23.8724 15.7612 23.885 15.742C23.9326 15.6752 23.9665 15.5996 23.9847 15.5197C24.0029 15.4397 24.0041 15.3569 23.99 15.276ZM23.756 15.571L23.741 15.593L23.725 15.571C23.2743 14.9095 22.8303 14.2435 22.393 13.573C22.287 13.406 22.411 13.322 22.411 13.322L22.426 13.313L22.436 13.326C22.485 13.388 23.631 14.881 23.779 15.156C23.8114 15.2213 23.8263 15.2938 23.8223 15.3666C23.8183 15.4393 23.7954 15.5098 23.756 15.571ZM20.804 7.29003C20.672 6.84403 20.447 6.55603 20.251 6.26003C20.153 6.10903 19.438 5.04803 19.186 4.66903C19.1696 4.64446 19.1448 4.62679 19.1162 4.61941C19.0876 4.61203 19.0573 4.61545 19.031 4.62903C19.0135 4.63853 18.9988 4.65229 18.988 4.66903C18.9366 4.74127 18.9004 4.82316 18.8815 4.90978C18.8626 4.9964 18.8614 5.08594 18.878 5.17303C18.942 5.42003 19.383 7.06703 19.646 7.67303L20.742 9.60303C20.7638 9.57534 20.7912 9.55256 20.8224 9.53618C20.8536 9.51981 20.8879 9.51022 20.923 9.50803C21.1149 9.49926 21.307 9.49759 21.499 9.50303L20.804 7.29003ZM20.45 7.14003L20.435 7.14703L20.425 7.13503C20.377 7.07103 19.233 5.58003 19.082 5.30403C19.0504 5.23842 19.0363 5.1658 19.0408 5.09313C19.0454 5.02046 19.0685 4.95018 19.108 4.88903L19.122 4.86903L19.138 4.88903C19.148 4.90503 20.123 6.33703 20.47 6.88903C20.576 7.05803 20.451 7.13803 20.45 7.14003Z" fill="white"/>
<path d="M22.1631 9.68801C21.8641 9.62101 21.2991 9.61801 20.9611 9.63801H20.9241C20.9159 9.63951 20.9079 9.64152 20.9001 9.64401C20.8921 9.64748 20.8849 9.6526 20.8791 9.65901C20.8594 9.6725 20.8444 9.69178 20.8361 9.71418C20.8279 9.73657 20.8268 9.76098 20.8331 9.78401C21.0031 10.214 21.1531 10.546 21.3501 10.937C21.3666 10.9603 21.3909 10.9769 21.4186 10.9838C21.4462 10.9908 21.4755 10.9877 21.5011 10.975C21.5121 10.9695 21.5225 10.9628 21.5321 10.955C21.8391 10.662 22.0871 10.313 22.2651 9.92701C22.3201 9.80701 22.2871 9.71401 22.1631 9.68801ZM21.1821 10.268L21.0091 9.87101C21.0047 9.86254 21.0023 9.85321 21.002 9.84369C21.0017 9.83417 21.0035 9.8247 21.0074 9.81598C21.0112 9.80726 21.0169 9.79951 21.0242 9.79329C21.0314 9.78706 21.0399 9.78253 21.0491 9.78001C21.0547 9.77693 21.0608 9.77458 21.0671 9.77301C21.0671 9.77301 21.7821 9.74701 22.0051 9.79101C22.1251 9.81501 22.1291 9.85801 22.1291 9.85801L21.1821 10.268ZM18.5211 9.79701C18.5211 9.79701 18.3861 10.355 18.1731 10.999L17.7791 10.501L17.4601 10.647L18.0401 11.382C17.8601 11.877 17.6411 12.371 17.4091 12.662L17.9911 12.397C18.1231 12.274 18.2311 12.026 18.3141 11.727L18.6341 12.132L18.9541 11.986L18.4121 11.304C18.5301 10.682 18.5611 10.008 18.5211 9.79701Z" fill="white"/>
</g>
<defs>
<clipPath id="clip0_51_25">
<rect width="24" height="24" fill="white"/>
</clipPath>
</defs>
</svg>
