<svg width="24" height="24" viewBox="0 0 24 24" fill="none" xmlns="http://www.w3.org/2000/svg">
<path d="M12 21.25C17.1086 21.25 21.25 17.1086 21.25 12C21.25 6.89137 17.1086 2.75 12 2.75C6.89137 2.75 2.75 6.89137 2.75 12C2.75 17.1086 6.89137 21.25 12 21.25Z" stroke="white" stroke-width="1.5"/>
<path d="M4.72404 6.75597L5.48604 9.91297M5.48604 9.91297L2.94604 12.49M5.48604 9.91297L8.09904 11.147M9.00604 3.27197L11.873 4.90497M11.873 4.90497L15.139 3.27197M11.873 4.90497L11.982 7.95397M11.982 7.95397L8.10005 11.147L9.55005 15.611M11.982 7.95397L16.119 11.075M19.385 6.39397L18.732 9.69597M18.732 9.69597L21.054 12.309M18.732 9.69597L16.119 11.075M16.119 11.075L14.559 15.72L9.55005 15.611M19.857 17.026L16.155 17.606M16.155 17.606L14.812 20.619M16.155 17.606L14.558 15.72M9.00604 20.728L7.91704 17.643L4.97804 17.498M7.91805 17.643L9.55005 15.611" stroke="white" stroke-width="1.5"/>
</svg>
