<svg width="24" height="24" viewBox="0 0 24 24" fill="none" xmlns="http://www.w3.org/2000/svg">
<path d="M17.8125 3H5.8125C5.06658 3 4.35121 3.29632 3.82376 3.82376C3.29632 4.35121 3 5.06658 3 5.8125V17.8125C3 18.5584 3.29632 19.2738 3.82376 19.8012C4.35121 20.3287 5.06658 20.625 5.8125 20.625H17.8125C18.5584 20.625 19.2738 20.3287 19.8012 19.8012C20.3287 19.2738 20.625 18.5584 20.625 17.8125V5.8125C20.625 5.06658 20.3287 4.35121 19.8012 3.82376C19.2738 3.29632 18.5584 3 17.8125 3ZM19.5 17.8125C19.5 18.2601 19.3222 18.6893 19.0057 19.0057C18.6893 19.3222 18.2601 19.5 17.8125 19.5H5.8125C5.36495 19.5 4.93573 19.3222 4.61926 19.0057C4.30279 18.6893 4.125 18.2601 4.125 17.8125V5.8125C4.125 5.36495 4.30279 4.93573 4.61926 4.61926C4.93573 4.30279 5.36495 4.125 5.8125 4.125H17.8125C18.2601 4.125 18.6893 4.30279 19.0057 4.61926C19.3222 4.93573 19.5 5.36495 19.5 5.8125V17.8125ZM10.125 9.1875C10.125 9.37292 10.07 9.55418 9.967 9.70835C9.86399 9.86252 9.71757 9.98268 9.54627 10.0536C9.37496 10.1246 9.18646 10.1432 9.0046 10.107C8.82275 10.0708 8.6557 9.98152 8.52459 9.85041C8.39348 9.7193 8.30419 9.55225 8.26801 9.3704C8.23184 9.18854 8.25041 9.00004 8.32136 8.82873C8.39232 8.65743 8.51248 8.51101 8.66665 8.408C8.82082 8.30498 9.00208 8.25 9.1875 8.25C9.43614 8.25 9.6746 8.34877 9.85041 8.52459C10.0262 8.7004 10.125 8.93886 10.125 9.1875ZM15.375 9.1875C15.375 9.37292 15.32 9.55418 15.217 9.70835C15.114 9.86252 14.9676 9.98268 14.7963 10.0536C14.625 10.1246 14.4365 10.1432 14.2546 10.107C14.0727 10.0708 13.9057 9.98152 13.7746 9.85041C13.6435 9.7193 13.5542 9.55225 13.518 9.3704C13.4818 9.18854 13.5004 9.00004 13.5714 8.82873C13.6423 8.65743 13.7625 8.51101 13.9167 8.408C14.0708 8.30498 14.2521 8.25 14.4375 8.25C14.6861 8.25 14.9246 8.34877 15.1004 8.52459C15.2762 8.7004 15.375 8.93886 15.375 9.1875ZM10.125 14.4375C10.125 14.6229 10.07 14.8042 9.967 14.9583C9.86399 15.1125 9.71757 15.2327 9.54627 15.3036C9.37496 15.3746 9.18646 15.3932 9.0046 15.357C8.82275 15.3208 8.6557 15.2315 8.52459 15.1004C8.39348 14.9693 8.30419 14.8023 8.26801 14.6204C8.23184 14.4385 8.25041 14.25 8.32136 14.0787C8.39232 13.9074 8.51248 13.761 8.66665 13.658C8.82082 13.555 9.00208 13.5 9.1875 13.5C9.43614 13.5 9.6746 13.5988 9.85041 13.7746C10.0262 13.9504 10.125 14.1889 10.125 14.4375ZM15.375 14.4375C15.375 14.6229 15.32 14.8042 15.217 14.9583C15.114 15.1125 14.9676 15.2327 14.7963 15.3036C14.625 15.3746 14.4365 15.3932 14.2546 15.357C14.0727 15.3208 13.9057 15.2315 13.7746 15.1004C13.6435 14.9693 13.5542 14.8023 13.518 14.6204C13.4818 14.4385 13.5004 14.25 13.5714 14.0787C13.6423 13.9074 13.7625 13.761 13.9167 13.658C14.0708 13.555 14.2521 13.5 14.4375 13.5C14.6861 13.5 14.9246 13.5988 15.1004 13.7746C15.2762 13.9504 15.375 14.1889 15.375 14.4375Z" fill="white"/>
</svg>
