<svg width="24" height="24" viewBox="0 0 24 24" fill="none" xmlns="http://www.w3.org/2000/svg">
<path d="M12 21.25C17.1086 21.25 21.25 17.1086 21.25 12C21.25 6.89137 17.1086 2.75 12 2.75C6.89137 2.75 2.75 6.89137 2.75 12C2.75 17.1086 6.89137 21.25 12 21.25Z" stroke="white" stroke-width="1.5"/>
<path d="M11.0161 10.512H13.4961L12.2641 17.488H9.78406L11.0161 10.512ZM11.1441 8.04796C11.1441 7.62096 11.2941 7.25796 11.5921 6.95996C11.7332 6.81491 11.9025 6.70032 12.0897 6.62327C12.2768 6.54622 12.4777 6.50833 12.6801 6.51196C13.1071 6.51196 13.4701 6.66196 13.7681 6.95996C14.0671 7.25896 14.2161 7.62096 14.2161 8.04796C14.2161 8.47496 14.0661 8.83796 13.7681 9.13596C13.6269 9.281 13.4576 9.39559 13.2705 9.47264C13.0833 9.54969 12.8824 9.58758 12.6801 9.58396C12.2531 9.58396 11.8901 9.43396 11.5921 9.13596C11.4471 8.9948 11.3325 8.82544 11.2555 8.63832C11.1784 8.4512 11.1405 8.25029 11.1441 8.04796Z" fill="white"/>
</svg>
