<svg width="24" height="24" viewBox="0 0 24 24" fill="none" xmlns="http://www.w3.org/2000/svg">
<path d="M5.78702 13.528L5.56902 12.978C5.10502 11.808 4.78602 10.538 5.11702 9.32397M18.213 13.528L18.431 12.978C18.895 11.808 19.214 10.538 18.883 9.32397" stroke="white" stroke-width="1.5"/>
<path d="M7.16702 11.825H7.16602C6.39503 11.825 5.77002 12.45 5.77002 13.221V19.452C5.77002 20.2229 6.39503 20.848 7.16602 20.848H7.16702C7.93801 20.848 8.56302 20.2229 8.56302 19.452V13.221C8.56302 12.45 7.93801 11.825 7.16702 11.825Z" stroke="white" stroke-width="1.5"/>
<path fill-rule="evenodd" clip-rule="evenodd" d="M5.85999 12.7269C5.80199 12.8799 5.76999 13.0469 5.76999 13.2209V14.2349C5.6604 14.2084 5.54769 14.1969 5.43499 14.2009C4.87741 14.213 4.34674 14.443 3.95667 14.8416C3.56661 15.2402 3.34817 15.7757 3.34817 16.3334C3.34817 16.8911 3.56661 17.4267 3.95667 17.8253C4.34674 18.2239 4.87741 18.4539 5.43499 18.4659C5.64899 18.4659 5.73199 18.4309 5.75299 18.4189C5.76013 18.4056 5.76583 18.3915 5.76999 18.3769V19.4509C5.76999 19.6209 5.79999 19.7849 5.85699 19.9359C5.71899 19.9569 5.57699 19.9659 5.43499 19.9659C4.93923 19.9671 4.44847 19.8669 3.99292 19.6713C3.53737 19.4757 3.12667 19.1889 2.78611 18.8287C2.44554 18.4684 2.18232 18.0422 2.01263 17.5764C1.84295 17.1106 1.7704 16.615 1.79946 16.1201C1.82851 15.6251 1.95855 15.1414 2.18156 14.6987C2.40458 14.2559 2.71586 13.8634 3.09624 13.5455C3.47662 13.2275 3.91805 12.9908 4.39335 12.8499C4.86865 12.7089 5.36778 12.6667 5.85999 12.7259V12.7269ZM5.76999 17.3159V15.0989L5.76899 15.1169C5.74199 15.4219 5.70999 15.7919 5.70999 16.1869C5.70999 16.5719 5.73999 16.9469 5.76599 17.2669L5.76999 17.3159ZM5.75999 18.4149C5.75999 18.4149 5.75799 18.4149 5.75699 18.4169L5.75899 18.4159L5.75999 18.4149Z" fill="white"/>
<path d="M16.833 11.825H16.834C17.605 11.825 18.23 12.45 18.23 13.221V19.452C18.23 20.2229 17.605 20.848 16.834 20.848H16.833C16.062 20.848 15.437 20.2229 15.437 19.452V13.221C15.437 12.45 16.062 11.825 16.833 11.825Z" stroke="white" stroke-width="1.5"/>
<path fill-rule="evenodd" clip-rule="evenodd" d="M18.14 12.7269C18.198 12.8799 18.23 13.0469 18.23 13.2209V14.2349C18.3396 14.2082 18.4523 14.1967 18.565 14.2009C19.1226 14.213 19.6533 14.443 20.0433 14.8416C20.4334 15.2402 20.6518 15.7757 20.6518 16.3334C20.6518 16.8911 20.4334 17.4267 20.0433 17.8253C19.6533 18.2239 19.1226 18.4539 18.565 18.4659C18.351 18.4659 18.268 18.4309 18.247 18.4189C18.2399 18.4056 18.2342 18.3915 18.23 18.3769V19.4509C18.23 19.6209 18.2 19.7849 18.143 19.9359C18.281 19.9569 18.423 19.9659 18.565 19.9659C19.0608 19.9671 19.5515 19.8669 20.0071 19.6713C20.4626 19.4757 20.8733 19.1889 21.2139 18.8287C21.5545 18.4684 21.8177 18.0422 21.9874 17.5764C22.1571 17.1106 22.2296 16.615 22.2006 16.1201C22.1715 15.6251 22.0415 15.1414 21.8184 14.6987C21.5954 14.2559 21.2841 13.8634 20.9038 13.5455C20.5234 13.2275 20.082 12.9908 19.6067 12.8499C19.1314 12.7089 18.6322 12.6667 18.14 12.7259V12.7269ZM18.23 17.3159V15.0989L18.231 15.1169C18.258 15.4219 18.29 15.7919 18.29 16.1869C18.29 16.5719 18.26 16.9469 18.234 17.2669L18.23 17.3159ZM18.24 18.4149C18.24 18.4149 18.242 18.4149 18.243 18.4169L18.241 18.4159L18.24 18.4149Z" fill="white"/>
<path d="M5.03899 9.46495C4.19699 9.15795 3.67099 8.17095 4.12599 7.26295C4.85808 5.8019 5.98238 4.57344 7.37303 3.7151C8.76367 2.85677 10.3658 2.40243 12 2.40295C13.6342 2.40243 15.2363 2.85677 16.627 3.7151C18.0176 4.57344 19.1419 5.8019 19.874 7.26295C20.33 8.17095 19.803 9.15795 18.96 9.46495C18.072 9.78995 17.188 9.30795 16.8 8.59695C16.3307 7.73343 15.6371 7.01258 14.7923 6.51044C13.9475 6.00829 12.9828 5.74349 12 5.74395C11.0172 5.7437 10.0526 6.0086 9.20786 6.51072C8.36307 7.01283 7.66941 7.73357 7.19999 8.59695C6.81299 9.30795 5.92799 9.78995 5.03899 9.46495ZM5.03899 9.46495L5.28799 8.78495" stroke="white" stroke-width="1.5"/>
</svg>
