<svg width="24" height="24" viewBox="0 0 24 24" fill="none" xmlns="http://www.w3.org/2000/svg">
<path d="M14.0291 6.10999H19.8121C20.0773 6.10999 20.3316 6.21534 20.5192 6.40288C20.7067 6.59041 20.8121 6.84477 20.8121 7.10999V18.498C20.8121 18.7632 20.7067 19.0176 20.5192 19.2051C20.3316 19.3926 20.0773 19.498 19.8121 19.498H15.6821" stroke="white" stroke-width="1.5"/>
<path d="M6.59604 13.51H5.47404C5.22614 13.51 4.98707 13.4179 4.80321 13.2516C4.61936 13.0853 4.50383 12.8567 4.47904 12.61L3.89404 6.77002C3.90704 6.05002 4.31404 4.61002 5.84604 4.61002C6.18304 4.17902 6.87804 2.81702 9.91804 2.81702C12.169 2.81702 14.534 4.87702 14.534 6.76902L13.948 12.61C13.9233 12.8567 13.8077 13.0853 13.6239 13.2516C13.44 13.4179 13.2009 13.51 12.953 13.51H11.832" stroke="white" stroke-width="1.5" stroke-linecap="round"/>
<path d="M9.23796 21.187H4.61996C4.40666 21.1872 4.196 21.1397 4.00342 21.048C3.81085 20.9563 3.64123 20.8226 3.507 20.6569C3.37277 20.4911 3.27732 20.2974 3.22766 20.0899C3.17799 19.8825 3.17536 19.6666 3.21996 19.458L3.82296 16.616C3.91696 16.178 4.20996 15.808 4.61596 15.618L7.04996 14.478C7.22199 14.3972 7.36744 14.2691 7.46928 14.1086C7.57111 13.9482 7.62512 13.762 7.62496 13.572V13.221M9.21396 21.187H13.833C14.743 21.187 15.422 20.349 15.233 19.458L14.629 16.616C14.5829 16.3997 14.4873 16.197 14.3497 16.0238C14.2121 15.8507 14.0363 15.7117 13.836 15.618L11.403 14.478C11.2307 14.3974 11.0851 14.2693 10.9831 14.1088C10.8811 13.9484 10.8269 13.7621 10.827 13.572V13.221M6.40696 20.818V17.954M12.25 20.818V17.954M9.34596 13.22C7.27596 13.22 6.44296 11.811 6.42896 7.80998C6.42983 7.78316 6.44047 7.75757 6.45889 7.73805C6.47731 7.71853 6.50223 7.70641 6.52896 7.70398C7.22596 7.63198 7.81296 6.82098 8.07596 6.30098C8.0855 6.28378 8.09923 6.26925 8.11587 6.25876C8.13251 6.24826 8.15153 6.24214 8.17117 6.24094C8.19081 6.23974 8.21043 6.24352 8.22822 6.25192C8.24602 6.26031 8.2614 6.27306 8.27296 6.28898C8.69996 6.92898 9.83496 8.11298 11.973 8.68098C11.9946 8.68657 12.0138 8.69927 12.0274 8.71704C12.041 8.7348 12.0482 8.75661 12.048 8.77898C12.028 10.855 11.193 13.221 9.13096 13.221L9.34596 13.22Z" stroke="white" stroke-width="1.5" stroke-linecap="round"/>
<path d="M18.729 17.954C19.0935 17.954 19.389 17.6585 19.389 17.294C19.389 16.9295 19.0935 16.634 18.729 16.634C18.3645 16.634 18.069 16.9295 18.069 17.294C18.069 17.6585 18.3645 17.954 18.729 17.954Z" fill="white"/>
<path d="M18.729 8.63494C19.0935 8.63494 19.389 8.33945 19.389 7.97494C19.389 7.61043 19.0935 7.31494 18.729 7.31494C18.3645 7.31494 18.069 7.61043 18.069 7.97494C18.069 8.33945 18.3645 8.63494 18.729 8.63494Z" fill="white"/>
<path d="M14.264 11.197C14.264 11.197 14.823 9.78699 15.913 9.78699C18.203 9.78699 18.207 13.289 15.442 15.19L14.264 15.943" stroke="white" stroke-width="1.5" stroke-linecap="round"/>
</svg>
