<svg width="24" height="24" viewBox="0 0 24 24" fill="none" xmlns="http://www.w3.org/2000/svg">
<path d="M20.9929 18.364V2.97205H6.06494V18.364" stroke="white" stroke-width="1.5" stroke-linejoin="round"/>
<path d="M20.9929 18.364C20.9927 19.0706 20.7118 19.7482 20.212 20.2478C19.7123 20.7474 19.0346 21.028 18.3279 21.028H3.54395" stroke="white" stroke-width="1.5"/>
<path d="M17.932 18.364C17.9317 19.0706 17.6508 19.7482 17.1511 20.2478C16.6513 20.7474 15.9736 21.028 15.267 21.028H13.464M8.692 18.364C8.69173 19.0706 8.41084 19.7482 7.91109 20.2478C7.41133 20.7474 6.73363 21.028 6.027 21.028H4.224" stroke="white" stroke-width="1.5"/>
<path d="M5.87402 5.63599H3.40002V21.028C4.10665 21.028 4.78435 20.7473 5.28411 20.2478C5.78387 19.7482 6.06476 19.0706 6.06502 18.364" stroke="white" stroke-width="1.5" stroke-linejoin="round"/>
<path d="M8.69202 6.03101H11.938M8.69202 8.84401H11.938M8.69202 11.658H11.938" stroke="white" stroke-width="1.5" stroke-linecap="round"/>
<path d="M8.69202 18.364V14.468H17.932V18.364M14.413 6.03101H17.932V11.658H14.413V6.03101Z" stroke="white" stroke-width="1.5" stroke-linejoin="round"/>
</svg>
