<svg width="24" height="24" fill="none" xmlns="http://www.w3.org/2000/svg"><path d="M13.99 11.05h4.856v9.037a1 1 0 01-1 1H6.154a1 1 0 01-1-1V11.05h4.582m6.778 0h3.514a1 1 0 001-1V7.96a1 1 0 00-1-1H3.972a1 1 0 00-1 1v2.09a1 1 0 001 1h3.514" stroke="red" stroke-width="1.5"/><path stroke="red" stroke-width="1.5" d="M10.118 6.96v14.127h3.764V6.96z"/><path d="M12 6.593c0-3.488 5.335-5.237 5.335-1.88 0 1.501-2.933 1.88-5.335 1.88zm0 0c0-3.488-5.336-5.237-5.336-1.88 0 1.501 2.934 1.88 5.336 1.88z" stroke="red" stroke-width="1.5" stroke-linecap="round"/></svg>