<svg width="24" height="24" viewBox="0 0 24 24" fill="none" xmlns="http://www.w3.org/2000/svg">
<path d="M2.75 8.15005V7.40005C2.55109 7.40005 2.36032 7.47907 2.21967 7.61972C2.07902 7.76037 2 7.95114 2 8.15005H2.75ZM4.095 5.85205V5.10205C3.96407 5.10214 3.83545 5.1365 3.72192 5.20172C3.6084 5.26693 3.51392 5.36073 3.44789 5.47379C3.38185 5.58684 3.34657 5.71521 3.34553 5.84613C3.3445 5.97706 3.37776 6.10597 3.442 6.22005L4.095 5.85205ZM19.905 5.85205L20.558 6.22005C20.6223 6.10589 20.6555 5.97689 20.6545 5.84588C20.6534 5.71488 20.618 5.58644 20.5519 5.47336C20.4857 5.36027 20.3911 5.26649 20.2774 5.20134C20.1638 5.1362 20.035 5.10197 19.904 5.10205V5.85205H19.905ZM21.25 8.14905H22C22 7.95014 21.921 7.75937 21.7803 7.61872C21.6397 7.47807 21.4489 7.39905 21.25 7.39905V8.14905ZM21.25 15.8511V16.6011C21.4489 16.6011 21.6397 16.522 21.7803 16.3814C21.921 16.2407 22 16.05 22 15.8511H21.25ZM19.904 18.1481V18.8981C20.035 18.8981 20.1638 18.8639 20.2774 18.7988C20.3911 18.7336 20.4857 18.6398 20.5519 18.5267C20.618 18.4137 20.6534 18.2852 20.6545 18.1542C20.6555 18.0232 20.6223 17.8942 20.558 17.7801L19.904 18.1481ZM4.095 18.1481L3.442 17.7801C3.37776 17.8941 3.3445 18.023 3.34553 18.154C3.34657 18.2849 3.38185 18.4133 3.44789 18.5263C3.51392 18.6394 3.6084 18.7332 3.72192 18.7984C3.83545 18.8636 3.96407 18.898 4.095 18.8981V18.1481ZM2.75 15.8511H2C2 16.2651 2.336 16.6011 2.75 16.6011V15.8511ZM3.543 6.60705C3.543 6.71114 3.52248 6.81421 3.48262 6.91037C3.44275 7.00652 3.38433 7.09388 3.31068 7.16743C3.23703 7.24099 3.1496 7.29931 3.05339 7.33905C2.95719 7.37879 2.85409 7.40018 2.75 7.40005V8.89905C3.05107 8.89918 3.34922 8.83999 3.62742 8.72487C3.90561 8.60974 4.1584 8.44094 4.37134 8.22809C4.58427 8.01525 4.75319 7.76254 4.86844 7.48439C4.98368 7.20625 5.043 6.90812 5.043 6.60705H3.543ZM3.442 6.22005C3.506 6.33305 3.543 6.46505 3.543 6.60705H5.042C5.042 6.20005 4.936 5.81705 4.749 5.48405L3.442 6.22005ZM4.095 6.60205H19.905V5.10205H4.095V6.60205ZM19.251 5.48405C19.058 5.82683 18.9567 6.21365 18.957 6.60705H20.457C20.457 6.46505 20.494 6.33305 20.558 6.22005L19.251 5.48405ZM18.957 6.60705C18.957 6.90812 19.0163 7.20625 19.1316 7.48439C19.2468 7.76254 19.4157 8.01525 19.6287 8.22809C19.8416 8.44094 20.0944 8.60974 20.3726 8.72487C20.6508 8.83999 20.9489 8.89918 21.25 8.89905V7.39905C21.1459 7.39918 21.0428 7.37979 20.9466 7.34005C20.8504 7.30031 20.763 7.24199 20.6893 7.16843C20.6157 7.09488 20.5572 7.00752 20.5174 6.91137C20.4775 6.81521 20.457 6.71114 20.457 6.60705H18.957ZM20.5 8.14905V15.8511H22V8.14905H20.5ZM20.457 17.3931C20.457 16.9561 20.812 16.6011 21.25 16.6011V15.1011C20.9489 15.1009 20.6508 15.1601 20.3726 15.2752C20.0944 15.3904 19.8416 15.5592 19.6287 15.772C19.4157 15.9849 19.2468 16.2376 19.1316 16.5157C19.0163 16.7939 18.957 17.092 18.957 17.3931H20.457ZM20.558 17.7801C20.4918 17.6618 20.4564 17.5285 20.457 17.3931H18.957C18.957 17.7991 19.064 18.1831 19.251 18.5161L20.558 17.7801ZM19.904 17.3981H4.095V18.8981H19.905V17.3981H19.904ZM3.543 17.3931C3.54331 17.5286 3.50852 17.6619 3.442 17.7801L4.749 18.5161C4.936 18.1831 5.043 17.8001 5.043 17.3931H3.543ZM2.75 16.6011C3.188 16.6011 3.543 16.9561 3.543 17.3931H5.043C5.043 17.0921 4.98372 16.794 4.86853 16.5159C4.75335 16.2379 4.58452 15.9852 4.37169 15.7724C4.15886 15.5595 3.90619 15.3907 3.62811 15.2755C3.35003 15.1603 3.05199 15.1011 2.751 15.1011L2.75 16.6011ZM3.5 15.8511V8.14905L2 8.15005V15.8511H3.5ZM16.454 14.0581C16.304 14.3661 16.09 14.6071 15.811 14.7801C15.533 14.9531 15.169 15.0391 14.718 15.0391C14.154 15.0391 13.707 14.8961 13.376 14.6101C13.045 14.3251 12.88 13.8891 12.88 13.3021V11.3851H12V10.9351L14.143 8.96105H14.593V9.97605H16.138L16.128 11.3861H14.628V13.1781C14.6237 13.2711 14.6512 13.3628 14.706 13.4381C14.766 13.5051 14.853 13.5391 14.966 13.5391C15.0364 13.5417 15.1063 13.5262 15.169 13.4941C15.2379 13.4473 15.2957 13.3858 15.338 13.3141L16.454 14.0581Z" fill="white"/>
<path d="M7.61694 6.85803V17.172" stroke="white" stroke-width="1.5" stroke-linecap="round" stroke-dasharray="1 3"/>
</svg>
