<svg width="24" height="24" viewBox="0 0 24 24" fill="none" xmlns="http://www.w3.org/2000/svg">
<path d="M19.084 5.91699H4.91602C3.81145 5.91699 2.91602 6.81242 2.91602 7.91699V16.084C2.91602 17.1886 3.81145 18.084 4.91602 18.084H19.084C20.1886 18.084 21.084 17.1886 21.084 16.084V7.91699C21.084 6.81242 20.1886 5.91699 19.084 5.91699Z" stroke="white" stroke-width="1.5"/>
<path d="M13.847 8.14197H5.25002C5.1948 8.14197 5.15002 8.18674 5.15002 8.24197V15.758C5.15002 15.8132 5.1948 15.858 5.25002 15.858H13.847C13.9023 15.858 13.947 15.8132 13.947 15.758V8.24197C13.947 8.18674 13.9023 8.14197 13.847 8.14197Z" stroke="white" stroke-width="1.5"/>
<path d="M16.484 9.38599H18.65M16.484 12H18.65" stroke="white" stroke-width="1.5" stroke-linecap="round"/>
<path d="M9.96704 3.91298L11.897 5.84298L15.643 2.09998" stroke="white" stroke-width="1.5" stroke-linecap="round" stroke-linejoin="round"/>
<path d="M6.68506 18.124V20.23M17.3151 18.124V20.23" stroke="white" stroke-width="1.5" stroke-linecap="round"/>
</svg>
