<svg width="24" height="24" viewBox="0 0 24 24" fill="none" xmlns="http://www.w3.org/2000/svg">
<path d="M6.66699 16.8659L6.43899 17.2659C5.78499 18.4119 4.36299 18.8169 3.22699 18.1819C2.24799 17.6349 1.76699 16.4659 2.06499 15.3619L3.85099 8.76194C4.37099 6.84494 6.07099 5.51794 8.00799 5.51794H15.992C17.93 5.51794 19.63 6.84494 20.149 8.76194L21.935 15.3619C22.234 16.4659 21.752 17.6339 20.773 18.1819C19.637 18.8169 18.215 18.4119 17.561 17.2659L17.333 16.8659" stroke="white" stroke-width="1.5" stroke-linecap="round"/>
<path d="M9.19202 16.745C10.0204 16.745 10.692 16.0734 10.692 15.245C10.692 14.4166 10.0204 13.745 9.19202 13.745C8.36359 13.745 7.69202 14.4166 7.69202 15.245C7.69202 16.0734 8.36359 16.745 9.19202 16.745Z" fill="white"/>
<path d="M14.808 16.745C15.6364 16.745 16.308 16.0734 16.308 15.245C16.308 14.4166 15.6364 13.745 14.808 13.745C13.9796 13.745 13.308 14.4166 13.308 15.245C13.308 16.0734 13.9796 16.745 14.808 16.745Z" fill="white"/>
<path d="M15.766 12.379C16.1802 12.379 16.516 12.0432 16.516 11.629C16.516 11.2148 16.1802 10.879 15.766 10.879C15.3518 10.879 15.016 11.2148 15.016 11.629C15.016 12.0432 15.3518 12.379 15.766 12.379Z" fill="white"/>
<path d="M17.8 10.343C17.8 9.9288 17.4643 9.59302 17.05 9.59302C16.6358 9.59302 16.3 9.9288 16.3 10.343C16.3 10.7572 16.6358 11.093 17.05 11.093C17.4643 11.093 17.8 10.7572 17.8 10.343Z" fill="white"/>
<path d="M15.766 9.80896C16.1802 9.80896 16.516 9.47317 16.516 9.05896C16.516 8.64475 16.1802 8.30896 15.766 8.30896C15.3518 8.30896 15.016 8.64475 15.016 9.05896C15.016 9.47317 15.3518 9.80896 15.766 9.80896Z" fill="white"/>
<path d="M15.23 10.343C15.23 9.9288 14.8942 9.59302 14.48 9.59302C14.0658 9.59302 13.73 9.9288 13.73 10.343C13.73 10.7572 14.0658 11.093 14.48 11.093C14.8942 11.093 15.23 10.7572 15.23 10.343Z" fill="white"/>
<path fill-rule="evenodd" clip-rule="evenodd" d="M8.31995 8.22302C8.51886 8.22302 8.70962 8.30204 8.85028 8.44269C8.99093 8.58335 9.06995 8.77411 9.06995 8.97302V11.714C9.06995 11.9129 8.99093 12.1037 8.85028 12.2444C8.70962 12.385 8.51886 12.464 8.31995 12.464C8.12103 12.464 7.93027 12.385 7.78962 12.2444C7.64896 12.1037 7.56995 11.9129 7.56995 11.714V8.97302C7.56995 8.77411 7.64896 8.58335 7.78962 8.44269C7.93027 8.30204 8.12103 8.22302 8.31995 8.22302Z" fill="white"/>
<path fill-rule="evenodd" clip-rule="evenodd" d="M10.44 10.344C10.44 10.5429 10.3609 10.7337 10.2203 10.8743C10.0796 11.015 9.88886 11.094 9.68995 11.094H6.94995C6.75104 11.094 6.56027 11.015 6.41962 10.8743C6.27897 10.7337 6.19995 10.5429 6.19995 10.344C6.19995 10.1451 6.27897 9.95432 6.41962 9.81366C6.56027 9.67301 6.75104 9.59399 6.94995 9.59399H9.68995C9.88886 9.59399 10.0796 9.67301 10.2203 9.81366C10.3609 9.95432 10.44 10.1451 10.44 10.344Z" fill="white"/>
</svg>
