<svg xmlns="http://www.w3.org/2000/svg" width="93" height="32" fill="none"><path d="M.5 6A5.5 5.5 0 016 .5h81A5.5 5.5 0 0192.5 6v20a5.5 5.5 0 01-5.5 5.5H6A5.5 5.5 0 01.5 26V6z" fill="#000" stroke="#a6a6a6"/><path d="M38.358 21l-.977-2.716h-3.74L32.686 21H31l3.66-9.82h1.74L40.06 21h-1.7zm-1.398-4.094l-.916-2.662-.28-.843-.24-.843c-.12.55-.297 1.148-.53 1.8l-.883 2.55h2.85zM47.7 21h-1.58v-4.55c0-.57-.116-.997-.348-1.278s-.59-.42-1.1-.42c-.664 0-1.15.196-1.458.59s-.462 1.05-.462 1.973V21H41.18v-7.398h1.23l.22.97h.08c.223-.352.54-.624.95-.816s.865-.288 1.365-.288c1.775 0 2.662.903 2.662 2.71V21zm4.683.134c-.923 0-1.643-.335-2.16-1.003s-.776-1.608-.776-2.816.26-2.156.783-2.83 1.253-1.017 2.18-1.017c.972 0 1.712.36 2.22 1.077h.08a9.392 9.392 0 01-.114-1.258V10.59h1.58V21h-1.23l-.274-.97h-.074c-.504.736-1.242 1.104-2.214 1.104zm.42-1.27c.647 0 1.117-.18 1.412-.542s.446-.957.455-1.773v-.22c0-.932-.152-1.594-.455-1.987s-.778-.59-1.425-.59a1.44 1.44 0 00-1.278.676c-.3.446-.448 1.084-.448 1.913 0 .82.145 1.447.435 1.88s.725.642 1.304.642zm9.372-6.395c.317 0 .577.022.783.067L62.795 15a2.947 2.947 0 00-.696-.08c-.63 0-1.14.205-1.532.615s-.582.943-.582 1.6V21h-1.572v-7.398h1.23l.207 1.304h.08c.245-.442.564-.792.957-1.05s.823-.388 1.278-.388zm8.723 3.82c0 1.208-.3 2.152-.93 2.83s-1.483 1.017-2.59 1.017c-.69 0-1.302-.156-1.833-.468a3.09 3.09 0 01-1.224-1.345c-.285-.584-.428-1.262-.428-2.033 0-1.2.308-2.136.923-2.8s1.483-1 2.602-1c1.07 0 1.918.346 2.542 1.037s.937 1.614.937 2.783zm-5.385 0c0 1.708.63 2.562 1.893 2.562 1.25 0 1.873-.854 1.873-2.562 0-1.7-.63-2.535-1.886-2.535-.66 0-1.14.218-1.438.656s-.442 1.064-.442 1.88zM74.274 21h-1.572v-7.398h1.572V21zm-1.666-9.358c0-.28.076-.497.227-.65s.377-.227.662-.227c.277 0 .49.076.642.227s.234.368.234.65c0 .268-.078.48-.234.635s-.366.227-.642.227c-.285 0-.506-.076-.662-.227s-.227-.368-.227-.635zm6.415 9.492c-.923 0-1.643-.335-2.16-1.003s-.776-1.608-.776-2.816.26-2.156.783-2.83 1.253-1.017 2.18-1.017c.972 0 1.713.36 2.22 1.077h.08a9.392 9.392 0 01-.114-1.258V10.59h1.58V21h-1.23l-.274-.97h-.074c-.504.736-1.242 1.104-2.214 1.104zm.42-1.27c.647 0 1.117-.18 1.412-.542s.446-.957.455-1.773v-.22c0-.932-.152-1.594-.455-1.987s-.778-.59-1.425-.59a1.44 1.44 0 00-1.278.676c-.3.446-.448 1.084-.448 1.913 0 .82.145 1.447.435 1.88s.725.642 1.304.642z" fill="#fff"/><path d="M9.776 12.478c-.345 0-.637.12-.877.36a1.18 1.18 0 00-.361.865v5.168c0 .345.12.637.36.878a1.19 1.19 0 00.877.36c.344 0 .635-.12.872-.36a1.2 1.2 0 00.355-.878v-5.168a1.18 1.18 0 00-.361-.865 1.18 1.18 0 00-.866-.361zM19.73 7.84l.853-1.574c.056-.104.036-.184-.06-.24-.104-.048-.184-.024-.24.072l-.865 1.587A5.91 5.91 0 0017 7.178a5.93 5.93 0 00-2.416.505l-.865-1.587c-.056-.096-.136-.12-.24-.072-.096.056-.116.136-.06.24l.853 1.574a5.27 5.27 0 00-2.067 1.845 4.66 4.66 0 00-.769 2.59h11.118a4.66 4.66 0 00-.769-2.59c-.513-.8-1.198-1.404-2.055-1.845zm-4.934 2.3a.45.45 0 01-.331.138.43.43 0 01-.324-.138.46.46 0 01-.132-.33.46.46 0 01.132-.33.43.43 0 01.324-.138.45.45 0 01.331.138.45.45 0 01.138.33.45.45 0 01-.138.33zm5.066 0a.43.43 0 01-.324.138.45.45 0 01-.331-.138.45.45 0 01-.138-.33.45.45 0 01.138-.33.45.45 0 01.331-.138.43.43 0 01.324.138.46.46 0 01.132.33.46.46 0 01-.132.33zm-8.38 10.57c0 .37.128.68.384.938a1.27 1.27 0 00.938.384h.9l.012 2.73c0 .345.12.637.36.878a1.18 1.18 0 00.865.36c.344 0 .637-.12.877-.36s.36-.533.36-.878v-2.728h1.66v2.728c0 .345.12.637.36.878a1.19 1.19 0 00.877.36c.344 0 .637-.12.877-.36s.36-.533.36-.878v-2.728h.9a1.26 1.26 0 00.925-.384c.256-.256.385-.57.385-.937v-8.005h-11.03v8.005zm12.74-8.232a1.19 1.19 0 00-.865.354c-.24.237-.36.527-.36.87v5.168c0 .345.12.637.36.878a1.18 1.18 0 00.865.361c.344 0 .637-.12.877-.36s.36-.532.36-.878v-5.168a1.17 1.17 0 00-.36-.87 1.21 1.21 0 00-.877-.354z" fill="#a3c638"/></svg>