<svg width="80" height="28" fill="none" xmlns="http://www.w3.org/2000/svg"><path fill-rule="evenodd" clip-rule="evenodd" d="M50.762 1H29.238A2.246 2.246 0 0027 3.241V24.76A2.246 2.246 0 0029.238 27h21.524A2.246 2.246 0 0053 24.759V3.24A2.246 2.246 0 0050.762 1z" fill="#80A99F"/><path fill-rule="evenodd" clip-rule="evenodd" d="M50.432 1.45H29.459c-1.106 0-2.01.906-2.01 2.014v21.072c0 1.108.904 2.014 2.01 2.014h20.973c1.105 0 2.01-.906 2.01-2.014V3.464a2.018 2.018 0 00-2.01-2.014z" fill="#80A99F"/><path fill-rule="evenodd" clip-rule="evenodd" d="M29.873 16.965V9.799l-1.286.269v7.2l1.286-.303z" fill="#fff"/><path d="M31.831 15.792v-2.173c.002-.199.064-.449.201-.63.216-.285.713-.454.848-.034.06.188.052.295.052.483v2.805l1.228-.29v-3.24c0-.305-.05-.544-.148-.719a.69.69 0 00-.425-.34 1.34 1.34 0 00-.67.009 1.786 1.786 0 00-1.135.89l-.019.004v-.494l-1.168.275-.012 3.253c.143-.063.308-.095.473-.095.254 0 .558.114.775.296zm3.272-4.514l-.616.13v.931l.608-.15c.017 1.02-.082 2.39.113 3.342a.725.725 0 00.054.163l1.32-.311a.147.147 0 01-.018-.025c-.176-.323-.22-.718-.22-1.078l-.002-2.38.878-.207v-.921l-.878.203.002-1.002-1.25.298.009 1.007zM41 12.36c.01-.798.056-2.01-.968-2.202-.23-.044-.5-.05-.853.034a2.858 2.858 0 00-.825.322c-.224.137-.361.3-.498.48-.138.18-.242.377-.313.59-.07.213-.125.43-.148.663-.023.232-.052.468-.047.709.004.225.008.45.03.671.033.35.189.869.465 1.1.154.13.308.213.499.251.23.046.523.02.873-.064.382-.091.734-.226.981-.41.248-.186.45-.413.572-.685.122-.271.154-.609.161-.96l-1.128.267c.047.248-.087.806-.599.866-.61.07-.627-.59-.603-1.08L41 12.36zm-2.399-.196c-.004-.217.005-.227.037-.418.019-.109.05-.213.096-.311a.79.79 0 01.19-.254.685.685 0 01.301-.153c.167-.04.29-.024.381.035.166.106.2.345.208.52.005.091.007.19.004.295l-1.217.286zm2.862 2.1l1.229-.287v-2.419c.014-.42.096-.786.4-1.033.077-.063.236-.143.383-.194.168-.06.297-.06.471-.075.007 0 .014-.002.02-.003v-.016l-.005-1.134c-.362-.018-.68.125-.94.4a2.016 2.016 0 00-.381.578l-.018.004.005-.59-1.164.28v4.49zm3.935-4.02v-.123c0-.116.017-.237.06-.332a.624.624 0 01.192-.241.598.598 0 01.302-.136c.233-.03.39-.033.47.238.014.043.013.093.013.146a.649.649 0 01-.046.258.528.528 0 01-.156.197c-.072.06-.13.113-.254.167l-.71.309a3.215 3.215 0 00-.551.309 1.69 1.69 0 00-.381.354c-.099.129-.179.28-.226.442a2.264 2.264 0 00-.057.588c0 .152.039.296.08.437a.937.937 0 00.216.352c.091.105.214.2.364.244.15.044.358.072.574.028.196-.04.37-.092.519-.157a1.36 1.36 0 00.398-.261c.116-.109.23-.263.325-.437l.016-.002c.017.072.027.128.05.205a.865.865 0 00.092.21l1.133-.267c-.042-.075-.081-.132-.104-.207a1.304 1.304 0 01-.045-.258c-.008-.096-.027-.224-.028-.36l-.01-2.338a1.93 1.93 0 00-.094-.541.748.748 0 00-.268-.377c-.125-.096-.238-.151-.47-.169a3.26 3.26 0 00-.887.075 3.325 3.325 0 00-.668.223 2.06 2.06 0 00-.53.367c-.156.14-.267.355-.355.55-.087.193-.112.424-.112.679v.107l1.148-.279zm1.01 1.452a.822.822 0 01-.099.336.812.812 0 01-.084.14c-.175.23-.568.423-.827.225a.29.29 0 01-.092-.129.757.757 0 01.082-.656l.053-.074c.143-.148.324-.258.531-.341a3.146 3.146 0 00.45-.283l-.014.782zm5.377-2.72c-.003-.356-.023-.665-.143-.903a.86.86 0 00-.55-.472c-.265-.081-.592-.075-.98.008a3.1 3.1 0 00-.808.273 2.09 2.09 0 00-.639.528c-.175.217-.292.494-.387.822-.095.328-.114.722-.11 1.183.002.45.06.81.14 1.098.08.288.195.501.353.648a.93.93 0 00.557.272c.235.027.511.004.827-.066.443-.1.766-.252 1.034-.463.62-.49.701-1.125.7-1.834l-1.175.272c-.017.37.04.736-.3.976a.603.603 0 01-.222.088c-.188.041-.33.02-.428-.066-.1-.088-.142-.248-.179-.472-.037-.223-.043-.359-.046-.728a7.556 7.556 0 01.02-.683c.017-.198.056-.366.106-.504.085-.234.308-.46.557-.507.348-.065.435.144.473.439.015.112.02.224.015.279-.003.028 0 .057 0 .086l1.185-.274zm-.865-3.009h.083c.04 0 .071.01.092.032.021.022.032.054.032.097a.18.18 0 01-.016.08.095.095 0 01-.045.045.166.166 0 01-.073.014h-.074v-.268zm-.178.79h.177v-.392h.095c.036 0 .062.01.079.031.016.02.025.049.026.086l.005.178c0 .018.002.036.005.052a.122.122 0 00.018.045h.192V6.75a.056.056 0 01-.025-.03.198.198 0 01-.011-.055 1.122 1.122 0 01-.003-.082c0-.049-.003-.09-.006-.125a.284.284 0 00-.02-.084.113.113 0 00-.044-.05.18.18 0 00-.072-.024v-.003a.175.175 0 00.082-.041.185.185 0 00.049-.078.338.338 0 00.016-.11.286.286 0 00-.029-.132.186.186 0 00-.08-.08.274.274 0 00-.126-.026h-.328v.927z" fill="#fff"/><path fill-rule="evenodd" clip-rule="evenodd" d="M51.023 5.504a.767.767 0 00-.765.769c0 .424.343.769.765.769a.767.767 0 00.765-.77.767.767 0 00-.765-.768zm0 .094a.673.673 0 00-.672.675c0 .373.301.675.672.675a.673.673 0 00.672-.675.673.673 0 00-.672-.675zM34.672 25.593h-2.377a1.07 1.07 0 01-.077.003c-.248.002-.59-.126-.893-.278-.939-.47-1.101-1.453-1.101-2.373v-6.248c0-.446.364-.812.81-.812a.82.82 0 01.811.812c.026 1.116-.08 2.882.001 3.848.012.137.106.188.184.185.073-.003.143-.048.155-.16.064-.616-.041-2.372 0-3.182a193 193 0 001.91 1.283c.407.27.602.482.602 1.232l-.025 5.69zm-4.782-8.239l-1.519.355-.13.03c-.06.016-.098.066-.125.128a.765.765 0 00.218.86c.159.127.382.18.655.116l.9-.209v-1.28zm0 1.656l-1.519.356-.13.03c-.06.016-.098.065-.125.128a.765.765 0 00.218.86c.159.127.382.18.655.116l.9-.21v-1.28zm0 1.647l-1.519.355-.13.03c-.06.016-.098.065-.125.128a.765.765 0 00.218.86c.159.127.382.18.655.116l.9-.21v-1.28z" fill="#fff"/></svg>