<svg xmlns="http://www.w3.org/2000/svg" viewBox="0 0 272.917 92.105"><path d="M43.255 14.008a27.49 27.49 0 00-40.763 11.1zM55 36.542a27.365 27.365 0 00-4.555-15.155L.037 35.11Q0 35.821 0 36.542a27.366 27.366 0 005.153 16.017l49.731-13.538A28.21 28.21 0 0055 36.542zM12.838 59.803a27.489 27.489 0 0039.094-10.642zM67 0h4.746v73.233H67zm16.75 45.625h14.5a4.355 4.355 0 00.156.885 3.917 3.917 0 001.75 2.438 3.752 3.752 0 003.031.219 3.864 3.864 0 002-1.687V9.042h15.063v38.625a15.488 15.488 0 01-.25 2.083 17.916 17.916 0 01-6.208 10.125 18.774 18.774 0 01-6.833 3.625 17.815 17.815 0 01-10.375-.042 18.15 18.15 0 01-6.25-3.583 17.7 17.7 0 01-4.792-5.667 16.852 16.852 0 01-1.868-7.332zm79.083 1.167A21.05 21.05 0 00161 32.625a16.872 16.872 0 00-16.75-9.417 19.23 19.23 0 00-11.167 4.083 18.794 18.794 0 00-4.667 5.583 22.058 22.058 0 00-2.75 10.583 21.591 21.591 0 00.334 4.835 19.546 19.546 0 0025.083 15.25 18.439 18.439 0 009.25-6.667 16.473 16.473 0 001.25-2.083l-10.75-3.083a6.752 6.752 0 01-2 1.417 7.84 7.84 0 01-3.833.583 8.567 8.567 0 01-3.5-.667c-.253-.115-3.394-1.6-4-4.75a5.654 5.654 0 01-.083-1.5zM140 35.375a7.61 7.61 0 014.875-1.833 7.978 7.978 0 014.84 1.909 7.783 7.783 0 012.119 3.029h-13.917A7.4 7.4 0 01140 35.375zm30.875-22.083H182v11.125h7.5v10.375h-7.375v16.875a4.518 4.518 0 00.4.338c2.18 1.644 5.317.893 6.727.454v9.49a11.819 11.819 0 01-1.118.578 13.269 13.269 0 01-11.382-.3 11.008 11.008 0 01-4.292-3.729 10.792 10.792 0 01-1.75-5.208V34.75h-4.375V24.417h4.5zm42.556 9.872c-10.9 0-19.729 9.234-19.729 20.624s8.833 20.624 19.729 20.624 19.729-9.234 19.729-20.624-8.833-20.624-19.729-20.624zm0 30.261c-4.617 0-8.36-4.315-8.36-9.637s3.743-9.637 8.36-9.637 8.36 4.315 8.36 9.637-3.743 9.637-8.36 9.637zm24.944 9.242v-38.5h11.208v2.375a10.87 10.87 0 012.236-1.732A13.336 13.336 0 01260 23.417a14.843 14.843 0 016.333 1.625c5.211 2.9 6.383 9.08 6.583 10.25v27.375h-11.291V38.855a5.1 5.1 0 00-5.5-4.75 6.016 6.016 0 00-4.187 1.313A5.915 5.915 0 00250 38.479v24.188zm-41.081 23.391l.408 1.848h.12l.336-1.9 2.04-6.24h3.36l-5.016 12.12h-1.9l-5.208-12.12h3.624zm6.551-.289a6.755 6.755 0 011.488-4.692 5.346 5.346 0 014.176-1.644 6.271 6.271 0 012.5.456 4.658 4.658 0 011.752 1.284 5.489 5.489 0 011.044 2 9.11 9.11 0 01.348 2.592 6.791 6.791 0 01-1.476 4.692 5.308 5.308 0 01-4.164 1.644 6.269 6.269 0 01-2.5-.456 4.76 4.76 0 01-1.764-1.284 5.377 5.377 0 01-1.056-2 9.088 9.088 0 01-.348-2.592zm3.216 0a7 7 0 00.144 1.464 4.085 4.085 0 00.432 1.176 2.081 2.081 0 00.756.78 2.153 2.153 0 001.116.276 2.05 2.05 0 001.824-.889 5.119 5.119 0 00.6-2.808 5.619 5.619 0 00-.552-2.676 1.955 1.955 0 00-1.872-1.021 2.124 2.124 0 00-1.8.864 4.8 4.8 0 00-.648 2.834zm13.248-6v6.816a4.727 4.727 0 00.348 2.111 1.4 1.4 0 001.356.648 2.125 2.125 0 001.476-.528 3.232 3.232 0 00.876-1.3v-7.752h3.12v8.352a19.04 19.04 0 00.1 1.933 12.011 12.011 0 00.288 1.716h-2.352l-.552-1.776h-.1a4.5 4.5 0 01-1.536 1.513 4.391 4.391 0 01-2.328.6 5.141 5.141 0 01-1.632-.24 2.673 2.673 0 01-1.2-.792 3.69 3.69 0 01-.732-1.487 9.232 9.232 0 01-.252-2.353v-7.464zm18.408 11.256a5.2 5.2 0 01-1.74.8 7.981 7.981 0 01-2.1.276 5.838 5.838 0 01-2.436-.456 4.144 4.144 0 01-1.62-1.284 5.292 5.292 0 01-.9-2 11.336 11.336 0 01-.276-2.592 7.15 7.15 0 011.368-4.692A4.887 4.887 0 01235 79.434a8.477 8.477 0 012.124.216 7.278 7.278 0 011.452.552l-.744 2.544a6.275 6.275 0 00-1.092-.407 4.779 4.779 0 00-1.236-.145 2.355 2.355 0 00-1.968.853 4.406 4.406 0 00-.672 2.724 5.636 5.636 0 00.168 1.416 3.444 3.444 0 00.5 1.128 2.35 2.35 0 00.876.756 2.725 2.725 0 001.26.276 3.9 3.9 0 001.344-.2 4.688 4.688 0 00.984-.492zm9.241.744v-6.816a4.124 4.124 0 00-.408-2.111 1.619 1.619 0 00-1.488-.648 2.24 2.24 0 00-1.452.54 2.564 2.564 0 00-.876 1.38v7.656h-3.12v-16.8h3.12v6.143h.1a4.333 4.333 0 011.416-1.224 4.452 4.452 0 012.136-.456 4.927 4.927 0 011.608.24 2.615 2.615 0 011.164.792 3.59 3.59 0 01.7 1.5 10.2 10.2 0 01.228 2.34v7.464zm15.335-1.027a6.117 6.117 0 01-1.956.973 8.574 8.574 0 01-2.628.4 5.1 5.1 0 01-4.248-1.692 7.277 7.277 0 01-1.344-4.644 6.645 6.645 0 011.512-4.752 5.594 5.594 0 014.248-1.584 6.6 6.6 0 011.776.24 4.134 4.134 0 011.536.792 3.908 3.908 0 011.08 1.487 5.847 5.847 0 01.407 2.328 10.439 10.439 0 01-.06 1.08q-.06.576-.18 1.2h-7.2a3.513 3.513 0 00.78 2.28 2.989 2.989 0 002.292.768 5.1 5.1 0 002.951-.912zm-4.464-8.808a2.186 2.186 0 00-1.812.731 3.61 3.61 0 00-.708 1.956h4.464a3.022 3.022 0 00-.4-1.991 1.765 1.765 0 00-1.544-.7zm13.679.763a4.071 4.071 0 00-1.344-.264 2.2 2.2 0 00-1.4.444 2.137 2.137 0 00-.756 1.14v7.752h-3.12v-12h2.424l.36 1.584h.1a3.272 3.272 0 011.1-1.368 2.81 2.81 0 011.633-.479 4.551 4.551 0 011.416.264z" fill="#76aa9f"/></svg>