<svg xmlns="http://www.w3.org/2000/svg" width="307.769" height="74.901" viewBox="0 0 230.827 56.176"><g data-name="Layer 1"><path d="M65.686 0l-1.409.04-1.433.105-1.399.18L60.06.57l-1.352.312-1.336.38-1.3.444-1.278.501-1.242.57-1.203.618-1.176.67-1.137.731-1.097.786-1.064.831-1.01.883-.977.926-.93.981-.883 1.02-.832 1.053-.773 1.098-.732 1.146-.676 1.167-.623 1.211-.559 1.243-.504 1.27-.434 1.304-.379 1.328-.312 1.354-.246 1.376-.18 1.403-.105 1.422-.039 1.437.04 1.45.104 1.433.18 1.402.246 1.39.312 1.356.38 1.336.433 1.31.504 1.276.56 1.25.622 1.211.676 1.18.732 1.144.773 1.102.832 1.058.883 1.024.93.976.976.938 1.011.883 1.064.831 1.097.785 1.137.731 1.176.684 1.203.617 1.242.567 1.277.504 1.301.444 1.336.38 1.352.308 1.386.25 1.4.18 1.432.102 1.442.038 1.445-.038 1.434-.102 1.402-.18 1.391-.25 1.355-.309 1.34-.379 1.305-.444 1.281-.504 1.246-.567 1.214-.617 1.177-.684 1.148-.73 1.098-.786 1.058-.83 1.024-.884.975-.938.94-.976.882-1.024.832-1.058.79-1.102.73-1.144.678-1.18.614-1.21.57-1.25.504-1.278.446-1.309.38-1.336.311-1.356.246-1.39.18-1.402.104-1.434.036-1.449-.036-1.437-.104-1.422-.18-1.403-.246-1.376-.312-1.354-.379-1.328-.446-1.305-.504-1.269-.57-1.243-.614-1.21-.679-1.168-.73-1.146-.789-1.098-.832-1.053-.883-1.02-.939-.98-.975-.927-1.024-.883-1.058-.83-1.098-.787-1.148-.73-1.177-.67-1.214-.619-1.246-.57-1.28-.5-1.306-.445-1.34-.38L71.391.57l-1.39-.246-1.403-.179L67.164.04 65.752 0z" fill="#76aa9f"/><path d="M28.108 0l-1.417.04-1.429.105-1.403.18-1.394.245-1.357.312-1.335.38-1.309.444-1.276.501-1.25.57-1.215.618-1.176.67-1.145.731-1.102.786-1.058.831-1.023.883-.977.926-.937.981-.879 1.02-.836 1.053-.785 1.098-.73 1.146-.684 1.167-.615 1.211-.569 1.243-.5 1.27-.445 1.304-.379 1.328-.314 1.354-.245 1.376-.183 1.403-.103 1.422L0 28.035l.038 1.45.103 1.433.183 1.402.245 1.39.314 1.356.38 1.336.444 1.31.5 1.276.57 1.25.614 1.211.683 1.18.731 1.144.785 1.102.836 1.058.88 1.024.936.976.977.938 1.023.883 1.058.831 1.102.785 1.145.731 1.176.684 1.215.617 1.25.567 1.276.504 1.31.444 1.334.38 1.357.308 1.394.25 1.403.18 1.43.102 1.45.038 1.436-.038 1.434-.102 1.402-.18 1.383-.25 1.355-.309 1.336-.379 1.297-.444 1.281-.504 1.24-.567 1.202-.617 1.176-.684 1.136-.73 1.101-.786 1.06-.83 1.015-.884.976-.938.926-.976.883-1.024.831-1.058.78-1.102.73-1.144.671-1.18.624-1.21.56-1.25.502-1.278.435-1.309.38-1.336.315-1.356.243-1.39.183-1.402.102-1.434.04-1.449-.04-1.437-.102-1.422-.183-1.403-.243-1.376-.316-1.354-.379-1.328-.435-1.305-.503-1.269-.559-1.243-.624-1.21-.672-1.168-.73-1.146-.779-1.098-.83-1.053-.884-1.02-.926-.98-.976-.927-1.016-.883-1.059-.83-1.1-.787-1.137-.73-1.176-.67-1.203-.619-1.239-.57-1.28-.5-1.298-.445-1.336-.38L33.797.57 32.414.324 31.012.145 29.578.04 28.174 0z" fill="#5d9186"/><path d="M43.641 10.773h14.921V9.246H44.93zm-2.235 3.39h17.156v-1.526H42.305zm-1.668 3.384h18.824v-1.524h-18.16zm-1.148 3.39h19.972v-1.523H39.066zm.664 16.395H58.61v-1.527H38.781zm1.43 3.39H58.61v-1.527H39.973zm2.007 3.384H58.61v-1.528H41.74zm2.77 3.39H58.61V45.96H44.125zm-7.543-23.172h20.644v-1.527h-20.35zM50.5 33.949h7.875v-1.527h-7.59zm.625-3.383h7.25V29.03H51.41zM37.398 29.03h2.047v1.535h-1.953z" fill="#76aa9f" fill-rule="evenodd"/><path d="M33.578 27.184l-.133-.012-.133-.016-.12-.019-.126-.02-.113-.019-.12-.02-.126-.016-.266-.039-.152-.01-.168-.009-.18-.012h-.199l-.219.012-.246.02-.273.02-.192.026-.179.028-.164.058-.14.055-.134.066-.12.078-.098.094-.086.086-.055.102-.047.105-.019.113v.114l.027.125.04.121.073.125.098.125.187.176.231.144.262.121.285.106.304.093.31.106.315.113.301.125.285.16.266.2.238.238.2.293.148.36.098.425.035.512-.035.597-.067.446-.113.386-.153.36-.19.312-.216.278-.25.234-.265.211-.289.18-.309.14-.309.125-.324.094-.332.074-.32.06-.313.026-.312.02-.293.008h-.41l-.379-.008h-.332l-.313-.008-.285-.012-.254-.019-.226-.016-.219-.03-.199-.02-.18-.036-.18-.03-.16-.048-.164-.035-.148-.059-.153-.055-.16-.058.426-2.094.086.02.101.027.133.04.164.038.168.035.192.04.207.046.226.04.238.034.247.04.253.027.266.031.274.008.281.008h.27l.277-.008.273-.055.22-.078.167-.102.137-.132.093-.137.075-.152.046-.149.04-.14.02-.278-.087-.238-.16-.187-.238-.16-.286-.145-.332-.14-.367-.134-.37-.152-.38-.168-.359-.199-.332-.246-.3-.293-.239-.363-.172-.426-.086-.512.012-.605.047-.372.066-.35.094-.32.113-.302.152-.285.172-.246.2-.239.238-.207.273-.179.301-.153.344-.144.38-.102.424-.086.465-.066.512-.039.56-.008h.346l.324.008.293.011.266.008.238.02.22.02.187.02.171.018.161.016.132.027.121.02.118.02.093.02.086.011.082.02.078.007z" fill="#fff" fill-rule="evenodd"/><path stroke-width=".162" stroke-miterlimit="2.613" fill="none" stroke="#fff" d="M33.578 27.184l-.133-.012-.133-.016-.12-.019-.126-.02-.113-.019-.12-.02-.126-.016-.266-.039-.152-.01-.168-.009-.18-.012h-.199l-.219.012-.246.02-.273.02-.192.026-.179.028-.164.058-.14.055-.134.066-.12.078-.098.094-.086.086-.055.102-.047.105-.019.113v.114l.027.125.04.121.073.125.098.125.187.176.231.144.262.121.285.106.304.093.31.106.315.113.301.125.285.16.266.2.238.238.2.293.148.36.098.425.035.512-.035.597-.067.446-.113.386-.153.36-.19.312-.216.278-.25.234-.265.211-.289.18-.309.14-.309.125-.324.094-.332.074-.32.06-.313.026-.312.02-.293.008h-.41l-.379-.008h-.332l-.313-.008-.285-.012-.254-.019-.226-.016-.219-.03-.199-.02-.18-.036-.18-.03-.16-.048-.164-.035-.148-.059-.153-.055-.16-.058.426-2.094.086.02.101.027.133.04.164.038.168.035.192.04.207.046.226.04.238.034.247.04.253.027.266.031.274.008.281.008h.27l.277-.008.273-.055.22-.078.167-.102.137-.132.093-.137.075-.152.046-.149.04-.14.02-.278-.087-.238-.16-.187-.238-.16-.286-.145-.332-.14-.367-.134-.37-.152-.38-.168-.359-.199-.332-.246-.3-.293-.239-.363-.172-.426-.086-.512.012-.605.047-.372.066-.35.094-.32.113-.302.152-.285.172-.246.2-.239.238-.207.273-.179.301-.153.344-.144.38-.102.424-.086.465-.066.512-.039.56-.008h.346l.324.008.293.011.266.008.238.02.22.02.187.02.171.018.161.016.132.027.121.02.118.02.093.02.086.011.082.02.078.007-.484 2.141"/><path d="M35.824 22.703h2.625l-.39 2.293h1.586l-.344 2.141-1.668-.047-.91 5.285-.008.191.047.16.093.125.125.102.172.067.188.058.207.035.23.02.207-.008.188-.02.172-.027.152-.039.125-.039.141-.047.02-.008-.333 1.762-.066.047-.067.04-.066.034-.066.04-.067.027-.074.031-.172.054-.094.028-.097.02-.227.038-.12.02-.145.02-.153.02-.16.015h-.719l-.383-.028-.328-.039-.3-.054-.258-.067-.219-.086-.18-.094-.16-.113-.125-.125-.094-.133-.07-.16-.043-.164-.03-.176-.009-.199v-.207l.027-.219.032-.238z" fill="#fff" fill-rule="evenodd"/><path stroke-width=".162" stroke-miterlimit="2.613" fill="none" stroke="#fff" d="M35.824 22.703h2.625l-.39 2.293h1.586l-.344 2.141-1.668-.047-.91 5.285-.008.191.047.16.093.125.125.102.172.067.188.058.207.035.23.02.207-.008.188-.02.172-.027.152-.039.125-.039.141-.047.02-.008-.333 1.762-.066.047-.067.04-.066.034-.066.04-.067.027-.074.031-.172.054-.094.028-.097.02-.227.038-.12.02-.145.02-.153.02-.16.015h-.719l-.383-.028-.328-.039-.3-.054-.258-.067-.219-.086-.18-.094-.16-.113-.125-.125-.094-.133-.07-.16-.043-.164-.03-.176-.009-.199v-.207l.027-.219.032-.238 1.808-10.336"/><path stroke-width=".162" stroke-miterlimit="2.613" fill="none" stroke="#fff" d="M41.738 30.707l-.031.16-.008.172.02.18.035.179.066.18.078.176.106.176.109.16.133.164.145.141.152.144.168.109.172.106.19.086.189.066.19.039.243.035.239.032.25.027.242.02.246.007h.258l.246-.007.254-.02.258-.039.257-.047.266-.055.254-.086.265-.105.274-.113.266-.153.273-.16-.38 2.332-.151.075-.15.078-.151.054-.141.059-.144.047-.153.047-.152.035-.16.031-.168.027-.191.02-.2.019-.218.02-.246.008h-.254l-.293.008h-.317l-.461-.008-.472-.047-.477-.066-.473-.114-.464-.14-.446-.184-.426-.234-.398-.278-.371-.32-.32-.387-.274-.437-.23-.504-.16-.559-.102-.636-.031-.7.05-.777.036-.301.054-.351.079-.368.105-.402.14-.406.172-.406.215-.418.266-.399.305-.379.367-.359.418-.32.476-.286.547-.238.617-.172.68-.109.77-.039.37.008.387.039.39.066.388.094.379.144.37.168.34.231.313.262.285.324.239.379.187.433.133.504.074.567.012.644-.067.719-.144.801-.047.578h-6.906l.437-1.871h4.149l.019-.235-.012-.226-.02-.211-.034-.188-.067-.179-.066-.164-.094-.141-.097-.133-.11-.113-.125-.094-.144-.086-.141-.074-.152-.059-.153-.039-.16-.027-.168-.02-.183.012-.168.028-.16.039-.165.054-.16.074-.14.09-.145.102-.121.113-.125.133-.113.141-.102.152-.086.164-.086.172-.066.187-.06.188-.038.199-.375 1.961"/><path d="M64.332 25.562l-.121-.066-.121-.055-.137-.066-.141-.066-.144-.059-.156-.055-.164-.058-.168-.059-.18-.043-.184-.039-.199-.039-.195-.027-.438-.04h-.699l-.25.02-.254.028-.265.046-.266.075-.266.105-.265.133-.266.172-.254.207-.25.246-.234.305-.227.35-.207.415-.199.477-.184.53-.148.606-.059.34-.035.332-.019.332.008.325.027.32.066.305.086.28.106.286.14.258.172.242.199.219.227.199.254.172.293.14.324.125.359.086.125.028.141.027.172.02.191.019.203.02h.458l.238-.02.246-.031.246-.047.234-.062.239-.08.238-.104.215-.121.199-.153.191-.167-.425 2.527-.059.047-.055.058-.078.067-.082.054-.105.075-.133.07-.152.066-.168.055-.219.066-.25.047-.281.039-.332.039-.368.02-.429.008-.481-.008-.531-.031-.438-.047-.437-.094-.434-.141-.433-.191-.418-.226-.399-.286-.379-.332-.351-.375-.313-.429-.265-.473-.227-.531-.172-.578-.113-.633-.039-.676.02-.738.105-.785.078-.387.082-.383.094-.367.098-.352.101-.332.125-.332.121-.312.133-.293.145-.293.14-.278.16-.265.172-.242.172-.239.188-.226.187-.211.203-.199.215-.188.219-.18.23-.164.235-.152.257-.141.254-.121.266-.113.273-.105.297-.094.289-.078.305-.067.324-.054.321-.051.339-.035.344-.02.36-.012.304.012.293.02.285.027.282.039.265.035.258.059.246.047.227.058.218.055.192.059.18.058.148.055.133.047.113.039.086.039.059.019z" fill="#fff" fill-rule="evenodd"/><path stroke-width=".162" stroke-miterlimit="2.613" fill="none" stroke="#fff" d="M64.332 25.562l-.121-.066-.121-.055-.137-.066-.141-.066-.144-.059-.156-.055-.164-.058-.168-.059-.18-.043-.184-.039-.199-.039-.195-.027-.438-.04h-.699l-.25.02-.254.028-.265.046-.266.075-.266.105-.265.133-.266.172-.254.207-.25.246-.234.305-.227.35-.207.415-.199.477-.184.53-.148.606-.059.34-.035.332-.019.332.008.325.027.32.066.305.086.28.106.286.14.258.172.242.199.219.227.199.254.172.293.14.324.125.359.086.125.028.141.027.172.02.191.019.203.02h.458l.238-.02.246-.031.246-.047.234-.062.239-.08.238-.104.215-.121.199-.153.191-.167-.425 2.527-.059.047-.055.058-.078.067-.082.054-.105.075-.133.07-.152.066-.168.055-.219.066-.25.047-.281.039-.332.039-.368.02-.429.008-.481-.008-.531-.031-.438-.047-.437-.094-.434-.141-.433-.191-.418-.226-.399-.286-.379-.332-.351-.375-.313-.429-.265-.473-.227-.531-.172-.578-.113-.633-.039-.676.02-.738.105-.785.078-.387.082-.383.094-.367.098-.352.101-.332.125-.332.121-.312.133-.293.145-.293.14-.278.16-.265.172-.242.172-.239.188-.226.187-.211.203-.199.215-.188.219-.18.23-.164.235-.152.257-.141.254-.121.266-.113.273-.105.297-.094.289-.078.305-.067.324-.054.321-.051.339-.035.344-.02.36-.012.304.012.293.02.285.027.282.039.265.035.258.059.246.047.227.058.218.055.192.059.18.058.148.055.133.047.113.039.086.039.059.019-.477 2.621"/><path d="M87.66 35.14h-2.625l.192-1.05v-.094l-.153.193-.164.167-.156.152-.172.133-.172.125-.172.102-.168.086-.179.085-.18.067-.18.047-.183.047-.188.027-.187.03-.184.017-.187.012h-.188l-.496-.04-.453-.105-.418-.16-.379-.215-.34-.277-.305-.321-.265-.351-.227-.4-.187-.424-.153-.446-.105-.465-.074-.484-.028-.48.008-.493.047-.484.086-.484.141-.558.172-.533.2-.484.233-.453.246-.425.285-.38.293-.34.313-.316.332-.273.351-.234.36-.211.363-.161.375-.132.38-.087.378-.054.391-.02.273.008.266.032.246.042.226.07.22.076.19.085.188.105.172.102.152.113.141.125.125.12.113.126.094.12.086.126.074.113.058.115.665-3.724h2.574z" fill="#fff" fill-rule="evenodd"/><path stroke-width=".162" stroke-miterlimit="2.613" fill="none" stroke="#fff" d="M87.66 35.14h-2.625l.192-1.05v-.094l-.153.193-.164.167-.156.152-.172.133-.172.125-.172.102-.168.086-.179.085-.18.067-.18.047-.183.047-.188.027-.187.03-.184.017-.187.012h-.188l-.496-.04-.453-.105-.418-.16-.379-.215-.34-.277-.305-.321-.265-.351-.227-.4-.187-.424-.153-.446-.105-.465-.074-.484-.028-.48.008-.493.047-.484.086-.484.141-.558.172-.533.2-.484.233-.453.246-.425.285-.38.293-.34.313-.316.332-.273.351-.234.36-.211.363-.161.375-.132.38-.087.378-.054.391-.02.273.008.266.032.246.042.226.07.22.076.19.085.188.105.172.102.152.113.141.125.125.12.113.126.094.12.086.126.074.113.058.115.665-3.724h2.574l-2.14 12.39"/><path d="M83.367 32.852l.266-.02.246-.058.23-.067.22-.101.194-.113.192-.145.18-.16.16-.172.14-.191.133-.207.125-.22.106-.226.093-.238.078-.245.063-.255.051-.254.043-.266.031-.277v-.258l-.008-.261-.03-.246-.036-.24-.07-.225-.075-.22-.094-.187-.113-.18-.125-.155-.14-.13-.16-.113-.172-.077-.18-.048-.199-.02-.258.02-.235.039-.218.075-.219.093-.188.125-.19.153-.16.159-.165.18-.14.208-.134.218-.125.226-.1.247-.095.258-.078.258-.074.273-.055.273-.05.418.02.454.065.464.125.446.188.39.246.313.312.207z" fill="#76aa9f" fill-rule="evenodd"/><path d="M25.184 33.04l-.379 2.101h-2.387l.066-.387.047-.352.035-.265.04-.14-.133.151-.153.153-.175.14-.2.133-.23.133-.235.113-.25.114-.253.093-.278.086-.269.067-.278.058-.285.035-.273.02-.274.012-.265-.032-.258-.035-.332-.086-.3-.097-.267-.12-.238-.142-.207-.152-.187-.172-.157-.18-.132-.188-.11-.199-.097-.21-.075-.208-.058-.207-.035-.218-.032-.219-.019-.211v-.207l.031-.367.055-.352.097-.332.121-.324.153-.301.168-.273.2-.266.23-.238.238-.219.261-.199.278-.18.281-.152.305-.129.312-.106.321-.086.336-.058h.015l.047-.008.07-.008.102-.012.113-.019.133-.008.141-.019.164-.02.16-.016.16-.019.172-.012.152-.019.153-.008.14-.012.133-.008h.324l.227.008.207.012h.207l.172.008.132.011.094.008h.028l.02-.066.058-.168.043-.203.02-.18-.036-.207-.086-.19-.113-.169-.152-.145-.18-.12-.199-.087-.227-.059-.246-.015-.266-.012-.285-.008h-.293l-.304.008-.313.02-.3.027-.305.031-.293.04-.286.034-.273.047-.246.047-.227.047-.21.06-.173.057-.128.067-.106.054.672-2.28.211-.087.207-.078.227-.066.226-.047.231-.047.246-.039.246-.035.254-.02.265-.019.274-.008.285-.012h.91l.332.012.332.008.266.02.285.046.293.066.301.086.293.114.285.132.285.161.266.18.234.21.211.227.191.254.141.285.094.305.054.32v.36l-.054.378z" fill="#fff" fill-rule="evenodd"/><path stroke-width=".162" stroke-miterlimit="2.613" fill="none" stroke="#fff" d="M25.184 33.04l-.379 2.101h-2.387l.066-.387.047-.352.035-.265.04-.14-.133.151-.153.153-.175.14-.2.133-.23.133-.235.113-.25.114-.253.093-.278.086-.269.067-.278.058-.285.035-.273.02-.274.012-.265-.032-.258-.035-.332-.086-.3-.097-.267-.12-.238-.142-.207-.152-.187-.172-.157-.18-.132-.188-.11-.199-.097-.21-.075-.208-.058-.207-.035-.218-.032-.219-.019-.211v-.207l.031-.367.055-.352.097-.332.121-.324.153-.301.168-.273.2-.266.23-.238.238-.219.261-.199.278-.18.281-.152.305-.129.312-.106.321-.086.336-.058h.015l.047-.008.07-.008.102-.012.113-.019.133-.008.141-.019.164-.02.16-.016.16-.019.172-.012.152-.019.153-.008.14-.012.133-.008h.324l.227.008.207.012h.207l.172.008.132.011.094.008h.028l.02-.066.058-.168.043-.203.02-.18-.036-.207-.086-.19-.113-.169-.152-.145-.18-.12-.199-.087-.227-.059-.246-.015-.266-.012-.285-.008h-.293l-.304.008-.313.02-.3.027-.305.031-.293.04-.286.034-.273.047-.246.047-.227.047-.21.06-.173.057-.128.067-.106.054.672-2.28.211-.087.207-.078.227-.066.226-.047.231-.047.246-.039.246-.035.254-.02.265-.019.274-.008.285-.012h.91l.332.012.332.008.266.02.285.046.293.066.301.086.293.114.285.132.285.161.266.18.234.21.211.227.191.254.141.285.094.305.054.32v.36l-.054.378-.957 5.004"/><path d="M22.902 30.566l-.011-.046-.04-.048-.054-.03-.094-.017-.105-.019-.125-.01h-.285l-.15.01-.16.02-.151.015-.153.02-.14.02-.133.026-.113.032-.106.027-.066.02-.078.027-.102.04-.106.046-.125.058-.121.067-.132.062-.122.078-.132.094-.125.094-.114.113-.105.117-.094.121-.066.133-.055.153-.031.152-.008.32.047.26.094.186.125.144.14.094.164.055.149.031.152.008.285-.008.254-.03.246-.04.219-.055.187-.067.184-.085.16-.086.14-.102.126-.098.113-.113.094-.102.074-.113.067-.117.062-.113.043-.102.027-.105.078-.274.067-.312.055-.305z" fill="#5d9186" fill-rule="evenodd"/><path d="M5.246 35.14H2.672l2.152-12.437h4.481l.425 7.379 3.102-7.38h4.68l-2.2 12.439h-2.578l1.63-9.292h-.102l-3.86 9.292H7.496l-.019-.387-.067-1.031-.086-1.47-.094-1.686-.097-1.696-.082-1.488-.067-1.077-.019-.457H6.82z" fill="#fff" fill-rule="evenodd"/><path stroke-width=".162" stroke-miterlimit="2.613" fill="none" stroke="#fff" d="M5.246 35.14H2.672l2.152-12.437h4.481l.425 7.379 3.102-7.38h4.68l-2.2 12.439h-2.578l1.63-9.292h-.102l-3.86 9.292H7.496l-.019-.387-.067-1.031-.086-1.47-.094-1.686-.097-1.696-.082-1.488-.067-1.077-.019-.457H6.82L5.246 35.14"/><path d="M72.21 33.04l-.39 2.101h-2.38l.02-.387.009-.34v-.258l.019-.113-.121.145-.144.14-.172.133-.188.133-.2.121-.225.113-.24.117-.237.094-.254.074-.266.075-.265.05-.266.035-.273.02-.266.012-.258-.032-.254-.035-.34-.086-.304-.097-.266-.12-.246-.142-.207-.152-.184-.172-.148-.18-.133-.188-.113-.199-.086-.21-.074-.208-.051-.207-.04-.218-.022-.219-.024-.211v-.207l.024-.367.054-.352.086-.332.12-.324.146-.301.179-.273.2-.266.215-.238.25-.219.253-.199.274-.18.297-.152.293-.129.312-.106.313-.086.32-.058h.02l.046-.008.067-.008.094-.012.125-.019.132-.008.145-.019.148-.02.164-.016.168-.019.16-.012.165-.019.148-.008.133-.012.133-.008h.332l.23.008.215.012h.21l.18.008.149.011.086.008h.039l.02-.066.027-.168.027-.203.02-.18-.035-.207-.078-.19-.122-.169-.144-.145-.168-.12-.2-.087-.21-.059-.227-.015-.265-.012-.286-.008h-.293l-.304.008-.31.02-.303.027-.305.031-.293.04-.285.034-.274.047-.246.047-.226.047-.211.06-.168.057-.137.067-.102.054.664-2.28.208-.087.218-.078.219-.066.227-.047.238-.047.234-.039.246-.035.258-.02.262-.019.277-.008.274-.012h.894l.32.012.32.008.266.02.286.046.293.066.304.086.293.114.293.132.285.161.266.18.238.21.215.227.192.254.14.285.106.305.066.32v.36l-.047.378z" fill="#fff" fill-rule="evenodd"/><path d="M71.762 35.133l.058-.058v.136l.055-.058.391-2.106-.119-.015zm.058.078l.046-.011.01-.047zm0 0" fill="#fff"/><path d="M69.441 35.074l.055.067h-.114l.06.07h2.378v-.137zm-.067.137h.067l-.059-.07z" fill="#fff"/><path d="M69.448 34.01l.087.068-.086-.073zm0 0l-.007-.005zm-.034.147l-.012.257v.34l-.019.387h.113l.02-.387.02-.34-.009-.257v-.08l-.079-.067z" fill="#fff"/><path d="M65.852 35.293l.261.039.258.027.266-.007.273-.02.274-.039.265-.047.266-.074.265-.078.24-.094.245-.113.226-.114.4-.265.167-.133.156-.152.121-.145-.094-.074-.125.144-.132.133-.172.133-.176.133-.199.113-.227.113-.23.114-.239.094-.242.074-.265.078-.27.047-.254.039-.273.019-.266.008-.258-.027-.242-.039zm-2.293-2.871l.007.207.02.211.027.226.04.219.046.211.078.215.082.219.125.199.133.199.153.18.187.181.22.151.245.152.277.121.31.098.343.082.02-.113-.345-.086-.293-.094-.257-.121-.247-.137-.199-.148-.168-.16-.152-.184-.133-.18-.105-.199-.082-.199-.079-.195-.046-.211-.039-.219-.028-.207-.019-.211.008-.207zm3.398-3.637l-.328.055-.324.086-.313.105-.304.133-.293.152-.286.188-.254.203-.246.226-.23.235-.199.265-.188.286-.14.312-.125.32-.082.34-.059.364-.027.367h.129l.011-.367.059-.344.082-.32.125-.32.14-.298.172-.265.2-.266.207-.234.246-.207.258-.204.261-.167.297-.153.281-.132.317-.102.301-.086.312-.059z" fill="#fff" fill-rule="evenodd"/><path d="M68.805 28.586l-.133.02-.133.011-.148.008-.164.016-.161.011-.168.02-.164.018-.149.021-.144.02-.132.006-.125.021-.094.008-.074.006-.039.013h-.02v.112h.02l.059-.01.054-.008.094-.009.125-.018.132-.012.144-.016.149-.019.164-.02.168-.019.161-.008.164-.02.148-.008.133-.01h.238v-.134z" fill="#fff"/><path d="M68.91 28.586v.133h.457l.214.018h.392l.147.01.087.011h.04l.058-.047-.114-.02.055-.05h-.039l-.087-.008-.147-.008-.18-.02h-.426l-.23-.019zm1.336.172l.046.008.013-.055z" fill="#fff"/><path d="M70.285 28.082h-.012l-.008.18-.03.191-.028.172-.017.065.115.021.014-.07.033-.172.027-.207.027-.18z" fill="#fff"/><path d="M69.156 27.145v.011l.219.008.199.059.188.086.164.113.129.133.113.16.078.168.039.199h.113l-.04-.215-.073-.211-.133-.179-.152-.153-.18-.129-.211-.09-.214-.054-.24-.028z" fill="#fff" fill-rule="evenodd"/><path d="M68.312 27.004l-.304.02-.31.02-.608.055-.293.038-.293.034-.276.052-.244.047-.23.045-.207.056-.18.06-.144.065-.114.066.098.06-.117-.02.098.055.093-.048.12-.066.165-.056.207-.057.23-.047.244-.047.276-.047.274-.039.293-.039.609-.055.309-.019h.884l.264.008v-.114l-.264-.008-.287-.019z" fill="#fff"/><path d="M65.793 25.27l-.04.046-.663 2.286.117.02.664-2.285-.038.046zm-.027.007l-.012.039.039-.046z" fill="#fff"/><path d="M68.473 24.805l-.274.02-.277.011-.262.018-.258.017-.254.038-.237.036-.235.051-.231.047-.226.065-.215.076-.211.085.039.114.207-.087.219-.073.207-.067.23-.048.235-.049.234-.036.238-.04.258-.019.262-.019.277-.008h1.169l.32.008h.32v-.109l-.32-.02-.32-.01z" fill="#fff"/><path d="M73.258 28.047l.047-.391v-.36l-.063-.331-.105-.313-.153-.293-.191-.265-.227-.235-.234-.211-.277-.18-.285-.171-.301-.133-.293-.113-.313-.086-.297-.063-.293-.047-.265-.02v.11l.265.02.274.05.297.063.293.086.293.113.285.137.285.148.254.18.238.21.207.216.192.246.129.277.105.293.066.313v.359l-.046.37zm-.992 5l.992-5-.113-.02-.997 5.004z" fill="#fff" fill-rule="evenodd"/><path d="M69.914 30.566l-.019-.059-.036-.046-.066-.028-.098-.027-.1-.01-.126-.014h-.14l-.145.013-.153.02-.148.018-.153.02-.144.02-.14.027-.122.02-.125.026-.094.02-.066.008-.078.031-.094.027-.105.04-.12.054-.115.06-.132.065-.125.082-.122.087-.125.105-.1.101-.107.125-.086.133-.066.141-.055.152-.027.164-.012.32.043.26.082.186.11.144.144.094.16.055.161.031.164.008.281-.008.265-.03.247-.048.218-.067.207-.074.184-.086.168-.097.152-.109.133-.106.113-.12.106-.119.086-.12.062-.114.051-.117.04-.113.026-.102.04-.266.046-.273.036-.266z" fill="#76aa9f" fill-rule="evenodd"/><path d="M89.43 33.848l.023-.223.07-.254.137-.225.16-.2.2-.16.23-.118.246-.074.262-.027.265.027.247.074.23.118.2.16.16.2.132.225.074.254.02.223h-.285l-.008-.176-.059-.207-.093-.187-.125-.164-.149-.133-.179-.094-.21-.066-.22-.02-.215.02-.21.066-.18.094-.153.133-.12.164-.095.187-.058.207-.02.176z" fill="#fff" fill-rule="evenodd"/><path d="M90.285 33.848v-.57h.52l.117.008.101.019.075.027.07.039.047.055.035.059.02.066.011.067-.01.085-.02.068-.028.054-.02.023h-.398l.04-.012.065-.011.055-.016.051-.02.04-.031.018-.027.016-.047v-.066l-.012-.047-.016-.04-.027-.02-.03-.015-.048-.011-.047-.008h-.387v.37zm-.855 0l-.008.055.031.273.07.258.137.226.16.188.2.16.23.125.246.078.262.028.265-.028.247-.078.23-.125.2-.16.16-.188.132-.226.074-.258.028-.273-.008-.055h-.285l.011.055-.019.226-.059.207-.093.185-.125.155-.149.137-.179.1-.21.068-.22.019-.215-.02-.21-.066-.18-.101-.153-.137-.12-.155-.095-.185-.058-.207-.02-.226v-.055z" fill="#fff" fill-rule="evenodd"/><path d="M90.805 33.848l-.048.008h-.235v-.008h-.237v.574h.238v-.472h.234l.286.472h.19l-.284-.472h.067l.062-.02.06-.02.05-.04.015-.022z" fill="#fff"/><path stroke-width=".162" stroke-miterlimit="2.613" fill="none" stroke="#fff" d="M89.426 33.902l.027-.273.074-.258.133-.226.164-.196.199-.164.227-.113.246-.075.262-.027.265.027.247.075.226.113.199.164.16.196.133.226.074.258.028.273-.028.273-.074.258-.133.223-.16.191-.2.16-.225.125-.247.075-.265.027-.262-.027-.246-.075-.227-.125-.2-.16-.163-.19-.133-.224-.074-.258-.027-.273m1.097.523h-.238v-1.148h.52l.117.008.1.02.08.027.066.04.047.053.035.06.02.065.01.067-.01.082-.02.066-.027.06-.035.046-.051.04-.055.018-.066.02h-.067l.285.473h-.191l-.285-.473h-.235v.473m.235-.57l.086-.02.066-.008.059-.02.047-.019.039-.028.019-.027.016-.047v-.066l-.008-.047-.02-.039-.027-.02-.031-.015-.047-.012-.047-.008h-.387v.375h.235m0 1.145l.219-.016.21-.066.18-.106.149-.133.125-.16.093-.179.059-.207.016-.227-.016-.227-.06-.207-.092-.187-.125-.164-.15-.133-.178-.094-.211-.066-.22-.02-.214.02-.207.066-.18.094-.152.133-.121.164-.094.187-.06.207-.018.227.019.227.059.207.094.18.12.16.153.132.18.106.207.066.215.016"/><path d="M72.918 35.14h2.672l.957-5.39.039-.207.055-.207.058-.211.074-.207.094-.207.113-.203.125-.188.153-.18.172-.16.187-.151.219-.145.246-.114.273-.093.305-.075.332-.057.367-.02h.239l.425-2.434-.265.02-.254.027-.238.046-.227.068-.211.073-.195.099-.192.104-.179.113-.172.134-.16.132-.301.3-.145.16-.14.182-.145.17-.129.192.282-1.715h-2.661z" fill="#fff" fill-rule="evenodd"/><path stroke-width=".162" stroke-miterlimit="2.613" fill="none" stroke="#fff" d="M72.918 35.14h2.672l.957-5.39.039-.207.055-.207.058-.211.074-.207.094-.207.113-.203.125-.188.153-.18.172-.16.187-.151.219-.145.246-.114.273-.093.305-.075.332-.057.367-.02h.239l.425-2.434-.265.02-.254.027-.238.046-.227.068-.211.073-.195.099-.192.104-.179.113-.172.134-.16.132-.301.3-.145.16-.14.182-.145.17-.129.192.282-1.715h-2.661L72.918 35.14"/><path d="M47.828 35.14h2.72l.91-5.39.038-.207.094-.398.066-.188.074-.191.098-.18.113-.172.133-.16.153-.145.168-.14.21-.114.227-.101.266-.09.293-.074.32-.047.371-.027h.027l.04.007.046.013h.047l.047.007.04.013.026.006h.012l.008-.04.027-.111.04-.168.046-.211.067-.246.066-.266.172-.532.078-.18.188-.358.093-.161.086-.141.067-.112.047-.071.02-.027h-.009l-.039-.007-.047-.013-.066-.007h-.066l-.079-.01-.066-.01h-.066l-.293.02-.266.027-.246.046-.227.059-.218.075-.2.097-.179.094-.172.113-.156.125-.157.14-.14.14-.14.16-.145.165-.133.18-.14.188-.142.19.34-1.714h-2.718z" fill="#fff" fill-rule="evenodd"/><path stroke-width=".162" stroke-miterlimit="2.613" fill="none" stroke="#fff" d="M47.828 35.14h2.72l.91-5.39.038-.207.094-.398.066-.188.074-.191.098-.18.113-.172.133-.16.153-.145.168-.14.21-.114.227-.101.266-.09.293-.074.32-.047.371-.027h.027l.04.007.046.013h.047l.047.007.04.013.026.006h.012l.008-.04.027-.111.04-.168.046-.211.067-.246.066-.266.172-.532.078-.18.188-.358.093-.161.086-.141.067-.112.047-.071.02-.027h-.009l-.039-.007-.047-.013-.066-.007h-.066l-.079-.01-.066-.01h-.066l-.293.02-.266.027-.246.046-.227.059-.218.075-.2.097-.179.094-.172.113-.156.125-.157.14-.14.14-.14.16-.145.165-.133.18-.14.188-.142.19.34-1.714h-2.718L47.828 35.14"/><path d="M48.121 28.016l-.074-.567-.133-.5-.187-.437-.239-.379-.285-.324-.308-.262-.344-.227-.37-.172-.376-.144-.387-.094-.39-.066-.387-.035-.37-.012-.77.039-.68.113-.618.172-.547.238-.472.282-.418.324-.37.359-.302.379-.266.4-.215.413-.172.41-.14.406-.106.398-.074.368-.055.351-.039.301-.047.777.028.699.105.637.16.56.227.503.277.433.321.391.367.32.398.278.43.234.445.184.461.14.473.114.476.066.473.047.465.008h.312l.293-.008h.258l.246-.012.22-.016.194-.019.192-.02.168-.027.164-.031.148-.035.153-.047.14-.047.141-.059.152-.054.15-.078.147-.075.375-2.332-.273.164-.266.149-.273.117-.266.101-.258.086-.262.055-.257.051-.258.035-.254.019-.246.012h-.254l-.246-.012-.246-.019-.25-.027-.235-.028-.246-.035-.19-.039-.189-.066-.19-.086-.173-.106-.168-.113-.148-.141-.145-.14-.133-.164-.109-.161-.106-.179-.074-.172-.066-.18-.039-.179-.016-.18.008-.16.023-.125h6.15l.046-.575.144-.796.067-.723zm-2.566.871h-3.46v-.008h-.009l.027-.129.035-.199.06-.192.065-.187.086-.172.086-.16.102-.152.117-.141.121-.133.125-.113.145-.102.136-.086.164-.078.161-.055.164-.039.168-.027.18-.012.171.02.16.031.153.039.148.055.145.074.144.082.125.094.114.113.093.133.094.141.066.164.067.179.04.188.018.211.008.222z" fill="#fff" fill-rule="evenodd"/><clipPath id="a"><path transform="matrix(1 0 0 -1 0 56.176)" d="M0 56.176h230.827V0H0z"/></clipPath><g clip-path="url(#a)"><path d="M223.523 22.992c.113-2.207 2.813-3.207 4.332-1.605 1.523 1.597.391 4.242-1.816 4.246a2.584 2.584 0 01-2.516-2.64m2.516 2.015c1.808.086 2.8-2.082 1.55-3.399-1.25-1.312-3.464-.433-3.468 1.383a1.972 1.972 0 001.918 2.016m-.344-.86h-.52v-2.324h.93a.956.956 0 01.566.125c.184.141.286.36.282.586a.618.618 0 01-.379.586l.402 1.027h-.57l-.34-.91h-.375v.91zm0-1.308h.285a.616.616 0 00.316-.047.305.305 0 00.125-.27.279.279 0 00-.125-.234.631.631 0 00-.32-.039h-.28zM187.59 5.434l-.687 4.476a7.67 7.67 0 00-3.762-1.105c-3.133 0-5.344 3.18-5.344 7.722 0 3.137 1.485 5.028 3.93 5.028a7.74 7.74 0 003.57-1.067l-.735 4.715c-1.202.387-2.452.59-3.714.598-4.536 0-7.35-3.418-7.35-8.906 0-7.383 3.897-12.54 9.467-12.54a7.004 7.004 0 011.887.223l1.734.457c.516.203.63.235 1.008.4zm-13.953 3.062a2.278 2.278 0 00-.429-.043c-1.387 0-2.168.735-3.454 2.735l.375-2.55h-3.808l-2.586 16.788h4.226c1.512-10.262 1.9-12.03 3.922-12.03.102 0 .207.002.31.014a16.69 16.69 0 011.59-4.863l-.146-.047zm-25.172 16.727a9.208 9.208 0 01-3.015.554c-2.145 0-3.317-1.308-3.317-3.695 0-.504.04-1.004.118-1.504l.261-1.637.192-1.336 1.824-11.453h4.18l-.477 2.49h2.148l-.589 4.081h-2.145l-1.113 7.004c-.035.308-.07.54-.07.695 0 .86.441 1.246 1.433 1.246a3.28 3.28 0 001.133-.156zm-16.57-11.274c0 2.117.973 3.582 3.184 4.676 1.695.844 1.961 1.09 1.961 1.852 0 1.043-.75 1.527-2.407 1.527a11.098 11.098 0 01-3.757-.676l-.582 3.871.191.043.773.16c.246.055.614.102 1.094.153 1.004.093 1.774.136 2.317.136 4.41 0 6.45-1.777 6.45-5.6a4.59 4.59 0 00-2.954-4.673c-1.75-.836-1.95-1.035-1.95-1.813 0-.91.696-1.378 2.047-1.378 1.008.015 2.012.101 3.008.25l.602-3.879a26.391 26.391 0 00-3.692-.328c-4.679 0-6.3 2.574-6.285 5.671zm89.184 11.477h-3.977l.207-1.645a4.87 4.87 0 01-3.883 1.864c-3.078 0-5.09-2.77-5.09-6.965 0-5.582 3.13-10.297 6.848-10.297 1.633 0 2.871.707 4.031 2.297l.918-5.895h4.141zm-6.203-3.953c1.964 0 3.336-2.332 3.336-5.657 0-2.132-.782-3.293-2.235-3.293-1.906 0-3.262 2.34-3.262 5.645 0 2.2.731 3.305 2.161 3.305m-53.09 3.601a14.01 14.01 0 01-4.32.672c-4.692 0-7.14-2.578-7.14-7.512 0-5.769 3.116-10.015 7.35-10.015 3.453 0 5.672 2.38 5.672 6.11a18.242 18.242 0 01-.523 4.14h-8.356a3.365 3.365 0 00-.043.52c0 1.964 1.25 2.952 3.7 2.952a9.466 9.466 0 004.36-1.07zm-2.36-9.996a12.2 12.2 0 00.028-.85c0-1.373-.739-2.173-1.989-2.173-1.336 0-2.289 1.07-2.679 3.007l4.64.012zm-44.414 10.348h-4.199l2.407-15.864-5.375 15.864h-2.88l-.347-15.77-2.535 15.77h-3.934l3.282-20.645h6.053l.165 12.774 4.085-12.774h6.536zm10.824-7.477a6.838 6.838 0 00-.94-.078c-2.38 0-3.59.867-3.59 2.563a1.517 1.517 0 001.511 1.711c1.711 0 2.95-1.71 3.02-4.2zm3.06 7.477h-3.48l.073-1.746a5.122 5.122 0 01-4.406 2.035c-2.286 0-3.844-1.87-3.844-4.574 0-4.098 2.726-6.477 7.387-6.477.574.004 1.144.043 1.71.125.103-.355.157-.723.168-1.09 0-1.109-.73-1.527-2.703-1.527a12.583 12.583 0 00-3.492.476l-.586.172-.367.11.578-3.766c1.621-.57 3.32-.875 5.04-.902 3.612 0 5.527 1.707 5.527 4.922a20.323 20.323 0 01-.348 3.332l-.879 5.945-.145 1.074-.109.856-.074.586zm65.937-7.477a6.789 6.789 0 00-.934-.078c-2.39 0-3.598.867-3.598 2.563a1.517 1.517 0 001.516 1.711c1.72 0 2.945-1.71 3.02-4.2zm3.062 7.477h-3.484l.078-1.746a5.13 5.13 0 01-4.403 2.035c-2.289 0-3.855-1.87-3.855-4.574 0-4.098 2.727-6.477 7.398-6.477.571.004 1.141.043 1.708.125.102-.355.156-.723.167-1.09 0-1.109-.73-1.527-2.703-1.527a12.4 12.4 0 00-3.489.476l-.6.172-.364.11.586-3.766a15.956 15.956 0 015.024-.902c3.621 0 5.535 1.707 5.535 4.922a22.209 22.209 0 01-.344 3.332l-.887 5.945-.133 1.074-.117.856-.073.586-.048.45zm11.742-16.93a2.164 2.164 0 00-.422-.043c-1.379 0-2.168.735-3.46 2.735l.374-2.55h-3.804l-2.57 16.788h4.21c1.512-10.262 1.911-12.03 3.922-12.03.098-.009.196-.005.293.014a16.957 16.957 0 011.602-4.863l-.145-.047z" fill="#5d9186"/><path d="M191.996 41.703c0 3.809-1.18 6.047-3.035 6.047-1.356.043-2.176-1.469-2.176-3.727 0-2.672 1.203-5.703 3.13-5.703 1.55 0 2.085 1.645 2.085 3.387zm4.137.07c0-4.23-2.094-7.519-6.02-7.519-4.523 0-7.449 4.004-7.449 9.898 0 4.22 1.73 7.668 6.012 7.668 4.32 0 7.457-3.058 7.457-10.043zm-12.117-10.488l-.645 4.473a6.86 6.86 0 00-3.512-1.117c-2.94 0-4.992 3.195-4.992 7.738 0 3.133 1.375 5.031 3.664 5.031a6.874 6.874 0 003.34-1.062l-.68 4.707c-1.12.386-2.297.59-3.48.601-4.235 0-6.87-3.422-6.87-8.91 0-7.387 3.64-12.543 8.85-12.543a6.724 6.724 0 011.766.223l1.604.457c.497.199.603.234.951.402zm-26 3.07a1.762 1.762 0 00-.403-.047c-1.277 0-2.027.74-3.219 2.731l.348-2.55h-3.554l-2.399 16.788h3.926c1.41-10.269 1.785-12.039 3.668-12.039.093 0 .191.008.285.02a17.817 17.817 0 011.492-4.875zm51.281 16.743h-3.71l.19-1.64a4.474 4.474 0 01-3.636 1.866c-2.86 0-4.75-2.777-4.75-6.976 0-5.575 2.933-10.3 6.398-10.3 1.531-.001 2.691.722 3.762 2.311l.867-5.902h3.863zm-5.805-3.95c1.848 0 3.125-2.332 3.125-5.656 0-2.14-.73-3.289-2.078-3.289-1.785 0-3.055 2.336-3.055 5.648 0 2.188.68 3.301 2.008 3.301zM121.2 51.031a12.139 12.139 0 01-4.019.684c-4.387 0-6.676-2.586-6.676-7.516 0-5.761 2.91-10.011 6.863-10.011 3.234 0 5.301 2.374 5.301 6.105a20.78 20.78 0 01-.477 4.14h-7.824a4.92 4.92 0 00-.03.528c0 1.957 1.171 2.945 3.448 2.945a8.48 8.48 0 004.078-1.062l-.66 4.191zm-2.195-9.984c.02-.356.031-.637.031-.852 0-1.371-.69-2.172-1.855-2.172-1.254 0-2.149 1.078-2.508 3.008zm48.898 9.984a12.162 12.162 0 01-4.023.684c-4.395 0-6.68-2.586-6.68-7.516 0-5.761 2.918-10.011 6.862-10.011 3.24 0 5.31 2.374 5.31 6.105a19.954 19.954 0 01-.496 4.14h-7.809c-.023.255-.035.375-.035.528 0 1.957 1.168 2.945 3.45 2.945a8.491 8.491 0 004.08-1.062l-.655 4.191zm-2.203-9.984c.024-.356.04-.637.04-.852 0-1.371-.696-2.172-1.856-2.172-1.254 0-2.145 1.078-2.508 3.008zm56.992 9.984c-1.297.453-2.66.684-4.03.684-4.388 0-6.68-2.586-6.68-7.516 0-5.761 2.921-10.011 6.867-10.011 3.238 0 5.296 2.374 5.296 6.105a19.604 19.604 0 01-.48 4.14h-7.816a3.898 3.898 0 00-.032.528c0 1.957 1.172 2.945 3.45 2.945a8.47 8.47 0 004.078-1.062l-.653 4.191zm-2.207-9.984c.02-.356.032-.637.032-.852 0-1.371-.688-2.172-1.856-2.172-1.254 0-2.144 1.078-2.508 3.008l4.336.016zm-110.906-5.934a5.694 5.694 0 00-3.277-.961c-1.59 0-2.867.328-2.867 2.016 0 2.984 5.79 1.867 5.79 8.258 0 5.816-3.822 7.324-7.275 7.324a12.21 12.21 0 01-4.609-1.09l.937-4.273a6.064 6.064 0 003.672 1.203c1.24 0 3.172-.336 3.172-2.496 0-3.379-5.78-2.121-5.78-8.051 0-5.426 3.378-7.051 6.636-7.051 1.835 0 3.562.27 4.574.941l-.965 4.184zm23.121 15.91a7.903 7.903 0 01-3.488.645c-3.43 0-5.559-3.43-5.559-7.606 0-5.464 3.074-9.824 7.61-9.824a8.289 8.289 0 013.683 1.117l-.867 4.008a4.844 4.844 0 00-2.625-.906c-2.102 0-3.602 1.926-3.602 5.371 0 1.984 1.09 3.613 2.81 3.613.925.02 1.84-.234 2.624-.73zm14.684-4.199c-.203 1.441-.39 2.844-.5 4.348h-3.782l.321-2.71-.039-.001c-1.184 1.844-2.407 3.097-4.547 3.097-2.375 0-3.66-2.496-3.66-5.757a21.08 21.08 0 01.32-3.512l1.07-7.766h4.207l-1.125 7.793a18.403 18.403 0 00-.273 2.532c0 .984.45 1.976 1.578 1.914 1.727 0 2.742-2.11 3.031-4.567l1.16-7.672h4.071zm79.226 4.15h-.633v-2.786h-.92v-.598h2.475v.598h-.922zm4.22 0h-.595v-2.829h-.008l-.57 2.828h-.62l-.556-2.828h-.007v2.828h-.594V47.59h.926l.554 2.668h.008l.54-2.668h.921z" fill="#76aa9f"/></g></g></svg>