<svg xmlns="http://www.w3.org/2000/svg" viewBox="0 0 1000 1000"><path d="M259 291.1c3.5-.5 7.7.4 9.5 3.8 2.2 4.2.8 9.2-1 13.3-19.3 42.4-38.6 84.9-57.9 127.3-3.9 10.6-11.3 20.4-21.9 24.9-3.7 1.7-7.8 1.7-11.7 2.2-18.6 2-37.2 3.9-55.7 5.9-3.7.6-8.4.7-10.9-2.7-2.9-4.1-1.6-9.6.3-13.9 20.4-44.8 40.7-89.6 61.2-134.3 4.8-9.4 13.5-17.6 24.1-19.7 21.2-2.4 42.6-4.5 64-6.8zm410.9 7c11-3.6 22.7-3.5 34.1-2.7 10.6 1 21.4 2.9 30.8 8-3 8-6 16.1-9 24.1-9.7-5.3-20.9-7.4-31.9-7.7-6.5-.2-13.9.6-18.7 5.4-5.5 5.4-4.6 15.3 1.6 19.8 13.5 10.8 31.5 13.9 45.1 24.6 7.7 5.9 14.1 14.2 15.6 24.1 2 13-.3 27.5-9.2 37.6-8 9.4-20.3 13.7-32.2 15.1-19.1 1.7-38.9-.1-56.5-8.1 3.1-8.2 6.1-16.4 9.2-24.5 10.6 5.3 22.4 8.1 34.2 8.4 6.8 0 14-.7 19.9-4.4 7.6-4.5 9-16.4 2.9-22.7-12.7-11.4-30.5-14-44.2-23.8-9-6.1-16.5-15.4-18-26.4-1.5-10.5-.5-21.9 5.3-31 4.6-7.7 12.5-13 21-15.8zm230 .1c10.6-3.5 22-3.6 33.1-2.8 11 1 22.2 2.8 32 8.1-3 8.1-6 16.1-9 24.1-10.1-5.5-21.7-7.6-33.1-7.7-6 0-12.5.8-17.1 4.9-5.2 4.5-5.5 13.3-1 18.3 2.9 3.2 6.6 5.5 10.4 7.6 13.6 7.3 29.2 11.6 40.7 22.4 7.7 7.1 12.8 17.3 12.1 27.9.7 11.3-2.7 23.2-10.6 31.5-8 8.7-19.8 12.7-31.3 14-19.1 1.7-38.9-.1-56.5-8.1 3.1-8.2 6.1-16.4 9.2-24.5 10.5 5.2 22.3 8.1 34 8.4 7 0 14.6-.7 20.6-4.7 7.8-5.2 8.4-18.2.8-23.8-12.1-9.6-28-12.6-40.8-21.2-9.7-6.1-18-15.6-19.8-27.1-1.6-10.7-.7-22.3 5.2-31.6 4.8-7.7 12.7-13 21.1-15.7zm-142.7 1.1c20.4-3.5 41.4-5 62-1.8 12.2 1.9 24.3 7.7 31.6 17.9 8.2 10.9 9.1 25.4 7.5 38.5-1.8 14.8-11.7 28.1-25.2 34.5-14.6 7-31.4 7.2-47.3 5.6v50.4h-28.6V299.3zm28.6 22.2v47.4c11 1.3 23.3 1.8 33.2-4 8.7-5.3 10.8-16.5 9.4-25.9-1-7.7-7-14.2-14.3-16.5-9.1-2.8-18.9-2.2-28.3-1zm-245.1-23.7h86.5v25.6h-58.1v36.1h53.4v25.6h-53.4v59.2h-28.4V297.8zM247 371.1c3.7-.7 7.4 0 11.1.4 47.3 5.9 94.6 11.6 141.9 17.5 11.6 1.9 23.3 9 27.5 20.4 8.1 18.9 16.4 37.7 24.5 56.5 1.4 3.2 1.5 7.4-1.2 9.9-3.4 3.2-8.5 3.3-12.9 2.8-46-5.7-91.9-11.3-137.8-17-5.3-.7-10.7-1-15.7-3.1-8.2-3.3-16.1-9-19.4-17.6-8.2-18.9-16.4-37.7-24.6-56.6-1.2-2.6-1.9-5.8-.6-8.5 1.3-2.7 4.3-4.2 7.2-4.7zM39.4 413.6c4.9-1.6 9.8 1.4 13.4 4.6 36.5 32.9 73 65.8 109.4 98.7 7.6 7.5 12.7 18.4 11.3 29.2-4.2 21-8.5 42-12.8 63.1-.6 3.3-2.4 6.8-5.9 7.7-4.8 1.2-9.4-1.7-12.9-4.8-36.3-32.8-72.6-65.5-108.8-98.2-8.9-8.4-14.5-21.6-11.1-33.7 4-19.7 8-39.3 12-58.9.6-3.2 2.2-6.6 5.4-7.7zm323.8 59.6c2.4-1.1 5.5-.9 7.6.8 3.4 2.6 4.8 6.9 5.6 11 9.5 48 19.1 96 28.6 144 1.6 10.4-.6 22.2-8 30.1-15.9 14.4-32 28.7-48 43-2.6 2.5-6.4 4.3-9.9 2.7-4.1-1.9-6-6.5-6.9-10.7-9.5-47.6-18.9-95.3-28.4-143-2.1-9.2-.7-19.2 3.9-27.5 2-3.8 5.5-6.5 8.6-9.3 14.3-12.8 28.5-25.5 42.8-38.3 1.3-1 2.6-2.1 4.1-2.8zm369 24.2h2.5c5.7 15.2 11.3 30.3 17 45.5H746c-1.6-4.1-3-8.3-4.7-12.4-5.4.1-10.8 0-16.3 0-1.5 4.1-3 8.3-4.4 12.4h-5.4c5.7-15.2 11.4-30.4 17-45.5zm1.1 8.1c-1.2 7-4.1 13.6-6.5 20.3h13c-2.3-6.7-5.2-13.3-6.5-20.3zm86.2-7.8c6-1.1 12.9.1 17 4.8 4.9 5.5 5.7 13.5 5.4 20.6-.3 6.9-2.5 14.5-8.8 18.2-7.6 4.3-19 3-23.9-4.8-4.5-7.3-4.5-16.4-3-24.6 1.3-6.7 6.3-13.1 13.3-14.2zm0 5.1c-5 1.8-7.5 7.2-8 12.1-.8 6.7-.6 14.3 3.7 19.9 4 5.3 12.8 5.4 17.1.4 3.4-3.9 4-9.3 4.1-14.2 0-5.5-.8-11.4-4.7-15.6-3.1-3.3-8.1-4.1-12.2-2.6zm31.5-5.4h2.8c4.1 5.6 8.1 11.3 12.1 16.9 4.5 6.4 9.4 12.5 12.9 19.5-1.4-11.8-.4-23.8-.7-35.7h5v45.4c-1 0-1.9.1-2.9.1-8.2-12.3-18-23.7-24.9-36.8 1.3 12 .3 24 .6 36.1h-5c.1-15.2.1-30.4.1-45.5zm72.4.2c5.7-1 12.3.1 16.5 4.4 5 5.2 5.9 12.9 5.8 19.9-.2 6.9-2 14.6-8 18.8-7.7 5-19.9 3.6-24.9-4.7-4.2-7.2-4.3-16.2-2.8-24.2 1.2-6.7 6.2-13.2 13.4-14.2zm.1 5.1c-5.2 1.6-7.8 7.2-8.3 12.2-.8 6.8-.6 14.5 3.9 20.1 4 5 12.2 5.1 16.6.5 3.4-3.6 4.2-8.8 4.4-13.6.1-5.7-.6-12-4.6-16.4-3-3.3-7.9-4.2-12-2.8zm-382.8-4.6h24.4v4.8h-19v15.2h17.8v4.8h-17.8v20h-5.4v-44.8zm33 0h24.4v4.8h-19v14.6h17.4v4.8h-17.4v15.8h19.4v4.8h-24.8v-44.8zm34.3-.1c8-.4 17-1.9 24.2 2.8 6.4 4 8.6 12.1 8.6 19.2.1 7.6-2.5 16-9.3 20.3-7 4.5-15.7 3.1-23.5 2.7v-45zm5.3 40.4c5 .2 10.6.9 15-2.1 5.1-3.3 6.7-9.7 6.8-15.3.1-5.8-1.2-12.3-6.1-15.9-4.4-3.5-10.4-2.8-15.7-2.5v35.8zm36.4-40.3h24.4v4.8H655v14.6h17.4v4.8H655v15.8h19.4v4.8h-24.7v-44.8zm34.3.3c6.5-.6 13.5-1.9 19.7.8 7.7 3.5 8.3 15.4 2.1 20.6-1.7 1.5-3.8 2.3-5.9 3 3.3 1.8 4.8 5.3 6.8 8.3 2.5 3.9 4.9 7.8 7.3 11.7h-6.3c-4.1-6.4-8.2-12.9-12.3-19.3-2.1-.3-4.1-.6-6.2-.9v20.3h-5.4c.2-14.9-.1-29.7.2-44.5zm5.3 4.1V519c3.7-.1 7.8.4 11.1-1.5 5.1-2.7 5.3-11.3.2-14.1-3.5-1.8-7.6-1.1-11.3-.9zm59.7-4.4h33.2v4.9c-4.6 0-9.3-.1-13.9 0 .1 13.3 0 26.6 0 40h-5.4v-40H749v-4.9zm40.9 0h5.4v44.8h-5.4v-44.8zm164.7 0H979v4.8h-19v15.2h17.8v4.8H960v20h-5.4v-44.8zm-414.5 83c1.5-4 5.7-6.4 9.8-6.9 5.2-.6 10.6 0 15.6 1.7-.5 1.6-1.1 3.3-1.6 4.9-4.7-1.7-9.9-2.8-14.8-1.4-3.9 1.1-5.8 6.3-3 9.4 4.9 5.2 12.9 6 17.6 11.5 5 5.5 2.8 15.4-4.1 18.2-6.7 2.9-14.6 2-21.3-.6l1.8-4.8c4.9 2.1 10.6 3.1 15.9 1.6 3.3-.9 5.7-4.5 4.9-8-.4-2.5-2.4-4.1-4.4-5.4-4.7-3-10.6-4.1-14.4-8.4-3-3-3.4-7.8-2-11.8zm34.6-5.9c7-1.1 14.5-1.8 21.2 1.1 8.9 4.1 8.9 18.4 1 23.5-4.9 3.3-11.2 3.2-16.8 2.8v17h-5.3c-.1-14.8-.1-29.6-.1-44.4zm5.3 4c0 6.2-.1 12.5 0 18.7 3.9.2 8.1.5 11.8-1.1 6.2-2.5 7-12.6 1.3-16.1-4-2.2-8.7-1.8-13.1-1.5zm40.5-4.6c5.9-1.4 12.7-.6 17.2 3.7 4.5 4.2 5.9 10.6 6.2 16.6.2 6-.3 12.4-3.5 17.7-5.9 10.4-23.4 10.5-29.4.2-4-6.8-4.1-15.2-3-22.8.9-6.9 5.4-13.8 12.5-15.4zm.9 4.9c-5.1 1.8-7.5 7.3-8 12.4-.7 6.7-.5 14.2 3.8 19.8 4.1 5.3 13.2 5.2 17.3-.1 3.3-4.1 3.7-9.6 3.8-14.6-.1-5.4-1.1-11.3-5.1-15.2-3.1-3.1-7.9-3.7-11.8-2.3zm115.5-4.3c6.9-1.1 14.3-1.8 20.9 1 9.3 4 9.3 18.7 1.1 23.8-4.9 3.1-11 3.1-16.6 2.7v17H737c-.2-14.9-.1-29.7-.1-44.5zm5.3 4v18.7c4.3.2 9.1.6 13-1.7 5.3-3.3 5.5-12.5-.1-15.6-3.9-2.1-8.6-1.7-12.9-1.4zm40.3-4.5c5.8-1.4 12.7-.7 17.3 3.5 4.4 4 6 10.1 6.3 15.8.3 6.3-.1 13.1-3.4 18.6-6 10.4-23.5 10.4-29.5 0-4-6.8-4.1-15.2-2.9-22.9.9-6.6 5.3-13.4 12.2-15zm.9 4.9c-5 1.9-7.3 7.5-7.8 12.5-.7 6.6-.4 14 3.8 19.4 4.1 5.4 13.2 5.3 17.4.1 3.3-4.1 3.8-9.5 3.8-14.6-.1-5.5-1.1-11.5-5.3-15.4-3.1-3-8-3.5-11.9-2zm-130.5-4.4c6.5-.8 13.6-2 19.9.8 7.8 3.6 8.2 15.7 1.7 20.7-1.6 1.4-3.6 2.1-5.6 2.9 1.4 1 3 2 3.8 3.6 3.4 5.5 6.9 11 10.3 16.5h-6.2c-4.2-6.4-8.3-12.9-12.4-19.3-2.1-.3-4.2-.7-6.3-1v20.3h-5.3c.1-14.9.1-29.7.1-44.5zm5.3 4v16.5c3.6-.1 7.5.4 10.9-1.3 5.4-2.5 5.7-11.3.6-14.2-3.5-1.9-7.7-1.2-11.5-1zm24.5.4v-4.8h33.2v4.8H702v40.1h-5.4v-40.1h-13.9zm132.5-4.8h5.4v20.9c.7-.3 2.1-.8 2.9-1.1 5-6.5 9.9-13.2 14.9-19.7h6.3c-4.6 6-9.3 11.9-13.9 17.9-1 1.4-2.4 2.4-3.7 3.5 3.6 2.3 5.8 6 8.4 9.2 3.7 4.7 7.4 9.4 11.1 14.2h-6.9c-5-6.4-10.1-12.8-15.1-19.2-.8-1.7-2.5-1.6-4.1-1.5v20.8h-5.4c.1-15.1.1-30.1.1-45zm38.9 0h24.4v4.8h-19v14.6h17.4v4.8h-17.4v15.9h19.3v4.8h-24.7v-44.9zm34.2.4c6.5-.8 13.5-2 19.8.7 8 3.6 8.4 16 1.7 21-1.6 1.3-3.5 2-5.4 2.7 3.5 2 5 5.7 7.1 8.9 2.4 3.8 4.7 7.6 7.2 11.3-2.2-.1-4.3-.1-6.4-.1-4.2-6.4-8.2-12.9-12.4-19.3-2.1-.3-4.1-.6-6.2-.9v20.3h-5.4v-44.6zm5.4 4v16.5c3.8-.1 8 .5 11.4-1.6 5-2.9 5-11.4-.2-14.1-3.5-1.7-7.5-1-11.2-.8zm-660.1-1.4c6.6-1 13.9-.7 19.8 2.7 18.6 10.5 37.3 20.8 55.9 31.4 3.4 1.8 5.8 5.9 4.4 9.7-1.8 5.3-7 8-11.6 10.6-38.3 22.4-76.5 44.7-114.8 67.1-5.6 3.1-10.9 7-17.2 8.5-8.1 2-17.2 2.2-24.5-2.2L91 675c-2.9-1.5-5.6-4.3-5.4-7.8.3-5 4.5-8.5 8.5-10.9 38.7-22.6 77.5-45.3 116.2-67.9 7.4-4.4 14.5-9.6 23.3-10.6zm302.2 118.5c5.6-15.2 11.3-30.4 17-45.6.6 0 1.8.1 2.4.2 5.8 15.1 11.3 30.3 17 45.4h-5.7c-1.5-4.1-3-8.3-4.6-12.4h-16.3c-1.5 4.1-3 8.3-4.5 12.4h-5.3zm18-37.3c-1.2 7-4.1 13.6-6.4 20.3h12.9c-2.3-6.8-5.2-13.3-6.5-20.3zm24.3-8.2h2.9c6.7 9.4 13.4 18.8 20.1 28.1 1.9 2.6 3.2 5.5 4.8 8.3-1.4-11.8-.4-23.8-.7-35.7h5v45.6h-2.8c-6.7-9.5-13.4-19-20.1-28.4-1.8-2.6-3.1-5.4-4.7-8.1 1 11.9.3 23.9.5 35.8h-5v-45.6zm42.9.7c8.1-.4 17.2-1.9 24.4 2.9 6.4 4.2 8.5 12.4 8.4 19.7 0 7.4-2.7 15.6-9.3 19.7-7 4.5-15.7 3-23.5 2.7v-45zm5.4 4.6v35.8c5.1.3 10.7.9 15.1-2.2 4.8-3.2 6.4-9.3 6.6-14.7.2-5.9-1-12.5-5.9-16.3-4.4-3.7-10.5-3-15.8-2.6zm53.4-4.6h24.4v4.8h-19.1v14.6h17.4c0 1.6 0 3.2.1 4.9h-17.4v15.9h19.4v4.8h-24.7c-.1-15.1 0-30.1-.1-45zm33.2 7.4c1.1-4.5 5.5-7.4 9.9-7.9 5.3-.6 10.8-.1 15.8 1.7-.6 1.6-1.1 3.2-1.6 4.8-4.9-1.7-10.6-3-15.6-1.1-3.8 1.5-4.8 7-1.7 9.7 5 4.7 12.5 5.6 17 10.9 4.9 5.3 2.9 15.1-3.7 18.1-6.8 3.1-14.9 2.2-21.7-.4l1.8-4.8c5.3 2.2 11.4 3.4 16.9 1.2 4.1-1.6 5.4-7.5 2.4-10.7-4.5-4.7-11.6-5.3-16.3-9.8-3.3-2.7-4.2-7.6-3.2-11.7zm34.9-7c6.9-1.1 14.4-1.8 21 1 9 4 9.3 18.1 1.5 23.4-4.9 3.5-11.4 3.4-17.2 3v16.9h-5.4c.1-14.7.1-29.5.1-44.3zm5.4 4.1v18.7c4.1.2 8.4.5 12.2-1.3 5.8-2.8 6.5-12.5.9-15.9-4-2.3-8.8-1.9-13.1-1.5zm39.2-4.3c6.1-1.9 13.6-1.2 18.4 3.3 4.4 4.1 5.9 10.3 6.2 16 .3 6.3-.2 13-3.5 18.4-6 10.2-23.3 10.2-29.3 0-4-6.8-4.1-15.2-3-22.8.9-6.3 4.7-12.8 11.2-14.9zm2.6 4.4c-5.1 1.5-7.8 7-8.3 12-.8 6.9-.7 14.7 3.8 20.4 4.1 5.2 12.8 5.1 17 .1 3.4-4 3.9-9.5 4-14.5 0-5.5-1-11.5-5.1-15.5-2.9-3-7.5-3.7-11.4-2.5zm31.1-4.2c6.6-.8 13.8-2.1 20 .8 7.6 3.6 8.1 15.3 2 20.5-1.7 1.5-3.8 2.3-5.9 3.1 3.3 1.9 4.9 5.5 6.9 8.6l7.2 11.4h-6.3c-4.1-6.4-8.2-12.8-12.3-19.3-2.1-.3-4.1-.7-6.2-1v20.2h-5.4c-.1-14.7 0-29.5 0-44.3zm5.3 4.1v16.5c3.8-.1 7.9.4 11.3-1.6 5-2.8 5.1-11.2.1-14-3.4-1.9-7.6-1.2-11.4-.9zm24.5-4.5h33.2v4.8h-13.9v40h-5.4v-40H856v-4.8zm44.1.9c6.4-2.8 13.9-1.8 20.4.3-.6 1.6-1.1 3.2-1.7 4.8-4.6-1.8-9.9-2.7-14.7-1.4-4 1.1-5.9 6.6-2.9 9.6 4.8 5 12.4 5.8 17.1 11 3.8 3.8 3.9 10.2 1 14.6-2.3 3.3-6.3 5.1-10.3 5.5-5.4.5-10.9 0-15.9-2.2l1.8-4.8c5.3 2.3 11.5 3.4 17 1.2 3.9-1.7 5.2-7.3 2.4-10.4-4.8-5.1-12.6-5.5-17.3-10.8-4.6-5-3.4-14.5 3.1-17.4z" fill="#fff"/></svg>