<svg width="147" height="40" viewBox="0 0 147 40" fill="none" xmlns="http://www.w3.org/2000/svg">
<path d="M81.2205 15.0002H35V25.1478H76.4659L77.6731 23.4013H84.105L85.3567 25.1478H88.1719L81.2205 15.0002ZM45.7413 22.5404C44.8111 23.2825 43.5693 23.7822 41.6051 23.7822C39.6409 23.7822 36.979 23.0055 36.8158 20.4476C36.6476 17.8847 38.6365 16.346 41.6595 16.346C44.6825 16.346 45.573 17.5136 45.573 17.5136L44.7171 18.5724C43.9354 17.9589 43.5841 17.6423 41.5803 17.6423C39.5765 17.6423 38.3495 18.3646 38.3495 20.0518C38.3495 21.7389 39.537 22.486 41.6545 22.486C43.7721 22.486 44.2916 21.8725 44.2916 21.8725V20.8533H40.952V19.5174H45.7413V22.5404ZM55.206 23.6536L54.3155 22.3375H49.1007L48.2447 23.6536H46.5922L51.5497 16.2718H51.8268L56.9278 23.6586H55.206V23.6536V23.6536ZM67.9511 23.6536H66.4272V19.3492L63.3646 22.298H63.0134L59.8221 19.3294V23.6536H58.3181V16.3608H58.6891L63.1816 20.4822L67.5602 16.3608H67.9511V23.6536H67.9511ZM77.9749 17.8105H71.9438V19.2601H76.9903L76.1196 20.6356H71.9636V22.2683H75.0261L74.1356 23.6586H70.4447V16.3608H78.9051L77.9749 17.8105ZM79.0683 21.2194L80.8544 18.6417L82.6405 21.2194H79.0683Z" fill="white"/>
<path d="M49.9912 21.0018L51.6586 18.5181L53.3853 21.0018H49.9912Z" fill="white"/>
<path d="M106.493 25.1478V17.5284H101.921V15.2822H113.538V17.5086H108.967V25.1478H106.493Z" fill="white"/>
<path d="M98.1165 21.3332C100.828 20.6307 100.625 18.3993 100.625 18.3993C100.625 15.0646 96.3601 15.2873 96.3601 15.2873H89.186V25.1479H91.6697V21.6103H95.1825L98.4183 25.1479H101.53L98.1165 21.3332ZM96.7905 19.4729H91.6648V17.4939H96.8103C96.8103 17.4939 98.1214 17.5929 98.1214 18.4834C98.1214 19.374 96.7905 19.4729 96.7905 19.4729Z" fill="white"/>
</svg>
