<svg width="147" height="40" viewBox="0 0 147 40" fill="none" xmlns="http://www.w3.org/2000/svg">
<path d="M49.2034 22.6917C51.6843 22.8085 53.0648 21.7353 53.8323 21.4042C55.06 20.8747 57.0851 20.3934 60.0692 21.5483C59.8708 18.1145 57.0245 15.3904 53.5408 15.3904C49.9288 15.3904 47 18.3191 47 21.9311C47 22.0075 47.0035 22.0839 47.0061 22.1595C47.4892 22.4159 48.1961 22.6442 49.2034 22.6917Z" fill="url(#paint0_linear)"/>
<path d="M57.8659 21.1732C55.385 21.0564 53.8534 21.8547 53.085 22.1866C51.8573 22.7162 49.9841 23.4714 47 22.3175C47.1985 25.7512 50.0447 28.4753 53.5285 28.4753C57.1405 28.4753 60.0692 25.5466 60.0692 21.9346C60.0692 21.8582 60.0657 21.7818 60.0631 21.7063C59.5801 21.4498 58.8731 21.2206 57.8659 21.1732Z" fill="url(#paint1_linear)"/>
<path opacity="0.19" d="M47.4952 21.842C47.4346 21.7981 47.4012 20.0514 48.2267 19.1802C49.0522 18.3091 50.8235 17.3334 51.2258 17.6899C51.6288 18.0465 51.779 18.7306 51.5164 19.3304C51.2539 19.9302 50.4345 21.655 49.5695 21.842C48.7045 22.03 47.7174 22.0045 47.4952 21.842Z" fill="white"/>
<path opacity="0.46" d="M47.6753 21.6908C47.6016 21.6451 47.6227 20.6949 48.0819 20.2101C48.5412 19.7254 49.5257 19.1827 49.7505 19.3811C49.9744 19.5796 50.0579 19.9599 49.9121 20.2936C49.7663 20.6273 49.3105 21.5863 48.8284 21.6908C48.3463 21.7953 47.8053 21.7724 47.6753 21.6908Z" fill="white"/>
<path opacity="0.19" d="M47.8371 23.1812C47.7642 23.2137 47.7615 24.6311 48.429 25.3362C49.0964 26.0414 50.5313 26.8309 50.8572 26.5429C51.183 26.2548 51.305 25.7007 51.0925 25.2151C50.88 24.7294 50.2178 23.4991 49.5241 23.2699C48.8443 23.045 48.2199 23.009 47.8371 23.1812Z" fill="white"/>
<path opacity="0.46" d="M47.9828 23.3027C47.887 23.3765 48.0548 24.0756 48.4262 24.4681C48.7977 24.8607 49.4818 25.3331 49.6627 25.1724C49.8445 25.0117 49.9121 24.7035 49.7936 24.4339C49.675 24.1643 49.3922 23.6417 49.0234 23.4617C48.6651 23.2869 48.0987 23.214 47.9828 23.3027Z" fill="white"/>
<path d="M80.6217 27.7209C79.5914 27.7209 78.5739 27.7209 77.534 27.7209C77.4924 27.4874 77.4508 27.2506 77.406 27.0042C77.278 27.113 77.1564 27.2218 77.0285 27.321C76.6573 27.6122 76.2573 27.8265 75.7966 27.8937C75.2078 27.9801 74.6255 27.9641 74.0591 27.7305C73.5984 27.5418 73.2496 27.2186 73.0128 26.7482C72.8592 26.4443 72.7664 26.1179 72.712 25.7787C72.6577 25.4459 72.6353 25.11 72.6353 24.7708C72.6385 22.1662 72.6353 19.5649 72.6417 16.9603C72.6417 16.4548 72.696 15.9524 72.8304 15.466C73.0256 14.7493 73.448 14.279 74.1199 14.0966C74.5071 13.991 74.9006 13.9494 75.2974 13.9814C75.7678 14.0198 76.2285 14.1158 76.6413 14.3813C76.8205 14.4965 76.9869 14.6373 77.1692 14.7717C77.1596 14.7749 77.166 14.7749 77.1724 14.7717C77.1788 14.7685 77.182 14.7621 77.182 14.7557C77.1852 13.543 77.1884 12.3303 77.1916 11.1176C77.1916 11.1112 77.198 11.108 77.2076 11.092C78.3371 11.092 79.473 11.092 80.6185 11.092C80.6217 16.6307 80.6217 22.1662 80.6217 27.7209ZM76.0781 20.9376C76.0781 22.227 76.0781 23.5133 76.0813 24.8028C76.0813 24.9564 76.0973 25.1132 76.1261 25.2636C76.1421 25.3532 76.1837 25.4428 76.2349 25.5163C76.4461 25.8075 76.9325 25.7435 77.0733 25.4043C77.0957 25.35 77.1116 25.2924 77.1244 25.2316C77.1916 24.9532 77.1852 24.6684 77.1884 24.3868C77.198 22.0287 77.1948 19.6673 77.1916 17.3091C77.1916 17.1267 77.1756 16.9443 77.1596 16.7651C77.1532 16.6915 77.134 16.6179 77.1084 16.5508C77.0381 16.3684 76.9197 16.2532 76.7277 16.25C76.6733 16.25 76.6157 16.2468 76.5613 16.25C76.3149 16.2596 76.1645 16.3908 76.1229 16.6531C76.1005 16.7971 76.0845 16.9475 76.0845 17.0947C76.0781 18.3778 76.0781 19.6577 76.0781 20.9376Z" fill="#323132"/>
<path d="M71.643 22.4855C71.643 22.7479 71.643 22.9974 71.643 23.247C71.643 23.423 71.643 23.599 71.6398 23.775C71.6302 24.3477 71.5758 24.9173 71.4542 25.4772C71.3358 26.018 71.131 26.5107 70.7823 26.9203C70.5423 27.2019 70.2511 27.4066 69.9279 27.5538C69.5152 27.7426 69.0832 27.8386 68.6384 27.893C68.1169 27.957 67.5953 27.957 67.077 27.9154C66.3507 27.8578 65.6499 27.6754 65.0228 27.2467C64.5396 26.9171 64.1909 26.4691 63.9829 25.8868C63.8709 25.5764 63.8069 25.2596 63.7621 24.9333C63.6949 24.4309 63.6853 23.9254 63.6853 23.4166C63.6885 21.6472 63.6853 19.8777 63.6981 18.1083C63.7013 17.7467 63.7333 17.3819 63.7941 17.0236C63.8261 16.8316 63.8389 16.6364 63.8709 16.4444C63.9861 15.7629 64.306 15.2189 64.8148 14.8062C65.2436 14.4574 65.7267 14.2526 66.2483 14.131C66.5202 14.067 66.7954 14.0318 67.0706 14.003C67.3266 13.9743 67.5793 13.9679 67.8321 13.9807C68.1649 13.9966 68.4977 14.0286 68.8272 14.0862C69.2784 14.1662 69.7039 14.3038 70.1039 14.5374C70.6671 14.867 71.0606 15.3597 71.3102 15.9965C71.4574 16.3708 71.5374 16.7644 71.595 17.1612C71.6206 17.3404 71.6366 17.5227 71.6366 17.7051C71.643 18.9466 71.643 20.1849 71.643 21.4264C71.643 21.4584 71.6398 21.4904 71.6366 21.5384C70.1327 21.5384 68.6352 21.5384 67.1282 21.5384C67.125 21.5928 67.1186 21.6312 67.1186 21.6696C67.1186 22.7063 67.1186 23.743 67.1218 24.7797C67.1218 24.9333 67.1314 25.0933 67.1666 25.2404C67.2466 25.602 67.4386 25.7396 67.8257 25.666C68.0753 25.618 68.1777 25.4068 68.2353 25.17C68.2897 24.9557 68.3153 24.7349 68.3153 24.5109C68.3153 23.8934 68.3185 23.2758 68.3185 22.6615C68.3185 22.6071 68.3185 22.5527 68.3185 22.5015C68.4689 22.4631 71.0318 22.4471 71.643 22.4855ZM68.2065 19.4234C68.2065 19.3626 68.2065 19.3146 68.2065 19.2698C68.2065 18.6682 68.2097 18.0635 68.2033 17.4619C68.2001 17.2252 68.1841 16.9916 68.1649 16.7548C68.1297 16.374 67.9793 16.2365 67.6273 16.2493C67.4066 16.2557 67.269 16.3644 67.1986 16.5948C67.1474 16.7676 67.1218 16.9468 67.1218 17.1292C67.1218 17.8619 67.1218 18.5914 67.1218 19.3242C67.1218 19.3562 67.1282 19.3882 67.1314 19.4234C67.4866 19.4234 67.8353 19.4234 68.2065 19.4234Z" fill="#323132"/>
<path d="M94.0794 19.6998C92.9723 19.6998 91.8716 19.6998 90.7645 19.6998C90.7261 19.6486 90.7453 19.5782 90.7453 19.511C90.7421 18.7111 90.7485 17.9112 90.7389 17.1113C90.7389 16.9449 90.7101 16.7753 90.6685 16.6153C90.6013 16.3529 90.4669 16.2537 90.2206 16.2505C90.1694 16.2505 90.1214 16.2473 90.0702 16.2537C89.9294 16.2793 89.8206 16.3401 89.7598 16.5033C89.6958 16.6697 89.6798 16.8393 89.6606 17.0153C89.651 17.1241 89.6574 17.2329 89.6574 17.3416C89.6574 19.7414 89.6574 22.1412 89.6574 24.541C89.6574 24.7714 89.6574 25.0018 89.7342 25.2193C89.7694 25.3185 89.8142 25.4177 89.8718 25.5009C90.0766 25.7921 90.5629 25.7665 90.7101 25.3985C90.7549 25.2897 90.7965 25.1713 90.8093 25.0561C90.8349 24.8546 90.8477 24.653 90.8477 24.4514C90.8509 23.7059 90.8509 22.9603 90.8509 22.2148C90.8509 22.1476 90.8509 22.0836 90.8509 22.0196C91.1005 21.9908 93.929 21.9972 94.0762 22.026C94.1146 22.106 94.0922 22.1956 94.0922 22.2788C94.089 22.378 94.073 22.4804 94.073 22.5796C94.0698 22.9859 94.073 23.3923 94.0634 23.7987C94.057 24.1634 94.0506 24.5282 94.0218 24.893C93.9706 25.5361 93.7786 26.128 93.3979 26.6336C93.1739 26.928 92.9019 27.1584 92.5979 27.3503C92.2076 27.5967 91.7852 27.7407 91.3501 27.8367C91.0909 27.8943 90.8221 27.9199 90.5597 27.9295C90.211 27.9455 89.8622 27.9487 89.5166 27.9263C88.8863 27.8847 88.2655 27.7727 87.696 27.4463C87.1808 27.1488 86.8225 26.704 86.6017 26.1184C86.4321 25.6737 86.3553 25.2065 86.2977 24.733C86.2401 24.237 86.2241 23.7379 86.2241 23.2387C86.2241 21.5173 86.2273 19.7958 86.2273 18.0744C86.2273 17.7832 86.2689 17.4984 86.2945 17.2105C86.3201 16.9193 86.3809 16.6409 86.4481 16.3625C86.5697 15.8634 86.7841 15.4218 87.1072 15.0443C87.4272 14.6731 87.8272 14.4299 88.2687 14.2731C88.5631 14.1675 88.8639 14.1003 89.1711 14.0587C89.6158 13.9979 90.0606 13.9659 90.5053 13.9915C91.0909 14.0267 91.6732 14.0811 92.2332 14.2987C92.9531 14.5771 93.4267 15.1146 93.6922 15.8858C93.801 16.2025 93.8682 16.5289 93.9162 16.8617C93.977 17.2681 94.0058 17.6776 94.0378 18.0872C94.0698 18.5191 94.0602 18.9511 94.073 19.3863C94.0762 19.4535 94.089 19.5206 94.0922 19.5846C94.0954 19.6166 94.0858 19.655 94.0794 19.6998Z" fill="#323132"/>
<path d="M100.636 25.4848C100.636 26.2431 100.636 26.9726 100.636 27.7118C100.61 27.715 100.585 27.7246 100.562 27.7246C99.804 27.7246 99.0457 27.7342 98.2874 27.715C97.8618 27.7054 97.4362 27.6606 97.0203 27.5518C96.8603 27.5102 96.7035 27.4398 96.5563 27.3598C96.1788 27.1518 95.9996 26.7807 95.9004 26.3551C95.8332 26.0607 95.8044 25.76 95.7788 25.4592C95.734 24.96 95.7532 24.4577 95.7436 23.9585C95.6892 21.4659 95.734 18.9702 95.718 16.4776C95.718 16.4104 95.718 16.3432 95.718 16.2664C95.5388 16.2344 95.366 16.2568 95.1964 16.2536C95.0301 16.2504 94.8605 16.2536 94.6941 16.2536C94.6557 16.1 94.6429 14.7785 94.6717 14.193C94.8413 14.161 95.0109 14.1834 95.1837 14.1802C95.35 14.177 95.5196 14.1802 95.6796 14.1802C95.6924 14.1706 95.6956 14.1674 95.702 14.161C95.7052 14.1578 95.7116 14.1514 95.7116 14.145C95.7116 13.4219 95.7116 12.6955 95.7116 11.9948C95.7308 11.9692 95.734 11.9628 95.7404 11.9564C95.7436 11.9532 95.75 11.95 95.7564 11.95C96.8379 11.9468 97.9194 11.9468 99.0009 11.9436C99.0553 11.9436 99.1097 11.9436 99.1769 11.9436C99.1993 12.1964 99.1833 12.4396 99.1865 12.6795C99.1897 12.9227 99.1865 13.1691 99.1865 13.4123C99.1865 13.6554 99.1865 13.8986 99.1865 14.161C99.2441 14.1674 99.2889 14.1802 99.3369 14.1802C99.6536 14.1834 99.9704 14.1802 100.287 14.1802C100.348 14.1802 100.409 14.1802 100.47 14.1802C100.502 14.3338 100.508 15.94 100.482 16.2568C100.268 16.2568 100.054 16.2568 99.836 16.2568C99.6248 16.2568 99.4137 16.2568 99.1929 16.2568C99.1897 16.3272 99.1833 16.388 99.1833 16.4456C99.1833 19.1653 99.1833 21.8819 99.1865 24.6017C99.1865 24.7552 99.2153 24.9088 99.2441 25.0592C99.2825 25.2576 99.4073 25.376 99.5864 25.4144C99.756 25.4528 99.9288 25.4784 100.098 25.4912C100.271 25.4944 100.444 25.4848 100.636 25.4848Z" fill="#323132"/>
<path d="M85.2128 14.1903C85.2128 18.7051 85.2128 23.2039 85.2128 27.7155C84.0481 27.7155 82.8866 27.7155 81.7188 27.7155C81.7188 23.2071 81.7188 18.7019 81.7188 14.1967C81.8627 14.1679 84.9953 14.1615 85.2128 14.1903Z" fill="#323132"/>
<path d="M81.7192 11.0891C82.8871 11.0891 84.039 11.0891 85.1941 11.0891C85.2261 11.2427 85.2389 12.8074 85.2101 13.3353C85.0661 13.3705 82.2151 13.3833 81.7352 13.3513C81.7032 13.1977 81.6904 11.6459 81.7192 11.0891Z" fill="#323132"/>
<path d="M80.8905 27.6316C79.8602 27.6316 78.8427 27.6316 77.8028 27.6316C77.7612 27.398 77.7196 27.1612 77.6748 26.9148C77.5468 27.0236 77.4252 27.1324 77.2973 27.2316C76.9261 27.5228 76.5261 27.7372 76.0654 27.8044C75.4766 27.8908 74.8943 27.8748 74.3279 27.6412C73.8672 27.4524 73.5184 27.1292 73.2816 26.6589C73.128 26.3549 73.0352 26.0285 72.9808 25.6894C72.9265 25.3566 72.9041 25.0206 72.9041 24.6814C72.9073 22.0769 72.9041 19.4755 72.9105 16.871C72.9105 16.3654 72.9648 15.863 73.0992 15.3767C73.2944 14.66 73.7168 14.1896 74.3887 14.0072C74.7759 13.9016 75.1695 13.86 75.5662 13.892C76.0366 13.9304 76.4973 14.0264 76.9101 14.292C77.0893 14.4072 77.2557 14.548 77.438 14.6824C77.4284 14.6856 77.4348 14.6856 77.4412 14.6824C77.4476 14.6792 77.4508 14.6728 77.4508 14.6664C77.454 13.4537 77.4572 12.241 77.4604 11.0283C77.4604 11.0219 77.4668 11.0187 77.4764 11.0027C78.6059 11.0027 79.7418 11.0027 80.8873 11.0027C80.8905 16.5414 80.8905 22.0769 80.8905 27.6316ZM76.3501 20.8482C76.3501 22.1377 76.3501 23.424 76.3533 24.7134C76.3533 24.867 76.3693 25.0238 76.3981 25.1742C76.4141 25.2638 76.4557 25.3534 76.5069 25.427C76.7181 25.7182 77.2045 25.6542 77.3453 25.315C77.3677 25.2606 77.3836 25.203 77.3964 25.1422C77.4636 24.8638 77.4572 24.5791 77.4604 24.2975C77.47 21.9393 77.4668 19.5779 77.4636 17.2197C77.4636 17.0373 77.4476 16.855 77.4316 16.6758C77.4252 16.6022 77.406 16.5286 77.3804 16.4614C77.3101 16.279 77.1917 16.1638 76.9997 16.1606C76.9453 16.1606 76.8877 16.1574 76.8333 16.1606C76.5869 16.1702 76.4365 16.3014 76.3949 16.5638C76.3725 16.7078 76.3565 16.8582 76.3565 17.0053C76.3501 18.2852 76.3501 19.5683 76.3501 20.8482Z" fill="url(#paint2_linear)"/>
<path d="M71.9118 22.3961C71.9118 22.6585 71.9118 22.9081 71.9118 23.1577C71.9118 23.3336 71.9118 23.5096 71.9086 23.6856C71.899 24.2584 71.8446 24.8279 71.723 25.3879C71.6046 25.9286 71.3998 26.4214 71.0511 26.8309C70.8111 27.1125 70.5199 27.3173 70.1967 27.4645C69.784 27.6533 69.352 27.7492 68.9073 27.8036C68.3857 27.8676 67.8641 27.8676 67.3458 27.826C66.6195 27.7684 65.9187 27.5861 65.2916 27.1573C64.8084 26.8277 64.4597 26.3798 64.2517 25.7974C64.1397 25.4871 64.0757 25.1703 64.0309 24.8439C63.9637 24.3416 63.9541 23.836 63.9541 23.3272C63.9573 21.5578 63.9541 19.7884 63.9669 18.0189C63.9701 17.6574 64.0021 17.2926 64.0629 16.9342C64.0949 16.7422 64.1077 16.5471 64.1397 16.3551C64.2549 15.6735 64.5748 15.1296 65.0836 14.7168C65.5124 14.3681 65.9955 14.1633 66.5171 14.0417C66.789 13.9777 67.0642 13.9425 67.3394 13.9137C67.5954 13.8849 67.8481 13.8785 68.1009 13.8913C68.4337 13.9073 68.7665 13.9393 69.096 13.9969C69.5472 14.0769 69.9728 14.2145 70.3727 14.448C70.9359 14.7776 71.3294 15.2704 71.579 15.9071C71.7262 16.2815 71.8062 16.675 71.8638 17.0718C71.8894 17.251 71.9054 17.4334 71.9054 17.6158C71.9118 18.8572 71.9118 20.0955 71.9118 21.337C71.9118 21.369 71.9086 21.401 71.9054 21.449C70.4015 21.449 68.9041 21.449 67.397 21.449C67.3938 21.5034 67.3874 21.5418 67.3874 21.5802C67.3874 22.6169 67.3874 23.6536 67.3906 24.6903C67.3906 24.8439 67.4002 25.0039 67.4354 25.1511C67.5154 25.5126 67.7074 25.6502 68.0945 25.5766C68.3441 25.5286 68.4465 25.3175 68.5041 25.0807C68.5585 24.8663 68.5841 24.6455 68.5841 24.4215C68.5841 23.804 68.5873 23.1865 68.5873 22.5721C68.5873 22.5177 68.5873 22.4633 68.5873 22.4121C68.7377 22.3737 71.3038 22.3577 71.9118 22.3961ZM68.4753 19.334C68.4753 19.2732 68.4753 19.2252 68.4753 19.1804C68.4753 18.5789 68.4785 17.9741 68.4721 17.3726C68.4689 17.1358 68.4529 16.9022 68.4337 16.6654C68.4017 16.2847 68.2481 16.1471 67.8961 16.1599C67.6754 16.1663 67.5378 16.2751 67.4674 16.5055C67.4162 16.6782 67.3906 16.8574 67.3906 17.0398C67.3906 17.7725 67.3906 18.5021 67.3906 19.2348C67.3906 19.2668 67.397 19.2988 67.4002 19.334C67.7586 19.334 68.1041 19.334 68.4753 19.334Z" fill="url(#paint3_linear)"/>
<path d="M94.3482 19.6105C93.2411 19.6105 92.1404 19.6105 91.0333 19.6105C90.9949 19.5593 91.0141 19.4889 91.0141 19.4217C91.0109 18.6218 91.0173 17.8218 91.0077 17.0219C91.0077 16.8555 90.9789 16.6859 90.9373 16.526C90.8701 16.2636 90.7357 16.1644 90.4894 16.1612C90.4382 16.1612 90.3902 16.158 90.339 16.1644C90.1982 16.19 90.0894 16.2508 90.0286 16.414C89.9646 16.5803 89.9486 16.7499 89.9294 16.9259C89.9198 17.0347 89.9262 17.1435 89.9262 17.2523C89.9262 19.6521 89.9262 22.0519 89.9262 24.4516C89.9262 24.682 89.9262 24.9124 90.003 25.13C90.0382 25.2292 90.083 25.3284 90.1406 25.4115C90.3454 25.7027 90.8317 25.6771 90.9789 25.3092C91.0237 25.2004 91.0653 25.082 91.0781 24.9668C91.1037 24.7652 91.1165 24.5636 91.1165 24.362C91.1197 23.6165 91.1197 22.871 91.1197 22.1254C91.1197 22.0583 91.1197 21.9943 91.1197 21.9303C91.3693 21.9015 94.1978 21.9079 94.345 21.9367C94.3834 22.0167 94.361 22.1062 94.361 22.1894C94.3578 22.2886 94.3418 22.391 94.3418 22.4902C94.3386 22.8966 94.3418 23.3029 94.3322 23.7093C94.3258 24.0741 94.3194 24.4388 94.2906 24.8036C94.2394 25.4467 94.0474 26.0387 93.6667 26.5442C93.4427 26.8386 93.1707 27.069 92.8667 27.261C92.4764 27.5074 92.054 27.6513 91.6189 27.7473C91.3597 27.8049 91.0909 27.8305 90.8285 27.8401C90.4798 27.8561 90.131 27.8593 89.7854 27.8369C89.1551 27.7953 88.5343 27.6833 87.9648 27.357C87.4496 27.0594 87.0913 26.6146 86.8705 26.0291C86.7009 25.5843 86.6241 25.1172 86.5665 24.6436C86.5089 24.1477 86.4929 23.6485 86.4929 23.1494C86.4929 21.4279 86.4961 19.7065 86.4961 17.985C86.4961 17.6938 86.5377 17.4091 86.5633 17.1211C86.5889 16.8299 86.6497 16.5516 86.7169 16.2732C86.8385 15.774 87.0529 15.3325 87.376 14.9549C87.696 14.5837 88.096 14.3405 88.5375 14.1838C88.8319 14.0782 89.1327 14.011 89.4399 13.9694C89.8846 13.9086 90.3294 13.8766 90.7741 13.9022C91.3597 13.9374 91.942 13.9918 92.502 14.2094C93.2219 14.4877 93.6955 15.0253 93.961 15.7964C94.0698 16.1132 94.137 16.4396 94.185 16.7723C94.2458 17.1787 94.2746 17.5883 94.3066 17.9978C94.3386 18.4298 94.329 18.8617 94.3418 19.2969C94.345 19.3641 94.3578 19.4313 94.361 19.4953C94.3674 19.5241 94.3546 19.5625 94.3482 19.6105Z" fill="url(#paint4_linear)"/>
<path d="M100.905 25.3954C100.905 26.1538 100.905 26.8833 100.905 27.6224C100.879 27.6256 100.854 27.6352 100.831 27.6352C100.073 27.6352 99.3145 27.6448 98.5562 27.6256C98.1306 27.616 97.7051 27.5712 97.2891 27.4624C97.1291 27.4208 96.9723 27.3504 96.8251 27.2705C96.4476 27.0625 96.2684 26.6913 96.1692 26.2657C96.102 25.9714 96.0732 25.6706 96.0476 25.3698C96.0028 24.8707 96.022 24.3683 96.0124 23.8692C95.958 21.3766 96.0028 18.8808 95.9868 16.3882C95.9868 16.321 95.9868 16.2539 95.9868 16.1771C95.8076 16.1451 95.6348 16.1675 95.4652 16.1643C95.2989 16.1611 95.1293 16.1643 94.9629 16.1643C94.9245 16.0107 94.9117 14.6892 94.9405 14.1036C95.1101 14.0716 95.2797 14.094 95.4525 14.0908C95.6188 14.0876 95.7884 14.0908 95.9484 14.0908C95.9612 14.0812 95.9644 14.078 95.9708 14.0716C95.974 14.0684 95.9804 14.062 95.9804 14.0556C95.9804 13.3325 95.9804 12.6062 95.9804 11.9054C95.9996 11.8798 96.0028 11.8734 96.0092 11.867C96.0124 11.8638 96.0188 11.8606 96.0252 11.8606C97.1067 11.8574 98.1882 11.8574 99.2697 11.8542C99.3241 11.8542 99.3785 11.8542 99.4457 11.8542C99.4681 12.107 99.4521 12.3502 99.4553 12.5902C99.4585 12.8334 99.4553 13.0797 99.4553 13.3229C99.4553 13.5661 99.4553 13.8093 99.4553 14.0684C99.5129 14.0748 99.5577 14.0876 99.6057 14.0876C99.9225 14.0908 100.239 14.0876 100.556 14.0876C100.617 14.0876 100.678 14.0876 100.738 14.0876C100.77 14.2412 100.777 15.8475 100.751 16.1643C100.537 16.1643 100.322 16.1643 100.105 16.1643C99.8937 16.1643 99.6825 16.1643 99.4617 16.1643C99.4585 16.2347 99.4521 16.2954 99.4521 16.353C99.4521 19.0728 99.4521 21.7894 99.4553 24.5091C99.4553 24.6627 99.4841 24.8163 99.5129 24.9667C99.5513 25.165 99.6761 25.2834 99.8553 25.3218C100.025 25.3602 100.198 25.3858 100.367 25.3986C100.54 25.405 100.716 25.3954 100.905 25.3954Z" fill="url(#paint5_linear)"/>
<path d="M85.4816 14.1009C85.4816 18.6157 85.4816 23.1145 85.4816 27.6261C84.3169 27.6261 83.1554 27.6261 81.9875 27.6261C81.9875 23.1177 81.9875 18.6125 81.9875 14.1073C82.1315 14.0785 85.2673 14.0721 85.4816 14.1009Z" fill="url(#paint6_linear)"/>
<path d="M81.9912 10.9998C83.1591 10.9998 84.311 10.9998 85.4661 10.9998C85.4981 11.1533 85.5109 12.718 85.4821 13.246C85.3381 13.2811 82.4872 13.294 82.0072 13.262C81.972 13.1084 81.9592 11.5565 81.9912 10.9998Z" fill="url(#paint7_linear)"/>
<path d="M72.9519 25.4103C72.9615 25.5031 72.9743 25.5959 72.9903 25.6887C73.0447 26.0278 73.1375 26.3542 73.2911 26.6582C73.5279 27.1285 73.8766 27.4517 74.3374 27.6405C74.9037 27.8709 75.4829 27.8869 76.0748 27.8037C76.5324 27.7365 76.9355 27.5221 77.3067 27.2309C77.4347 27.1317 77.5563 27.0229 77.6843 26.9141C77.7291 27.1605 77.7707 27.3973 77.8123 27.6309C78.849 27.6309 79.8697 27.6309 80.9 27.6309C80.9 26.8342 80.9 26.0374 80.9 25.2439C78.5034 26.0982 75.6685 25.9638 72.9519 25.4103Z" fill="url(#paint8_linear)"/>
<path d="M68.5905 24.4282C68.5905 24.6521 68.5649 24.8729 68.5105 25.0873C68.4529 25.3241 68.3473 25.5353 68.1009 25.5833C67.7137 25.6568 67.5218 25.5225 67.4418 25.1577C67.4098 25.0073 67.397 24.8505 67.397 24.6969C67.397 24.377 67.397 24.057 67.3938 23.737C65.9859 23.1899 64.7924 22.6427 63.9573 22.2332C63.9573 22.5979 63.9573 22.9659 63.9573 23.3307C63.9573 23.8362 63.9669 24.345 64.0341 24.8473C64.0789 25.1737 64.1429 25.4937 64.2548 25.8008C64.4628 26.3832 64.8148 26.8279 65.2948 27.1607C65.9219 27.5927 66.6226 27.7719 67.349 27.8295C67.8673 27.871 68.3921 27.871 68.9104 27.8071C69.3552 27.7527 69.7872 27.6567 70.1999 27.4679C70.5231 27.3207 70.8143 27.1127 71.0542 26.8343C71.403 26.4248 71.6078 25.9288 71.7262 25.3913C71.7422 25.3113 71.7582 25.2313 71.7742 25.1481C70.6639 24.8729 69.592 24.5369 68.5937 24.185C68.5905 24.2618 68.5873 24.345 68.5905 24.4282Z" fill="url(#paint9_linear)"/>
<path d="M86.4959 23.1458C86.4959 23.6449 86.5087 24.1441 86.5695 24.6401C86.6239 25.1168 86.7039 25.5808 86.8734 26.0255C87.0942 26.6111 87.4558 27.0558 87.9677 27.3534C88.5373 27.683 89.158 27.7918 89.7884 27.8334C90.134 27.8558 90.4859 27.8526 90.8315 27.8366C91.0971 27.827 91.3626 27.8014 91.6218 27.7438C92.057 27.6478 92.4825 27.5038 92.8697 27.2574C93.1737 27.0654 93.4457 26.8351 93.6696 26.5407C94.0504 26.0351 94.2424 25.4464 94.2936 24.8C94.3224 24.4353 94.3288 24.0705 94.3352 23.7057C94.3416 23.2994 94.3384 22.893 94.3448 22.4866C94.3448 22.3875 94.364 22.2851 94.364 22.1859C94.364 22.0995 94.3864 22.0099 94.348 21.9331C94.204 21.9043 91.3754 21.8979 91.1227 21.9267C91.1227 21.9907 91.1227 22.0547 91.1227 22.1219C91.1227 22.8674 91.1259 23.6129 91.1195 24.3585C91.1195 24.5601 91.1067 24.7648 91.0811 24.9632C91.0651 25.0816 91.0235 25.1968 90.9819 25.3056C90.8379 25.6736 90.3483 25.6992 90.1436 25.408C90.086 25.3248 90.0412 25.2256 90.006 25.1264C89.9292 24.9088 89.9292 24.6784 89.9292 24.4481C89.9292 23.1362 89.9292 21.8275 89.9292 20.5156C88.7997 21.1364 87.6638 21.8083 86.4927 22.4739C86.4959 22.6978 86.4959 22.9218 86.4959 23.1458Z" fill="url(#paint10_linear)"/>
<path d="M94.3479 19.6097C94.3543 19.5649 94.3639 19.5233 94.3639 19.4881C94.3607 19.4209 94.3479 19.3537 94.3447 19.2898C94.3351 19.021 94.3351 18.749 94.3319 18.4802C93.4296 18.7938 92.5433 19.181 91.6633 19.6129C92.556 19.6097 93.452 19.6097 94.3479 19.6097Z" fill="url(#paint11_linear)"/>
<path d="M95.9892 17.9972C95.986 19.9522 95.9668 21.9104 96.0116 23.8654C96.0212 24.3646 96.002 24.8669 96.0468 25.3661C96.0724 25.6669 96.1012 25.9676 96.1684 26.262C96.2644 26.6876 96.4468 27.0587 96.8244 27.2667C96.9715 27.3467 97.1283 27.4171 97.2883 27.4587C97.7043 27.5707 98.1298 27.6123 98.5554 27.6219C99.3137 27.6411 100.072 27.6283 100.83 27.6315C100.853 27.6315 100.878 27.6251 100.904 27.6187C100.904 26.8795 100.904 26.15 100.904 25.3917C100.715 25.3917 100.539 25.4013 100.366 25.3885C100.194 25.3757 100.024 25.3501 99.8545 25.3117C99.6785 25.2733 99.5537 25.1549 99.5121 24.9565C99.4833 24.8061 99.4545 24.6525 99.4545 24.499C99.4513 22.2176 99.4513 19.9362 99.4513 17.658C98.2482 17.6132 97.0995 17.7412 95.9892 17.9972Z" fill="url(#paint12_linear)"/>
<path d="M81.9907 27.6247C83.1586 27.6247 84.3201 27.6247 85.4848 27.6247C85.4848 26.0952 85.4848 24.569 85.4848 23.0427C84.3649 23.6603 83.2066 24.2586 81.9907 24.793C81.9907 25.7369 81.9907 26.6808 81.9907 27.6247Z" fill="url(#paint13_linear)"/>
<defs>
<linearGradient id="paint0_linear" x1="49.3826" y1="24.5373" x2="57.3893" y2="16.5306" gradientUnits="userSpaceOnUse">
<stop offset="0.5" stop-color="#A0BE2F"/>
<stop offset="0.9989" stop-color="#345D2D"/>
</linearGradient>
<linearGradient id="paint1_linear" x1="48.7661" y1="26.767" x2="59.4312" y2="20.6095" gradientUnits="userSpaceOnUse">
<stop offset="0.0027" stop-color="#92C1EF"/>
<stop offset="0.7575" stop-color="#4B7E95"/>
</linearGradient>
<linearGradient id="paint2_linear" x1="76.9018" y1="11.004" x2="76.9018" y2="27.8511" gradientUnits="userSpaceOnUse">
<stop offset="0.0278" stop-color="#AEC223"/>
<stop offset="0.7527" stop-color="#3B632D"/>
</linearGradient>
<linearGradient id="paint3_linear" x1="67.9342" y1="13.8878" x2="67.9342" y2="27.8564" gradientUnits="userSpaceOnUse">
<stop offset="0.0278" stop-color="#AEC223"/>
<stop offset="0.7527" stop-color="#3B632D"/>
</linearGradient>
<linearGradient id="paint4_linear" x1="90.4343" y1="13.8856" x2="90.4343" y2="27.851" gradientUnits="userSpaceOnUse">
<stop offset="0.0278" stop-color="#AEC223"/>
<stop offset="0.7527" stop-color="#3B632D"/>
</linearGradient>
<linearGradient id="paint5_linear" x1="97.9146" y1="11.8462" x2="97.9146" y2="27.6378" gradientUnits="userSpaceOnUse">
<stop offset="0.0278" stop-color="#AEC223"/>
<stop offset="0.7527" stop-color="#3B632D"/>
</linearGradient>
<linearGradient id="paint6_linear" x1="83.7362" y1="14.0814" x2="83.7362" y2="27.6261" gradientUnits="userSpaceOnUse">
<stop offset="0.0278" stop-color="#AEC223"/>
<stop offset="0.7527" stop-color="#3B632D"/>
</linearGradient>
<linearGradient id="paint7_linear" x1="83.7351" y1="11.0001" x2="83.7351" y2="13.2821" gradientUnits="userSpaceOnUse">
<stop offset="0.0278" stop-color="#AEC223"/>
<stop offset="0.7527" stop-color="#A3B925"/>
</linearGradient>
<linearGradient id="paint8_linear" x1="76.9211" y1="27.8504" x2="76.9211" y2="25.2423" gradientUnits="userSpaceOnUse">
<stop offset="0.0027" stop-color="#92C1EF"/>
<stop offset="0.7575" stop-color="#4B7E95"/>
</linearGradient>
<linearGradient id="paint9_linear" x1="67.8632" y1="27.8567" x2="67.8632" y2="22.2316" gradientUnits="userSpaceOnUse">
<stop offset="0.0027" stop-color="#92C1EF"/>
<stop offset="0.7575" stop-color="#4B7E95"/>
</linearGradient>
<linearGradient id="paint10_linear" x1="90.4341" y1="27.8506" x2="90.4341" y2="20.5159" gradientUnits="userSpaceOnUse">
<stop offset="0.0027" stop-color="#92C1EF"/>
<stop offset="0.7575" stop-color="#4B7E95"/>
</linearGradient>
<linearGradient id="paint11_linear" x1="93.0133" y1="19.6091" x2="93.0133" y2="18.4761" gradientUnits="userSpaceOnUse">
<stop offset="0.0278" stop-color="#4C7E95"/>
<stop offset="0.7575" stop-color="#4B7E95"/>
</linearGradient>
<linearGradient id="paint12_linear" x1="98.4431" y1="27.6372" x2="98.4431" y2="17.6503" gradientUnits="userSpaceOnUse">
<stop offset="0.0027" stop-color="#92C1EF"/>
<stop offset="0.7575" stop-color="#4B7E95"/>
</linearGradient>
<linearGradient id="paint13_linear" x1="83.7362" y1="27.6247" x2="83.7362" y2="23.0424" gradientUnits="userSpaceOnUse">
<stop offset="0.0027" stop-color="#92C1EF"/>
<stop offset="0.7575" stop-color="#4B7E95"/>
</linearGradient>
</defs>
</svg>
