<svg width="147" height="40" viewBox="0 0 147 40" fill="none" xmlns="http://www.w3.org/2000/svg">
<g clip-path="url(#clip0)">
<path d="M45.4197 1.66267C55.7624 1.66267 64.1767 10.077 64.1767 20.4197C64.1767 30.7624 55.7624 39.1767 45.4197 39.1767C35.077 39.1767 26.6627 30.7627 26.6627 20.4197C26.6627 10.0767 35.077 1.66267 45.4197 1.66267ZM45.4197 1C34.6943 1 26 9.69429 26 20.4197C26 31.1451 34.6943 39.8394 45.4197 39.8394C56.1451 39.8394 64.8394 31.1451 64.8394 20.4197C64.8394 9.69429 56.1451 1 45.4197 1Z" fill="#7C8080"/>
<path d="M53.7081 31.2411H54.2945C55.4572 31.2411 60.2288 30.5692 61.0561 29.3684C62.5887 26.6838 63.3932 23.6454 63.3897 20.5542C63.3897 10.7081 55.4078 2.72656 45.5621 2.72656C35.7165 2.72656 27.7349 10.7081 27.7349 20.5542C27.7304 24.2256 28.8651 27.8081 30.9826 30.8074C31.3001 30.7991 34.127 29.6325 37.7138 29.6325C44.2587 29.6325 46.7129 31.2415 53.7081 31.2415V31.2411Z" fill="#DF2D38"/>
<path d="M61.0559 29.3684C60.2282 30.5692 55.457 31.2415 54.2943 31.2415H53.7078C46.713 31.2415 44.2584 29.6325 37.7135 29.6325C34.1268 29.6325 31.2998 30.7988 30.9824 30.8074C34.0407 35.1479 38.9836 38.064 44.6236 38.3566C45.3555 38.3871 46.0801 38.3755 46.7879 38.3347C52.9083 37.9186 58.1779 34.4157 61.0559 29.3684Z" fill="#DF2D38"/>
<path d="M49.9743 6.47791H46.8028L45.5622 3.14697L44.322 6.47791H41.1505L43.8081 8.71046L42.6213 11.9175L45.5622 9.9152L48.5035 11.9175L47.3163 8.71046L49.9743 6.47791ZM40.3128 20.0846C40.3128 20.0846 41.7962 19.0495 41.7853 17.8955C41.7697 16.2123 40.8036 13.7952 37.0671 13.7952C33.5307 13.7952 32.0698 15.1606 31.9946 16.2007V26.1352C31.9946 26.3823 32.1182 26.6119 32.326 26.7455C33.0188 27.1921 34.7116 28.1421 36.574 28.1421C42.8635 28.1421 44.6023 22.4321 40.3128 20.0846V20.0846ZM36.8447 16.5081C38.4968 16.5081 38.6058 18.9866 37.6708 18.9866H35.2706C35.2706 18.9866 35.0211 16.5081 36.8444 16.5081H36.8447ZM36.7596 25.3608C35.3484 25.3608 35.259 24.2078 35.259 24.2078V21.731C37.6009 21.731 39.0577 21.5306 39.0577 23.2883C39.0577 25.046 38.2261 25.3608 36.7596 25.3608V25.3608Z" fill="white"/>
<path d="M39.6001 13.7952H51.5945C51.5945 13.7952 48.356 15.3213 48.356 16.7199H46.8494V28.1421H43.877V16.7606H42.3227C42.3227 16.7606 41.4168 13.7952 39.6001 13.7952V13.7952Z" fill="white"/>
<path d="M54.676 19.6237V22.5965H56.558V24.9145C56.558 24.9145 55.958 25.5689 54.676 25.5689C53.0399 25.5689 50.858 24.3416 50.858 21.1237C50.858 18.0966 52.9613 16.6036 54.5534 16.6036C56.1455 16.6036 57.5941 17.7474 57.5941 17.7474L59.0666 15.315C59.0666 15.315 57.6759 13.7952 54.8122 13.7952C52.3305 13.7952 47.9128 15.2332 47.9128 21.0965C47.9128 23.4145 48.6215 28.1421 54.5938 28.1421C58.3032 28.1421 59.5029 26.5235 59.5029 26.5235V19.5965L54.676 19.6237V19.6237ZM54.3649 36.1011C55.3291 35.5551 56.2263 34.8934 57.0679 34.1837L57.0573 34.188C56.8817 34.237 56.054 34.2112 54.7125 34.2112C53.1707 34.2112 51.0807 33.6674 49.0307 33.1691C45.6577 32.3497 42.4215 30.8488 41.5928 30.6244C41.5928 30.6244 47.9754 31.9952 53.243 31.9952C56.5255 31.9952 58.8707 31.3749 60.1249 30.9071C60.4797 30.4111 60.7643 29.8799 61.0675 29.3478C60.2402 30.5486 55.457 31.2414 54.2943 31.2414H53.7078C46.713 31.2414 44.2584 29.6324 37.7135 29.6324C34.1268 29.6324 31.2998 30.7987 30.9824 30.8073C32.0347 32.3593 33.2885 33.634 34.7315 34.7387C36.367 35.0017 40.0703 35.0233 43.3234 38.2697C43.7532 38.3237 44.1829 38.3512 44.6216 38.3738C45.3535 38.4042 46.099 38.4271 46.8068 38.3867C47.6606 38.3284 48.5068 38.2237 49.3057 37.9874C49.1983 37.8897 49.0738 37.7876 48.9545 37.7055C45.5805 35.3801 39.522 31.9468 38.0614 31.7586C38.0614 31.7586 40.1111 31.6072 42.4119 32.5575C45.4194 33.8006 48.6974 34.7499 50.3428 35.1618" fill="white"/>
<path d="M70.0933 9.61255H73.3162C75.3705 9.61255 76.892 10.2461 76.892 12.1238C76.892 13.0763 76.3807 14.0154 75.5149 14.3268V14.3891C76.6093 14.6462 77.4181 15.4282 77.4181 16.8022C77.4181 18.8426 75.7714 19.7919 73.5759 19.7919H70.0936V9.61255H70.0933ZM73.1644 13.7987C74.5183 13.7987 75.0965 13.2553 75.0965 12.3898C75.0965 11.4323 74.4613 11.0675 73.1982 11.0675H71.9272V13.7987H73.1644V13.7987ZM73.3931 18.3373C74.8277 18.3373 75.623 17.8135 75.623 16.6962C75.623 15.6482 74.8509 15.1949 73.3931 15.1949H71.9272V18.3373H73.3931Z" fill="#DF2D38"/>
<path d="M78.7383 12.1329H80.561V19.7918H78.7386V12.1329H78.7383ZM81.6007 21.1728C81.6007 20.5283 81.99 19.9707 82.6815 19.5509V19.4886C82.2955 19.2312 82.0013 18.8263 82.0013 18.207C82.0013 17.6199 82.3943 17.0937 82.8343 16.7779V16.7156C82.3181 16.3303 81.8409 15.6024 81.8409 14.6995C81.8409 12.9301 83.2481 11.946 84.8263 11.946C85.2424 11.946 85.6361 12.0199 85.9462 12.1329H88.64V13.5093H87.2908C87.5217 13.7886 87.6963 14.2505 87.6963 14.7581C87.6963 16.4688 86.4233 17.3664 84.8263 17.3664C84.5138 17.3664 84.1596 17.3001 83.8233 17.1706C83.6026 17.3627 83.4704 17.5483 83.4704 17.882C83.4704 18.3054 83.7759 18.5572 84.6752 18.5572H85.9966C87.798 18.5572 88.7616 19.1258 88.7616 20.4545C88.7616 21.9743 87.1987 23.1615 84.7292 23.1615C82.9426 23.1615 81.6007 22.5164 81.6007 21.1728V21.1728ZM87.0048 20.7596C87.0048 20.1818 86.5476 20.0154 85.7037 20.0154H84.7057C84.2879 20.0154 83.9674 19.9843 83.6855 19.9104C83.2981 20.2129 83.1275 20.5419 83.1275 20.8868C83.1275 21.5701 83.8515 21.9614 85.0095 21.9614C86.193 21.9614 87.0048 21.4041 87.0048 20.7596ZM86.0926 14.6995C86.0926 13.7578 85.5416 13.2247 84.8263 13.2247C84.1109 13.2247 83.5592 13.7522 83.5592 14.6991C83.5592 15.6547 84.1222 16.2054 84.8263 16.2054C85.5304 16.2054 86.0926 15.6547 86.0926 14.6995Z" fill="white"/>
<path d="M92.7503 11.1847H89.8853V9.61255H97.449V11.1847H94.5843V19.7919H92.7503V11.1847V11.1847Z" fill="#DF2D38"/>
<path d="M98.9556 12.1329H100.778V19.7918H98.9559V12.1329H98.9556ZM102.325 12.1329H103.818L103.955 13.1697H104.005C104.639 12.4987 105.36 11.946 106.308 11.946C107.403 11.946 108.031 12.4517 108.381 13.3075C109.093 12.5378 109.831 11.946 110.79 11.946C112.38 11.946 113.113 13.065 113.113 14.9957V19.7918H111.29V15.2342C111.29 13.995 110.932 13.5378 110.164 13.5378C109.7 13.5378 109.197 13.8403 108.63 14.4649V19.7918H106.808V15.2342C106.808 13.995 106.45 13.5378 105.681 13.5378C105.229 13.5378 104.715 13.8403 104.148 14.4649V19.7918H102.325V12.1329ZM114.412 15.9681C114.412 13.4805 116.371 11.946 118.413 11.946C120.768 11.946 122 13.4546 122 15.5874C122 15.939 121.956 16.2909 121.91 16.4777H116.458C116.635 17.8048 117.605 18.5436 118.969 18.5436C119.698 18.5436 120.326 18.3415 120.959 17.9953L121.67 19.145C120.838 19.6443 119.78 19.9787 118.69 19.9787C116.291 19.9787 114.412 18.4953 114.412 15.9681V15.9681ZM120.188 15.2187C120.188 14.0842 119.62 13.3814 118.457 13.3814C117.475 13.3814 116.612 14.0242 116.436 15.2187H120.188V15.2187Z" fill="white"/>
<path d="M69.5752 30.5012C69.5752 27.164 71.87 25.1873 74.7921 25.1873C76.355 25.1873 77.4309 25.8218 78.1287 26.4801L77.0528 27.6849C76.5031 27.1912 75.866 26.8101 74.8557 26.8101C72.9419 26.8101 71.6464 28.1888 71.6464 30.4423C71.6464 32.7348 72.7902 34.1168 74.9747 34.1168C75.5635 34.1168 76.1489 33.9624 76.4872 33.6877V31.5469H74.4515V30.0138H78.2924V34.5293C77.5574 35.2142 76.2798 35.7404 74.7722 35.7404C71.8028 35.7404 69.5752 33.8772 69.5752 30.5012V30.5012Z" fill="#DF2D38"/>
<path d="M79.1473 33.4866C79.1473 31.8498 80.471 30.993 83.5395 30.6583C83.5127 29.8552 83.1876 29.2018 82.1986 29.2018C81.4673 29.2018 80.7738 29.5354 80.1042 29.9483L79.4369 28.7124C80.2795 28.174 81.3454 27.7078 82.5366 27.7078C84.4202 27.7078 85.3622 28.8787 85.3622 31.0397V35.5535H83.8699L83.7317 34.7136H83.682C83.0143 35.2974 82.2516 35.7407 81.3702 35.7407C80.0479 35.7407 79.147 34.8156 79.147 33.4866H79.1473ZM83.5395 33.479V31.8077C81.5621 32.0639 80.9044 32.596 80.9044 33.3438C80.9044 33.9965 81.3414 34.2855 81.958 34.2855C82.5558 34.2855 83.0041 33.9866 83.5395 33.479ZM86.7773 27.8946H88.2697L88.4075 28.9311H88.4572C89.0911 28.2604 89.8117 27.7078 90.7597 27.7078C91.8548 27.7078 92.4833 28.2131 92.8335 29.0689C93.5446 28.2995 94.2831 27.7078 95.2423 27.7078C96.8318 27.7078 97.565 28.8264 97.565 30.7574V35.5535H95.7423V30.996C95.7423 29.7568 95.3845 29.2995 94.6158 29.2995C94.1519 29.2995 93.6493 29.602 93.082 30.2266V35.5535H91.2597V30.996C91.2597 29.7568 90.9018 29.2995 90.1335 29.2995C89.6808 29.2995 89.1666 29.602 88.5997 30.2266V35.5535H86.7773V27.8943V27.8946ZM99.6829 27.8946H101.506V35.5535H99.6833V27.8943L99.6829 27.8946ZM103.384 27.8946H104.876L105.014 28.9215H105.064C105.731 28.2604 106.495 27.7078 107.522 27.7078C109.135 27.7078 109.837 28.8264 109.837 30.7574V35.5535H108.015V30.996C108.015 29.7568 107.668 29.2995 106.877 29.2995C106.229 29.2995 105.807 29.6216 105.206 30.2266V35.5535H103.384V27.8943V27.8946ZM111.114 36.9345C111.114 36.2901 111.503 35.7324 112.195 35.3123V35.2503C111.809 34.9929 111.514 34.5876 111.514 33.9684C111.514 33.3816 111.907 32.8554 112.347 32.5397V32.477C111.831 32.0917 111.354 31.3641 111.354 30.4612C111.354 28.6918 112.761 27.7078 114.339 27.7078C114.756 27.7078 115.149 27.7817 115.459 27.8943H118.153V29.271H116.804C117.035 29.5503 117.209 30.0119 117.209 30.5195C117.209 32.2302 115.936 33.1278 114.339 33.1278C114.027 33.1278 113.673 33.0618 113.336 32.9323C113.116 33.1245 112.983 33.31 112.983 33.6437C112.983 34.0668 113.289 34.3186 114.189 34.3186H115.51C117.311 34.3186 118.275 34.8872 118.275 36.2162C118.275 37.736 116.712 38.9232 114.242 38.9232C112.456 38.9232 111.114 38.2778 111.114 36.9345H111.114ZM116.518 36.5213C116.518 35.9432 116.061 35.7768 115.217 35.7768H114.219C113.801 35.7768 113.48 35.746 113.198 35.6721C112.811 35.9743 112.641 36.3033 112.641 36.6482C112.641 37.3315 113.364 37.7231 114.523 37.7231C115.706 37.7231 116.518 37.1655 116.518 36.5213V36.5213ZM115.606 30.4612C115.606 29.5195 115.055 28.9861 114.339 28.9861C113.624 28.9861 113.073 29.5136 113.073 30.4612C113.073 31.4161 113.635 31.9668 114.339 31.9668C115.043 31.9668 115.606 31.4161 115.606 30.4612Z" fill="white"/>
<path d="M99.8669 10.8209C100.483 10.8209 100.982 10.3558 100.982 9.78215C100.982 9.20847 100.483 8.74341 99.8669 8.74341C99.2511 8.74341 98.752 9.20847 98.752 9.78215C98.752 10.3558 99.2511 10.8209 99.8669 10.8209Z" fill="#DF2D38"/>
<path d="M79.9812 10.8209C80.5969 10.8209 81.0961 10.3558 81.0961 9.78215C81.0961 9.20847 80.5969 8.74341 79.9812 8.74341C79.3654 8.74341 78.8662 9.20847 78.8662 9.78215C78.8662 10.3558 79.3654 10.8209 79.9812 10.8209Z" fill="#DF2D38"/>
<path d="M100.594 26.5826C101.21 26.5826 101.709 26.1175 101.709 25.5439C101.709 24.9702 101.21 24.5051 100.594 24.5051C99.9787 24.5051 99.4795 24.9702 99.4795 25.5439C99.4795 26.1175 99.9787 26.5826 100.594 26.5826Z" fill="#DF2D38"/>
</g>
<defs>
<clipPath id="clip0">
<rect x="26" y="1" width="96" height="38.8397" fill="white"/>
</clipPath>
</defs>
</svg>
