<svg width="147" height="40" viewBox="0 0 147 40" fill="none" xmlns="http://www.w3.org/2000/svg">
<path d="M48.4659 10C49.2412 10.7351 50.0166 11.4702 50.7812 12.1946C51.6505 11.5776 52.5198 10.9659 53.4293 10.3246C54.3012 10.9363 55.1947 11.5185 56.0371 12.1678C56.8393 12.7902 57.5878 13.4771 58.3525 14.1451C58.8971 14.62 59.4686 15.0734 59.9542 15.6046C61.25 17.0266 62.4922 18.4942 63.3078 20.2622C63.8793 21.5017 64.1959 22.819 63.9571 24.1551C63.6513 25.8749 62.7203 27.2298 61.1722 28.1447C59.4686 29.1508 56.7829 28.9683 55.1598 27.6027C54.7681 27.2754 54.4139 26.9051 54.0061 26.5215C54.379 28.5847 56.0666 29.7705 58.602 29.9288C58.6181 30.0683 58.6342 30.2212 58.653 30.3715C55.149 30.3715 51.6478 30.3715 48.1439 30.3715C48.1385 30.0334 48.3237 29.9234 48.6429 29.8778C49.1634 29.8 49.7 29.7303 50.1883 29.5451C51.5137 29.0434 52.5251 28.2225 52.7532 26.6959C52.0986 27.4337 51.2937 27.9381 50.4137 28.3539C49.3754 28.8449 48.2888 28.8664 47.2076 28.6759C46.1022 28.48 45.2329 27.8522 44.4066 27.0795C43.1081 25.8615 42.4695 23.4683 43.0866 21.5554C43.3871 20.619 43.7359 19.7095 44.2778 18.8778C43.4998 18.0568 42.7512 17.2627 42 16.4685C42 16.1439 42 15.822 42 15.4973C42.2468 15.2237 42.4829 14.942 42.7405 14.679C43.7815 13.6273 44.8305 12.5837 45.8768 11.54C46.011 11.4085 46.1559 11.2878 46.29 11.159C46.6924 10.7754 47.0922 10.3863 47.4946 10.0027C47.8193 10 48.1412 10 48.4659 10ZM53.4642 15.999C53.2603 15.7576 53.0886 15.5215 52.8847 15.3149C52.3212 14.7381 51.7471 14.172 51.1756 13.6005C50.2822 12.7044 49.3915 11.8056 48.49 10.9202C48.0956 10.5312 47.8756 10.5446 47.4678 10.9176C47.4303 10.9551 47.3927 10.9927 47.3551 11.0329C45.909 12.479 44.4602 13.9224 43.0195 15.3712C42.4749 15.9185 42.4829 16.211 43.0517 16.7824C44.4388 18.1749 45.8232 19.5646 47.221 20.9464C47.441 21.1637 47.7173 21.3246 47.94 21.491C48.6429 21.1207 53.0429 16.7583 53.4642 15.999Z" fill="url(#paint0_linear)"/>
<path d="M106.664 20.1848C106.235 20.1848 105.803 20.1848 105.373 20.1902C105.129 20.1928 104.974 20.0882 104.89 19.8521C104.77 19.5033 104.63 19.1599 104.483 18.7762C103.753 18.7762 103.007 18.7762 102.197 18.7762C101.998 19.2162 101.784 19.6938 101.574 20.158C101.006 20.158 100.474 20.158 99.927 20.158C100.799 18.0411 101.655 15.9619 102.508 13.8933C103.087 13.8933 103.597 13.8933 104.145 13.8933C104.77 15.4306 105.392 16.9787 106.031 18.5187C106.221 18.9775 106.452 19.4148 106.667 19.8628C106.664 19.9702 106.664 20.0775 106.664 20.1848ZM103.345 15.5916C103.023 16.3455 102.771 16.9384 102.489 17.5984C103.061 17.5743 103.554 17.6467 104.094 17.526C103.849 16.8875 103.621 16.3026 103.345 15.5916Z" fill="url(#paint1_linear)"/>
<path d="M89.1794 21.6631C89.1794 23.7826 89.1794 25.8189 89.1794 27.9009C88.7636 27.9009 88.3745 27.9009 87.9104 27.9009C87.9104 26.4682 87.9104 25.0597 87.9104 23.6511C87.8755 23.6485 87.8406 23.6458 87.8057 23.6431C87.3604 24.9175 86.8962 26.1865 86.4831 27.4716C86.3704 27.8231 86.2174 27.9626 85.8687 27.9492C85.5735 27.9358 85.2784 27.9465 84.9216 27.9465C84.2965 26.5782 84.0228 25.0838 83.454 23.5867C83.344 23.9865 83.4004 24.3138 83.3923 24.6331C83.3816 25.0087 83.3896 25.387 83.3896 25.7626C83.3896 26.1114 83.3896 26.4628 83.3896 26.8116C83.3896 27.1577 83.3896 27.5038 83.3896 27.8982C82.9496 27.8982 82.5633 27.8982 82.1313 27.8982C82.1313 25.827 82.1313 23.7692 82.1313 21.6738C82.7967 21.6738 83.4353 21.6738 84.1167 21.6738C84.5835 23.136 85.0584 24.6197 85.5816 26.2616C86.2416 24.6814 86.6226 23.1494 87.1914 21.6631C87.8353 21.6631 88.4738 21.6631 89.1794 21.6631Z" fill="url(#paint2_linear)"/>
<path d="M65.0141 13.8765C66.4012 13.8765 67.7427 13.8496 69.0814 13.8872C69.771 13.9087 70.2754 14.2816 70.5115 14.9657C70.718 15.564 70.6885 16.1221 70.2351 16.5996C70.1063 16.7338 69.9373 16.8304 69.6368 17.0584C69.9078 17.2355 70.0849 17.316 70.2217 17.4421C70.8415 18.0189 70.6832 18.9901 70.3156 19.5831C70.058 20.0016 69.6019 20.1626 69.1485 20.1733C67.7829 20.2055 66.4173 20.184 65.0624 20.184C64.931 19.5482 64.8961 15.0623 65.0141 13.8765ZM66.428 16.4574C67.131 16.4574 67.7722 16.4762 68.4134 16.4494C68.7514 16.436 68.9741 16.1516 68.9956 15.8001C69.0224 15.4004 68.958 15.3118 68.5556 15.1643C67.8554 14.9094 67.1497 15.0221 66.428 15.0489C66.428 15.5318 66.428 15.9343 66.428 16.4574ZM66.5058 17.6031C66.3502 18.0779 66.4093 18.5367 66.4549 19.0465C67.0666 19.0465 67.6273 19.0572 68.188 19.0411C68.3383 19.0357 68.4885 18.9526 68.6388 18.9016C68.9097 18.8131 68.9956 18.6199 69.001 18.3462C69.0063 18.0404 68.9178 17.8204 68.6039 17.7372C68.4268 17.6916 68.2497 17.6165 68.07 17.6111C67.5602 17.5923 67.0505 17.6031 66.5058 17.6031Z" fill="url(#paint3_linear)"/>
<path d="M98.5535 17.4589C99.667 18.1377 99.4282 19.2109 99.6589 20.1901C99.2323 20.1901 98.8111 20.1928 98.3872 20.1901C98.0921 20.1875 97.9633 20.0211 97.9311 19.7367C97.8935 19.396 97.8533 19.0526 97.7755 18.7172C97.6601 18.2236 97.357 17.9687 96.8231 17.907C96.3535 17.856 95.8975 17.6843 95.3635 17.8265C95.3635 18.5831 95.3635 19.3316 95.3635 20.1016C94.8753 20.2545 94.4299 20.1741 93.9926 20.1687C93.8638 19.5436 93.837 14.886 93.9604 13.8745C94.2609 13.8745 94.5774 13.8745 94.894 13.8745C95.7284 13.8745 96.5655 13.8933 97.3999 13.8692C97.8157 13.8584 98.1967 13.9631 98.5616 14.116C99.6321 14.564 99.9594 16.0021 99.2082 16.8928C99.1223 16.9948 99.0231 17.0914 98.9238 17.1772C98.8218 17.2658 98.7092 17.3409 98.5535 17.4589ZM95.385 16.6245C96.0531 16.6245 96.6862 16.6379 97.3194 16.6192C97.6575 16.6084 97.8935 16.3428 97.9338 16.0075C97.9982 15.4682 97.9177 15.3233 97.4643 15.165C96.9116 14.9718 96.0182 14.9611 95.385 15.1355C95.385 15.6077 95.385 16.0826 95.385 16.6245Z" fill="url(#paint4_linear)"/>
<path d="M74.2944 21.6363C74.2944 22.071 74.2944 22.3876 74.2944 22.7739C73.4842 22.7739 72.7115 22.7873 71.9388 22.7712C70.5652 22.7417 70.093 23.1951 70.1278 24.5607C70.1386 25.0115 70.0876 25.4622 70.2808 25.9022C70.5008 26.4093 70.7583 26.6373 71.2815 26.6454C71.7859 26.6534 72.293 26.6481 72.8322 26.6481C72.8322 26.2134 72.8322 25.8459 72.8322 25.4327C72.3117 25.2368 71.7376 25.4488 71.1554 25.3066C71.0508 24.9283 71.0937 24.5393 71.1286 24.0617C72.0595 24.0617 72.9664 24.051 73.8732 24.0671C74.2113 24.0724 74.3239 24.2066 74.3266 24.5902C74.3374 25.6661 74.3293 26.742 74.3293 27.8661C74.1361 27.8929 73.9591 27.9385 73.7847 27.9385C72.8966 27.9466 72.0086 27.9681 71.1232 27.9332C70.3317 27.901 69.5913 27.6837 69.1003 26.9861C68.8213 26.589 68.6576 26.1383 68.5852 25.6607C68.3947 24.4051 68.4644 23.2005 69.441 22.2454C69.8515 21.8456 70.3478 21.6149 70.9542 21.6256C72.0515 21.6497 73.1488 21.6363 74.2944 21.6363Z" fill="url(#paint5_linear)"/>
<path d="M101.459 21.636C101.459 22.0331 101.459 22.347 101.459 22.72C101.255 22.7387 101.051 22.7709 100.845 22.7736C100.01 22.779 99.1732 22.7629 98.3388 22.7843C98.0571 22.7924 97.778 22.8809 97.5473 22.9239C97.4963 23.0634 97.4615 23.1117 97.4615 23.16C97.448 24.0587 97.448 24.0587 98.3468 24.0641C98.8593 24.0668 99.3717 24.04 99.8815 24.0721C100.568 24.1178 101.193 24.3351 101.54 24.9897C101.95 25.7624 101.918 26.5109 101.365 27.23C101.032 27.6646 100.576 27.9087 100.083 27.9275C98.7976 27.9785 97.5124 27.9436 96.1897 27.9436C96.1897 27.5009 96.1897 27.1334 96.1897 26.7068C96.391 26.688 96.5949 26.6558 96.8015 26.6531C97.5554 26.6478 98.3093 26.6504 99.0658 26.6504C99.2268 26.6504 99.3905 26.6612 99.5515 26.6478C99.9512 26.6129 100.214 26.3312 100.198 25.9743C100.182 25.6551 99.9244 25.3841 99.5702 25.3653C99.141 25.3439 98.7063 25.3814 98.2771 25.3519C97.829 25.3197 97.3729 25.2795 96.9383 25.1721C96.2837 25.0112 95.9751 24.4478 95.8651 23.8763C95.6397 22.7065 96.2085 21.6092 97.6546 21.6307C98.8888 21.6495 100.128 21.636 101.459 21.636Z" fill="url(#paint6_linear)"/>
<path d="M81.5332 27.908C80.9 27.908 80.4251 27.908 79.8886 27.908C79.6847 27.4572 79.4673 26.9797 79.2527 26.5048C78.4961 26.5048 77.7717 26.5048 76.991 26.5048C76.7844 26.9663 76.5698 27.4465 76.3578 27.9133C75.8454 27.9133 75.3678 27.9133 74.842 27.9133C74.8312 27.1031 75.3437 26.5075 75.569 25.8233C75.8078 25.0936 76.1512 24.3987 76.4464 23.6877C76.7307 23.0062 77.0125 22.3221 77.2915 21.6514C77.8683 21.6514 78.3754 21.6514 78.9468 21.6514C79.792 23.685 80.6371 25.7348 81.5332 27.908ZM78.1071 23.2584C77.8576 23.9077 77.6295 24.4953 77.3827 25.1338C77.9032 25.2143 78.362 25.2411 78.8583 25.115C78.6061 24.4872 78.37 23.9077 78.1071 23.2584Z" fill="url(#paint7_linear)"/>
<path d="M84.3852 13.8768C84.7983 13.8768 85.1471 13.901 85.4905 13.8715C85.8849 13.8366 86.0835 14.0163 86.2149 14.3598C86.4215 14.9044 86.6415 15.4463 86.8642 15.9856C87.4142 17.3083 87.9722 18.631 88.5222 19.9537C88.5383 19.9966 88.5142 20.0556 88.5008 20.1924C88.0903 20.1924 87.6637 20.2166 87.2452 20.179C87.0896 20.1656 86.9366 20.0154 86.7971 19.9081C86.7408 19.8651 86.722 19.7685 86.6952 19.6934C86.3088 18.5827 86.4456 18.749 85.2759 18.741C84.8761 18.7383 84.3771 18.6363 84.1061 18.8322C83.811 19.0468 83.7252 19.5539 83.5508 19.9349C83.5186 20.0046 83.4917 20.0771 83.4569 20.1629C82.9176 20.1629 82.3891 20.1629 81.7773 20.1629C82.66 18.0354 83.5186 15.9642 84.3852 13.8768ZM85.9976 17.5685C85.7186 16.8924 85.4798 16.3076 85.1766 15.5671C84.8761 16.321 84.6374 16.922 84.3825 17.5685C84.9298 17.5685 85.4047 17.5685 85.9976 17.5685Z" fill="url(#paint8_linear)"/>
<path d="M95.1543 24.1954C95.1543 24.6193 95.1543 24.9333 95.1543 25.333C94.0141 25.4054 92.8685 25.3223 91.7255 25.3786C91.8275 26.3525 92.136 26.6423 93.0724 26.6503C93.7431 26.6557 94.4112 26.6503 95.1114 26.6503C95.2375 27.0742 95.1865 27.4633 95.1597 27.9059C93.9899 27.9837 92.8309 28.0642 91.7309 27.7262C90.926 27.4794 90.4163 26.7818 90.2016 25.9796C89.9951 25.215 89.9065 24.4235 90.1748 23.624C90.4565 22.7762 90.8697 22.0706 91.7551 21.7459C91.8785 21.7003 92.0072 21.644 92.136 21.644C93.126 21.6359 94.116 21.6386 95.149 21.6386C95.149 22.033 95.149 22.3684 95.149 22.7762C94.5319 22.7762 93.947 22.7708 93.3621 22.7789C93.1233 22.7815 92.8711 22.7735 92.6485 22.8406C91.7738 23.1035 91.8221 23.2215 91.696 24.1981C92.8175 24.1954 93.9416 24.1954 95.1543 24.1954Z" fill="url(#paint9_linear)"/>
<path d="M76.2448 19.0475C76.2448 19.4687 76.2448 19.7826 76.2448 20.1851C75.1046 20.1234 73.9885 20.3541 72.8858 20.0161C71.9012 19.7129 71.5014 18.9483 71.2492 18.0253C71.0292 17.2178 71.1124 16.4665 71.3914 15.6912C71.8046 14.5429 72.6497 13.8802 73.8356 13.8775C74.5626 13.8748 75.2897 13.8775 76.0141 13.8829C76.0651 13.8829 76.116 13.907 76.2207 13.9339C76.2207 14.2531 76.2207 14.5858 76.2207 15.007C75.8558 15.0124 75.4882 14.9963 75.1207 15.0231C74.5921 15.0634 74.0609 15.1143 73.5378 15.1922C73.2265 15.2378 73.0253 15.4631 72.9153 15.7502C72.8402 15.9461 72.7999 16.1526 72.7221 16.429C73.3338 16.4961 73.9187 16.4531 74.4982 16.4612C75.059 16.4692 75.6197 16.4639 76.226 16.4639C76.226 16.8529 76.226 17.1856 76.226 17.5746C75.0858 17.5746 73.9643 17.5746 72.8456 17.5746C72.7919 18.1729 72.9743 18.637 73.4787 18.8463C73.8356 18.9939 74.2541 19.0153 74.6485 19.0395C75.1556 19.0717 75.6653 19.0475 76.2448 19.0475Z" fill="url(#paint10_linear)"/>
<path d="M87.7815 15.017C87.7815 14.5904 87.7815 14.2765 87.7815 13.9197C89.5978 13.9197 91.382 13.9197 93.2091 13.9197C93.2091 14.2738 93.2091 14.6065 93.2091 14.9902C92.5464 14.9902 91.9078 14.9902 91.3149 14.9902C91.2505 15.0572 91.2317 15.076 91.2156 15.0975C91.1995 15.1163 91.1754 15.1404 91.1754 15.1619C91.1727 16.7985 91.1727 18.435 91.1727 20.0851C90.7435 20.2541 90.3491 20.1736 89.9037 20.1682C89.8849 19.9482 89.85 19.7443 89.85 19.5404C89.8447 18.2526 89.8527 16.9621 89.8447 15.6743C89.842 15.0894 89.7749 15.0277 89.2034 15.017C88.75 15.0089 88.2966 15.017 87.7815 15.017Z" fill="url(#paint11_linear)"/>
<path d="M81.4123 19.0468C81.4123 19.4332 81.4123 19.7471 81.4123 20.1066C80.9401 20.2756 80.4304 20.1737 79.9313 20.179C79.4565 20.1844 78.987 20.1844 78.504 20.0529C77.7689 19.8571 77.4389 19.3366 77.2672 18.7142C77.1196 18.1856 77.1008 17.6115 77.0848 17.0561C77.0579 16.0366 77.0767 15.0144 77.0767 13.968C77.5382 13.791 77.9862 13.901 78.4826 13.8876C78.5013 14.1156 78.5335 14.3195 78.5362 14.5234C78.5416 15.4383 78.5094 16.3532 78.5443 17.2654C78.6087 18.8859 78.6838 18.9664 80.3445 19.0415C80.6906 19.0603 81.034 19.0468 81.4123 19.0468Z" fill="url(#paint12_linear)"/>
<defs>
<linearGradient id="paint0_linear" x1="53.0175" y1="30.3693" x2="53.0175" y2="9.99946" gradientUnits="userSpaceOnUse">
<stop stop-color="#028DFF"/>
<stop offset="1" stop-color="#025CFF"/>
</linearGradient>
<linearGradient id="paint1_linear" x1="103.296" y1="20.1896" x2="103.296" y2="13.8912" gradientUnits="userSpaceOnUse">
<stop stop-color="#028DFF"/>
<stop offset="1" stop-color="#025CFF"/>
</linearGradient>
<linearGradient id="paint2_linear" x1="85.6546" y1="27.9492" x2="85.6546" y2="21.662" gradientUnits="userSpaceOnUse">
<stop stop-color="#028DFF"/>
<stop offset="1" stop-color="#025CFF"/>
</linearGradient>
<linearGradient id="paint3_linear" x1="67.7885" y1="20.1918" x2="67.7885" y2="13.8679" gradientUnits="userSpaceOnUse">
<stop stop-color="#028DFF"/>
<stop offset="1" stop-color="#025CFF"/>
</linearGradient>
<linearGradient id="paint4_linear" x1="96.7705" y1="20.1958" x2="96.7705" y2="13.8689" gradientUnits="userSpaceOnUse">
<stop stop-color="#028DFF"/>
<stop offset="1" stop-color="#025CFF"/>
</linearGradient>
<linearGradient id="paint5_linear" x1="71.4178" y1="27.9565" x2="71.4178" y2="21.6296" gradientUnits="userSpaceOnUse">
<stop stop-color="#028DFF"/>
<stop offset="1" stop-color="#025CFF"/>
</linearGradient>
<linearGradient id="paint6_linear" x1="98.8153" y1="27.9541" x2="98.8153" y2="21.6309" gradientUnits="userSpaceOnUse">
<stop stop-color="#028DFF"/>
<stop offset="1" stop-color="#025CFF"/>
</linearGradient>
<linearGradient id="paint7_linear" x1="78.1892" y1="27.9123" x2="78.1892" y2="21.6487" gradientUnits="userSpaceOnUse">
<stop stop-color="#028DFF"/>
<stop offset="1" stop-color="#025CFF"/>
</linearGradient>
<linearGradient id="paint8_linear" x1="85.1522" y1="20.1962" x2="85.1522" y2="13.8645" gradientUnits="userSpaceOnUse">
<stop stop-color="#028DFF"/>
<stop offset="1" stop-color="#025CFF"/>
</linearGradient>
<linearGradient id="paint9_linear" x1="92.5994" y1="27.9749" x2="92.5994" y2="21.6362" gradientUnits="userSpaceOnUse">
<stop stop-color="#028DFF"/>
<stop offset="1" stop-color="#025CFF"/>
</linearGradient>
<linearGradient id="paint10_linear" x1="73.6832" y1="20.2071" x2="73.6832" y2="13.8767" gradientUnits="userSpaceOnUse">
<stop stop-color="#028DFF"/>
<stop offset="1" stop-color="#025CFF"/>
</linearGradient>
<linearGradient id="paint11_linear" x1="90.495" y1="20.1932" x2="90.495" y2="13.9191" gradientUnits="userSpaceOnUse">
<stop stop-color="#028DFF"/>
<stop offset="1" stop-color="#025CFF"/>
</linearGradient>
<linearGradient id="paint12_linear" x1="79.2434" y1="20.2064" x2="79.2434" y2="13.8677" gradientUnits="userSpaceOnUse">
<stop stop-color="#028DFF"/>
<stop offset="1" stop-color="#025CFF"/>
</linearGradient>
</defs>
</svg>
