<svg width="147" height="40" viewBox="0 0 147 40" fill="none" xmlns="http://www.w3.org/2000/svg">
<path fill-rule="evenodd" clip-rule="evenodd" d="M78.7522 9.25416C78.5192 9.08266 78.251 9 77.9853 9C77.5658 9 77.1516 9.20664 76.8927 9.59192L69.6977 20.2315C69.2729 20.8584 69.4184 21.7245 70.0232 22.1645C70.2564 22.3353 70.524 22.4175 70.7898 22.4175C71.2098 22.4175 71.6233 22.2125 71.8834 21.8283L79.0767 11.1872C79.501 10.5612 79.356 9.69454 78.7522 9.25416Z" fill="#E46F2A"/>
<path fill-rule="evenodd" clip-rule="evenodd" d="M117.741 26.4695L110.058 9.84476C109.827 9.34603 109.35 9.05518 108.853 9.05518C108.659 9.05518 108.463 9.09929 108.276 9.19201C107.611 9.52372 107.33 10.3523 107.649 11.0436L115.332 27.6702C115.561 28.1683 116.039 28.4585 116.538 28.4585C116.731 28.4585 116.927 28.4139 117.115 28.3212C117.78 27.9897 118.061 27.1609 117.741 26.4695Z" fill="#E46F2A"/>
<path fill-rule="evenodd" clip-rule="evenodd" d="M100.963 15.8212C100.973 15.7497 100.985 15.6766 100.985 15.6012V14.0343C100.985 13.9829 100.975 13.9338 100.97 13.8835C100.97 13.8735 100.972 13.8646 100.972 13.8546C100.972 11.2083 98.9019 9.05518 96.3575 9.05518C96.3509 9.05518 96.3433 9.05796 96.3369 9.05796C96.3284 9.05796 96.3223 9.05518 96.3144 9.05518H92.9933C92.2553 9.05518 91.6586 9.67728 91.6586 10.4439C91.6586 11.2111 92.2553 11.8321 92.9933 11.8321H96.3188C96.3252 11.8321 96.3311 11.831 96.3381 11.831C96.3445 11.831 96.3509 11.8321 96.3575 11.8321C97.4295 11.8321 98.3018 12.7399 98.3018 13.8546C98.3018 13.9058 98.311 13.954 98.3168 14.0043C98.3162 14.0143 98.3137 14.0244 98.3137 14.0343V15.5029C98.3092 15.5432 98.3013 15.5822 98.3013 15.6235C98.3013 16.7369 97.4295 17.6449 96.3575 17.6449C96.3509 17.6449 96.3445 17.646 96.3381 17.646C96.3311 17.646 96.3246 17.6449 96.3188 17.6449H92.9933C92.2553 17.6449 91.658 18.2658 91.658 19.0324C91.658 19.7991 92.2553 20.4212 92.9933 20.4212H96.3144C96.3214 20.4212 96.3284 20.4178 96.3353 20.4178C96.3433 20.4178 96.3499 20.4212 96.3575 20.4212C98.8378 20.4212 100.862 18.3752 100.963 15.8212Z" fill="#E46F2A"/>
<path fill-rule="evenodd" clip-rule="evenodd" d="M84.8015 9.05518C82.257 9.05518 80.1863 11.2083 80.1863 13.8546C80.1863 14.6211 80.7853 15.2421 81.5222 15.2421C82.2597 15.2421 82.8581 14.6211 82.8581 13.8546C82.8581 12.7399 83.7298 11.8321 84.8015 11.8321C85.8736 11.8321 86.7458 12.7399 86.7458 13.8546C86.7458 14.6211 87.3437 15.2421 88.0818 15.2421C88.8192 15.2421 89.4171 14.6211 89.4171 13.8546C89.4171 11.2083 87.3463 9.05518 84.8015 9.05518Z" fill="#E46F2A"/>
<mask id="mask0" mask-type="alpha" maskUnits="userSpaceOnUse" x="30" y="9" width="60" height="22">
<path d="M30 9.05518H89.4164V31H30V9.05518Z" fill="white"/>
</mask>
<g mask="url(#mask0)">
<path fill-rule="evenodd" clip-rule="evenodd" d="M88.0818 22.2773C87.3437 22.2773 86.7458 22.9001 86.7458 23.6667C86.7458 24.7812 85.8736 25.6881 84.8015 25.6881C83.7298 25.6881 82.8581 24.7812 82.8581 23.6667C82.8581 22.9001 82.2597 22.2773 81.5222 22.2773C80.7853 22.2773 80.1863 22.9001 80.1863 23.6667C80.1863 26.3113 82.257 28.4643 84.8015 28.4643C87.3463 28.4643 89.4171 26.3113 89.4171 23.6667C89.4171 22.9001 88.8192 22.2773 88.0818 22.2773Z" fill="#E46F2A"/>
<path fill-rule="evenodd" clip-rule="evenodd" d="M34.6065 9.05518C32.0627 9.05518 29.991 11.2083 29.991 13.8546C29.991 14.6211 30.5883 15.2421 31.3269 15.2421C32.0638 15.2421 32.6622 14.6211 32.6622 13.8546C32.6622 12.7399 33.5344 11.8321 34.6065 11.8321C35.6781 11.8321 36.5505 12.7399 36.5505 13.8546C36.5505 14.6211 37.1484 15.2421 37.8863 15.2421C38.6244 15.2421 39.2216 14.6211 39.2216 13.8546C39.2216 11.2083 37.1515 9.05518 34.6065 9.05518Z" fill="#E46F2A"/>
<path fill-rule="evenodd" clip-rule="evenodd" d="M37.8863 22.2773C37.1484 22.2773 36.5505 22.9001 36.5505 23.6667C36.5505 24.7812 35.6781 25.6881 34.6065 25.6881C33.5344 25.6881 32.6622 24.7812 32.6622 23.6667C32.6622 22.9001 32.0638 22.2773 31.3269 22.2773C30.5883 22.2773 29.991 22.9001 29.991 23.6667C29.991 26.3113 32.0627 28.4643 34.6065 28.4643C34.973 28.4643 35.3285 28.4141 35.6723 28.3315L36.6982 30.2859C36.9345 30.7354 37.3756 30.9949 37.8348 31.0084C37.8465 31.0095 37.8601 31.0095 37.8724 31.0095C38.0894 31.0095 38.3074 30.9542 38.5105 30.8398C39.1594 30.4707 39.3973 29.6282 39.0434 28.9557L37.9798 26.9299C38.7478 26.0722 39.2216 24.9275 39.2216 23.6667C39.2216 22.9001 38.6244 22.2773 37.8863 22.2773Z" fill="#E46F2A"/>
</g>
<path fill-rule="evenodd" clip-rule="evenodd" d="M66.3526 22.2773C65.6161 22.2773 65.0173 22.9001 65.0173 23.6667C65.0173 24.7812 64.1444 25.6881 63.0728 25.6881C62.0012 25.6881 61.1284 24.7812 61.1284 23.6667C61.1284 22.9001 60.5311 22.2773 59.793 22.2773C59.0561 22.2773 58.4573 22.9001 58.4573 23.6667C58.4573 26.3113 60.5279 28.4643 63.0728 28.4643C65.6178 28.4643 67.689 26.3113 67.689 23.6667C67.689 22.9001 67.0905 22.2773 66.3526 22.2773Z" fill="#E46F2A"/>
<path fill-rule="evenodd" clip-rule="evenodd" d="M49.492 22.2773C48.7551 22.2773 48.1578 22.9001 48.1578 23.6667C48.1578 24.7812 47.2843 25.6881 46.2123 25.6881C45.1406 25.6881 44.2684 24.7812 44.2684 23.6667C44.2684 22.9001 43.671 22.2773 42.9335 22.2773C42.1956 22.2773 41.5972 22.9001 41.5972 23.6667C41.5972 26.3113 43.6673 28.4643 46.2123 28.4643C48.756 28.4643 50.8278 26.3113 50.8278 23.6667C50.8278 22.9001 50.23 22.2773 49.492 22.2773Z" fill="#E46F2A"/>
<path fill-rule="evenodd" clip-rule="evenodd" d="M63.0728 9.05518C60.5279 9.05518 58.4573 11.2083 58.4573 13.8546C58.4573 14.6211 59.0561 15.2421 59.793 15.2421C60.5311 15.2421 61.1284 14.6211 61.1284 13.8546C61.1284 12.7399 62.0012 11.8321 63.0728 11.8321C64.1444 11.8321 65.0173 12.7399 65.0173 13.8546C65.0173 14.6211 65.6161 15.2421 66.3526 15.2421C67.0905 15.2421 67.689 14.6211 67.689 13.8546C67.689 11.2083 65.6178 9.05518 63.0728 9.05518Z" fill="#E46F2A"/>
<path fill-rule="evenodd" clip-rule="evenodd" d="M81.5211 16.0318C81.4434 16.0318 81.367 16.0256 81.2896 16.0179L86.0643 23.0803C86.3129 22.1635 87.1208 21.4879 88.0806 21.4879C88.1402 21.4879 88.1999 21.4934 88.2605 21.4978L83.5229 14.4929C83.261 15.3836 82.4627 16.0318 81.5211 16.0318Z" fill="#E46F2A"/>
<path fill-rule="evenodd" clip-rule="evenodd" d="M72.126 15.2672V10.4439C72.126 9.67728 71.5277 9.05518 70.7903 9.05518C70.0528 9.05518 69.4543 9.67728 69.4543 10.4439V19.2173L72.126 15.2672Z" fill="#E46F2A"/>
<path fill-rule="evenodd" clip-rule="evenodd" d="M59.793 21.4877C60.3006 21.4877 60.7664 21.6781 61.13 21.9903V15.5291C60.7664 15.8423 60.3006 16.0317 59.793 16.0317C59.2871 16.0317 58.8215 15.844 58.4587 15.5318V21.989C58.8215 21.6768 59.2871 21.4877 59.793 21.4877Z" fill="#E46F2A"/>
<path fill-rule="evenodd" clip-rule="evenodd" d="M117.895 24.9798V10.4439C117.895 9.67728 117.299 9.05518 116.561 9.05518C115.822 9.05518 115.225 9.67728 115.225 10.4439V19.2001L117.895 24.9798Z" fill="#E46F2A"/>
<path fill-rule="evenodd" clip-rule="evenodd" d="M92.9937 16.8543H94.3323V12.6228H92.9937C92.4884 12.6228 92.0243 12.4351 91.6606 12.1243V17.3524C92.0243 17.043 92.4884 16.8543 92.9937 16.8543Z" fill="#E46F2A"/>
<path fill-rule="evenodd" clip-rule="evenodd" d="M104.046 9.05518C103.308 9.05518 102.71 9.67728 102.71 10.4439V27.0727C102.71 27.84 103.308 28.4608 104.046 28.4608C104.785 28.4608 105.381 27.84 105.381 27.0727V10.4439C105.381 9.67728 104.785 9.05518 104.046 9.05518Z" fill="#E46F2A"/>
<path fill-rule="evenodd" clip-rule="evenodd" d="M70.7897 23.2072C70.3562 23.2072 69.9405 23.0699 69.5854 22.8119C69.5403 22.7789 69.4978 22.741 69.4543 22.7046V27.0729C69.4543 27.8402 70.0528 28.4611 70.7903 28.4611C71.5277 28.4611 72.126 27.8402 72.126 27.0729V22.7046C71.7538 23.0235 71.2833 23.2072 70.7897 23.2072Z" fill="#E46F2A"/>
<path fill-rule="evenodd" clip-rule="evenodd" d="M54.6398 9.05518C53.9033 9.05518 53.3044 9.67728 53.3044 10.4439V27.0727C53.3044 27.84 53.9033 28.4608 54.6398 28.4608C55.3778 28.4608 55.9761 27.84 55.9761 27.0727V10.4439C55.9761 9.67728 55.3778 9.05518 54.6398 9.05518Z" fill="#E46F2A"/>
<path fill-rule="evenodd" clip-rule="evenodd" d="M75.3477 18.0771L73.5833 20.6847L76.7753 27.6664C77.0046 28.1671 77.4833 28.4586 77.9833 28.4586C78.1747 28.4586 78.37 28.4151 78.556 28.3247C79.222 27.9951 79.5045 27.1666 79.1876 26.4736L75.3477 18.0771Z" fill="#E46F2A"/>
<path fill-rule="evenodd" clip-rule="evenodd" d="M107.519 12.5828V27.0729C107.519 27.8402 108.116 28.4611 108.854 28.4611C109.591 28.4611 110.189 27.8402 110.189 27.0729V18.3626L107.519 12.5828Z" fill="#E46F2A"/>
<path fill-rule="evenodd" clip-rule="evenodd" d="M92.9937 21.2109C92.4884 21.2109 92.0243 21.0221 91.6606 20.7139V27.0728C91.6606 27.8401 92.2591 28.4609 92.9966 28.4609C93.7335 28.4609 94.3323 27.8401 94.3323 27.0728V21.2109H92.9937Z" fill="#E46F2A"/>
<path fill-rule="evenodd" clip-rule="evenodd" d="M42.9335 21.4877C43.4407 21.4877 43.9063 21.6781 44.2699 21.9903V10.4439C44.2699 9.67728 43.671 9.05518 42.9335 9.05518C42.1956 9.05518 41.5972 9.67728 41.5972 10.4439V21.9891C41.9618 21.6769 42.4259 21.4877 42.9335 21.4877Z" fill="#E46F2A"/>
<mask id="mask1" mask-type="alpha" maskUnits="userSpaceOnUse" x="30" y="9" width="21" height="13">
<path d="M30 9.05518H50.8265V21.9903H30V9.05518Z" fill="white"/>
</mask>
<g mask="url(#mask1)">
<path fill-rule="evenodd" clip-rule="evenodd" d="M49.4922 21.4877C49.9992 21.4877 50.4644 21.6769 50.827 21.9891V10.4439C50.827 9.67728 50.2302 9.05518 49.4922 9.05518C48.7541 9.05518 48.158 9.67728 48.158 10.4439V21.9903C48.5205 21.6769 48.9861 21.4877 49.4922 21.4877Z" fill="#E46F2A"/>
<path fill-rule="evenodd" clip-rule="evenodd" d="M31.3273 21.4879C31.8339 21.4879 32.3017 21.6783 32.6637 21.9905V15.5293C32.3017 15.8426 31.8339 16.0319 31.3273 16.0319C30.8202 16.0319 30.355 15.8443 29.9924 15.5321V21.9893C30.355 21.6771 30.8202 21.4879 31.3273 21.4879Z" fill="#E46F2A"/>
</g>
<path fill-rule="evenodd" clip-rule="evenodd" d="M37.8863 16.0317C37.3783 16.0317 36.9131 15.8423 36.5505 15.5291V21.9903C36.9131 21.6768 37.3783 21.4877 37.8863 21.4877C38.3929 21.4877 38.858 21.6768 39.2206 21.989V15.5318C38.858 15.8423 38.3929 16.0317 37.8863 16.0317Z" fill="#E46F2A"/>
</svg>
