<svg width="147" height="40" viewBox="0 0 147 40" fill="none" xmlns="http://www.w3.org/2000/svg">
<path d="M107 9H41V31H107V9Z" fill="#19171C"/>
<path d="M41 9.00024H107.667V31.0002H41V9.00024ZM42.5333 10.5336V29.5336H106.133V10.5336H42.5333ZM65.2 13.4669C66.6 13.4669 67.8 13.4669 68.8 13.4669C69 13.4669 69.4667 13.6002 69.9333 13.9336C70.5333 14.3336 70.8667 14.7336 71.2667 15.4002C71.5333 15.8669 71.5333 16.6669 71.3333 17.3336C71.2667 17.6002 71.2 17.7336 70.8667 18.1336C70.8 18.2669 70.6 18.4669 70.2667 18.8002L71.6 22.0002H69.1333L67.8 19.2669H67.6667V22.0002H65.2667V13.4669H65.2ZM67.6667 15.4669V17.9336C67.8667 17.8669 68 17.8002 68.2667 17.6669C68.6 17.4669 69 17.0669 69 16.5336C69 16.0002 68.2667 15.6669 68.1333 15.6002C67.9333 15.5336 67.8 15.4669 67.6667 15.4669ZM74.3333 13.4669H76.4667L79.4 21.9336H76.8667L76.4667 20.6002H74.4L74 21.9336H71.7333L74.3333 13.4669ZM75.5333 16.8002L75 18.5336H76.1333L75.5333 16.8002ZM94.2667 13.4669H96.4L99.3333 21.9336H96.8L96.4 20.6002H94.3333L93.9333 21.9336H91.6667L94.2667 13.4669ZM95.4667 16.8002L94.8667 18.5336H96L95.4667 16.8002ZM79.9333 13.4669C82.0667 13.4669 83.2 13.4669 83.4667 13.4669C83.8 13.4669 84.1333 13.8002 84.4667 14.2002C84.9333 14.6669 85.4 15.2669 85.4 15.8002C85.4 15.9336 85.4 16.2669 85.2 16.8002C85.1333 17.0002 84.8667 17.3336 84.4667 17.8669C84.8 18.2002 85.0667 18.4669 85.2 18.6002C85.5333 19.0002 85.6 19.3336 85.6 19.6002C85.6 20.2669 85.0667 20.8002 84.7333 21.0669C84.2 21.5336 83.7333 21.9336 83.5333 21.9336C83.2 21.9336 82 21.9336 79.8667 21.9336V13.4669H79.9333ZM82.0667 15.4669V17.0002C82.2 17.0002 82.2667 17.0002 82.3333 17.0002C82.4667 16.9336 82.9333 16.7336 82.9333 16.3336C82.9333 15.9336 82.4667 15.5336 82.3333 15.5336C82.2667 15.4669 82.2 15.4669 82.0667 15.4669ZM82.0667 18.5336V20.0669C82.2 20.0669 82.2667 20.0669 82.3333 20.0669C82.4667 20.0002 82.9333 19.8002 82.9333 19.4002C82.9333 19.0002 82.4667 18.6669 82.3333 18.6002C82.2667 18.5336 82.2 18.5336 82.0667 18.5336ZM97.9333 13.4669H103.867V15.8669H102.133V22.0002H99.7333V15.8669H97.9333V13.4669V13.4669ZM88.0667 13.4669H91.4667V15.4669H89.2C88.4667 16.0669 88.1333 16.8669 88.1333 17.8669C88.1333 18.8669 88.4667 19.5336 89.2 19.9336L91.4667 20.0002V22.0002H88.0667C86.6 21.1336 85.8667 19.8002 85.8667 17.8669C85.8667 15.9336 86.6 14.5336 88.0667 13.4669ZM46.7333 11.7336L50.7333 15.7336C52.1333 15.2669 53.5333 15.0002 54.8667 15.0002C56.2 15.0002 57.6667 15.2669 59.0667 15.8002L63.0667 11.8002C63.0667 16.4669 63.0667 19.3336 63.0667 20.3336C63.0667 20.8669 63 21.2002 62.9333 21.3336C62.8667 21.5336 62.6667 22.0002 62.3333 22.4669C61 24.1336 58.4667 26.9336 57.8 27.6002C57.3333 28.0669 56.7333 28.3336 54.9333 28.3336C53.1333 28.3336 52.2667 27.9336 51.9333 27.6002C50.8667 26.4669 49.0667 24.3336 47.5333 22.4669C47.2 22.0669 46.9333 21.6002 46.8667 21.3336C46.8 21.1336 46.7333 20.8002 46.7333 20.3336C46.7333 19.3336 46.7333 16.4669 46.7333 11.7336ZM49.1333 20.3336L50.7333 22.9336L53.3333 23.6002L49.1333 20.3336ZM60.6667 20.3336L56.4667 23.6002L59.0667 22.9336L60.6667 20.3336ZM70.6 25.6002C70.5333 25.6002 70.4667 25.6002 70.4667 25.6669C70.4 25.6669 70.4 25.6669 70.3333 25.6669C70.2667 25.6669 70.2667 25.6669 70.2 25.6669C70.0667 25.6669 69.9333 25.7336 69.8667 25.7336C69.7333 25.7336 69.6 25.7336 69.4667 25.7336C69.2 25.7336 68.9333 25.6669 68.7333 25.6002C68.5333 25.5336 68.3333 25.4002 68.2 25.2669C68.0667 25.1336 68 24.9336 68 24.7336C68 24.6002 68.0667 24.4669 68.1333 24.3336C68.2 24.2002 68.3333 24.0669 68.4667 24.0002C68.6 23.9336 68.7333 23.8669 68.8 23.8669C68.9333 23.8002 69.0667 23.8002 69.1333 23.8002C69.2667 23.8002 69.4 23.8002 69.5333 23.8002C69.7333 23.8002 69.9333 23.8002 70.1333 23.8669C70.2667 23.8669 70.4667 23.9336 70.6 24.0002V24.4669C70.4667 24.4002 70.3333 24.4002 70.2 24.3336C70.0667 24.2669 69.9333 24.2669 69.7333 24.2669C69.5333 24.2669 69.3333 24.2669 69.2 24.3336C69.0667 24.4002 69 24.4669 68.9333 24.5336C68.8667 24.6002 68.8667 24.7336 68.8667 24.8002C68.8667 24.8669 68.8667 25.0002 68.9333 25.0669C69 25.1336 69.0667 25.2002 69.2 25.2669C69.3333 25.3336 69.4667 25.3336 69.6667 25.3336C69.8 25.3336 69.8667 25.3336 70 25.3336V25.1336H69.6667V24.7336H70.7333V25.6002H70.6ZM75.1333 25.7336H74.4667L74.2667 25.3336H73.2667L73.0667 25.7336H72.4L73.4 23.8002H74.1333L75.1333 25.7336ZM74.0667 25.0002L73.7333 24.2669L73.4 25.0002H74.0667ZM79.7333 25.7336H79V24.6002L78.4667 25.6669H78L77.5333 24.6002V25.7336H76.8V23.8002H77.7333L78.2 24.8669L78.6 23.8002H79.6V25.7336H79.7333ZM84.0667 25.2002C84.0667 25.4002 84 25.5336 83.8667 25.6002C83.7333 25.6669 83.5333 25.7336 83.2667 25.7336H81.8V23.8002H83C83.1333 23.8002 83.2667 23.8002 83.4 23.8669C83.5333 23.9336 83.6 23.9336 83.6667 23.9336C83.7333 24.0002 83.8 24.0002 83.8 24.0669C83.8667 24.1336 83.8667 24.2002 83.8667 24.2669C83.8667 24.3336 83.8667 24.4002 83.8 24.4669C83.7333 24.5336 83.7333 24.6002 83.6667 24.6002C83.6 24.6669 83.5333 24.6669 83.5333 24.6669C83.7333 24.7336 83.8667 24.8002 83.9333 24.8669C84 24.9336 84.0667 25.0669 84.0667 25.2002ZM83.1333 24.3336C83.1333 24.2669 83.0667 24.2002 83 24.1336C82.9333 24.0669 82.8 24.0669 82.6667 24.0669H82.5333V24.5336H82.6667C82.8 24.5336 82.9333 24.5336 83 24.4669C83.0667 24.4002 83.1333 24.4669 83.1333 24.3336ZM83.2667 25.1336C83.2667 24.9336 83.1333 24.8669 82.8 24.8669H82.4667V25.4002H82.8C83.1333 25.4002 83.2667 25.3336 83.2667 25.1336ZM87.9333 25.7336H85.9333V23.8002H86.7333V25.2669H87.9333V25.7336ZM90.5333 25.7336H89.8667V23.8002H90.5333V25.7336ZM95.0667 25.7336H94.4667L93.3333 24.6669V25.7336H92.6667V23.8002H93.2667L94.4 24.8669V23.8002H95.0667V25.7336ZM99.5333 25.6002C99.4667 25.6002 99.4 25.6002 99.4 25.6669C99.3333 25.6669 99.3333 25.6669 99.2667 25.6669C99.2 25.6669 99.2 25.6669 99.1333 25.6669C99 25.6669 98.8667 25.7336 98.8 25.7336C98.6667 25.7336 98.5333 25.7336 98.4 25.7336C98.1333 25.7336 97.8667 25.6669 97.6667 25.6002C97.4667 25.5336 97.2667 25.4002 97.1333 25.2669C97 25.1336 96.9333 24.9336 96.9333 24.7336C96.9333 24.6002 97 24.4669 97.0667 24.3336C97.1333 24.2002 97.2667 24.0669 97.4 24.0002C97.5333 23.9336 97.6667 23.8669 97.7333 23.8669C97.8667 23.8002 98 23.8002 98.0667 23.8002C98.1333 23.8002 98.3333 23.8002 98.4667 23.8002C98.6667 23.8002 98.8667 23.8002 99.0667 23.8669C99.2 23.8669 99.4 23.9336 99.5333 24.0002V24.4669C99.4 24.4002 99.2667 24.4002 99.1333 24.3336C99 24.2669 98.8667 24.2669 98.6667 24.2669C98.4667 24.2669 98.2667 24.2669 98.1333 24.3336C98 24.4002 97.9333 24.4669 97.8667 24.5336C97.8 24.6002 97.8 24.7336 97.8 24.8002C97.8 24.8669 97.8 25.0002 97.8667 25.0669C97.9333 25.1336 98 25.2002 98.1333 25.2669C98.2667 25.3336 98.4 25.3336 98.6 25.3336C98.7333 25.3336 98.8 25.3336 98.9333 25.3336V25.1336H98.6V24.7336H99.6667V25.6002H99.5333Z" fill="#FCD400"/>
</svg>
