<svg width="147" height="40" viewBox="0 0 147 40" fill="none" xmlns="http://www.w3.org/2000/svg">
<path d="M100.46 40C92.6713 40 86.3347 33.6635 86.3347 25.8753C86.3347 18.0872 92.6721 11.7498 100.46 11.7498C108.248 11.7498 114.585 18.0863 114.585 25.8753C114.585 33.6626 108.248 40 100.46 40ZM100.46 13.4874C93.6312 13.4874 88.0643 19.0454 88.0643 25.8834C88.0643 32.7214 93.6223 38.2794 100.46 38.2794C107.298 38.2794 112.855 32.7214 112.855 25.8834C112.855 19.0454 107.289 13.4883 100.46 13.4883V13.4874Z" fill="#F59238"/>
<path d="M96.8552 8.62949C96.8552 8.66435 96.8123 8.6724 96.8034 8.63843C96.4145 6.94368 92.8954 -0.136542 92.5325 0.0020056C92.1178 0.149492 92.8784 7.41921 93.4317 9.56268C93.4407 9.59843 93.3978 9.60648 93.3799 9.58055C90.9254 5.66458 88.0981 5.74234 87.5538 5.82011C87.5189 5.82904 87.5189 5.87195 87.5448 5.88089C90.9334 7.62659 92.5683 12.6143 92.7229 13.1068C92.7319 13.1247 92.7497 13.1336 92.7748 13.1247C94.7094 11.9565 96.8858 11.2468 99.1372 11.0501C99.1551 11.0501 99.1721 11.0322 99.164 11.0152C99.0595 10.5745 98.0825 5.99262 99.9587 2.81139C99.9766 2.78547 99.9497 2.7515 99.9238 2.75955C99.4402 2.92402 96.9589 4.40245 96.8552 8.62949V8.62949Z" fill="#F59238"/>
<path d="M107.929 19.6661C108.52 18.0978 107.174 16.1386 104.922 15.2902C102.671 14.4419 100.366 15.0255 99.7756 16.5939C99.1846 18.1622 100.531 20.1213 102.782 20.9697C105.034 21.8181 107.338 21.2344 107.929 19.6661Z" fill="#F59238"/>
<path d="M32.575 29.6178V22.4777H34.503C35.1859 22.4777 35.817 22.6421 36.1629 22.9014C36.7421 23.342 36.8977 24.1027 36.8977 24.5434C36.8977 25.2093 36.6724 25.616 36.448 25.9092C36.2577 26.1514 35.7741 26.3758 35.4451 26.5063C35.8858 27.1454 37.2177 29.7125 37.2177 29.7125H35.6445C35.6445 29.7125 34.166 26.7217 34.0185 26.7217H33.7861V29.6178H32.5741H32.575ZM34.3984 23.7219H33.7853V25.3559H34.3993C34.7882 25.3559 35.0045 25.2871 35.2208 25.1405C35.4362 24.993 35.5488 24.7945 35.5488 24.5434C35.5488 24.2922 35.4451 24.0938 35.2288 23.9472C35.0134 23.8006 34.7971 23.7219 34.3993 23.7219H34.3984ZM27 29.6178V22.4777H28.9272C29.6101 22.4777 30.2411 22.6421 30.587 22.9014C31.1663 23.342 31.3218 24.1027 31.3218 24.5434C31.3218 25.6071 30.6299 26.3498 29.973 26.5233C29.2472 26.7136 28.2094 26.7217 28.2094 26.7217V29.6178H27.0009H27ZM28.8324 23.7219H28.2183V25.3559H28.8324C29.2212 25.3559 29.4375 25.2871 29.6539 25.1405C29.8702 24.9939 29.9819 24.7945 29.9819 24.5434C29.9819 24.2922 29.8782 24.0938 29.6619 23.9472C29.4456 23.8006 29.2302 23.7219 28.8324 23.7219ZM90.1651 29.7125V22.5724H92.179C92.8619 22.5724 93.493 22.7369 93.8389 22.9961C94.4181 23.4368 94.5736 24.1974 94.5736 24.639C94.5736 25.304 94.3484 25.7107 94.124 26.0048C93.9336 26.2462 93.4501 26.4714 93.1211 26.601C92.6894 26.7655 91.5569 26.7306 91.5569 26.7306L91.5479 29.7215L90.1651 29.7125V29.7125ZM92.0842 23.8176H91.5569V25.4515H92.0842C92.4731 25.4515 92.6894 25.3818 92.9048 25.2352C93.1211 25.0886 93.2337 24.8893 93.2337 24.639C93.2337 24.3887 93.13 24.1894 92.9137 24.0419C92.6974 23.8864 92.4811 23.8176 92.0842 23.8176V23.8176ZM52.5785 23.4636L51.6364 24.3878C51.0661 23.8605 50.1759 23.4028 49.4232 23.4028C49.0863 23.4028 48.7663 23.4627 48.4722 23.5843C48.179 23.7049 47.9108 23.8694 47.6856 24.0938C47.4505 24.3281 47.2704 24.6118 47.1582 24.9242C47.0245 25.2777 46.9572 25.6528 46.9598 26.0307C46.9598 26.8263 47.1841 27.4654 47.6337 27.9498C48.0833 28.4415 48.6796 28.6846 49.4143 28.6846C49.9855 28.6846 50.478 28.5031 50.9017 28.1572C51.143 27.9579 51.438 27.7854 51.5676 27.2151L49.4313 27.2062L49.4143 25.9789H53.1059C53.1059 27.3098 52.8646 27.9579 52.1808 28.7364C51.5068 29.5141 50.5817 29.9029 49.4063 29.9029C48.8706 29.9089 48.339 29.809 47.842 29.6088C47.3575 29.4104 46.9428 29.1512 46.5969 28.8053C46.2509 28.4593 45.9739 28.0535 45.7835 27.586C45.5837 27.0953 45.4841 26.5695 45.4903 26.0397C45.4903 25.296 45.6628 24.639 45.9998 24.0598C46.3457 23.4716 46.8132 23.014 47.4094 22.694C48.018 22.3692 48.6985 22.2026 49.3884 22.2095C49.9855 22.2095 50.5128 22.3043 50.9705 22.4866C51.429 22.6681 52.2585 23.1954 52.5785 23.4627V23.4636ZM61.3178 22.4777L62.4333 29.6178H61.0675L60.4194 25.0886L58.8373 29.6178H57.5841L55.9671 25.0278L55.3361 29.6178H53.9873L55.1198 22.4777H56.3739L58.2241 27.7764L60.0655 22.4777H61.3178ZM119.228 22.7458L119.565 24.9063H119.15L118.951 23.5324L118.475 24.9063H118.095L117.611 23.5145L117.421 24.9063H117.015L117.352 22.7458H117.732L118.286 24.353L118.838 22.7458H119.228V22.7458ZM66.3752 22.391H67.6114L70.5852 29.7134H69.038L68.4328 28.226H65.5797L64.9745 29.7134H63.488L66.3752 22.391V22.391ZM68.0092 26.8602L67.5166 25.6929C67.3198 25.1808 67.1409 24.6621 66.9803 24.1376H66.9455C66.7131 24.9063 66.5397 25.4247 66.4449 25.6929L65.9604 26.8513H68.0092V26.8602V26.8602ZM102.474 22.391H103.72L106.693 29.7134H105.145L104.54 28.226H101.689L101.083 29.7134H99.5962L102.474 22.391V22.391ZM104.108 26.8602L103.616 25.6929C103.419 25.1809 103.24 24.6621 103.08 24.1376H103.045C102.812 24.9063 102.639 25.4247 102.544 25.6929L102.06 26.8513H104.108V26.8602ZM41.0639 22.391H42.3001L45.274 29.7134H43.7267L43.1216 28.226H40.2693L39.6641 29.7134H38.1768L41.0639 22.391V22.391ZM42.6889 26.8602L42.1973 25.6929C42.0004 25.1808 41.8216 24.6621 41.661 24.1376H41.6252C41.3928 24.9063 41.2194 25.4247 41.1247 25.6929L40.6402 26.8513H42.6889V26.8602ZM70.4118 23.7827V22.4088H74.6827V23.7836H73.2561V29.6964H71.8295V23.7836H70.4118V23.7827ZM115.597 23.1436V22.728H116.884V23.1436H116.453V24.9322H116.021V23.1436H115.597V23.1436ZM75.6597 29.7653V22.4866H77.0773V29.7653H75.6597ZM95.3772 29.7653V22.5724H96.8038V28.4334H98.7837V29.7653H95.3781H95.3772ZM107.834 29.7045V26.5581L105.656 22.5295H106.97L108.465 25.3389H108.492L109.986 22.5295H111.3L109.087 26.5581V29.7045H107.834ZM82.1946 28.7105C81.8623 28.7279 81.5303 28.67 81.2234 28.5412C80.9165 28.4125 80.6426 28.2161 80.4221 27.9668C79.9645 27.4743 79.7392 26.8343 79.7392 26.0477C79.7392 25.2701 79.9645 24.6301 80.4221 24.1376C80.8807 23.6442 81.4679 23.3939 82.1946 23.3939C83.8027 23.3939 84.4507 24.4576 84.4507 24.4576L85.333 23.6799C85.028 23.2739 84.6424 22.9352 84.2004 22.685C83.6123 22.3481 82.9383 22.1836 82.2036 22.1836C81.4688 22.1836 80.794 22.3481 80.1978 22.685C79.6016 23.022 79.1341 23.4806 78.7971 24.0678C78.4553 24.6712 78.2795 25.3543 78.2876 26.0477L78.2697 26.0567C78.2697 26.7825 78.4431 27.4484 78.7792 28.0446C79.1171 28.6328 79.5837 29.0993 80.1808 29.4363C80.777 29.7733 81.4429 29.9369 82.1857 29.9369C82.9204 29.9369 83.5864 29.7653 84.1826 29.4274C84.6411 29.1682 85.021 28.8312 85.333 28.4164L84.4418 27.5342C84.4418 27.5342 83.5953 28.6667 82.1946 28.7105V28.7105Z" fill="white"/>
</svg>
