<svg width="147" height="40" viewBox="0 0 147 40" fill="none" xmlns="http://www.w3.org/2000/svg">
<path d="M77.1027 24.6933C77.1027 26.4711 77.1027 28.1187 77.1027 29.7662C77.1027 30.3266 77.0144 30.8365 76.4134 31.0915C76.2603 31.1638 76.0926 31.2 75.9233 31.1976C75.754 31.1951 75.5875 31.154 75.4365 31.0774C75.2855 31.0007 75.1541 30.8906 75.0522 30.7554C74.9503 30.6202 74.8806 30.4634 74.8485 30.2972C74.8323 30.2296 74.8229 30.1606 74.8205 30.0912C74.8443 26.4908 74.6804 22.8875 74.8976 19.2926C75.0279 17.0959 77.034 15.129 79.389 14.6555C81.9024 14.1497 84.5264 15.4582 85.5953 17.7502C86.695 20.1122 86.0996 22.9043 84.0542 24.4748C82.2106 25.8869 80.1708 26.1657 78.0175 25.1753C77.7457 25.045 77.4893 24.8951 77.1027 24.6933ZM80.4538 16.8059C80.0122 16.8012 79.5742 16.8848 79.1654 17.0518C78.7566 17.2187 78.3853 17.4656 78.0732 17.7781C77.7612 18.0905 77.5147 18.4621 77.3483 18.8711C77.1819 19.2801 77.0988 19.7183 77.1041 20.1598C77.0997 20.8297 77.2946 21.4857 77.6641 22.0444C78.0335 22.6032 78.5608 23.0394 79.1789 23.2976C79.797 23.5558 80.478 23.6243 81.1351 23.4944C81.7922 23.3644 82.3959 23.042 82.8692 22.5681C83.3426 22.0941 83.6643 21.4901 83.7933 20.8328C83.9224 20.1755 83.8531 19.4946 83.5941 18.8769C83.3351 18.2591 82.8983 17.7323 82.3391 17.3635C81.7799 16.9948 81.1236 16.8007 80.4538 16.8059V16.8059Z" fill="#1585D1"/>
<path d="M42.2875 24.8099C42.2875 26.421 42.2875 28.0209 42.2875 29.6222C42.2973 29.8996 42.2671 30.1771 42.1978 30.4459C42.0325 30.9839 41.6094 31.2151 41.0687 31.1828C40.8327 31.182 40.6043 31.0997 40.422 30.9498C40.2398 30.8 40.1148 30.5918 40.0684 30.3605C40.0171 30.134 39.9945 29.9019 40.0011 29.6698C40.0137 26.3481 40.0151 23.0279 40.0516 19.7062C40.0796 17.3344 42.0465 15.1671 44.5823 14.6543C47.5439 14.0547 50.4985 15.9362 51.178 18.8572C51.5172 20.2766 51.2844 21.7725 50.53 23.0218C49.7757 24.2711 48.5601 25.1735 47.146 25.5342C45.735 25.9249 44.2273 25.75 42.9431 25.0466C42.7792 24.9584 42.6181 24.8687 42.4542 24.7833C42.4444 24.7749 42.4164 24.7889 42.2875 24.8099ZM42.2875 20.1531C42.2908 21.0486 42.6498 21.906 43.2853 22.5368C43.9208 23.1676 44.781 23.5201 45.6764 23.5168C46.5719 23.5135 47.4293 23.1545 48.0601 22.519C48.6909 21.8834 49.0434 21.0233 49.0401 20.1279C49.0381 19.6862 48.9486 19.2494 48.7767 18.8425C48.6048 18.4357 48.354 18.067 48.0387 17.7577C47.7234 17.4484 47.35 17.2047 46.9399 17.0407C46.5299 16.8766 46.0914 16.7955 45.6498 16.802C45.2081 16.7977 44.7699 16.8814 44.3608 17.0482C43.9518 17.2149 43.58 17.4615 43.2672 17.7734C42.9544 18.0853 42.7068 18.4563 42.5388 18.8649C42.3709 19.2735 42.2859 19.7114 42.2889 20.1531H42.2875Z" fill="#1585D1"/>
<path d="M108.658 21.2318C108.658 22.997 108.682 24.7622 108.651 26.5274C108.613 28.7255 107.212 30.4823 105.139 31.0034C104.173 31.2495 103.155 31.178 102.233 30.7995C101.312 30.421 100.537 29.7556 100.024 28.902C99.5768 28.1511 99.6595 27.4842 100.242 27.134C100.847 26.7697 101.43 26.9757 101.923 27.7266C102.578 28.7269 103.575 29.1135 104.7 28.8011C105.671 28.5336 106.343 27.6103 106.366 26.4839C106.374 26.044 106.506 25.4627 106.285 25.2063C106.063 24.9499 105.556 25.3926 105.164 25.4865C102.896 25.9866 100.658 24.8014 99.8626 22.6747C99.7309 22.3217 99.7309 22.0513 99.9747 21.7179C100.734 20.6826 100.675 19.4007 99.8542 18.371C99.7002 18.1993 99.6149 17.9768 99.6146 17.7462C99.6146 17.0457 99.6006 16.3452 99.6146 15.6545C99.6286 14.9639 100.104 14.4763 100.735 14.4917C101.322 14.5072 101.782 14.9723 101.79 15.6559C101.811 17.3749 101.802 19.0939 101.799 20.8129C101.799 21.4055 101.894 21.9659 102.262 22.4548C102.538 22.8337 102.925 23.1173 103.37 23.2664C103.814 23.4155 104.294 23.4227 104.742 23.287C105.205 23.1572 105.613 22.8795 105.904 22.4964C106.195 22.1132 106.353 21.6455 106.353 21.1645C106.376 19.3993 106.363 17.6341 106.353 15.8689C106.353 15.3786 106.454 14.9387 106.914 14.6683C107.723 14.1849 108.617 14.7201 108.642 15.7358C108.675 16.9897 108.651 18.2449 108.652 19.4988L108.658 21.2318Z" fill="#1585D1"/>
<path d="M60.9439 24.6753C58.3227 26.0861 55.7814 25.9362 53.8243 24.206C52.0969 22.6747 51.6598 20.7036 52.2594 18.5615C52.8898 16.3298 54.4533 14.9765 56.7509 14.6066C60.2911 14.0294 63.142 16.4559 63.2149 20.0479C63.2415 21.3943 63.2415 22.7406 63.2639 24.0869C63.2751 24.751 63.2079 25.3716 62.443 25.5929C61.842 25.7653 61.3754 25.4626 60.9439 24.6753ZM57.6041 23.4004C59.5556 23.4229 60.9944 22.0443 61.0182 20.1306C61.0406 18.3094 59.5458 16.7473 57.754 16.7095C55.9327 16.6716 54.288 18.2729 54.2684 20.09C54.2488 21.907 55.738 23.3794 57.6041 23.4004V23.4004Z" fill="#1585D1"/>
<path d="M86.8885 17.2685C86.8885 14.97 86.8885 12.6715 86.8885 10.373C86.8885 9.48478 87.2849 9.00565 88.0092 9.00005C88.7335 8.99444 89.151 9.47357 89.151 10.3562C89.151 14.999 89.151 19.6422 89.151 24.2859C89.151 25.1419 88.7013 25.6448 87.9924 25.628C87.3088 25.6126 86.8969 25.1307 86.8955 24.3027C86.8843 21.9603 86.8885 19.6165 86.8885 17.2685Z" fill="#1585D1"/>
<path d="M64.0024 22.1285C64.0122 20.9251 63.9015 19.7189 64.2321 18.5323C64.8724 16.2235 67.0957 14.4947 69.4843 14.4695C70.2282 14.4695 70.762 14.8898 70.8054 15.5314C70.8489 16.173 70.3683 16.627 69.6062 16.704C67.4697 16.924 66.2551 18.2549 66.2439 20.3983C66.2439 21.7208 66.2439 23.0433 66.2439 24.3672C66.2439 25.1518 65.8236 25.6141 65.161 25.6281C64.4605 25.6407 64.0192 25.163 64.008 24.3546C63.994 23.6149 64.0024 22.8724 64.0024 22.1285Z" fill="#1585D1"/>
<path d="M96.9641 23.1288C95.7551 23.9456 94.5825 24.8099 93.3315 25.5665C91.7904 26.4981 89.8739 25.3913 89.8291 23.5953C89.8178 23.1316 89.8108 22.6665 89.8291 22.2042C89.8613 21.5569 90.2213 21.1661 90.863 21.0974C91.5046 21.0288 91.9319 21.2991 92.1238 21.938C92.404 22.8766 92.4166 22.8794 93.2642 22.3289C94.0025 21.8483 94.7282 21.3482 95.4679 20.8677C95.9344 20.5636 96.1292 20.1672 95.954 19.625C97.044 19.9136 97.6422 21.1212 97.2639 22.2868C97.1729 22.5656 97.065 22.8458 96.9641 23.1288Z" fill="#F8512C"/>
<path d="M73.6548 20.0983C73.6548 21.5161 73.6548 22.9352 73.6548 24.353C73.6548 25.16 73.2682 25.6139 72.5957 25.6321C71.8798 25.6517 71.4203 25.1852 71.4189 24.3852C71.4105 21.5039 71.4105 18.6212 71.4189 15.7371C71.4189 14.989 71.884 14.4875 72.5299 14.4763C73.2121 14.4651 73.6506 14.961 73.6506 15.7749C73.659 17.2151 73.6548 18.6567 73.6548 20.0983Z" fill="#1585D1"/>
<path d="M92.6463 14.2312C93.0357 14.2452 93.3468 14.4512 93.6536 14.6515C95.2647 15.7228 96.8772 16.7931 98.4911 17.8625C100.426 19.136 100.312 21.1687 98.2417 22.2713C98.2606 22.1584 98.2892 22.0473 98.3272 21.9393C98.938 20.5845 98.7096 19.6613 97.4768 18.8249C95.9806 17.8092 94.4577 16.8342 92.9461 15.8409C92.6155 15.5691 92.0873 15.4206 91.9878 15.0213C91.901 14.6767 92.0649 14.2886 92.6463 14.2312Z" fill="#F5BB52"/>
<path d="M92.6463 14.2312C92.0677 14.2998 91.901 14.6767 91.9879 15.0269C92.0873 15.429 92.6155 15.5747 92.9447 15.8465C92.8845 16.568 93.5556 17.0863 93.4939 17.8078C93.3692 17.7476 93.2403 17.6957 93.1227 17.6243C92.4726 17.225 92.39 17.2516 92.1714 17.9521C91.9529 18.6526 91.5102 18.9874 90.8517 18.9328C90.2227 18.8781 89.8864 18.4831 89.8262 17.6831C89.7882 17.292 89.783 16.8983 89.8108 16.5063C89.9635 14.8588 90.996 14.0378 92.6463 14.2312Z" fill="#F8512C"/>
<path d="M93.4939 17.8078C93.5556 17.0863 92.8845 16.5679 92.9447 15.8464C94.4578 16.8397 95.9806 17.8078 97.4769 18.8305C98.7097 19.6711 98.938 20.5901 98.3272 21.9448C98.2892 22.0528 98.2607 22.1639 98.2418 22.2768L98.2236 22.2908C98.1605 22.3371 98.1213 22.3581 98.0582 22.4043C96.9641 23.1286 98.0582 22.4043 96.9641 23.1286C97.065 22.8484 97.1728 22.5682 97.2653 22.2796C97.6436 21.1182 97.0454 19.9106 95.9554 19.6178C95.2353 18.8795 94.2715 18.4704 93.4939 17.8078Z" fill="#F99609"/>
<path d="M73.6537 11.2206C73.6576 11.3661 73.6317 11.5108 73.5775 11.6459C73.5234 11.781 73.4422 11.9035 73.3389 12.006C73.2356 12.1085 73.1124 12.1888 72.9769 12.2419C72.8414 12.295 72.6965 12.3198 72.5511 12.3148C72.257 12.3164 71.9738 12.2033 71.7616 11.9996C71.5495 11.7958 71.4251 11.5174 71.4149 11.2234C71.4126 11.0719 71.4415 10.9215 71.4997 10.7816C71.558 10.6417 71.6444 10.5152 71.7535 10.4101C71.8627 10.305 71.9924 10.2235 72.1344 10.1706C72.2764 10.1177 72.4278 10.0946 72.5791 10.1026C72.7244 10.1009 72.8685 10.129 73.0025 10.1851C73.1366 10.2413 73.2577 10.3243 73.3584 10.4291C73.4591 10.5338 73.5372 10.6581 73.588 10.7942C73.6388 10.9304 73.6611 11.0755 73.6537 11.2206V11.2206Z" fill="#1585D1"/>
<path d="M98.0583 22.4043L98.2475 22.2642Z" fill="#F5BB52"/>
</svg>
