<svg xmlns="http://www.w3.org/2000/svg" xmlns:xlink="http://www.w3.org/1999/xlink" version="1.1" id="Layer_1" x="0px" y="0px" viewBox="0 0 160 60" style="enable-background:new 0 0 160 60;" xml:space="preserve">
<style type="text/css">
	.st0{fill:#FFA110;}
	.st1{fill:#FF0004;}
	.st2{fill:#00AA95;}
	.st3{fill:#FFE400;}
	.st4{fill:#009FEE;}
	.st5{fill:#333333;}
	.st6{fill:#FF007B;}
</style>
    <path class="st0" d="M115.8799973,42.9995995l9.75-4.2900009l-9.75-4.4199982V42.9995995z"/>
    <path class="st1" d="M115.8799973,25.7099991v8.5800018l9.75-4.2900009L115.8799973,25.7099991z"/>
    <path class="st2" d="M125.6299973,38.7098007L135.25,34.2897987l-9.6200027-4.289999V38.7098007z"/>
    <path class="st3" d="M135.25,25.7099991v8.5800018L145.0010071,30L135.25,25.7099991z"/>
    <path class="st4" d="M135.25,25.7098007l-9.6200027-4.4200001v8.7099991L135.25,25.7098007z"/>
    <path class="st5" d="M61.8003998,29.3502998l-4.8100014-5.8500996h-1.5599976l5.5900002,7.5401001v4.5500011h1.4300003v-4.5500011  l5.7201004-7.5401001h-1.6901016L61.8003998,29.3502998z"/>
    <path class="st5" d="M79.4798965,23.5002003h-8.190094c-0.5200043,0-1.0400009,0.2600002-1.4300003,0.6499996  s-0.6500015,0.9099998-0.6500015,1.4300003v2.7301006c0,0.5199986,0.2600021,1.039999,0.6500015,1.4299984  c0.3899994,0.3900013,0.909996,0.6500015,1.4300003,0.6500015h8.190094c0.1300049,0,0.390007,0,0.5200043,0.1299992  s0.2600021,0.2600002,0.2600021,0.5200005v2.7300014c0,0.1299973-0.1300049,0.3899994-0.2600021,0.5199966  c-0.1299973,0.1300011-0.2600021,0.1300011-0.5200043,0.1300011h-8.190094c-0.1300049,0-0.3899994,0-0.5200043-0.1300011  c-0.1299973-0.1299973-0.2599945-0.2599983-0.2599945-0.5199966v-0.5200005h-1.4300003v0.5200005  c0,0.5199966,0.2599945,1.0399971,0.6499939,1.4299965c0.3899994,0.3900032,0.9100037,0.6500015,1.4300003,0.6500015h8.1901016  c0.5200043,0,1.0400009-0.2599983,1.4300003-0.6500015c0.3899994-0.3899994,0.6500015-0.9099998,0.6500015-1.4299965v-2.7300014  c0-0.5200005-0.2600021-1.0400009-0.6500015-1.4300003s-0.909996-0.6499996-1.4300003-0.6499996h-8.1901016  c-0.1299973,0-0.3899994,0-0.5199966-0.1300011c-0.1299973-0.1299992-0.2600021-0.2600002-0.2600021-0.5199986v-2.8601017  c0-0.1299992,0.1300049-0.3899994,0.2600021-0.5199986c0.1299973-0.1300011,0.3899994-0.1300011,0.6500015-0.1300011h8.190094  c0.1300049,0,0.390007,0,0.5200043,0.1300011c0.1299973,0.1299992,0.2600021,0.2600002,0.2600021,0.5199986v0.5200005h1.4300003  v-0.5200005c0-0.5199986-0.2600021-1.039999-0.6500015-1.4299984  C80.6499023,23.6301994,80.1298981,23.5002003,79.4798965,23.5002003z"/>
    <path class="st5" d="M29.9500999,23.5002003h-1.2999992v12.0901012h12.3500977v-1.3000031H29.9500999V23.5002003z"/>
    <path class="st5" d="M52.3102989,23.5002003h-8.1899986c-0.5200005,0-1.0400009,0.2600002-1.4300003,0.6499996  s-0.6500015,0.9099998-0.6500015,1.4300003v10.1400986h1.4300003v-4.4199982h9.6200027v4.4199982h1.4300003V25.4501991  c0-0.5199986-0.2600021-1.039999-0.6500015-1.4299984C53.4803009,23.6301994,52.8302994,23.5002003,52.3102989,23.5002003z   M52.9603004,29.8703003h-9.6199989v-4.4201012c0-0.1299992,0.1299973-0.3899994,0.2599983-0.5199986  c0.1300011-0.1300011,0.2599983-0.1300011,0.3899994-0.1300011h8.1900024c0.1299973,0,0.3899994,0,0.5199966,0.1300011  c0.1300011,0.1299992,0.2600021,0.2600002,0.2600021,0.5199986V29.8703003z"/>
    <path class="st5" d="M25.2700005,23.5002003H15v12.0901012h1.4300003v-4.5500011  c0.3899994,0,0.5200005,0.1299992,0.6499996,0.1299992h8.1900005c0.5200005,0,1.039999-0.2600002,1.4300003-0.6499996  c0.3899994-0.3899994,0.6499996-0.9099998,0.6499996-1.4300003v-3.6401005c0-0.5199986-0.2600002-1.039999-0.6499996-1.4299984  C26.3099995,23.6301994,25.9200001,23.5002003,25.2700005,23.5002003z M26.0499992,29.0902996  c0,0.1300011-0.1299992,0.3900013-0.2599983,0.5200005c-0.1300011,0-0.2600002,0.1299992-0.5200005,0.1299992h-8.1900005  c-0.1299992,0-0.3899994,0-0.5200005-0.1299992c-0.1299992-0.2600002-0.1299992-0.3899994-0.1299992-0.5200005v-3.6401005  c0-0.1299992,0.1299992-0.3899994,0.2600002-0.5199986c0,0,0.1299992-0.1300011,0.3899994-0.1300011h8.1900005  c0.1299992,0,0.3899994,0,0.5200005,0.1300011c0.1299992,0.1299992,0.2599983,0.2600002,0.2599983,0.5199986V29.0902996z"/>
    <path class="st5" d="M93.6503983,23.5002003h-8.1899948c-0.5200043,0-1.0400009,0.2600002-1.4300003,0.6499996  s-0.6500015,0.9099998-0.6500015,1.4300003v8.0601006c0,0.5200005,0.2600021,1.0400009,0.6500015,1.4300003  s0.909996,0.6499977,1.4300003,0.6499977h8.1899948c0.5200043,0,1.0400009-0.2599983,1.4300003-0.6499977  s0.6500015-0.9099998,0.6500015-1.4300003v-8.1901016c0-0.5199986-0.2600021-1.039999-0.6500015-1.4299984  C94.6903992,23.6301994,94.3003998,23.5002003,93.6503983,23.5002003z M94.3003998,33.6403008  c0,0.1300011-0.1299973,0.3899994-0.2600021,0.5200005c-0.1299973,0.1299973-0.2599945,0.1299973-0.5199966,0.1299973h-8.1900024  c-0.1299973,0-0.3899994,0-0.5199966-0.1299973c-0.1300049-0.1300011-0.2600021-0.2600021-0.2600021-0.5200005v-8.1901016  c0-0.1299992,0.1299973-0.3899994,0.2600021-0.5199986c0.2599945,0,0.3899994-0.1300011,0.6500015-0.1300011h8.1899948  c0.1300049,0,0.3899994,0,0.5200043,0.1300011c0.1299973,0.2600002,0.1299973,0.3899994,0.1299973,0.5199986V33.6403008z"/>
    <path class="st5" d="M108.6009979,34.0303001l-9.1004944-10.5300999H97.550499v12.0901012h1.4300003V25.0601997l9.100502,10.5301018  h1.9499969V23.5002003h-1.4300003V34.0303001z"/>
    <path class="st6" d="M115.8799973,17v8.7099991l9.75-4.4199982L115.8799973,17z"/>
</svg>