<svg xmlns="http://www.w3.org/2000/svg" xmlns:xlink="http://www.w3.org/1999/xlink" version="1.1" id="Layer_1" x="0px" y="0px" viewBox="0 0 160 60" style="enable-background:new 0 0 160 60;" xml:space="preserve">
<style type="text/css">
	.st0{fill:#333333;}
	.st1{fill-rule:evenodd;clip-rule:evenodd;fill:url(#SVGID_1_);}
	.st2{fill-rule:evenodd;clip-rule:evenodd;fill:url(#SVGID_2_);}
	.st3{fill-rule:evenodd;clip-rule:evenodd;fill:url(#SVGID_3_);}
	.st4{fill-rule:evenodd;clip-rule:evenodd;fill:url(#SVGID_4_);}
	.st5{fill-rule:evenodd;clip-rule:evenodd;fill:url(#SVGID_5_);}
</style>
    <path class="st0" d="M143.1,26.5h-0.8v-2.2h-0.7v-0.7h2.3v0.7h-0.8V26.5z"/>
    <path class="st0" d="M148,26.5h-0.8l0.1-2.2h0l-0.7,2.2h-0.7l-0.7-2.2h0l0.1,2.2h-0.8v-2.9h1.2l0.6,1.8h0l0.5-1.8h1.3V26.5z"/>
    <path class="st0" d="M52,35.7h-3.3v-4.8h-4.3v4.8H41V23.3h3.3V28h4.3v-4.7H52V35.7z"/>
    <path class="st0" d="M57.3,33.5l-0.6,2.1h-3.5L57,23.3h5l3.8,12.3h-3.4l-0.7-2.1H57.3z M59.5,25.8L58,31.2h3.1L59.5,25.8z"/>
    <path class="st0" d="M67,23.3h6.7c1.1,0,2,0.2,2.7,0.6c0.7,0.4,1,1.3,1,2.5c0,0.7-0.1,1.3-0.3,1.9c-0.2,0.5-0.7,0.9-1.6,1v0.1  c0.8,0.1,1.4,0.4,1.7,0.8c0.3,0.4,0.4,1.1,0.4,1.9c0,1.4-0.3,2.3-0.8,2.8c-0.6,0.5-1.6,0.7-3,0.7H67V23.3z M72.5,28.3  c0,0,0.1,0,0.1,0c0,0,0.1,0,0.1,0c0.4,0,0.7-0.1,1-0.2s0.4-0.4,0.4-0.9c0-0.4-0.1-0.7-0.2-0.9c-0.2-0.2-0.5-0.2-0.9-0.2h-2.7v2.2  H72.5z M72.6,32.9c0.5,0,1,0,1.3-0.1c0.3-0.1,0.5-0.5,0.5-1.1c0-0.6-0.1-0.9-0.4-1c-0.3-0.1-0.7-0.2-1.2-0.2h-2.4v2.4H72.6z"/>
    <path class="st0" d="M82.1,33.5l-0.6,2.1h-3.5l3.7-12.3h5l3.8,12.3h-3.4l-0.7-2.1H82.1z M84.3,25.8l-1.5,5.4h3.1L84.3,25.8z"/>
    <path class="st0" d="M103.8,35.7h-5.6l-3.5-9.5h-0.1l0.1,9.5h-3.3V23.3h5.6l3.5,9.4h0.1l-0.1-9.4h3.3V35.7z"/>
    <path class="st0" d="M108.8,28.3h5.3v2.3h-5.3v2.4h5.8v2.7h-9.1V23.3h9v2.7h-5.7V28.3z"/>
    <path class="st0" d="M116.1,23.3h6.2c1.6,0,2.7,0.3,3.4,0.8c0.7,0.5,1,1.6,1,3.3c0,0.9-0.1,1.7-0.3,2.2c-0.2,0.6-0.9,1-2,1.2V31  c0.8,0,1.3,0.3,1.7,0.7c0.4,0.4,0.5,1,0.5,1.7v2.2h-3.4V34c0-0.5-0.1-0.9-0.3-1.2c-0.2-0.3-0.6-0.4-1.1-0.4h-2.5v3.2h-3.3V23.3z   M122.1,29.6c0.6,0,1-0.1,1.1-0.4c0.1-0.3,0.2-0.7,0.2-1.2c0-0.6-0.1-1-0.2-1.3c-0.1-0.3-0.6-0.4-1.3-0.4l-2.5,0v3.4H122.1z"/>
    <path class="st0" d="M128.1,28.9c0-0.3,0-0.5,0-0.7c0-0.2,0-0.5,0.1-0.7c0-0.3,0.1-0.5,0.1-0.7c0.2-1.4,0.9-2.3,1.9-2.7  c1-0.4,2.1-0.6,3.3-0.6c0.1,0,0.1,0,0.2,0c0.1,0,0.1,0,0.2,0c2.1,0,3.6,0.4,4.5,1.1c0.9,0.7,1.3,2.2,1.3,4.4c0,2.3-0.3,4-0.8,5.2  c-0.5,1.2-2.1,1.8-4.9,1.8c-0.2,0-0.4,0-0.6,0c-0.2,0-0.4,0-0.6,0c-0.9,0-1.8-0.2-2.7-0.6c-0.8-0.3-1.4-1-1.7-2.1  c-0.1-0.4-0.2-0.8-0.2-1.3c0-0.4,0-0.9,0-1.3v-0.9C128.1,29.4,128.1,29.1,128.1,28.9z M131.5,29.5v0.7c0,0.9,0.1,1.5,0.3,2  c0.2,0.5,0.8,0.7,1.8,0.7c1.1,0,1.9-0.2,2.2-0.5c0.3-0.4,0.5-1.1,0.5-2.1c0-0.1,0-0.3,0-0.4c0-0.1,0-0.3,0-0.5c0-0.1,0-0.3,0-0.4  c0-0.1,0-0.3,0-0.4c0-0.8-0.1-1.4-0.4-1.8c-0.2-0.4-0.8-0.6-1.7-0.6c-1.3,0-2.1,0.2-2.3,0.5C131.7,27,131.5,27.9,131.5,29.5  C131.5,29.5,131.5,29.5,131.5,29.5C131.5,29.5,131.5,29.5,131.5,29.5L131.5,29.5z"/>
    <linearGradient id="SVGID_1_" gradientUnits="userSpaceOnUse" x1="12.2809" y1="46.8051" x2="30.6564" y2="46.8051" gradientTransform="matrix(1 0 0 -1 0 62)">
	<stop offset="0" style="stop-color:#ED334D"/>
        <stop offset="1" style="stop-color:#F79826"/>
</linearGradient>
    <path class="st1" d="M22.5,16.7c0.3,0,0.6-0.3,0.6-0.6v-1.8c0-0.3-0.3-0.6-0.6-0.6c-0.3,0-0.6,0.3-0.6,0.6v1.8  C21.9,16.4,22.2,16.7,22.5,16.7z"/>
    <linearGradient id="SVGID_2_" gradientUnits="userSpaceOnUse" x1="12.9479" y1="45.1713" x2="31.1626" y2="45.1713" gradientTransform="matrix(1 0 0 -1 0 62)">
	<stop offset="0" style="stop-color:#ED334D"/>
        <stop offset="1" style="stop-color:#F79826"/>
</linearGradient>
    <path class="st2" d="M20.1,18.3c0.3,0,0.6-0.3,0.6-0.6v-1.8c0-0.3-0.3-0.6-0.6-0.6c-0.3,0-0.6,0.3-0.6,0.6v1.8  C19.4,18.1,19.7,18.3,20.1,18.3z"/>
    <linearGradient id="SVGID_3_" gradientUnits="userSpaceOnUse" x1="12.5353" y1="48.3908" x2="30.825" y2="48.3908" gradientTransform="matrix(1 0 0 -1 0 62)">
	<stop offset="0" style="stop-color:#ED334D"/>
        <stop offset="1" style="stop-color:#F79826"/>
</linearGradient>
    <path class="st3" d="M20.1,14.2c0.3,0,0.6-0.3,0.6-0.6v0c0-0.3-0.3-0.6-0.6-0.6c-0.3,0-0.6,0.3-0.6,0.6v0  C19.4,13.9,19.7,14.2,20.1,14.2z"/>
    <linearGradient id="SVGID_4_" gradientUnits="userSpaceOnUse" x1="12.4383" y1="43.8033" x2="30.5623" y2="43.8033" gradientTransform="matrix(1 0 0 -1 0 62)">
	<stop offset="0" style="stop-color:#ED334D"/>
        <stop offset="1" style="stop-color:#F79826"/>
</linearGradient>
    <path class="st4" d="M25,18.8c0.3,0,0.6-0.3,0.6-0.6v0c0-0.3-0.3-0.6-0.6-0.6c-0.3,0-0.6,0.3-0.6,0.6v0C24.4,18.5,24.7,18.8,25,18.8  z"/>
    <linearGradient id="SVGID_5_" gradientUnits="userSpaceOnUse" x1="12" y1="32.6126" x2="30.6035" y2="32.6126" gradientTransform="matrix(1 0 0 -1 0 62)">
	<stop offset="0" style="stop-color:#ED334D"/>
        <stop offset="1" style="stop-color:#F79826"/>
</linearGradient>
    <path class="st5" d="M30,23.4c-0.3,0-0.6,0.3-0.6,0.6v0.3l0,0c0,0.3-0.3,0.6-0.6,0.6c-0.3,0-0.6-0.3-0.6-0.6v-0.7v-0.9  c0-0.3-0.3-0.6-0.6-0.6c-0.3,0-0.6,0.3-0.6,0.6v0c0,0.3-0.3,0.6-0.6,0.6c-0.3,0-0.6-0.3-0.6-0.6v-0.6v-2c0-0.3-0.3-0.6-0.6-0.6  c-0.3,0-0.6,0.3-0.6,0.6v1c0,0.4-0.3,0.6-0.6,0.6c-0.3,0-0.6-0.3-0.6-0.6v-0.4v-2.4c0-0.3-0.3-0.6-0.6-0.6c-0.3,0-0.6,0.3-0.6,0.6  V20v0.8c0,0.3-0.3,0.6-0.6,0.6c-0.3,0-0.6-0.3-0.6-0.6V20v-0.1c0-0.3-0.3-0.6-0.6-0.6c-0.3,0-0.6,0.3-0.6,0.6v0.8v1  c0,0.3-0.3,0.6-0.6,0.6c-0.3,0-0.6-0.3-0.6-0.6v-0.3v-2.2c0-0.3-0.3-0.6-0.6-0.6c-0.3,0-0.6,0.3-0.6,0.6v2.9v1  c0,0.3-0.3,0.6-0.6,0.6c-0.3,0-0.6-0.3-0.6-0.6v-0.3v-0.8c0-0.3-0.3-0.6-0.6-0.6c-0.3,0-0.6,0.3-0.6,0.6v1.5V25  c0,0.3-0.3,0.6-0.6,0.6c-0.3,0-0.6-0.3-0.6-0.6v-0.7v-0.2c0-0.3-0.3-0.6-0.6-0.6c-0.3,0-0.6,0.3-0.6,0.6l0,0.9v10.7l9.3,5.3l9.3-5.3  v-6.7c0,0,0,0,0,0V24C30.6,23.6,30.3,23.4,30,23.4z M25.7,33.8h-2.9v-2.2h-2.9v2.2h-2.9v-6.9h2.9v2.3h2.9v-2.3h2.9V33.8z"/>
</svg>
