<svg width="147" height="40" viewBox="0 0 147 40" fill="none" xmlns="http://www.w3.org/2000/svg">
<g clip-path="url(#clip0)">
<path d="M54.3317 25.5938L53.7468 25.0303L33 28.4445L33.0325 28.66L58.1821 25.8093L53.8768 26.3065" fill="#3A3B3B"/>
<path d="M57.9709 24.3342L53.7468 25.0303L54.3317 25.5938L53.8768 26.29L58.1659 25.7927L58.9782 24.964" fill="#005A9B"/>
<path d="M54.3317 25.5938L33 28.5439L33.0325 28.6599L53.8768 26.2899" fill="#231F20"/>
<path d="M53.7468 25.0303L54.3317 25.5938L58.9945 24.9309L57.9709 24.3342" fill="#2BACE2"/>
<path d="M45.8997 29.2567C43.4628 27.881 40.8633 26.0579 37.5003 23.3398L37.2566 23.1409L37.5328 23.0083C38.2151 22.6768 38.9462 22.2625 39.7098 21.7984L39.8073 21.7321L40.0023 21.815C39.3037 17.7709 38.7025 14.5224 38.2151 11.6385L38.1502 11.4728H38.3776L45.9972 10.9756H46.1922C48.6292 11.1413 51.1311 11.2739 53.6006 11.3899H53.828L53.7793 11.622C53.2432 14.5556 52.6908 17.7875 51.9922 21.815L52.2034 21.7155L52.2846 21.7652C53.032 22.2293 53.7468 22.6437 54.4454 22.9752L54.7378 23.1409L54.4941 23.3066C51.1311 26.0579 48.5317 27.881 46.0947 29.2567L45.9972 29.3064L45.8997 29.2567Z" fill="#231F20"/>
<path d="M45.9486 29.1737C43.5116 27.7981 40.9122 25.975 37.5492 23.2734L37.4192 23.174L37.5817 23.0911C38.2803 22.7596 39.0113 22.3453 39.7749 21.8812L39.8237 21.848L40.1486 22.0138L40.1161 21.9806C39.4175 17.8371 38.8164 14.5721 38.2965 11.655V11.539H38.394L45.9974 11.075H46.1923C48.6293 11.2407 51.1313 11.3733 53.6007 11.4893H53.7307L53.6982 11.6219C53.1621 14.5721 52.5934 17.8537 51.9111 21.9309V21.9641L52.2035 21.7983L52.2523 21.848C52.9996 22.3121 53.7144 22.7265 54.413 23.0745L54.5755 23.174L54.4455 23.2734C51.0825 25.975 48.4831 27.7981 46.0461 29.1737L45.9974 29.2069L45.9486 29.1737V29.1737Z" fill="#231F20"/>
<path d="M51.2772 23.4888C49.5388 24.6987 47.7679 25.8091 45.9971 26.8036V25.9749C46.6144 25.7263 47.2318 25.4777 47.8654 25.1793V21.417L49.1651 24.5661C49.8637 24.2346 50.5786 23.87 51.2772 23.4888ZM50.2212 16.7266C50.1399 17.3896 49.6363 18.1188 49.0839 18.3509L47.8817 18.8481L47.9142 16.5609L49.2951 15.9476C49.8637 15.7156 50.2699 16.0636 50.2049 16.7266H50.2212Z" fill="#005A9B"/>
<path d="M52.1384 22.2788L51.7647 22.4445L51.3261 23.207L51.2773 23.4887L53.8768 23.2732C53.3082 22.9749 52.7395 22.6434 52.1384 22.2788Z" fill="#3A3B3B"/>
<path d="M50.9198 23.6712C50.9198 23.6712 50.9198 23.7044 50.9523 23.7044L51.2772 23.4889L50.9198 23.6546V23.6712ZM52.1383 18.4338C51.8133 19.6935 49.8638 20.4559 49.8638 20.4559L51.2772 23.4889L51.326 23.2071L52.1383 18.4338Z" fill="#005A9B"/>
<path d="M44.2751 25.2292C44.8437 25.511 45.4124 25.7264 45.9972 25.975V26.8037C44.2426 25.8424 42.488 24.7154 40.7659 23.4889C41.2045 23.7541 41.6594 23.9862 42.0981 24.2182L41.5619 18.7488L42.9104 22.2956L44.2914 19.9255V25.2292H44.2751Z" fill="#2BACE2"/>
<path d="M44.2751 14.075L42.7479 16.6439L41.5782 12.9977L38.7188 11.8872C39.3687 15.4838 40.7171 23.257 40.7171 23.2735L40.2297 22.4448L39.8723 22.2791C39.2712 22.6437 38.6863 22.9752 38.1177 23.2735C40.6846 25.3121 43.3166 27.2513 45.9972 28.7429L40.7659 23.5221C41.2045 23.7708 41.6594 24.0194 42.0981 24.2348L41.5619 18.7654L42.9104 22.2957L44.2913 19.9256V25.2293C44.86 25.511 45.4286 25.7265 46.0135 25.9751V14.7545L44.2913 14.0915L44.2751 14.075Z" fill="#3A3B3B"/>
<path d="M45.9972 11.4729C43.5602 11.6386 41.1232 11.8044 38.7188 11.9038L41.5781 13.0143L42.7154 16.6606L44.2751 14.0916C44.8437 14.3236 45.4123 14.5557 45.9972 14.7545L48.1742 13.9258L53.2756 11.9038C50.8386 11.7712 48.4342 11.6386 45.9972 11.4729Z" fill="#2BACE2"/>
<path d="M54.4453 23.0745C53.7305 22.743 52.9831 22.3287 52.252 21.848L52.2033 21.8149C52.2033 21.8149 51.9921 21.9143 51.9271 21.9806C52.6095 17.8869 53.1781 14.6052 53.7142 11.6385V11.5059H53.6005L45.9971 11.075C43.5114 11.2407 40.9282 11.3733 38.3938 11.5059H38.2638V11.6385C38.8324 14.6218 39.401 17.8869 40.1159 21.9641L39.8235 21.7983L39.7585 21.848C39.0111 22.3453 38.2638 22.743 37.5489 23.0745L37.3865 23.1574L37.5489 23.29C40.912 25.9915 43.4952 27.8147 45.9484 29.1903H46.0621C48.4991 27.7981 51.0985 25.975 54.4453 23.2734L54.6078 23.1574L54.4453 23.0579V23.0745ZM51.2772 23.4889C49.5389 24.6988 47.768 25.8092 45.9971 26.8037C44.2425 25.8424 42.4879 24.7153 40.7657 23.4889L45.9971 28.776C43.3327 27.2843 40.6845 25.3286 38.1176 23.3066L39.8722 22.3121L40.2459 22.4779L40.7333 23.3066C40.7008 23.2071 39.3523 15.351 38.7187 11.9037C41.1557 11.7711 43.5926 11.6385 45.9971 11.4727C48.4341 11.6385 50.8711 11.7711 53.2756 11.8871L52.7557 14.8704C53.0156 12.3346 50.3837 13.0473 50.3837 13.0473L48.1742 13.876C47.4431 14.2074 46.712 14.4726 45.9971 14.7544V25.975C46.6145 25.7264 47.2319 25.4777 47.8655 25.1794V21.4171L49.1652 24.5662C49.8638 24.2347 50.5786 23.8701 51.2772 23.4889L49.8475 20.4558C49.8475 20.4558 51.8296 19.6934 52.1221 18.4338C52.1221 18.4338 51.3585 23.0745 51.3097 23.2071L51.7646 22.4613L52.1383 22.2955L53.8767 23.29L51.2772 23.4889ZM50.2212 16.7267C50.14 17.3896 49.6363 18.1189 49.084 18.3509L47.8817 18.8482L47.9142 16.5609L49.2952 15.9477C49.8638 15.7157 50.27 16.0637 50.205 16.7267H50.2212Z" fill="#231F20"/>
<path d="M54.4453 23.0745C53.7305 22.743 52.9831 22.3287 52.252 21.848L52.2033 21.8149C52.2033 21.8149 51.9921 21.9143 51.9271 21.9806C52.6095 17.8869 53.1781 14.6052 53.7142 11.6385V11.5059H53.6005L45.9971 11.075C43.5114 11.2407 40.9282 11.3733 38.3938 11.5059H38.2638V11.6385C38.8324 14.6218 39.401 17.8869 40.1159 21.9641L39.8235 21.7983L39.7585 21.848C39.0111 22.3453 38.2638 22.743 37.5489 23.0745L37.3865 23.1574L37.5489 23.29C40.912 25.9915 43.4952 27.8147 45.9484 29.1903H46.0621C48.4991 27.7981 51.0985 25.975 54.4453 23.2734L54.6078 23.1574L54.4453 23.0579V23.0745ZM51.2772 23.4889C49.5389 24.6988 47.768 25.8092 45.9971 26.8037C44.2425 25.8424 42.4879 24.7153 40.7657 23.4889L45.9971 28.776C43.3327 27.2843 40.6845 25.3286 38.1176 23.3066L39.8722 22.3121L40.2459 22.4779L40.7333 23.3066C40.7008 23.2071 39.3523 15.351 38.7187 11.9037C41.1557 11.7711 43.5926 11.6385 45.9971 11.4727C48.4341 11.6385 50.8711 11.7711 53.2756 11.8871L52.7557 14.8704C53.0156 12.3346 50.3837 13.0473 50.3837 13.0473L48.1742 13.876C47.4431 14.2074 46.712 14.4726 45.9971 14.7544V25.975C46.6145 25.7264 47.2319 25.4777 47.8655 25.1794V21.4171L49.1652 24.5662C49.8638 24.2347 50.5786 23.8701 51.2772 23.4889L49.8475 20.4558C49.8475 20.4558 51.8296 19.6934 52.1221 18.4338C52.1221 18.4338 51.3585 23.0745 51.3097 23.2071L51.7646 22.4613L52.1383 22.2955L53.8767 23.29L51.2772 23.4889ZM50.2212 16.7267C50.14 17.3896 49.6363 18.1189 49.084 18.3509L47.8817 18.8482L47.9142 16.5609L49.2952 15.9477C49.8638 15.7157 50.27 16.0637 50.205 16.7267H50.2212Z" fill="#231F20"/>
<path d="M52.7558 14.887C53.0157 12.3015 50.3838 13.0142 50.3838 13.0142L53.2757 11.854L52.7558 14.8705V14.887Z" fill="#005A9B"/>
<path d="M38.5562 11.6881L45.7046 11.1909L53.3405 11.7213L53.2105 11.887L45.9971 11.5555L38.7674 11.887L39.7421 17.92L38.5562 11.9533" fill="#231F20"/>
</g>
<path d="M107.757 17.3813H110.05L111.216 20.7474L112.296 17.3813H114.437L112.191 23.9326C111.934 24.6793 111.672 25.181 111.409 25.4377C110.826 26.0094 109.507 26.0911 108.725 25.9861V24.061C109.151 24.2068 109.787 24.3352 110.091 23.3959L107.757 17.3813Z" fill="white"/>
<path d="M93.0093 20.52C93.0093 21.0801 93.1202 21.4884 93.336 21.7568C93.5519 22.0193 93.826 22.1535 94.1586 22.1535C94.4853 22.1535 94.7594 22.0251 94.9753 21.7626C95.1853 21.5001 95.2961 21.0801 95.2961 20.4967C95.2961 19.9542 95.1853 19.5575 94.9695 19.2891C94.7536 19.0266 94.4911 18.8924 94.1702 18.8924C93.8377 18.8924 93.5577 19.0266 93.336 19.295C93.1202 19.5633 93.0093 19.9717 93.0093 20.52ZM90.6875 20.5259C90.6875 19.575 90.9967 18.7874 91.6209 18.1749C92.2451 17.5565 93.0852 17.2473 94.1411 17.2473C95.3487 17.2473 96.2645 17.609 96.8829 18.3324C97.3788 18.9216 97.6296 19.6391 97.6296 20.4909C97.6296 21.4476 97.3205 22.2293 96.7021 22.8477C96.0895 23.4602 95.232 23.7636 94.1469 23.7636C93.1785 23.7636 92.3909 23.5069 91.7901 22.9994C91.055 22.3693 90.6875 21.5468 90.6875 20.5259Z" fill="white"/>
<path d="M87.5781 15.1355H89.7541V23.7811H87.5781V15.1355Z" fill="white"/>
<path d="M74.0205 17.3058H76.1265V18.35C76.3307 17.895 76.5407 17.58 76.7565 17.4108C77.5499 16.7866 78.845 17.2591 79.265 17.9592L77.6141 19.5809C77.4974 19.4993 76.6107 18.9217 76.354 19.7268C76.2257 20.1235 76.284 20.5377 76.284 21.5644V23.7171H74.0205V17.3058Z" fill="#376CB3"/>
<path d="M64.9023 15.229H67.2475L68.8401 18.3792L70.6894 15.229H72.8596V23.7171H70.6486V19.6101L68.8985 22.7662L67.2067 19.7093L67.1833 25.9164H64.9023V15.229Z" fill="#376CB3"/>
<path d="M101.299 15.7307V17.5566H102.489V19.3126H101.299V21.5177C101.299 21.7861 101.322 21.9611 101.369 22.0486C101.439 22.177 101.567 22.247 101.742 22.247C101.9 22.247 102.122 22.1945 102.402 22.0953V23.7871C101.935 23.8921 101.491 23.9387 101.077 23.9387C100.535 23.9387 100.132 23.8629 99.8755 23.7112C99.6247 23.5596 99.4322 23.3262 99.3097 23.017C99.1871 22.7078 99.123 22.2003 99.123 21.5061V19.3126H98.3296V17.5566H99.123V15.7249L101.299 15.7307Z" fill="white"/>
<path d="M106.246 15.7307V17.5566H107.442V19.3126H106.246V21.5177C106.246 21.7861 106.269 21.9611 106.316 22.0486C106.386 22.177 106.514 22.247 106.695 22.247C106.853 22.247 107.069 22.1945 107.349 22.0953V23.7871C106.882 23.8921 106.438 23.9387 106.024 23.9387C105.482 23.9387 105.085 23.8629 104.828 23.7112C104.572 23.5596 104.379 23.3262 104.257 23.017C104.134 22.7078 104.076 22.2003 104.076 21.5061V19.3126H103.277V17.5566H104.076V15.7249L106.246 15.7307Z" fill="white"/>
<path d="M81.3767 21.2085C81.4175 21.3952 82.8643 22.1828 84.0427 21.8502C84.4977 21.7219 84.3461 21.0219 84.0602 20.7418C83.821 20.5026 81.4525 20.5902 80.8458 19.7151C79.4166 17.6558 80.5775 15.7482 82.1467 15.3398C83.4768 14.9898 85.9037 15.2465 86.4637 16.2324L85.0286 17.6966C84.3986 17.1541 83.6285 17.1308 83.3893 17.1308C83.1093 17.1308 82.8993 17.1949 82.7534 17.3233C82.6134 17.4516 82.5434 17.6091 82.5434 17.7958C82.5434 17.93 82.6018 18.0466 82.7184 18.1575C82.8293 18.2683 83.0976 18.3733 83.5235 18.4725C84.6844 18.7409 85.6353 18.3967 86.3645 19.7151C86.5687 20.0885 86.6737 20.5085 86.6737 20.9693C86.6737 21.5177 86.5337 22.0194 86.2595 22.4803C85.9795 22.9353 85.5945 23.2853 85.0928 23.5245C84.5969 23.7637 83.9144 24.0029 83.156 24.0029C82.3393 24.0029 80.2916 23.3962 79.8716 22.6845L81.3767 21.2085Z" fill="white"/>
<defs>
<clipPath id="clip0">
<rect x="33" y="10.9998" width="25.9944" height="18.3143" fill="white"/>
</clipPath>
</defs>
</svg>
