<svg xmlns="http://www.w3.org/2000/svg" xmlns:xlink="http://www.w3.org/1999/xlink" version="1.1" id="Layer_1" x="0px" y="0px" viewBox="0 0 160 60" style="enable-background:new 0 0 160 60;" xml:space="preserve">
<style type="text/css">
	.st0{fill:#0000A3;}
</style>
    <path class="st0" d="M26,37.6h108.9v0.8H26V37.6z"/>
    <path class="st0" d="M59.6,31.2L59.6,31.2l4.6-12.4h4.1v0.4c-0.4,0-0.7,0-0.9,0.1c-0.2,0.1-0.4,0.2-0.5,0.3  c-0.1,0.1-0.2,0.4-0.3,0.7c-0.1,0.3-0.1,0.7-0.1,1.1v11.5c0,0.5,0,0.8,0.1,1.1c0.1,0.3,0.1,0.5,0.3,0.7c0.1,0.2,0.3,0.3,0.5,0.3  c0.2,0.1,0.5,0.1,0.9,0.1v0.4h-6.2v-0.4c0.4,0,0.7,0,1-0.1c0.3-0.1,0.5-0.1,0.7-0.3c0.1-0.1,0.3-0.4,0.3-0.7  c0.1-0.3,0.1-0.7,0.1-1.2V21.6h-0.1l-5.1,13.9h-0.3l-5-13.6h-0.1v11c0,0.5,0,0.9,0.1,1.2c0.1,0.3,0.2,0.5,0.3,0.7  c0.1,0.1,0.4,0.3,0.6,0.3c0.3,0.1,0.6,0.1,1,0.1v0.4h-5v-0.4c0.4,0,0.7,0,1-0.1c0.3-0.1,0.5-0.2,0.6-0.3c0.1-0.1,0.3-0.4,0.3-0.7  c0.1-0.3,0.1-0.7,0.1-1.2V21.4c0-0.4,0-0.8-0.1-1.1c-0.1-0.3-0.1-0.5-0.3-0.7c-0.1-0.2-0.4-0.3-0.6-0.3c-0.3-0.1-0.6-0.1-1-0.1v-0.4  h4.3L59.6,31.2z"/>
    <path class="st0" d="M76.8,34.2c0,0.3,0.1,0.6,0.4,0.7c0.2,0.2,0.7,0.2,1.3,0.2v0.4h-4.7v-0.4c0.3,0,0.6,0,0.8-0.1  c0.2-0.1,0.4-0.2,0.6-0.4c0.2-0.2,0.3-0.4,0.5-0.7c0.1-0.3,0.3-0.7,0.4-1.1l4.5-14.4h0.4l4.8,14.4c0.2,0.6,0.4,1,0.5,1.3  c0.1,0.3,0.3,0.5,0.5,0.7c0.2,0.1,0.4,0.2,0.6,0.3c0.2,0,0.5,0.1,0.8,0.1v0.4h-6v-0.4c0.5,0,0.9-0.1,1.2-0.2  c0.2-0.1,0.3-0.4,0.3-0.7c0-0.1,0-0.3-0.1-0.4c0-0.1-0.1-0.4-0.2-0.7l-1-2.9h-4.4l-1,3.2C76.8,33.8,76.8,34,76.8,34.2z M80,23.3  l-1.8,6H82L80,23.3L80,23.3z"/>
    <path class="st0" d="M98.2,34.1c0.1,0.3,0.2,0.5,0.3,0.7c0.2,0.1,0.4,0.3,0.7,0.3c0.3,0.1,0.7,0.1,1.1,0.1v0.4h-7v-0.4  c0.5,0,0.9,0,1.1-0.1c0.3,0,0.5-0.1,0.7-0.3c0.2-0.1,0.3-0.4,0.3-0.7c0.1-0.3,0.1-0.7,0.1-1.2V19.7h-1.8c-0.5,0-1,0.1-1.3,0.1  c-0.4,0.1-0.7,0.3-0.9,0.5c-0.2,0.2-0.4,0.5-0.5,0.9c-0.1,0.4-0.2,0.8-0.2,1.3h-0.4v-3.8h12.8v3.8h-0.4c0-1-0.3-1.8-0.7-2.2  c-0.4-0.4-1.2-0.7-2.2-0.7h-1.9v13.2C98.1,33.4,98.1,33.8,98.2,34.1z"/>
    <path class="st0" d="M115.3,19.2c-0.4,0-0.8,0-1.1,0.1c-0.3,0.1-0.5,0.1-0.7,0.3c-0.1,0.2-0.3,0.4-0.3,0.7c-0.1,0.3-0.1,0.7-0.1,1.1  v11.5c0,0.5,0,0.9,0.1,1.2c0.1,0.3,0.2,0.5,0.4,0.7c0.2,0.1,0.4,0.3,0.7,0.3c0.3,0,0.6,0.1,1,0.1v0.4h-6.7v-0.4c0.4,0,0.8,0,1.1-0.1  c0.3-0.1,0.5-0.2,0.7-0.3c0.1-0.2,0.3-0.4,0.3-0.7c0.1-0.3,0.1-0.7,0.1-1.1V21.5c0-0.5,0-0.9-0.1-1.1c-0.1-0.3-0.2-0.5-0.3-0.7  c-0.2-0.2-0.4-0.3-0.7-0.3c-0.3-0.1-0.7-0.1-1.1-0.1v-0.4h6.7V19.2L115.3,19.2z"/>
    <path class="st0" d="M133.3,24c-0.1-1.4-0.6-2.6-1.4-3.4c-0.8-0.9-1.8-1.3-3-1.3c-1.6,0-2.8,0.7-3.6,2.1c-0.8,1.4-1.2,3.5-1.2,6.3  c0,1.3,0.1,2.4,0.3,3.4c0.2,0.9,0.6,1.7,1,2.3c0.4,0.6,1,1,1.6,1.3c0.6,0.3,1.3,0.4,2.1,0.4c1,0,1.9-0.3,2.6-0.8  c0.7-0.5,1.4-1.3,2-2.5l0.4,0.2c-1.2,2.6-3.1,3.9-5.7,3.9c-0.9,0-1.8-0.2-2.7-0.5c-0.9-0.4-1.6-0.9-2.3-1.6  c-0.7-0.7-1.2-1.5-1.6-2.6c-0.4-1-0.6-2.2-0.6-3.6c0-1.3,0.2-2.5,0.5-3.7c0.4-1.1,0.9-2.1,1.5-2.9c0.7-0.8,1.5-1.5,2.3-1.9  c0.9-0.5,1.9-0.7,2.9-0.7c0.5,0,1,0.1,1.4,0.1c0.4,0.1,0.7,0.2,1,0.4c0.3,0.1,0.5,0.3,0.8,0.4c0.2,0.1,0.4,0.1,0.6,0.1  c0.2,0,0.3-0.1,0.4-0.2c0.1-0.1,0.1-0.4,0.2-0.8h0.4l0.3,5.5L133.3,24z"/>
    <path class="st0" d="M31.3,33.9c0,0.4,0.2,0.7,0.5,1c0.3,0.2,1,0.3,1.9,0.3v0.5H27v-0.5c0.4,0,0.8-0.1,1.1-0.1  c0.3-0.1,0.6-0.2,0.9-0.5c0.2-0.2,0.5-0.5,0.7-0.9c0.2-0.4,0.4-0.9,0.6-1.5l6.3-19h0.6l6.7,19.1c0.3,0.7,0.5,1.3,0.7,1.7  s0.4,0.7,0.7,0.9c0.3,0.2,0.5,0.3,0.8,0.4c0.3,0.1,0.7,0.1,1.1,0.1v0.5h-8.4v-0.5c0.8,0,1.3-0.1,1.6-0.3c0.3-0.2,0.5-0.5,0.5-1  c0-0.2,0-0.4-0.1-0.5c-0.1-0.2-0.1-0.5-0.3-0.9l-1.4-3.8h-6.2l-1.4,4.3C31.4,33.4,31.3,33.7,31.3,33.9z M35.8,19.4l-2.5,7.9h5.4  L35.8,19.4L35.8,19.4z"/>
    <path class="st0" d="M50.4,40.6h-0.5H49v0.7v4V46h0.9h0.8c0.6,0,0.9-0.3,0.9-0.6v-4C51.4,40.9,51,40.7,50.4,40.6z M50.6,45.3h-0.8  v-4h0.8V45.3z"/>
    <path class="st0" d="M26.9,40.6H26V46h0.9V40.6z"/>
    <path class="st0" d="M86.3,40.6h-0.7v0.7h0.7V46h0.9v-4.6h0.7v-0.7h-0.7H86.3z"/>
    <path class="st0" d="M110.6,40.6h-0.9V46h0.9V40.6z"/>
    <path class="st0" d="M99.4,40.6h-0.3h-0.8h-0.9v0.7v1.7v0.7V46h0.9v-2.4H99c0.1,0,0.2,0.1,0.2,0.2V46h0.9v-2.3  c0-0.2-0.1-0.4-0.4-0.5h0l0.1-0.1c0.2-0.1,0.3-0.2,0.3-0.4v-1.5C100.1,40.9,99.8,40.6,99.4,40.6z M99.2,42.8c0,0.1-0.1,0.2-0.2,0.2  h-0.6v-1.7h0.8L99.2,42.8L99.2,42.8z"/>
    <path class="st0" d="M120.5,40.6L120.5,40.6l0,5.3h0h0.9h1.1v-0.7h-1.1v-1.5h0.8v-0.7h-0.8v-1.6h1.1v-0.7h-1.1H120.5z"/>
    <path class="st0" d="M38.5,43.7l-0.9-3v-0.1h0h-0.8V46h0.9v-2.5l0.8,2.5h0.1h0.7h0.1v-5.3h-0.8V43.7z"/>
    <path class="st0" d="M62.9,45.2c0,0.1-0.1,0.1-0.1,0.1h-0.5c-0.1,0-0.1-0.1-0.1-0.1v-4.6h-0.9v4.6v0.1c0,0.4,0.3,0.7,0.7,0.7h1.2  c0.4,0,0.7-0.3,0.7-0.7v-0.1v-4.6h-0.9L62.9,45.2L62.9,45.2z"/>
    <path class="st0" d="M75.3,40.6h-1.2c-0.3,0-0.6,0.3-0.6,0.7v0.1v1.7c0,0.3,0.2,0.5,0.5,0.5h0.3h0.7v1.6c0,0.1-0.1,0.1-0.1,0.1h-0.5  c-0.1,0-0.1-0.1-0.1-0.1v-0.8h-0.9v0.8v0.1c0,0.4,0.3,0.7,0.6,0.7h1.2c0.3,0,0.6-0.3,0.6-0.7v-0.1v-1.8c0-0.3-0.2-0.5-0.5-0.5h-0.4  h-0.7v-1.6c0-0.1,0.1-0.1,0.1-0.1H75c0.1,0,0.1,0.1,0.1,0.1v0.7h0.9v-0.7v-0.1C76,40.9,75.7,40.6,75.3,40.6z"/>
    <path class="st0" d="M134.3,40.6h-1.2c-0.3,0-0.6,0.3-0.6,0.7v0.1v1.7c0,0.3,0.2,0.5,0.5,0.5h0.3h0.7v1.6c0,0.1-0.1,0.1-0.1,0.1  h-0.5c-0.1,0-0.1-0.1-0.1-0.1v-0.8h-0.9v0.8v0.1c0,0.4,0.3,0.7,0.6,0.7h1.2c0.3,0,0.6-0.3,0.6-0.7v-0.1v-1.8c0-0.3-0.2-0.5-0.5-0.5  H134h-0.7v-1.6c0-0.1,0.1-0.1,0.1-0.1h0.5c0.1,0,0.1,0.1,0.1,0.1v0.7h0.9v-0.7v-0.1C134.9,40.9,134.6,40.6,134.3,40.6z"/>
</svg>
