<svg width="147" height="40" viewBox="0 0 147 40" fill="none" xmlns="http://www.w3.org/2000/svg">
<path d="M56.0257 13.6159C56.0257 13.0837 55.5822 12.6402 54.9613 12.5515C54.5178 12.4628 53.9856 12.8176 53.8082 13.2611C53.7195 13.5272 53.7195 13.882 53.7195 14.1482C53.7195 17.5188 53.7195 20.8895 53.7195 24.2601C53.7195 24.7923 54.0743 25.3245 54.5178 25.4132C55.1387 25.5019 55.6709 25.3245 55.937 24.7923C56.0257 24.6149 56.0257 24.3488 56.1144 24.0827C56.2918 24.2601 56.3805 24.3488 56.3805 24.4375C57.2675 25.1471 58.2433 25.5019 59.3964 25.3245C60.9043 25.0584 61.88 24.0827 62.5009 22.7522C63.388 20.8008 63.0331 18.3171 61.3478 16.7205C59.9286 15.4787 57.7998 15.39 56.3805 16.7205C56.2918 16.8092 56.2031 16.8979 56.0257 16.9866C56.0257 16.8092 56.0257 16.7205 56.0257 16.6318C56.0257 15.6561 56.0257 14.5917 56.0257 13.6159ZM56.1144 20.0912C56.2031 19.2928 56.5579 18.6719 57.0901 18.1397C57.7998 17.4301 58.8642 17.5188 59.4851 18.2284C60.106 18.8493 60.3721 19.6476 60.3721 20.8008C60.3721 21.333 60.106 22.0426 59.5738 22.7522C58.8642 23.6392 57.7111 23.7279 56.9127 22.8409C56.2031 22.0426 56.0257 21.1556 56.1144 20.0912Z" fill="url(#paint0_linear)"/>
<path d="M68.7101 17.8736C69.2423 17.9623 69.6858 17.4301 69.6858 16.8979C69.6858 16.3657 69.2423 15.8335 68.7101 15.8335C68.0005 15.8335 67.3796 15.9222 66.8473 16.1883C64.9846 17.0753 64.0089 18.5832 64.0089 20.6234C63.9202 21.5991 64.1863 22.5748 64.8959 23.4618C65.7829 24.7037 67.0247 25.502 68.6214 25.502C69.2423 25.502 69.6858 24.9698 69.6858 24.4375C69.6858 23.8166 69.2423 23.3731 68.6214 23.3731C68.0892 23.3731 67.7344 23.1957 67.3796 22.8409C66.3151 21.8652 66.2264 20.0912 66.8473 19.0268C67.2022 18.3171 67.8231 17.8736 68.7101 17.8736Z" fill="url(#paint1_linear)"/>
<path d="M31.5443 25.3244C31.1007 25.2357 30.5685 25.4131 30.3024 25.7679C30.0363 26.1227 30.0363 26.655 30.3911 27.0098C30.9233 27.542 31.4556 27.9855 31.9878 28.429C33.1409 29.316 34.3827 29.9369 35.8019 30.203C36.6002 30.3804 37.3986 30.3804 38.1969 30.4691C39.1726 30.4691 40.1483 30.3804 41.0353 29.8482C42.4545 29.4934 43.6964 28.8725 44.7608 27.9855C47.1557 26.1227 48.5749 23.6391 48.8411 20.5345C48.9298 18.7605 48.7524 16.9865 47.954 15.3012C46.2687 11.8418 43.519 9.62426 39.5274 9.09205C38.1969 8.91465 36.955 9.00335 35.7132 9.26945C34.2053 9.62426 32.7861 10.3339 31.5443 11.3096C31.012 11.7531 30.5685 12.1966 30.125 12.7288C29.8589 13.1723 30.0363 13.7045 30.4798 14.0593C30.9233 14.3254 31.4556 14.3254 31.8104 13.9706C33.3183 12.374 35.0923 11.3983 37.3986 11.1322C38.7291 11.0435 40.0596 11.1322 41.3014 11.5757C42.9867 12.1966 44.3173 13.261 45.3817 14.7689C47.2444 17.5187 47.5105 20.4458 46.0913 23.373C44.7608 26.1227 42.5432 27.8081 39.5274 28.2516C38.2856 28.429 37.1324 28.3403 35.9793 28.0742C34.3827 27.6307 33.0522 26.8324 31.8991 25.5905C31.8104 25.5018 31.633 25.4131 31.5443 25.3244Z" fill="url(#paint2_linear)"/>
<path d="M36.8661 13.6157C36.5113 13.2609 36.0678 13.2609 35.713 13.4383C35.3581 13.527 35.1807 13.8818 35.1807 14.3253C35.1807 15.0349 35.1807 15.6558 35.1807 16.2768C35.1807 16.8977 35.1807 17.6073 35.092 18.2282C35.092 18.9378 35.6243 19.3813 36.2452 19.3813C37.1322 19.3813 37.9305 19.3813 38.8175 19.3813C38.9949 19.3813 39.1723 19.3813 39.3497 19.47C40.5915 19.8248 41.3899 21.5101 40.6802 22.6633C40.3254 23.2842 39.7932 23.8164 38.9062 23.8164C38.0192 23.7277 37.1322 23.8164 36.2452 23.9051C35.713 23.9051 35.2694 24.3486 35.2694 24.8808C35.2694 25.3243 35.713 25.8565 36.2452 25.8565C37.2209 25.8565 38.2853 25.9452 39.261 25.8565C42.4543 25.6791 44.317 22.2198 42.7204 19.3813C41.656 17.5186 39.6158 16.809 37.6644 17.5186C37.2209 17.696 37.2209 17.696 37.2209 17.2525C37.2209 16.2768 37.2209 15.2123 37.2209 14.2366C37.2209 13.9705 37.1322 13.7931 36.8661 13.6157Z" fill="url(#paint3_linear)"/>
<path d="M76.9593 25.3243C79.0882 24.7034 80.5074 22.752 80.5074 20.6231C80.4187 20.0022 80.33 19.47 80.2413 18.9378C79.443 16.6315 76.9593 15.2123 74.387 16.0106C72.2582 16.7202 71.0163 18.6717 71.105 20.8005C71.105 21.9536 71.5485 22.9294 72.2582 23.8164C73.3226 25.1469 75.3627 25.7678 76.9593 25.3243ZM74.6531 18.1395C75.3627 17.6073 76.3384 17.696 76.9593 18.3169C78.3786 19.5587 78.3786 21.9536 76.8706 23.1955C76.161 23.7277 75.1853 23.7277 74.4757 23.1068C73.7661 22.4858 73.5 21.6875 73.5 20.6231C73.5 19.5587 73.8548 18.6717 74.6531 18.1395Z" fill="url(#paint4_linear)"/>
<path d="M37.9308 21.5988C37.9308 21.0666 37.4873 20.5344 36.8664 20.5344C36.2455 20.5344 35.802 20.9779 35.802 21.5988C35.802 22.1311 36.3342 22.6633 36.8664 22.6633C37.3986 22.6633 37.9308 22.1311 37.9308 21.5988Z" fill="url(#paint5_linear)"/>
<path d="M101.618 26.3888C101.441 26.2114 101.352 26.034 101.175 25.8566C100.731 25.3244 100.199 25.3244 99.7555 25.6792C99.312 26.034 99.2233 26.7436 99.5781 27.1871C100.288 28.1628 101.175 28.7838 102.328 29.0499C104.279 29.4047 105.965 28.8725 107.295 27.2758C107.827 26.6549 108.182 25.8566 108.182 25.0583C108.182 22.3085 108.182 19.6475 108.182 16.9864C108.182 16.4542 107.739 15.922 107.206 15.8333C106.586 15.7446 106.053 16.0994 105.876 16.6316C105.699 16.9864 105.699 16.9864 105.432 16.7203C104.457 15.8333 103.215 15.5672 101.884 16.0107C100.465 16.4542 99.6668 17.43 99.2233 18.7605C98.6024 20.6232 98.7798 22.3972 100.11 23.9939C101.352 25.5018 103.392 25.8566 104.989 24.7922C105.166 24.6148 105.432 24.4374 105.61 24.26C105.61 24.26 105.699 24.26 105.787 24.26C105.787 24.7035 105.965 25.3244 105.699 25.7679C104.9 27.2758 102.771 27.6306 101.618 26.3888ZM104.545 23.0182C103.924 23.5504 103.126 23.5504 102.505 23.0182C101.707 22.3085 101.441 21.5102 101.441 20.5345C101.441 19.6475 101.618 18.7605 102.328 18.1396C103.126 17.43 104.191 17.43 104.9 18.317C105.432 18.9379 105.787 19.7362 105.699 20.5345C105.699 21.5989 105.344 22.3972 104.545 23.0182Z" fill="url(#paint6_linear)"/>
<path d="M95.2317 24.792C95.4978 25.2355 96.03 25.5016 96.6509 25.3242C97.1831 25.1468 97.5379 24.6146 97.5379 24.0824C97.5379 22.3971 97.5379 20.7118 97.5379 19.0264C97.5379 17.6072 96.917 16.6315 95.6752 16.0106C94.4333 15.3897 93.1915 15.5671 92.0384 16.3654C91.861 16.5428 91.6836 16.6315 91.5062 16.8089C91.4175 16.7202 91.4175 16.6315 91.4175 16.3654C91.1514 15.9219 90.6192 15.6558 90.087 15.7445C89.5548 15.9219 89.2 16.3654 89.2 16.8976C89.2 19.3812 89.2 21.7762 89.2 24.2598C89.2 24.6146 89.2887 24.8807 89.5548 25.1468C89.9096 25.4129 90.3531 25.5016 90.7966 25.3242C91.2401 25.1468 91.5949 24.792 91.5949 24.2598C91.5949 22.5745 91.5949 20.9779 91.5949 19.3812C91.5949 19.1151 91.5949 18.849 91.6836 18.6716C91.9497 17.8733 92.8367 17.4298 93.7237 17.6072C94.3446 17.6959 95.143 18.4942 95.143 19.3812C95.143 20.9779 95.143 22.5745 95.143 24.1711C95.143 24.3485 95.143 24.6146 95.2317 24.792Z" fill="url(#paint7_linear)"/>
<path d="M82.9912 23.2843C82.3703 23.2843 81.9268 23.7278 81.9268 24.3487C81.9268 24.9696 82.3703 25.4131 82.9912 25.4131C83.7895 25.4131 84.4991 25.3244 85.12 24.8809C86.6279 23.8165 87.515 22.4859 87.515 20.8006C87.515 19.204 87.0714 18.0509 86.0957 16.9865C85.2087 16.1881 84.233 15.7446 82.9912 15.7446C82.3703 15.7446 81.9268 16.1881 81.9268 16.809C81.9268 17.3413 82.3703 17.7848 82.9912 17.7848C83.2573 17.7848 83.6121 17.8735 83.8782 18.0509C85.12 18.7605 85.5635 20.978 84.6765 22.2198C84.233 22.7521 83.7895 23.2843 82.9912 23.2843Z" fill="url(#paint8_linear)"/>
<path d="M113.859 15.656C111.464 15.7447 109.158 17.8735 109.247 20.7119C109.336 23.1956 111.553 25.5905 114.037 25.4131C116.343 25.5905 119.004 23.2843 118.649 20.0023C118.472 17.9622 116.52 15.5673 113.859 15.656ZM115.19 23.1069C114.392 23.8165 113.238 23.7278 112.529 22.8408C111.553 21.6877 111.464 19.6475 112.44 18.4944C113.327 17.43 114.569 17.43 115.456 18.4057C115.988 19.0266 116.254 19.8249 116.254 20.6232C116.254 21.599 115.899 22.3973 115.19 23.1069Z" fill="url(#paint9_linear)"/>
<defs>
<linearGradient id="paint0_linear" x1="43.1605" y1="-1.58129" x2="81.2992" y2="57.1471" gradientUnits="userSpaceOnUse">
<stop stop-color="#30FDD9"/>
<stop offset="1" stop-color="#5AF596"/>
</linearGradient>
<linearGradient id="paint1_linear" x1="50.2548" y1="-6.18835" x2="88.3935" y2="52.5401" gradientUnits="userSpaceOnUse">
<stop stop-color="#30FDD9"/>
<stop offset="1" stop-color="#5AF596"/>
</linearGradient>
<linearGradient id="paint2_linear" x1="30.0049" y1="6.96206" x2="68.1436" y2="65.6905" gradientUnits="userSpaceOnUse">
<stop stop-color="#30FDD9"/>
<stop offset="1" stop-color="#5AF596"/>
</linearGradient>
<linearGradient id="paint3_linear" x1="29.3467" y1="7.38922" x2="67.4853" y2="66.1176" gradientUnits="userSpaceOnUse">
<stop stop-color="#30FDD9"/>
<stop offset="1" stop-color="#5AF596"/>
</linearGradient>
<linearGradient id="paint4_linear" x1="55.9917" y1="-9.91418" x2="94.1304" y2="48.8142" gradientUnits="userSpaceOnUse">
<stop stop-color="#30FDD9"/>
<stop offset="1" stop-color="#5AF596"/>
</linearGradient>
<linearGradient id="paint5_linear" x1="28.1532" y1="8.16455" x2="66.2918" y2="66.893" gradientUnits="userSpaceOnUse">
<stop stop-color="#30FDD9"/>
<stop offset="1" stop-color="#5AF596"/>
</linearGradient>
<linearGradient id="paint6_linear" x1="75.1283" y1="-22.3416" x2="113.267" y2="36.3868" gradientUnits="userSpaceOnUse">
<stop stop-color="#30FDD9"/>
<stop offset="1" stop-color="#5AF596"/>
</linearGradient>
<linearGradient id="paint7_linear" x1="68.0253" y1="-17.7291" x2="106.164" y2="40.9993" gradientUnits="userSpaceOnUse">
<stop stop-color="#30FDD9"/>
<stop offset="1" stop-color="#5AF596"/>
</linearGradient>
<linearGradient id="paint8_linear" x1="61.6841" y1="-13.6194" x2="99.8228" y2="45.109" gradientUnits="userSpaceOnUse">
<stop stop-color="#30FDD9"/>
<stop offset="1" stop-color="#5AF596"/>
</linearGradient>
<linearGradient id="paint9_linear" x1="82.8579" y1="-27.361" x2="120.997" y2="31.3674" gradientUnits="userSpaceOnUse">
<stop stop-color="#30FDD9"/>
<stop offset="1" stop-color="#5AF596"/>
</linearGradient>
</defs>
</svg>
