<svg width="147" height="40" viewBox="0 0 147 40" fill="none" xmlns="http://www.w3.org/2000/svg">
<path d="M49.8278 8H105.071L98.9674 31.3801H43.7242L46.8277 19.3797L44.8621 20.9315L43 22.3798L43.5173 20.4142L44.9656 15.0347L45.4828 12.9657L46.5174 14.414L47.7588 16.0692L49.8278 8Z" fill="black"/>
<path d="M69.2766 9.03442H103.829L99.2776 26.4143H64.8282L66.8972 18.1382H75.7941L73.932 25.2763H98.3465L102.381 10.0689H77.8631L76.001 17.3106H67.2076L69.2766 9.03442ZM59.966 9.03442H68.8628L66.6903 17.3106H57.7935L59.966 9.03442ZM66.4834 18.1382L64.3109 26.4143H55.4141L57.5866 18.1382H66.4834V18.1382ZM50.5519 9.03442H59.4487L57.3797 17.3106H48.3794L50.5519 9.03442ZM57.0693 18.1382L55.0003 26.4143H46L48.1725 18.1382H57.0693V18.1382Z" fill="white"/>
<path d="M96.0707 12.9656H97.6224L94.6224 24.2418H96.0707L99.0708 12.9656H100.623L101.036 11.1035H96.5879L96.0707 12.9656ZM93.3809 12.9656H95.7603L96.2776 11.1035H92.3464L88.9325 24.2418H90.3808L91.8292 18.8623H93.6913L94.2085 17.0002H92.3464L93.3809 12.9656ZM84.3806 21.1383C83.8634 23.2073 84.2772 24.4487 85.7255 24.4487C87.1738 24.4487 88.3118 23.2073 88.8291 21.1383L90.5877 14.3105C91.2084 12.2414 90.6912 11 89.2429 11C87.7945 11 86.76 12.2414 86.1393 14.3105L84.3806 21.1383ZM87.6911 14.207C87.898 13.1725 88.3118 12.8621 88.8291 12.8621C89.2429 12.8621 89.4498 13.1725 89.2429 14.207L87.3807 21.2417C87.0704 22.1728 86.76 22.5866 86.2428 22.5866C85.829 22.5866 85.6221 22.1728 85.829 21.2417L87.6911 14.207ZM81.1736 14.3105C80.1391 18.0347 82.9323 18.552 82.2081 21.2417C82.0012 22.1728 81.5874 22.4831 81.0702 22.4831C80.6564 22.4831 80.4495 22.1728 80.6564 21.2417L80.9667 20.2072H79.6219L79.3115 21.1383C78.7942 23.2073 79.208 24.4487 80.6564 24.4487C82.1047 24.4487 83.1392 23.2073 83.6565 21.1383C84.691 17.414 82.0012 16.8967 82.622 14.207C82.9323 13.1725 83.2427 12.8621 83.7599 12.8621C84.1737 12.8621 84.3806 13.1725 84.0703 14.207L83.9668 14.8277H85.3117L85.4151 14.3105C86.0359 12.2414 85.6221 11 84.1737 11C82.7254 11 81.6909 12.2414 81.1736 14.3105Z" fill="#FFFF00"/>
<path d="M70.4149 12.7584H72.0701L68.9665 24.5518H70.5183L73.5184 12.7584H75.1737L75.6909 10.7928H70.9321L70.4149 12.7584ZM71.6563 12.9653H70.4149H70.1045L70.208 12.6549L70.7252 10.6893V10.4824H70.9321H75.6909H76.0013L75.8978 10.7928L75.3806 12.7584V12.9653H75.1737H73.7253L70.7252 24.6553V24.8622H70.5183H68.9665H68.5527L68.6562 24.4484L71.6563 12.9653Z" fill="white"/>
<path d="M70.4146 12.7583H72.0699L68.9663 24.5518H70.5181L73.5182 12.7583H75.1734L75.6907 10.7927H70.9319L70.4146 12.7583Z" fill="#2B2A29"/>
<path d="M62.9662 12.7584H65.6559L66.1732 10.7928H61.9317L58.4143 24.5518H62.5524L63.0696 22.5863H60.3799L61.5178 18.5516H63.5869L64.1041 16.5861H62.0351L62.9662 12.7584ZM65.6559 12.9653H63.1731L62.3455 16.2757H64.1041H64.4145L64.311 16.5861L63.7938 18.5516V18.7586H63.5869H61.7247L60.7937 22.2759H63.0696H63.38L63.2765 22.6897L62.7593 24.6553V24.8622H62.5524H58.4143H58.0005L58.1039 24.4484L61.7247 10.6893V10.4824H61.9317H66.1732H66.4835L66.3801 10.7928L65.8628 12.7584V12.9653H65.6559V12.9653Z" fill="white"/>
<path d="M62.9659 12.7583H65.6557L66.1729 10.7927H61.9314L58.4141 24.5518H62.5521L63.0694 22.5862H60.3796L61.5176 18.5516H63.5866L64.1039 16.586H62.0349L62.9659 12.7583Z" fill="#2B2A29"/>
<path d="M54.1727 12.7584C54.6899 12.7584 54.7934 13.1722 54.5865 14.1032L54.3796 14.9308C54.0692 15.9654 53.6554 16.3792 53.0347 16.3792H52.414L53.3451 12.7584H54.1727V12.7584ZM52.6209 18.3447C53.3451 18.3447 53.4485 18.7586 53.1382 20L52.8278 21.2414C52.6209 22.2759 52.2071 22.5863 51.6898 22.5863H50.8622L51.8968 18.3447H52.6209V18.3447ZM54.6899 10.7928H52.414L48.7932 24.5518H51.1726C52.7244 24.5518 53.7589 23.4139 54.3796 21.2414L54.6899 20.1034C55.0003 18.6551 55.0003 17.6206 54.2761 17.2068C55.1038 16.6895 55.621 15.8619 56.0348 14.4136L56.1383 13.8963C56.6555 11.8273 56.2417 10.7928 54.6899 10.7928ZM54.3796 13.1722C54.3796 13.0687 54.2761 12.9653 54.1727 12.9653H53.552L52.8278 16.0688H53.0347C53.2416 16.0688 53.4485 16.0688 53.552 15.8619C53.7589 15.655 53.9658 15.3446 54.0692 14.8274L54.2761 14.1032C54.3796 13.586 54.3796 13.2756 54.3796 13.1722ZM53.0347 18.7586C52.9313 18.6551 52.8278 18.5516 52.6209 18.5516H52.1037L51.1726 22.2759H51.6898C51.8968 22.2759 52.0002 22.2759 52.2071 22.069C52.3106 21.9656 52.414 21.6552 52.6209 21.1379L52.9313 19.8965C53.0347 19.3793 53.1382 18.9655 53.0347 18.7586ZM52.414 10.4824H54.6899C55.621 10.4824 56.1383 10.7928 56.4486 11.4135C56.759 12.0342 56.6555 12.8618 56.3452 13.9998L56.2417 14.517C56.0348 15.2412 55.8279 15.8619 55.5176 16.2757C55.3107 16.6895 55.0003 16.9999 54.6899 17.2068C55.0003 17.5171 55.1038 17.8275 55.1038 18.2413C55.2072 18.7586 55.1038 19.4827 54.8969 20.2069L54.5865 21.3448C54.2761 22.4828 53.8623 23.3104 53.3451 23.9311C52.7244 24.5518 52.0002 24.8622 51.1726 24.8622H48.7932H48.3794L48.4828 24.4484L52.1037 10.6893L52.2071 10.4824H52.414V10.4824Z" fill="white"/>
<path d="M54.1725 12.7583C54.6897 12.7583 54.7932 13.1721 54.5863 14.1032L54.3794 14.9308C54.069 15.9653 53.6552 16.3791 53.0345 16.3791H52.4138L53.3448 12.7583H54.1725V12.7583ZM52.6207 18.3447C53.3448 18.3447 53.4483 18.7585 53.1379 19.9999L52.8276 21.2413C52.6207 22.2759 52.2069 22.5862 51.6896 22.5862H50.862L51.8965 18.3447H52.6207V18.3447ZM54.6897 10.7927H52.4138L48.793 24.5518H51.1724C52.7241 24.5518 53.7586 23.4138 54.3794 21.2413L54.6897 20.1034C55.0001 18.6551 55.0001 17.6205 54.2759 17.2067C55.1035 16.6895 55.6208 15.8619 56.0346 14.4135L56.138 13.8963C56.6553 11.8272 56.2415 10.7927 54.6897 10.7927Z" fill="#2B2A29"/>
<path d="M45.7931 15.0349L47.7586 17.7247L44.3447 20.4144L45.7931 15.0349Z" fill="#FFFF00"/>
<path d="M79.2082 15.0349L75.8977 17.7247L77.8633 20.4144L79.2082 15.0349Z" fill="#FFFF00"/>
<path d="M72.8976 29.3111L73.0011 29.0008H73.9321L73.7252 29.6215C73.5183 29.8284 73.3114 29.9318 73.1045 30.0353C72.8976 30.1387 72.6907 30.1387 72.3803 30.1387C71.9665 30.1387 71.6562 30.0353 71.4493 29.8284C71.3458 29.6215 71.2424 29.4146 71.3458 29.0008C71.4493 28.6904 71.6562 28.38 71.9665 28.1731C72.2769 27.9662 72.5873 27.8628 73.0011 27.8628C73.208 27.8628 73.4149 27.9662 73.6218 27.9662C73.8287 28.0697 73.9321 28.2766 74.0356 28.38L73.7252 28.587C73.6218 28.4835 73.5183 28.38 73.4149 28.2766C73.3114 28.2766 73.1045 28.1731 72.8976 28.1731C72.5873 28.1731 72.3803 28.2766 72.1734 28.4835C71.8631 28.587 71.7596 28.7939 71.6562 29.0008C71.6562 29.3111 71.6562 29.4146 71.7596 29.6215C71.9665 29.8284 72.1734 29.8284 72.4838 29.8284C72.6907 29.8284 72.7942 29.8284 73.0011 29.7249C73.208 29.7249 73.3114 29.6215 73.4149 29.518L73.5183 29.3111H72.8976ZM77.2426 29.3111H78.0702L77.8633 28.4835L77.2426 29.3111ZM76.2081 30.1387L77.8633 27.9662H78.0702L78.6909 30.1387H78.2771L78.1736 29.518H77.0357L76.6219 30.1387H76.2081ZM81.3806 30.1387L82.0014 27.9662H82.2083L82.829 29.2077L83.9669 27.9662H84.2773L83.76 30.1387H83.3462L83.76 28.587L82.6221 29.7249L82.1048 28.587L81.691 30.1387H81.3806ZM86.8636 30.1387L87.4843 27.9662H87.7946L87.2774 30.1387H86.8636ZM90.3809 30.1387L91.0016 27.9662H91.2085L92.1396 29.4146L92.5534 27.9662H92.8638L92.3465 30.1387H92.1396L91.1051 28.587L90.7947 30.1387H90.3809ZM97.1053 29.3111L97.2087 29.0008H98.1398L97.9329 29.6215C97.8295 29.8284 97.6226 29.9318 97.3122 30.0353C97.1053 30.1387 96.8984 30.1387 96.588 30.1387C96.1742 30.1387 95.9673 30.0353 95.7604 29.8284C95.5535 29.6215 95.4501 29.4146 95.5535 29.0008C95.657 28.6904 95.8639 28.38 96.1742 28.1731C96.4846 27.9662 96.7949 27.8628 97.2087 27.8628C97.5191 27.8628 97.726 27.9662 97.8295 27.9662C98.0364 28.0697 98.1398 28.2766 98.2433 28.38L97.9329 28.587C97.8295 28.4835 97.726 28.38 97.6226 28.2766C97.5191 28.2766 97.3122 28.1731 97.1053 28.1731C96.7949 28.1731 96.588 28.2766 96.3811 28.4835C96.0708 28.587 95.9673 28.7939 95.8639 29.0008C95.8639 29.3111 95.8639 29.4146 96.0708 29.6215C96.1742 29.8284 96.3811 29.8284 96.6915 29.8284C96.8984 29.8284 97.1053 29.8284 97.2087 29.7249C97.4156 29.7249 97.5191 29.6215 97.6226 29.518L97.726 29.3111H97.1053V29.3111Z" fill="white"/>
<path d="M54.5866 27.5525C55.0005 27.5525 55.3108 27.9663 55.2074 28.3801C55.2074 28.4836 55.2074 28.4836 55.2074 28.4836C55.6212 28.587 55.8281 28.8974 55.7246 29.3112C55.6212 29.8284 55.1039 30.1388 54.6901 30.1388C54.3797 30.1388 54.0694 29.9319 54.0694 29.6215C53.8625 29.9319 53.4487 30.1388 53.1383 30.1388C52.7245 30.1388 52.4142 29.8284 52.5176 29.3112C52.6211 28.8974 53.0349 28.587 53.5521 28.4836C53.5521 28.4836 53.5521 28.4836 53.5521 28.3801C53.6556 27.9663 54.1728 27.5525 54.5866 27.5525Z" fill="#FFFF00"/>
<path d="M54.1726 30.6562L53.9657 29.8286L53.4485 30.6562H54.1726Z" fill="#FFFF00"/>
<path d="M67.8284 27.5525C68.0353 27.5525 69.0698 28.587 68.8629 29.3112C68.7595 29.8284 68.3457 30.1388 67.8284 30.1388C67.5181 30.1388 67.3112 29.9319 67.2077 29.6215C67.0008 29.9319 66.6905 30.1388 66.3801 30.1388C65.8628 30.1388 65.5525 29.8284 65.7594 29.3112C65.9663 28.4836 67.5181 27.5525 67.8284 27.5525Z" fill="#FFFF00"/>
<path d="M67.3113 30.6562L67.2079 29.8286L66.5872 30.6562H67.3113Z" fill="#FFFF00"/>
<path d="M60.4833 30.449C60.0695 30.449 59.035 29.4144 59.2419 28.4834C59.3454 28.0696 59.8626 27.6558 60.3799 27.6558C60.7937 27.6558 61.0006 27.8627 61.0006 28.173C61.3109 27.8627 61.6213 27.6558 62.0351 27.6558C62.4489 27.6558 62.7593 28.0696 62.6558 28.4834C62.4489 29.5179 60.7937 30.449 60.4833 30.449Z" fill="#FFFF00"/>
<path d="M48.2762 27.5525C48.5865 28.1732 48.8969 28.587 49.4142 29.1043C48.69 29.5181 48.1727 29.9319 47.552 30.5526C47.2417 29.9319 46.9313 29.5181 46.4141 29.1043C47.1382 28.587 47.6555 28.1732 48.2762 27.5525Z" fill="#FFFF00"/>
</svg>
