<svg width="147" height="40" viewBox="0 0 147 40" fill="none" xmlns="http://www.w3.org/2000/svg">
<path d="M58.2667 14.4669H62.4667L62.0667 15.8669H59.3333L58.8667 17.4669H61.6L61.2 18.8002H58.4667L57.8667 20.8669H60.6L60.2 22.2002H56L58.2667 14.4669ZM76 9.00024C88.3333 10.7336 97 14.8002 97 19.5336C97 25.8669 81.4 31.0002 62.3333 31.0002C58.4 31.0002 54.5333 30.7336 51 30.3336C52.1333 30.4002 53.3333 30.4002 54.5333 30.4002C73.6 30.4002 89.2 25.0002 89.2 18.4002C89.1333 14.6002 84 11.2002 76 9.00024ZM84.2 22.3336C86.4 22.3336 88.2 20.5336 88.2 18.3336C88.2 16.1336 86.4 14.3336 84.2 14.3336C82 14.3336 80.2 16.1336 80.2 18.3336C80.2 20.5336 82 22.3336 84.2 22.3336ZM72.0667 14.4669H76.8L76.4 15.8669H74.7333L72.8667 22.2669H71.4667L73.3333 15.8669H71.6667L72.0667 14.4669ZM70.5333 15.9336L69.2 16.7336C68.9333 16.3336 68.6 16.0669 68.3333 15.9336C68 15.7336 67.6667 15.6669 67.2667 15.6669C66.4 15.6669 65.6 16.0002 64.9333 16.7336C64.4 17.3336 64.0667 17.9336 63.9333 18.6669C63.8 19.3336 63.9333 19.9336 64.3333 20.4002C64.7333 20.8669 65.2667 21.1336 65.9333 21.1336C66.4667 21.1336 66.9333 21.0002 67.3333 20.7336C67.8 20.4669 68.2 20.1336 68.5333 19.6669H66.1333L66.5333 18.2669H68.9333H70.3333C70.0667 19.5336 69.5333 20.6002 68.6667 21.3336C67.8 22.0669 66.8 22.4669 65.6 22.4669C64.3333 22.4669 63.4 22.0002 62.8667 21.1336C62.4 20.4669 62.2667 19.6002 62.4 18.6669C62.6 17.4669 63.2 16.4669 64.2 15.6002C65.2 14.7336 66.2667 14.3336 67.4667 14.3336C67.9333 14.3336 68.3333 14.4002 68.7333 14.5336C69.0667 14.6002 69.4 14.7336 69.6667 15.0002C70 15.2002 70.2667 15.5336 70.5333 15.9336Z" fill="#EE3524"/>
</svg>
