<svg width="147" height="40" viewBox="0 0 147 40" fill="none" xmlns="http://www.w3.org/2000/svg">
<path d="M113.066 26.6901H31.6336C29.6237 26.6901 28.603 25.6621 28.1948 24.4759C27.9435 23.7484 27.9435 22.9577 28.1477 22.2144L29.6551 16.7423C30.0791 15.2714 31.3352 12.8201 34.4129 12.8201C34.4129 12.8201 95.8248 12.8201 116.285 12.8201C119.111 12.8201 120.352 14.7812 119.896 16.9637C119.582 18.5452 118.295 22.7363 118.295 22.7363C117.792 25.0769 115.845 26.6901 113.066 26.6901Z" fill="#007CBA"/>
<path d="M101.462 32.4624C96.0446 32.4624 85.21 32.4624 79.7926 32.4624C76.5266 32.4624 73.3861 29.4417 73.8258 26.1837C74.2968 22.7044 76.2439 17.2481 77.3274 13.911C78.615 9.92559 82.5091 6.99976 85.7595 6.99976H108.214C112.94 7.11046 114.934 11.5071 113.977 14.6069C112.94 17.9756 111.276 23.2895 110.255 26.3735C109.297 29.2519 104.712 32.4624 101.462 32.4624Z" fill="white"/>
<path d="M108.575 8.91376C108.575 8.91376 104.995 8.92958 103.692 8.91376C100.143 8.86632 97.175 11.3177 96.2957 14.1328L93.799 22.0879C91.0197 28.9992 94.5684 30.1695 97.018 30.1537C98.494 30.1537 99.9543 30.1537 101.101 30.1537C104.115 30.1537 107.429 27.9554 108.308 25.1403L111.7 14.2593C112.61 11.7289 111.119 8.91376 108.575 8.91376ZM103.095 24.9663H98.3527L101.65 14.4017H106.392L103.095 24.9663Z" fill="#DD2027"/>
<path d="M84.8961 22.2772H87.5184L86.6705 24.95H81.5515L82.2581 22.7043L82.3837 22.3089L84.0639 17.0582L84.8961 14.417H94.6944L94.7415 14.2589L96.1704 9.22962C96.1704 9.22962 88.0366 9.24543 86.7333 9.22962C83.1846 9.18217 80.2796 11.9024 79.6515 14.1324L77.1549 22.0875C74.0301 29.489 78.1441 30.1533 80.3738 30.1533C81.8499 30.1533 83.3102 30.1533 84.4565 30.1533C88.1465 30.1533 90.7845 27.7968 91.6638 24.9817L93.9407 17.0424H86.5606L84.8961 22.2772Z" fill="#DD2027"/>
<path d="M69.5391 23.5426L70.6226 19.7311L68.6284 19.7153L67.5292 23.5268L65.3152 23.5426L66.5243 19.5729C66.8854 18.5449 67.9532 17.5486 69.3821 17.5644C69.9003 17.5644 71.4391 17.5644 71.4391 17.5644C72.5854 17.5644 73.1664 18.5291 72.8994 19.652L71.706 23.5268L69.5391 23.5426Z" fill="white"/>
<path d="M66.8852 17.8332H63.9802L64.8753 15.3027H67.7331L66.8852 17.8332Z" fill="white"/>
<path d="M60.1488 19.3196H58.2175L59.5208 15.0969H57.3067L55.9563 19.4619C55.7051 20.5848 56.2704 21.5496 57.4166 21.5496C57.4166 21.5496 57.4166 21.5496 57.4323 21.5496L56.82 23.5423H58.9869L59.615 21.5496C60.9811 21.5021 62.0017 20.5532 62.3472 19.5568L63.7447 15.0969H61.5778L60.1488 19.3196Z" fill="white"/>
<path d="M54.3704 15.0971C54.3704 15.0971 52.8316 15.0971 52.3134 15.0971C50.8845 15.0813 49.8011 16.0618 49.4556 17.1057L47.3672 23.5583H49.5655L50.2407 21.4707L52.1878 21.4865L51.6068 23.5583H53.7266L55.8465 17.1847C56.0977 16.0618 55.5324 15.0971 54.3704 15.0971ZM52.8787 19.3198H50.806L51.5126 17.2322H53.5539L52.8787 19.3198Z" fill="white"/>
<path d="M42.7666 15.0969L40.0972 23.5423H46.5037L47.8698 19.3196H45.7186L45.0591 21.4072H43.0649L45.012 15.0969H42.7666Z" fill="white"/>
<path d="M39.783 15.0969H35.6376L32.9368 23.5581H35.1351L35.8103 21.4705H37.7417C37.7417 21.4705 39.7516 21.5654 40.5524 19.4936C40.8036 18.8452 41.2904 17.232 41.2904 17.232C41.6673 15.9509 40.945 15.0969 39.783 15.0969ZM38.4483 19.3196H36.3913L37.0979 17.232H39.1392L38.4483 19.3196Z" fill="white"/>
<path d="M116.554 10.109C116.735 10.0482 116.857 9.87646 116.857 9.68163C116.857 9.53197 116.795 9.3979 116.688 9.31369C116.551 9.20142 116.418 9.20142 116.198 9.20142H115.707V10.8116H115.889V10.1618H116.296L116.646 10.8116H116.849L116.474 10.136L116.554 10.109ZM116.311 10.0065H115.889V9.32852H116.114C116.253 9.32823 116.372 9.33073 116.478 9.37659C116.592 9.4339 116.661 9.54473 116.661 9.66749C116.661 9.85411 116.51 10.006 116.325 10.0065L116.311 10.0065Z" fill="white"/>
<path d="M116.226 8.396C115.337 8.396 114.613 9.12462 114.613 10.0203C114.613 10.9159 115.337 11.6446 116.226 11.6446C117.115 11.6446 117.838 10.9159 117.838 10.0203C117.838 9.12462 117.115 8.396 116.226 8.396ZM116.226 11.4468C115.445 11.4468 114.809 10.8069 114.809 10.0203C114.809 9.23366 115.445 8.59372 116.226 8.59372C117.007 8.59372 117.642 9.23366 117.642 10.0203C117.642 10.8069 117.007 11.4468 116.226 11.4468Z" fill="white"/>
</svg>
