<svg width="147" height="40" viewBox="0 0 147 40" fill="none" xmlns="http://www.w3.org/2000/svg">
<path d="M75.0562 8H74.3723V31.5364H75.0562V27.0078H83.6944V24.2658H77.048V21.1082H82.7297V18.3456H77.048V15.2912H83.6944V12.5286H75.0562V8Z" fill="#78BE21"/>
<path d="M48.1689 21.4076L45.7142 17.4625L42.5678 12.5776L42.5366 12.5286H39.9285V27.0077H42.8226V18.108L44.9809 21.5755L48.4523 27.0077H51.0812V12.5286H48.1689V21.4076Z" fill="#78BE21"/>
<path d="M52.709 27.0077H62.2678V24.2658H55.6213V21.1081H61.303V18.3455H55.6213V15.2912H62.2678V12.5286H52.709V27.0077Z" fill="#78BE21"/>
<path d="M63.4407 15.3118H66.7821V27.0077H69.6944V15.3118H73.015V12.5286H63.4407V15.3118Z" fill="#78BE21"/>
<path d="M93.3911 21.4308L90.9364 17.4883L87.79 12.6034L87.7588 12.5518H85.1506V27.0309H88.0422V18.1312L90.2005 21.5987L93.6745 27.0309H96.3034V12.5518H93.3911V21.4308Z" fill="#78BE21"/>
<path d="M97.4944 12.5518V15.335H100.836V27.0309H103.748V15.335H107.069V12.5518H97.4944Z" fill="#78BE21"/>
</svg>
