<svg width="147" height="40" viewBox="0 0 147 40" fill="none" xmlns="http://www.w3.org/2000/svg">
<path fill-rule="evenodd" clip-rule="evenodd" d="M44.2541 11.724H103.143L106.313 9.00024V14.0016V29.4282C106.313 30.6727 105.303 31.7058 104.059 31.7058H44.2541C43.0097 31.7058 42 30.6961 42 29.4282V14.0016C42 12.7336 43.0097 11.724 44.2541 11.724Z" fill="#002E5B"/>
<path d="M53.106 18.6269C52.2137 18.6269 51.4389 18.9556 50.9223 19.6835V18.8147H49.0908V28.3243H51.0162V24.9666C51.5328 25.6945 52.2842 26.0232 53.1764 26.0232C55.0079 26.0232 56.2289 24.5909 56.2289 22.3837C56.2289 20.1061 54.9844 18.6269 53.106 18.6269ZM52.6364 24.5204C51.5797 24.5204 50.9458 23.7221 50.9458 22.3602C50.9458 20.9984 51.5797 20.2 52.6129 20.2C53.646 20.2 54.28 21.0219 54.28 22.3837C54.3035 23.6986 53.6695 24.5204 52.6364 24.5204ZM57.3324 25.8353H59.2578V16.1379H57.3324V25.8353ZM66.9359 23.9334V20.9045C66.9359 18.9556 65.2923 18.6269 63.8835 18.6269C61.8642 18.6269 60.7371 19.4252 60.6432 20.9984H62.4512C62.592 20.2001 62.9443 19.9183 63.8365 19.9183C64.6818 19.9183 65.1044 20.2235 65.1044 20.8575C65.1044 21.421 64.6348 21.5384 63.3904 21.7028C62.005 21.8906 60.3379 22.102 60.3379 23.9334C60.3379 25.2483 61.3006 26.0467 62.8269 26.0467C63.6721 26.0467 64.494 25.7649 65.1044 25.1544C65.1279 25.4597 65.1514 25.5771 65.2453 25.8353H67.1942C66.9124 25.2483 66.9359 24.5674 66.9359 23.9334ZM65.0575 23.2055C65.0575 24.2152 64.3531 24.7787 63.3434 24.7787C62.686 24.7787 62.2868 24.4265 62.2868 23.8395C62.2868 22.9707 63.0382 22.9003 63.6956 22.7829C64.1887 22.7125 64.6114 22.6655 65.0575 22.4072V23.2055ZM70.7397 16.7015H68.8144V18.8147H67.6403V20.1296H68.8144V23.7691C68.8144 25.4831 69.3309 25.9293 70.998 25.9293C71.4442 25.9293 71.632 25.9058 72.172 25.8823V24.403C71.9372 24.4265 71.7964 24.4265 71.585 24.4265C70.7632 24.4265 70.7397 24.1213 70.7397 23.4403V20.1296H72.172V18.8147H70.7397V16.7015ZM73.0173 17.7816H74.9427V16.1379H73.0173V17.7816ZM73.0173 25.8353H74.9427V18.8147H73.0173V25.8353ZM80.3197 18.6269C79.4275 18.6269 78.6526 18.9556 78.1361 19.6835V18.8147H76.3046V28.3243H78.23V24.9666C78.7466 25.6945 79.4979 26.0232 80.3902 26.0232C82.2217 26.0232 83.4426 24.5909 83.4426 22.3837C83.4661 20.1061 82.2217 18.6269 80.3197 18.6269ZM79.8736 24.5204C78.817 24.5204 78.183 23.7221 78.183 22.3602C78.183 20.9984 78.817 20.2 79.8501 20.2C80.8833 20.2 81.5172 21.0219 81.5172 22.3837C81.5172 23.6986 80.9068 24.5204 79.8736 24.5204ZM89.1719 22.4307C89.1719 23.4873 88.8666 24.4265 87.6456 24.4265C86.542 24.4265 86.4716 23.7221 86.4716 22.8299V18.8147H84.5227V23.5343C84.5227 25.2014 85.462 26.0467 86.9647 26.0467C87.9744 26.0467 88.7257 25.624 89.2423 24.8492V25.8353H91.0738V18.8147H89.1484V22.4307H89.1719ZM95.8638 21.4915C94.7602 21.2567 94.1497 21.1862 94.1497 20.5992C94.1497 20.1531 94.5489 19.8948 95.2298 19.8948C96.0046 19.8948 96.4508 20.1296 96.5682 20.8575H98.3527C98.3057 19.2139 96.9204 18.6034 95.3002 18.6034C93.3514 18.6034 92.2243 19.3782 92.2243 20.7636C92.2243 22.4307 93.8445 22.6185 95.1124 22.9238C96.1221 23.1586 96.6856 23.2525 96.6856 23.863C96.6856 24.403 96.1925 24.7318 95.4176 24.7318C94.5254 24.7318 93.9853 24.403 93.9149 23.5577H92.0834C92.1069 25.3657 93.6096 26.0467 95.3707 26.0467C97.3665 26.0467 98.5875 25.1309 98.5875 23.6751C98.5875 22.0785 97.1082 21.7498 95.8638 21.4915Z" fill="#FDE428"/>
</svg>
