<svg width="147" height="40" viewBox="0 0 147 40" fill="none" xmlns="http://www.w3.org/2000/svg">
<path d="M60.7782 14.6538L60.5804 23.7901C60.5804 23.7901 60.285 20.1862 60.7782 14.6538Z" fill="white"/>
<path d="M87.8157 26.1221C87.8153 26.2456 87.7166 26.3463 87.5931 26.3492C86.9899 26.366 86.44 26.4308 85.7871 26.4636C85.1564 26.4946 84.5453 26.5186 84.0592 26.6206C83.986 26.6367 83.9096 26.6154 83.8552 26.5638C83.8099 26.5209 83.7842 26.4613 83.7842 26.3989V25.157C83.7841 25.0316 83.6824 24.93 83.557 24.9301C83.5096 24.9301 83.4635 24.945 83.425 24.9725C82.9163 25.3532 82.3852 25.703 81.8346 26.0201C81.0708 26.4459 80.5173 26.6472 79.8059 26.6472C78.0408 26.6472 76.5382 25.6192 76.5382 22.9111V17.9988C76.5382 16.6682 76.3271 16.3853 75.6689 16.2354L75.1003 16.1192C75.0018 16.0973 74.9296 16.0131 74.9229 15.9125L74.9025 15.6242C74.8931 15.4997 74.9865 15.3911 75.1111 15.3817C75.114 15.3814 75.1169 15.3813 75.1198 15.3812C75.8685 15.3546 77.6975 15.3005 78.4373 15.2428C78.5613 15.2327 78.6701 15.325 78.6802 15.449C78.6811 15.4607 78.6812 15.4724 78.6803 15.4841C78.6244 16.2558 78.6244 17.3539 78.6244 18.8503V22.2352C78.6244 24.4669 79.7572 25.0683 80.9431 25.0683C81.8647 25.0683 82.8369 24.7135 83.7124 23.9338C83.761 23.8902 83.7887 23.8279 83.7887 23.7626V17.9988C83.7887 16.6682 83.5518 16.3604 82.6817 16.2354L81.9162 16.113C81.8058 16.0955 81.7245 16.0003 81.7246 15.8886V15.6091C81.724 15.4869 81.8206 15.3864 81.9428 15.3821C82.789 15.3555 84.8575 15.2996 85.6177 15.2401C85.7423 15.2308 85.8508 15.3243 85.8601 15.4488C85.8605 15.4547 85.8607 15.4605 85.8607 15.4663V23.587C85.8607 24.8404 86.071 25.5553 87.1026 25.6271L87.5949 25.6449C87.7171 25.6492 87.814 25.7496 87.8139 25.872L87.8157 26.1221Z" fill="#9E9FA1"/>
<path d="M74.3763 23.4876C74.0543 24.3347 73.6862 25.2847 73.3482 26.1443C73.3 26.2666 73.1817 26.3469 73.0502 26.3465H64.7965C64.6747 26.3468 64.5633 26.2781 64.5091 26.1691L64.4966 26.1425C64.4451 26.0373 64.4554 25.9124 64.5233 25.817C66.6361 22.8419 68.6364 19.8429 70.6526 16.7392C70.7491 16.5904 70.7067 16.3916 70.5579 16.2951C70.5068 16.2619 70.4474 16.244 70.3865 16.2433H68.6319C66.7346 16.2433 66.3922 16.6194 65.6542 18.0236L65.4147 18.4671C65.3401 18.6042 65.1774 18.6676 65.0297 18.617L64.9206 18.5798C64.7574 18.5237 64.6679 18.3483 64.7184 18.1833C64.965 17.3849 65.2426 16.5299 65.4333 15.6508C65.4643 15.5029 65.5945 15.3968 65.7456 15.3962H73.3801C73.5061 15.3963 73.6203 15.4703 73.672 15.5852C73.7174 15.6863 73.7074 15.8037 73.6454 15.8956C71.6265 18.8858 69.6502 21.8945 67.6349 25.024C67.5389 25.173 67.5819 25.3718 67.731 25.4678C67.7817 25.5005 67.8407 25.5182 67.901 25.5189H69.9234C71.9219 25.5189 72.4505 24.9947 73.4476 23.4983L73.46 23.4779L73.6498 23.1452C73.7329 22.9995 73.9144 22.9426 74.0658 23.0149L74.2157 23.0858C74.3653 23.1579 74.435 23.3323 74.3763 23.4876Z" fill="#9E9FA1"/>
<path d="M99.2483 26.0054C99.2488 25.83 99.3816 25.6834 99.5561 25.6657C101.013 25.5184 101.761 25.2851 101.761 23.6885V18.5234C101.761 17.0678 101.692 16.5861 100.385 16.3457C100.221 16.3166 100.102 16.1752 100.102 16.0096V15.7222C100.102 15.5373 100.249 15.3859 100.433 15.3807C101.004 15.3647 102.214 15.3239 103.31 15.2432C103.498 15.229 103.661 15.3695 103.675 15.5571C103.676 15.566 103.676 15.5749 103.676 15.5838V23.6885C103.676 25.2851 103.984 25.5184 105.406 25.6648C105.581 25.6821 105.714 25.8288 105.715 26.0045C105.715 26.1931 105.562 26.346 105.373 26.346H99.5898C99.4015 26.346 99.2488 26.1936 99.2483 26.0054Z" fill="#9E9FA1"/>
<path d="M44.6344 11.8074L62.5398 6.99976L61.8879 32.6293L42 28.8604L44.6344 11.8074Z" fill="url(#paint0_linear)"/>
<path d="M62.5397 6.99976L63.5083 7.70228L62.8785 31.5046L61.8877 32.6293L62.5397 6.99976Z" fill="url(#paint1_linear)"/>
<path opacity="0.15" d="M44.6345 11.8074L44.3755 13.0262C44.3755 13.0829 44.3711 13.1397 44.3711 13.1974C44.3711 20.6191 50.2999 26.6357 58.1013 26.6357C59.437 26.6358 60.7666 26.455 62.0538 26.0982L62.5399 6.99976L44.6345 11.8074Z" fill="white"/>
<path d="M60.3367 24.7064C60.0156 25.7052 59.0168 28.4887 58.615 29.3766L43.8088 27.2238L43.8621 26.6437C46.5888 26.8211 46.8478 26.6659 47.0323 24.8173L47.9432 15.7813C48.1517 13.7411 47.9042 13.7074 45.4365 14.1101L45.4942 13.5105L60.2178 10.0156C60.1291 10.7607 60.0493 12.753 59.965 14.2582L58.9707 14.5394C58.8154 13.3641 58.5547 12.7884 58.1874 12.2713C57.7892 11.7391 56.9021 11.7462 54.4939 12.2775L51.9872 12.8266C50.9742 13.0466 50.9014 13.1344 50.8252 13.844L50.2291 19.4003L53.2299 19.1856C56.1828 18.9736 56.3726 18.7421 56.99 16.82L57.9524 16.7082L57.2969 22.1953H56.3557C56.1668 20.2181 55.9583 20.0664 53.1483 20.1986L50.1324 20.3459L49.6428 24.9176C49.523 26.0512 49.6508 26.6029 50.175 26.9577C50.724 27.348 51.8035 27.4819 53.3576 27.6762C55.7446 27.9787 56.66 27.8642 57.4512 27.1972C58.0677 26.665 58.8066 25.6848 59.4026 24.5441L60.3367 24.7064Z" fill="white"/>
<path d="M98.9706 15.849C98.9725 16.0955 98.7819 16.3009 98.5359 16.3173C98.0516 16.3537 97.5904 16.4725 97.3881 16.8131C97.3095 16.9031 97.3095 17.0372 97.3881 17.1272C97.7411 17.6875 97.9258 18.3374 97.9203 18.9996C97.9203 21.7077 95.5484 23.0116 93.3078 23.0116C92.9516 23.0088 92.596 22.9818 92.2434 22.9309C92.0482 22.9011 91.8497 22.9592 91.7014 23.0897C91.4282 23.3363 91.1692 23.6734 91.1692 23.9386C91.1692 24.4149 91.6438 24.7147 92.8297 24.7147C93.8054 24.7147 94.7262 24.6313 95.5857 24.7085C97.2089 24.854 99.0575 26.1331 99.0575 28.143C99.0575 30.2515 96.502 31.8189 92.9974 31.8189C90.0463 31.8189 88.2456 30.3659 88.2456 28.936C88.2456 27.1718 90.1438 26.6156 90.7656 26.1437C90.8536 26.0789 90.8724 25.9551 90.8076 25.8671C90.785 25.8365 90.7541 25.813 90.7186 25.7995C89.9549 25.4971 89.3384 25.3959 89.1149 25.0154C88.297 23.6228 90.5128 23.2591 90.951 22.8192C91.0289 22.7432 91.0305 22.6186 90.9545 22.5407C90.9375 22.5232 90.9173 22.5091 90.8951 22.4989C89.8041 21.9667 88.8248 20.8349 88.8248 19.2498C88.8248 16.4166 91.5125 15.0879 93.542 15.0879H93.5686C94.1164 15.0886 94.6605 15.1785 95.1794 15.354C95.2482 15.3777 95.3204 15.39 95.3932 15.3904H98.4978C98.7524 15.3903 98.9596 15.5952 98.9626 15.8498L98.9706 15.849ZM90.3372 28.1342C90.3372 29.5135 91.6988 30.7003 93.6484 30.7003C96.0629 30.7003 97.099 29.7042 97.2764 28.7711C97.4901 27.6437 96.8976 27.0263 96.1392 26.5535C95.544 26.1854 95.1156 26.0213 93.958 25.9592C91.5036 25.8306 90.3372 27.4317 90.3372 28.1342V28.1342ZM91.1009 18.8497C91.1009 20.8012 92.129 22.2098 93.5784 22.2098C94.7377 22.1849 95.7658 21.2066 95.7658 19.2258C95.7658 17.2744 94.79 15.8658 93.2626 15.8658C92.1556 15.8702 91.1018 16.9187 91.1018 18.8497H91.1009V18.8497Z" fill="#9E9FA1"/>
<path d="M100.617 12.1828C100.794 12.958 101.641 13.3935 102.51 13.1585C103.378 12.9234 103.939 12.0941 103.762 11.3232C103.586 10.5524 102.738 10.1125 101.869 10.3475C101.001 10.5826 100.44 11.4075 100.617 12.1828Z" fill="#3D91CF"/>
<defs>
<linearGradient id="paint0_linear" x1="60.7474" y1="6.16394" x2="48.7059" y2="31.9873" gradientUnits="userSpaceOnUse">
<stop stop-color="#70ABDC"/>
<stop offset="0.17" stop-color="#67A6DA"/>
<stop offset="0.46" stop-color="#4D9AD4"/>
<stop offset="0.6" stop-color="#3E93D0"/>
<stop offset="0.99" stop-color="#1B7CC1"/>
</linearGradient>
<linearGradient id="paint1_linear" x1="62.9666" y1="7.00848" x2="62.4433" y2="32.6406" gradientUnits="userSpaceOnUse">
<stop stop-color="#3E93D0"/>
<stop offset="0.99" stop-color="#1B7CC1"/>
</linearGradient>
</defs>
</svg>
