<svg width="147" height="40" viewBox="0 0 147 40" fill="none" xmlns="http://www.w3.org/2000/svg">
<g clip-path="url(#clip0)">
<path d="M36.882 8C30.3508 8 25 13.1934 25 19.7246C25 20.9049 25.1574 22.0066 25.5508 23.1082C25.7869 22.7934 26.023 22.4787 26.1803 22.1639C27.0459 20.9836 27.8328 19.7246 28.6197 18.5443L29.1705 17.6C29.3279 17.2852 29.5639 16.9705 29.7213 16.6557C30.1148 16.0262 30.5082 15.3967 30.823 14.7672C30.9803 14.4525 31.1377 14.1377 31.3738 13.823C31.6098 13.5082 31.6885 13.1934 31.9246 12.8787C32.1607 12.5639 32.2393 12.2492 32.3967 11.9344L32.8689 11.0689L32.9475 10.9902C33.1836 10.4393 33.8131 10.282 34.3639 10.518C34.7574 10.7541 34.9934 11.1475 34.9934 11.6197C34.9934 12.1705 34.9148 12.8 34.8361 13.3508C34.7574 13.9016 34.7574 14.5311 34.7574 15.082C34.6787 16.2623 34.6787 17.3639 34.6787 18.4656C34.6787 19.5672 34.7574 20.7475 34.8361 21.7705L35.0721 23.423C35.1508 23.8951 35.3082 24.3672 35.5443 24.8393C35.6229 24.9967 35.7016 25.0754 35.7803 25.2328C35.859 25.3115 35.7803 25.2328 35.859 25.2328H36.0951L36.1738 25.1541L36.6459 24.682C36.9607 24.2885 37.3541 23.8951 37.5902 23.423C37.9049 22.9508 38.141 22.4787 38.4557 22.0066C39.0066 20.9836 39.5574 19.9607 40.0295 18.9377C40.2656 18.3869 40.5016 17.9148 40.7377 17.3639C40.9738 16.8131 41.2098 16.2623 41.4459 15.7902C41.682 15.2393 42.3115 15.0033 42.8623 15.2393C43.177 15.3967 43.4131 15.7115 43.4918 16.0262C43.4918 16.1836 43.4918 16.341 43.5705 16.4984L43.6492 16.9705C43.7279 17.2852 43.7279 17.6 43.8066 17.9148C43.8852 18.5443 44.0426 19.2525 44.2 19.882C44.3574 20.5115 44.5934 21.141 44.8295 21.7705C45.0656 22.4 45.3803 22.9508 45.8525 23.5016C45.9311 23.659 45.9311 23.8164 45.7738 23.8951C45.6951 23.9738 45.5377 23.9738 45.459 23.8951C44.9082 23.423 44.4361 22.8721 44.0426 22.3213C43.6492 21.7705 43.2557 21.141 42.941 20.5115C42.7049 20.0393 42.5475 19.6459 42.3902 19.1738C42.2328 19.4098 42.1541 19.7246 41.9967 19.9607C41.4459 21.0623 40.9738 22.0852 40.3443 23.1082C40.0295 23.659 39.7148 24.2098 39.4 24.682C39.0852 25.2328 38.6918 25.7836 38.2197 26.2557C37.9836 26.5705 37.6689 26.8066 37.4328 27.0426C37.3541 27.1213 37.2754 27.2 37.118 27.2L36.9607 27.2787L36.882 27.3574H36.6459C36.5672 27.3574 36.5672 27.4361 36.4885 27.4361C36.3311 27.4361 36.2525 27.5148 36.0951 27.5148C35.7803 27.5148 35.5443 27.5148 35.2295 27.4361C34.9148 27.3574 34.7574 27.2 34.5213 27.0426C34.2066 26.7279 33.8918 26.4131 33.7344 26.0197C33.4197 25.3902 33.1836 24.7607 33.1049 24.0525C32.9475 23.423 32.8689 22.7934 32.7902 22.2426C32.6328 21.0623 32.6328 19.8033 32.6328 18.7016V16.9705C32.3967 17.3639 32.1607 17.7574 32.0033 18.1508C31.8459 18.4656 31.6885 18.7803 31.4525 19.0951L30.9016 20.0393C30.1934 21.377 29.4066 22.6361 28.6197 23.8164C28.1475 24.6033 27.5967 25.4689 27.0459 26.2557C30.6656 31.6066 37.9836 33.1803 43.4918 29.5607C49 26.0984 50.4951 18.7803 46.8754 13.4295C44.5934 10.0459 40.8951 8 36.882 8Z" fill="url(#paint0_linear)"/>
<path d="M58.9936 23.8951V16.1049H58.8362L56.3182 23.8951H55.6887L53.1706 16.1049H52.9346V23.8951H51.9116V15.3967H53.8001L56.0034 22.2426L58.2067 15.3967H60.0952V24.0525L58.9936 23.8951V23.8951Z" fill="url(#paint1_linear)"/>
<path d="M61.5903 16.4984V15.3967H62.692V16.4984H61.5903ZM61.5903 23.8951V17.2853H62.692V23.8951H61.5903Z" fill="url(#paint2_linear)"/>
<path d="M69.459 21.7704C69.459 23.1081 68.9868 24.0524 66.7835 24.0524C64.0294 24.0524 63.8721 22.4786 63.8721 20.6688C63.8721 18.8589 64.0294 17.2852 66.7835 17.2852C68.9868 17.2852 69.459 18.3081 69.459 19.5671H68.436C68.436 18.4655 68.0426 17.9934 66.7835 17.9934C65.0524 17.9934 64.9737 18.9376 64.9737 20.7475C64.9737 22.5573 65.0524 23.5016 66.7835 23.5016C68.0426 23.5016 68.436 22.9507 68.436 21.9278H69.459V21.7704Z" fill="url(#paint3_linear)"/>
<path d="M71.5834 17.9934C72.1342 17.6787 72.7638 17.2065 73.3933 17.2065H74.3375L74.2588 17.9934H73.3933C72.8424 17.9934 72.2129 18.4656 71.7408 18.7016V23.8951H70.6392V17.2852H71.5047L71.5834 17.9934Z" fill="url(#paint4_linear)"/>
<path d="M80.4753 20.5902C80.4753 22.4787 80.3179 23.9738 77.5638 23.9738C74.8097 23.9738 74.6523 22.4 74.6523 20.5902C74.6523 18.7803 74.8097 17.2065 77.5638 17.2065C80.3179 17.2065 80.4753 18.7016 80.4753 20.5902ZM75.6753 20.5902C75.6753 22.4 75.754 23.3442 77.4851 23.3442C79.2163 23.3442 79.295 22.4787 79.295 20.5902C79.295 18.7016 79.2163 17.8361 77.4851 17.8361C75.8327 17.9147 75.6753 18.7803 75.6753 20.5902Z" fill="url(#paint5_linear)"/>
<path d="M82.5214 25.4688C82.9149 25.5475 83.4657 25.5475 84.0952 25.5475C85.8263 25.5475 85.9837 25.0753 86.0624 23.3442C85.5903 23.6589 84.8821 23.9737 84.1739 23.9737C81.7345 24.0524 81.5771 22.7147 81.5771 20.6688C81.5771 18.6229 81.7345 17.2852 84.0952 17.2852C84.8821 17.2852 85.669 17.6786 86.2198 17.9934L86.2985 17.3638H87.164V23.2655C87.164 25.7048 86.6132 26.3343 84.4099 26.3343C83.7804 26.3343 83.0722 26.2556 82.4427 26.177L82.5214 25.4688ZM85.9837 18.4655C85.5116 18.1507 84.8821 17.836 84.3312 17.836C82.6788 17.836 82.6001 18.7802 82.6001 20.5901C82.6001 22.3999 82.6788 23.1868 84.3312 23.1868C84.8821 23.1868 85.5116 22.872 85.9837 22.636V18.4655V18.4655Z" fill="url(#paint6_linear)"/>
<path d="M93.1442 23.8951L93.0655 23.2656C92.5147 23.5803 91.8065 23.9738 91.0196 23.9738C88.5802 24.0524 88.4229 22.6361 88.4229 20.5902C88.4229 18.5442 88.5802 17.2065 91.0196 17.2065C91.8065 17.2065 92.5147 17.6 93.0655 17.9147L93.1442 17.3639H94.0097V23.9738H93.1442V23.8951ZM92.9081 18.4656C92.436 18.2295 91.8065 17.9147 91.2556 17.9147C89.6032 17.9147 89.5245 18.859 89.5245 20.6688C89.5245 22.4787 89.6032 23.4229 91.2556 23.4229C91.8065 23.4229 92.436 23.1082 92.9081 22.7934V18.4656V18.4656Z" fill="url(#paint7_linear)"/>
<path d="M96.2919 17.836C96.764 17.5212 97.4722 17.1278 98.1804 17.1278C99.2821 17.0491 99.9116 17.3638 100.148 17.836C100.698 17.5212 101.328 17.1278 102.115 17.1278C104.397 17.0491 104.554 18.2294 104.554 19.8819V23.895H103.453V19.9606C103.453 18.5442 103.374 17.9147 101.879 17.9147C101.328 17.9147 100.777 18.2294 100.305 18.5442C100.384 19.0163 100.462 19.4884 100.462 20.0392V23.9737H99.5181V20.0392C99.5181 18.6229 99.4395 17.9933 97.9444 17.9933C97.3936 17.9933 96.8427 18.3081 96.4493 18.5442V23.9737H95.3477V17.3638H96.2132L96.2919 17.836V17.836Z" fill="url(#paint8_linear)"/>
<path d="M106.049 16.4984V15.3967H107.151V16.4984H106.049ZM106.049 23.8951V17.2853H107.151V23.8951H106.049Z" fill="url(#paint9_linear)"/>
<path d="M109.512 17.8362C110.062 17.5214 110.771 17.128 111.558 17.128C113.997 17.0493 114.154 18.2296 114.154 19.8821V23.8952H113.053V19.9608C113.053 18.5444 112.974 17.9149 111.321 17.9149C110.771 17.9149 110.141 18.2296 109.669 18.4657V23.8952H108.567V17.2854H109.433L109.512 17.8362V17.8362Z" fill="url(#paint10_linear)"/>
<path d="M116.357 25.4688C116.751 25.5475 117.302 25.5475 117.931 25.5475C119.662 25.5475 119.82 25.0753 119.898 23.3442C119.426 23.6589 118.718 23.9737 118.01 23.9737C115.57 24.0524 115.413 22.7147 115.413 20.6688C115.413 18.6229 115.57 17.2852 117.931 17.2852C118.718 17.2852 119.505 17.6786 120.056 17.9934L120.134 17.3638H121V23.2655C121 25.7048 120.449 26.3343 118.246 26.3343C117.616 26.3343 116.908 26.2556 116.279 26.177L116.357 25.4688V25.4688ZM119.82 18.4655C119.348 18.1507 118.718 17.836 118.167 17.836C116.515 17.836 116.436 18.7802 116.436 20.5901C116.436 22.3999 116.515 23.1868 118.167 23.1868C118.718 23.1868 119.348 22.872 119.82 22.636V18.4655V18.4655Z" fill="url(#paint11_linear)"/>
</g>
<defs>
<linearGradient id="paint0_linear" x1="23.198" y1="23.1082" x2="118.827" y2="0.0705627" gradientUnits="userSpaceOnUse">
<stop stop-color="#21E418"/>
<stop offset="0.3" stop-color="#31B6E9"/>
<stop offset="0.976" stop-color="#21E418"/>
</linearGradient>
<linearGradient id="paint1_linear" x1="24.3069" y1="27.3236" x2="119.712" y2="4.33944" gradientUnits="userSpaceOnUse">
<stop stop-color="#21E418"/>
<stop offset="0.3" stop-color="#31B6E9"/>
<stop offset="0.976" stop-color="#21E418"/>
</linearGradient>
<linearGradient id="paint2_linear" x1="24.9119" y1="28.6164" x2="119.657" y2="5.7911" gradientUnits="userSpaceOnUse">
<stop stop-color="#21E418"/>
<stop offset="0.3" stop-color="#31B6E9"/>
<stop offset="0.976" stop-color="#21E418"/>
</linearGradient>
<linearGradient id="paint3_linear" x1="25.096" y1="30.6244" x2="120.591" y2="7.6191" gradientUnits="userSpaceOnUse">
<stop stop-color="#21E418"/>
<stop offset="0.3" stop-color="#31B6E9"/>
<stop offset="0.976" stop-color="#21E418"/>
</linearGradient>
<linearGradient id="paint4_linear" x1="25.4758" y1="31.6302" x2="120.732" y2="8.68218" gradientUnits="userSpaceOnUse">
<stop stop-color="#21E418"/>
<stop offset="0.3" stop-color="#31B6E9"/>
<stop offset="0.976" stop-color="#21E418"/>
</linearGradient>
<linearGradient id="paint5_linear" x1="25.7041" y1="33.0898" x2="121.216" y2="10.0797" gradientUnits="userSpaceOnUse">
<stop stop-color="#21E418"/>
<stop offset="0.3" stop-color="#31B6E9"/>
<stop offset="0.976" stop-color="#21E418"/>
</linearGradient>
<linearGradient id="paint6_linear" x1="26.5329" y1="35.7282" x2="121.776" y2="12.7834" gradientUnits="userSpaceOnUse">
<stop stop-color="#21E418"/>
<stop offset="0.3" stop-color="#31B6E9"/>
<stop offset="0.976" stop-color="#21E418"/>
</linearGradient>
<linearGradient id="paint7_linear" x1="26.58" y1="36.3672" x2="122.007" y2="13.3776" gradientUnits="userSpaceOnUse">
<stop stop-color="#21E418"/>
<stop offset="0.3" stop-color="#31B6E9"/>
<stop offset="0.976" stop-color="#21E418"/>
</linearGradient>
<linearGradient id="paint8_linear" x1="26.9909" y1="38.2462" x2="122.506" y2="15.2353" gradientUnits="userSpaceOnUse">
<stop stop-color="#21E418"/>
<stop offset="0.3" stop-color="#31B6E9"/>
<stop offset="0.976" stop-color="#21E418"/>
</linearGradient>
<linearGradient id="paint9_linear" x1="27.7734" y1="38.6476" x2="122.519" y2="15.8229" gradientUnits="userSpaceOnUse">
<stop stop-color="#21E418"/>
<stop offset="0.3" stop-color="#31B6E9"/>
<stop offset="0.976" stop-color="#21E418"/>
</linearGradient>
<linearGradient id="paint10_linear" x1="27.7126" y1="40.7802" x2="123.132" y2="17.7921" gradientUnits="userSpaceOnUse">
<stop stop-color="#21E418"/>
<stop offset="0.3" stop-color="#31B6E9"/>
<stop offset="0.976" stop-color="#21E418"/>
</linearGradient>
<linearGradient id="paint11_linear" x1="28.541" y1="43.3893" x2="123.784" y2="20.4437" gradientUnits="userSpaceOnUse">
<stop stop-color="#21E418"/>
<stop offset="0.3" stop-color="#31B6E9"/>
<stop offset="0.976" stop-color="#21E418"/>
</linearGradient>
<clipPath id="clip0">
<rect x="25" y="8" width="96" height="23.6066" fill="white"/>
</clipPath>
</defs>
</svg>
