<svg xmlns:x="http://ns.adobe.com/Extensibility/1.0/" xmlns:i="http://ns.adobe.com/AdobeIllustrator/10.0/" xmlns:graph="http://ns.adobe.com/Graphs/1.0/" xmlns="http://www.w3.org/2000/svg" xmlns:xlink="http://www.w3.org/1999/xlink" version="1.1" id="Layer_1" x="0px" y="0px" viewBox="0 0 160 60" style="enable-background:new 0 0 160 60;" xml:space="preserve">
<style type="text/css">
	.st0{fill-rule:evenodd;clip-rule:evenodd;}
</style>
    <metadata><?xpacket begin="﻿" id="W5M0MpCehiHzreSzNTczkc9d"?>
        <x:xmpmeta xmlns:x="adobe:ns:meta/" x:xmptk="Adobe XMP Core 5.6-c148 79.164050, 2019/10/01-18:03:16        ">
   <rdf:RDF xmlns:rdf="http://www.w3.org/1999/02/22-rdf-syntax-ns#">
      <rdf:Description xmlns:xmp="http://ns.adobe.com/xap/1.0/" xmlns:xmpGImg="http://ns.adobe.com/xap/1.0/g/img/" xmlns:xmpTPg="http://ns.adobe.com/xap/1.0/t/pg/" xmlns:stDim="http://ns.adobe.com/xap/1.0/sType/Dimensions#" xmlns:xmpG="http://ns.adobe.com/xap/1.0/g/" xmlns:dc="http://purl.org/dc/elements/1.1/" xmlns:xmpMM="http://ns.adobe.com/xap/1.0/mm/" xmlns:stRef="http://ns.adobe.com/xap/1.0/sType/ResourceRef#" xmlns:stEvt="http://ns.adobe.com/xap/1.0/sType/ResourceEvent#" rdf:about="">
         <xmp:CreatorTool>Adobe Illustrator 24.1 (Macintosh)</xmp:CreatorTool>
          <xmp:CreateDate>2020-05-12T11:00:54+03:00</xmp:CreateDate>
          <xmp:MetadataDate>2020-05-12T11:00:54+03:00</xmp:MetadataDate>
          <xmp:ModifyDate>2020-05-12T11:00:54+03:00</xmp:ModifyDate>
          <xmp:Thumbnails>
            <rdf:Alt>
               <rdf:li rdf:parseType="Resource">
                  <xmpGImg:width>256</xmpGImg:width>
                   <xmpGImg:height>44</xmpGImg:height>
                   <xmpGImg:format>JPEG</xmpGImg:format>
                   <xmpGImg:image>/9j/4AAQSkZJRgABAgEASABIAAD/7QAsUGhvdG9zaG9wIDMuMAA4QklNA+0AAAAAABAASAAAAAEA
AQBIAAAAAQAB/+4ADkFkb2JlAGTAAAAAAf/bAIQABgQEBAUEBgUFBgkGBQYJCwgGBggLDAoKCwoK
DBAMDAwMDAwQDA4PEA8ODBMTFBQTExwbGxscHx8fHx8fHx8fHwEHBwcNDA0YEBAYGhURFRofHx8f
Hx8fHx8fHx8fHx8fHx8fHx8fHx8fHx8fHx8fHx8fHx8fHx8fHx8fHx8fHx8f/8AAEQgALAEAAwER
AAIRAQMRAf/EAaIAAAAHAQEBAQEAAAAAAAAAAAQFAwIGAQAHCAkKCwEAAgIDAQEBAQEAAAAAAAAA
AQACAwQFBgcICQoLEAACAQMDAgQCBgcDBAIGAnMBAgMRBAAFIRIxQVEGE2EicYEUMpGhBxWxQiPB
UtHhMxZi8CRygvElQzRTkqKyY3PCNUQnk6OzNhdUZHTD0uIIJoMJChgZhJRFRqS0VtNVKBry4/PE
1OT0ZXWFlaW1xdXl9WZ2hpamtsbW5vY3R1dnd4eXp7fH1+f3OEhYaHiImKi4yNjo+Ck5SVlpeYmZ
qbnJ2en5KjpKWmp6ipqqusra6voRAAICAQIDBQUEBQYECAMDbQEAAhEDBCESMUEFURNhIgZxgZEy
obHwFMHR4SNCFVJicvEzJDRDghaSUyWiY7LCB3PSNeJEgxdUkwgJChgZJjZFGidkdFU38qOzwygp
0+PzhJSktMTU5PRldYWVpbXF1eX1RlZmdoaWprbG1ub2R1dnd4eXp7fH1+f3OEhYaHiImKi4yNjo
+DlJWWl5iZmpucnZ6fkqOkpaanqKmqq6ytrq+v/aAAwDAQACEQMRAD8A9U4q8F/Mf/nK3yz5c8zz
eXtJjGofVYLoX2poeUUd2kDm3giA+2fXCLI3Rffeir5s/Ln8/fzG8izBLG/N/pTOXm0q+rLCeRqx
Q15xE/5DAV6g4q+z/wAoPzi8u/mXobXlgPqeqWp46jpLuHkhJ+ywai8427NT264qz7FWB/mr+c/l
P8s4tNfX4by4bVWmFrFYxxyNS3CeozerJCoA9Ve9cVebT/8AObH5bqR6GjazIP2vUjtUp8qXD1xV
Dt/zm35H9WMJoGpmMtSV2NuCq1G6qHbl8qjFWUfmF/zlD5M8k+ZX0C80zULy4jhhneaBYRHS4jEq
gc5Fb7LCu2Kp6n5//l9F5A0fzvqs8+maXrcksNlDLE0s5kgkkjcFYPV2BiJrWnTFVj/85Dfllc+V
9d1/Q9RbWE0CBJ7y0ihmglIlcRx8RcpFUFzQkVpirH/IP/OVvkbzf5jsPL0em6jY6jqL+lbvKsLw
B+JajOknMVpQfB86Yqwbzh/zmXqmkeZ9T0nT/LMElvpt5NaetcXD85BBIYy3FEATkVJpU4q9R88/
85I/l15L1BdL1b65NqfoRXElpZwiQoJk9RFLyNEleNO/fFUyf88fJQ/K7/lZCC6k0MEIbZY0+tiU
zCD0mTnwDBz/AD0pvXFUl/Kv/nJDyr+Yvmaby/YadeWF0lu1zDJc+kVkWMqHX4GYhvjqPYYqweb/
AJzY8vQandWs3li7+rwTPFHPHcRszqjcQxjZE4kjenI/PFXof5ef85H/AJZ+eL6LTLK6m03V5toL
DUUWJpG6cYnRpImY9l5cj4Yqj/zM/PLyL+XV7aWOvtdPeXsZnigtIfUIiDFebFmjXdlI61xVhEv/
ADmb+UyIWW11eUj9hLaAE/8ABTqPxxVPdV/5yY8hWP5eWHnZLe9mtNSuZLO1sPTRLn1Yq+pz+Nol
CgA1DnqPeirAW/5zg8v+sAvla7MH7Tm5jDg+y8CD/wAFir138ufzq8j+fdGvNR0meS3k01PV1Kxu
l4TwJQnmQpdXT4TQoT70O2KsJ/6HG/KH1eHHVOPLj6v1VONK05f3vKn0VxVPvzY/5yG8qflxf2Wn
XtldajeX9r9chFr6YQRMxRCzOwPxFG6KemKpZe/85QeVrX8srTzw2mXRa/u5LGz0osgdpId3Yyjk
qoF3rSvamKon8kP+cgV/NDVdWsP0GdI/R0Mc8b/WfrPqK7FCD+6h4kbHviqz8wP+cpPy38na1Lop
F1rGo2rmO9WwWMxwuuzRtJI6AuDsQtadDQimKqXkr/nK78rvM2pRaZM11od3OwSBtRWNYHYmgX1o
3kVSf8viPfFUy/Nf/nIjyh+W+swaLqNne3+pT263XC1WL00jdnRebyOp5ExnYKdsVUfLH/ORfl7W
vy213z5Lpd3a2Ogz/V57RSk0shb0xGUIKDczCtemKsa8nf8AOXegeZvOOleXYfL91apqs62yXkk8
bFJJKhKxqu4LUB+LFV3/ADlj+bk3lfy5F5U0a5aHXdbXlczRMVkgsgaMQQaq0zDgP8kN7Yq+KMVd
iqZaD5j17y9qA1HQ7+fTb4I8QubZ2jfhIKMtV7H+3FX05/ziD+bOo32pal5N1++mvLm65ahpdzdS
NLI0igC4i5uWY1UCRR7P44q9E/5yN/JbX/zNsdDXQ7qztrvSZbgv9eaVFaO4WOvF4o5jUGIbcd/H
bFXxj+YXkPV/Inmm58tavNbz31qkTySWjO8RE0YkWhkSJujb/DirNPyl/wCcdvMv5laBPrmm6nZW
Nnb3jWMiXPqmTkkccrMoRGWnGYU+Lriqp/zlPata/nFqEJqVS0sVRyKcglqi8h9K4qu82So//ONX
kRVapj1bUlYeBLM1PuauKpX+WX/kvPzO/wC2VZ/9R8WKoX8gf/JyeU/+Y5f+ItirH/zC/wCU+8y/
9tW+/wCol8VZ9/zlNaG2/NiVWBEr6dYGVTTZlgEZAp/qYqp+QfNgn/I78xPJU8gUhLPWbAHf+7vb
aO4UV8QsdKe+Kph/ziH/AOTltv8AmBu/+IjFXlsOmnVPN8emAlTfagLYMoqR60/CoH+yxVMPzB8m
ar5A8733l64uOd1psqPb3kNU5o6iWGVaGqNxYGldjirP/wDnJLXbvXx5A1q9NbzUPLNrPcsNgZXk
cuwA6VapxVZ+Tf8Azjje/mZ5Yuteg12PTEtr2SxMD27TFjHFFLz5CROvrUpTtirIPz2/LKX8uPyj
8teXpdRGpyNrF3dNcLGYVHqwIvBVLP04V698VYh+WH5JDz55C80eYLfUGttS0GrW1oUDRTBYjKVZ
qgqWC0BxVC/849aldWv5lQWUMhSLV7HULC5A6FJLOR1qO4EsaN9GKvNMVel/85C+cbfzR+Y88lo4
lstJtbfS7eVTUN9XUmUj29eSQCnUb4qn3n3Q59J/5xt/L76wCst/f3t9wPZJgfSI/wBaNVb6cVRn
/OMetzaFpv5j6zbtwudP8vy3Fs3Wk0fNo/H9umKvK/InlmTzh530jy+9w0LatdpDNdEc2VWNZHoS
ORC1O5xVmX5k/wDOPvnvyx5uvNK0TRtU1/R04PY6nbWU0qujoGKuYVkUMjEoelaVoK4qt/Ph/MjX
HkkeZYZbfW4/K9rFdxXAKzAxXt4iGQN8XNo1UtXevXFUz8seZ7PSP+cY/NemySAXuu63DaWkXViI
47eeVqfyhI6E9iwxVj3/ADj7pN1qf5yeVobdSTBeLdykCoWO1UzMT4fYp88VR/8Azkb560Pzt+Ya
6zosrSWIsbeACSN4pEdC5kjkRwPiVmINNvDFX2n5J8s+U5/JuhXCaLYqs+n2stDbQ1rJCrGvw9d9
8VTr/CflX/qzWP8A0jQ/804q0NO8qWBMQtrC1LfEY+EMde1aUGKvz3stb1TTfziGraKVhv01x3tE
Qfu6yXRX06Aj4GVuJHgcVfo9ir4W/wCcvoDF+clw5QL69haSBhT4qKyVNP8AUp9GKvav+cKv/JWa
r/23Lj/qDtMVeK/85egj85LgkUBsLQj3HEjFXm9/52vrzyLpXk9reNLLSru4vUuByMrvcACh34gK
B4Yqy/8AKSKOXyF+aKuKqNEhcDcbpdKynb3GKob/AJxxRH/OzyqGUMBcSmhFd1t5SD9BGKsW/ML/
AJT7zL/21b7/AKiXxV6h/wA5hwCP84C4NTNptq5HgQZEp/wmKvFrW9ubVpDA/D1o3hlGxDRyCjKQ
f8674q9U/wCcXtVGl/mvBeMnqRxafqEkiDYlYrZ5aD3Pp0xVh/5f/wCn/mn5b4fB9b1yy413p6l2
lK/KuKs2/wCcsXZvzs1YE1C29mFHgPqyH9ZxVD/nVZxW/k78rmXd5PLqlmPg0pkA+gyHFUt/Lr8+
/Pf5faBPofl76mLS4umvZHuITLJ6jpHGwB5qOPGFe2Kva/8AnMO7ub38u/JV5dII7m5l9aeNa8Vk
ktlZlFd6AnvirwLyl+bfm3yn5R1ryzojQ29trp/027KFrhUMfpskTFuCclJqeJbwIxVl3/OL/kzU
da8/ya2kbfo3y/aXM9zNT4TLNBJDDED/ADMXLfJTirxzFWU/lh5MXzp580jy3JcpZw381J53YKRE
gLyBK9ZGVSEHjir6Q/5zQsrSw8keUrGziWC0tbp4LeFNlSOO3Coq+yqKYq8U/J3VHtvLn5lWaJU3
PlmWQyk9AlzDEV40/aFx1rtTFXf840QvN+eHldEpUS3LmvglnM5/BcVfoNir40/5zZRB+YWhuAOb
aSqlu5C3MxA+jkcVfPBkkMaxliY1JZUqeIZgAxA8TxFflir6/wD+cNPJPlmHy7e+b4rqO98wXLtZ
TQgEGyiUhvToerTUVy3SlAOjVVfNH5q6MNG/MvzPpirwjt9TuvRXwieVni/4RhiqQtrOsMEDX1ww
jUIgMrniq7BRvsB4Yq/Rr8obtrv8q/KE7Elzo9krsx5EsluiEk+5WuKvzu81kN5o1gg1BvrkgjoR
6zYqqeTNYtdF83aNrN3btd2+m3tvdvaoQGl9CRZAgJBHxFaYq/TDSLm9utKs7q/tfqV7PDHLc2Qf
1PRkdQzRc+KcuBPGvEV8MVfGP/OaEAj/ADXsXrX19Gt5CPClxcJT/hMVesf84UyIfyw1aMH411uZ
mXuA1pagH/hTiryH/nMn/wAm5D/2yrb/AJOzYq8w1jyxYWfkLy35iglke71e61K2vImKmOP6kbcx
caAMCy3BJ5E9qYqzP8l7eSfyR+aaRirDQBIf9WOXm3/CqcVY5+SvmPTfLn5p+XNZ1OUQafbXVLmd
gSsaSxtEXNKmi86nFUt1GWDzF+Yt1LZKZYNY1iRrZGBBZLq6JQFRU7hxtir1X/nM6B4/zZtHYgib
R7Z1p4Ce4Tf6UxV5Rrnlo2flPy35gi3t9WS7gmNDtc2lwwYf8iZYiPpxVlH/ADj5/wCTDP8A2ytW
/wCoCbFWK/l9rGm6J568v61qfqfUNM1C2vbj0hyfjbyrL8INKn4cVVfzF85XXnfzxq3maeL0n1KY
NDbj4ikSKsUKV7lY0UE9zir0/wD5yb0ifRtL/LbSbhPTubDy7Db3CUpSWNUWSo8eYOKsl/5xe8tf
lFqXkzU77zpaaXJqFtqZWG41KVF/cmCIqgSRlXiH5dt64qnf/OYuraPrPkXyzf6Le2+o6cuozRfW
rOWOeEOIfsc4yy1FOlcVeFaR+XNtqP5Ma756SST69o2qW9o8II9L6tKqKzEUry9WdO/TFXt//OEH
mCMw+Z/Lr0EitBqEHTkykGGWvstI6fPFXy5pNj+kNVs7Dn6X1ueKD1KcuPquE5UqK0r0riqY69o+
ueS/OF3pkzva6vod2VSeMlWEkLco5oz1owo6nwxV77/zkl5wTzj+TH5f+ZBxEmoSyNcqv2VuI4vT
nUewlRgMVeW/k3ZzXlp+YUMI5SDyjfS0/wAmG6tJG/4VDiqz/nHvzBpHl/8AOHy5qur3C2mnxSXE
U1zIQqIbi1lgQux2VecgqT0G+KvVfzj/AOcqPOWn+etR0ryTqFn+g7BkhjvEhSczSKgMxDyclKiQ
lAVFDSoOKpD/AM5ZXdzqd75G1u64i41Ly/DNMighRIzeq9Kk7VlxV5lp/wCXWqaj+WmpeeLQmS20
i/SyvoAKlYpUUiYeyu6q3+sPA4qzP/nFz8wJvKv5nWenyyldJ8xFdPu4yfhEzH/RZKfzCU8K/wAr
Nir1T/nLb8mL/U5oPPPluxlu7whbbXLS2jaSR1UUiueCAk8FHB/biegJxV8mOjxu0cilHQlXRhQg
jYgg4q+s/wArP+co/wAtPK/5e6F5f1KLUWvtOthDcGGCNo+QYn4WMqkjfwxV8ot9Yvr1ikZkuLmQ
sIo1LEs5rRVFT3xV7r+Qn/OPXna+86aRr3mXRptO8u2Eou3+uARSTSQ/HCggciXiZOJJZaca4q+2
MVfO3/OSn5EedfzA82aVrHlxbVooLEWVyZ5vSZSkzyKehqtJT098VZj/AM45flX5i/LnylqGm69L
bSXl7fNdItq7SIsfpJGOTMsfxEoegxV5Z/zlb+Vfn7zR+YOnar5c0OfUrIaVFbyz24Q0mjuJ3ZWB
IP2JE3/piqQD/nHn80dX/JzRtNj0wW2r2Gr31zJp91LHFI0FzFAiyAluIo0B2JBxVnP/ADjT+SPn
TylqPmYec9Mig03VLJLJY/XhnE6uzeoKQu9F4mh5U67YqwHzz/zhz55stXmfyjJBqujyMWto5plg
uYlJ2ST1OMbcRtyVt/AYqzD8jv8AnFXWdB8zWfmjzpLAH01xPp+lW7+qfrCbxyTSABQIz8SqhNTS
poKFVOP+cjv+cf8Azp+YXm6w17y/cWQht9PSxmgupHicPHNNLyXijqQRNTr2xVLD/wA43+crn8gY
/KN21oPM9jqr6np6CSsYjcCN4WlC7FlLP3FafQqlX5M/84zfmL5c85/pPXvqlrp/1K8tmeKb1pOV
1bvAvFFA6epU1IxVL7L/AJwh80u9L7zNYwJXrBDNMaeNGMP68Veo/lr/AM4oeR/J+qW+s6jdTeYN
VtGWS1adFhto5VIKyLApcllI25OQPCu+KpR/zlD+THnnz7q2h6h5Yt4btbOCW3uYnmSFlLOHVh6h
UEHcbHFXiH/Qp/52/wDVng/6TLb/AKqYq9R0b/nF7znffk1H5U1O9tdK1hddk1hUJNxH6T2iWwjd
4+jVTl8NRTFWa/l1/wA4+6loH5S+afI+s39tc3HmBpnhuLcOYomaBEhduYRiVlj5EUxVIvyE/wCc
cvPX5d+eW1/VdU06Sya0mtJbeyeeR5BIVYA+pFCFAeNW79MVeXeU/wDnFH83YvM9hcX1pa2VlaXs
UktxJcxPWKKUMXVIjIxqq1ANPemKvTf+cjv+cd/M/nbzZa+ZPKi2zTTWy2+qQzSCEl4SfTlBIIaq
EId9uIxVL7X/AJxi89at+Uel+U9X1Kz0/UdM1W5vYFHKeMW08SrwLJx+P1QzbbUPjirLvyQ/5xsf
8utd1DV9S1iPVmv9PbTms0gKRBJpI5JeRdn5f3QUbDYmuKvKfzD/AOcOvN9rrM9x5Kkg1HR53Z4L
OaUQ3EAY19MtJ8DqvQNyqe4xVvyD/wA4bebrrVbe4853Fvp+kRsGuLO3l9a6lANTGGQemgboW5Ej
wxV6L/zkf+RPm7z9qnl+fywLRLXTrWS0ljuJDCIxyDR8QFaq0226Yqnv5Q/kXf8AlX8rvMHlDzDd
W11ceYGuPXa15vDGk1usC0MixsWXjyrxHt44q8b0b/nC/wDMeO8huLnXtMsGhlDxzW7XE0qFGqrq
DFEK1AI+LFX2RirzL82f+VBek3/KxP0V9Y4/7s/46HGn7H1b/S6f6uKvErr/AKEg9dvT+t8Nqel+
luHQdPU+P78Ve4/lJ/yon6on/Kuv0X6vHf0qfpDjTf1fX/0un+vir0nFXYq7FXYq7FXYq7FXYq7F
XYq7FXYq7FXYq7FXYq7FXYq7FXYq7FXYq7FXYq7FXYq7FXYq/wD/2Q==</xmpGImg:image>
               </rdf:li>
            </rdf:Alt>
         </xmp:Thumbnails>
          <xmpTPg:MaxPageSize rdf:parseType="Resource">
            <stDim:w>160.000000</stDim:w>
              <stDim:h>60.000000</stDim:h>
              <stDim:unit>Pixels</stDim:unit>
         </xmpTPg:MaxPageSize>
          <xmpTPg:NPages>1</xmpTPg:NPages>
          <xmpTPg:HasVisibleTransparency>False</xmpTPg:HasVisibleTransparency>
          <xmpTPg:HasVisibleOverprint>False</xmpTPg:HasVisibleOverprint>
          <xmpTPg:PlateNames>
            <rdf:Seq>
               <rdf:li>Cyan</rdf:li>
                <rdf:li>Magenta</rdf:li>
                <rdf:li>Yellow</rdf:li>
                <rdf:li>Black</rdf:li>
            </rdf:Seq>
         </xmpTPg:PlateNames>
          <xmpTPg:SwatchGroups>
            <rdf:Seq>
               <rdf:li rdf:parseType="Resource">
                  <xmpG:groupName>Default Swatch Group</xmpG:groupName>
                   <xmpG:groupType>0</xmpG:groupType>
               </rdf:li>
            </rdf:Seq>
         </xmpTPg:SwatchGroups>
          <dc:format>image/svg+xml</dc:format>
          <xmpMM:DerivedFrom rdf:parseType="Resource">
            <stRef:instanceID>xmp.iid:11fbc518-401e-46f5-b027-e40001d72703</stRef:instanceID>
              <stRef:documentID>xmp.did:11fbc518-401e-46f5-b027-e40001d72703</stRef:documentID>
              <stRef:originalDocumentID>xmp.did:11fbc518-401e-46f5-b027-e40001d72703</stRef:originalDocumentID>
         </xmpMM:DerivedFrom>
          <xmpMM:DocumentID>xmp.did:68b53433-12a5-4f7d-94ec-83e21c85cb96</xmpMM:DocumentID>
          <xmpMM:InstanceID>xmp.iid:68b53433-12a5-4f7d-94ec-83e21c85cb96</xmpMM:InstanceID>
          <xmpMM:OriginalDocumentID>xmp.did:11fbc518-401e-46f5-b027-e40001d72703</xmpMM:OriginalDocumentID>
          <xmpMM:History>
            <rdf:Seq>
               <rdf:li rdf:parseType="Resource">
                  <stEvt:action>saved</stEvt:action>
                   <stEvt:instanceID>xmp.iid:11fbc518-401e-46f5-b027-e40001d72703</stEvt:instanceID>
                   <stEvt:when>2020-05-12T10:50:54+03:00</stEvt:when>
                   <stEvt:softwareAgent>Adobe Illustrator 24.1 (Macintosh)</stEvt:softwareAgent>
                   <stEvt:changed>/</stEvt:changed>
               </rdf:li>
                <rdf:li rdf:parseType="Resource">
                  <stEvt:action>saved</stEvt:action>
                    <stEvt:instanceID>xmp.iid:68b53433-12a5-4f7d-94ec-83e21c85cb96</stEvt:instanceID>
                    <stEvt:when>2020-05-12T11:00:54+03:00</stEvt:when>
                    <stEvt:softwareAgent>Adobe Illustrator 24.1 (Macintosh)</stEvt:softwareAgent>
                    <stEvt:changed>/</stEvt:changed>
               </rdf:li>
            </rdf:Seq>
         </xmpMM:History>
      </rdf:Description>
   </rdf:RDF>
</x:xmpmeta>

        <?xpacket end="w"?>
	</metadata>
    <path d="M72.7115021,31.6485004c0.0985947,1.532999,0.197197,3.0652981,0.2957993,4.5969982  c0.0776978,1.2502022-0.0644989,1.3936005-1.2458038,1.2980003c-2.8024979-0.2288971-2.3759003,0.1991005-2.4649963-2.763298  c-0.1289978-3.9361-0.1895981-7.8721008-0.3470001-11.8061008c-0.0304031-0.8222008,0.2218018-1.1387997,0.9746017-1.2045002  c2.9731979-0.2667999,2.3171005-0.7525005,3.3581009,2.1620998c0.5403976,1.5151005,1.0429001,3.0440998,1.6951981,4.5632  c0.0243988-0.1980991,0.036499-0.3976002,0.0359955-0.5972996c-0.0985947-1.7917995-0.1895981-3.5697002-0.3204956-5.3495007  c-0.0511017-0.6808987,0.1896973-0.9556999,0.8172989-1.0352993c2.7873993-0.3544006,2.8234024-0.3642998,2.8822021,2.5443993  c0.0833969,4.1351013,0.0890961,8.2702007,0.1610947,12.405302c0.0133057,0.8121986-0.2521973,1.1068993-1.0352936,1.1208  c-3.1874008,0.0517998-2.4290009,0.4877968-3.5287018-2.6518021c-0.379303-1.1009979-0.7357025-2.2178993-1.1016998-3.3288002  L72.7115021,31.6485004z"/>
    <path d="M137.0119934,27.6306992c1.3640137-1.5827999,1.7220001-3.2550983,1.553009-5.0667992  c-0.07901-0.8421993,0.2299957-1.1467991,0.9790039-1.1945992c0.6919861-0.0378017,1.3839874-0.1194,2.0699921-0.2250004  c0.6869965-0.1055012,0.977005,0.1891994,1.0579987,0.8920002c0.3130035,2.6697998-0.1889954,5.0688-2.0569916,7.0297985  c-0.1350098,0.1394005-0.2600098,0.2867012-0.3790131,0.4321003c-0.0189972,0.0219002-0.0169983,0.0636997-0.0399933,0.155201  c1.5429993,1.7320995,2.3849945,3.8961983,3.0720062,6.144001c0.3009949,0.9953995,0.1669922,1.2143974-0.8400116,1.351799  c-0.6889954,0.0936012-1.3859863,0.1273994-2.0670013,0.2588005c-0.6809998,0.1313972-0.9799957-0.1651993-1.1059875-0.844101  c-0.2860107-1.5569-1.0240021-2.8848991-2.102005-4.3442001c-0.0800018,1.4733009-0.1900024,2.6996994-0.1900024,3.9261017  c0,0.8520966-0.3170013,1.1506996-1.102005,1.2322998c-2.7259979,0.2787971-2.5609894,0.7127991-2.6149902-2.3353004  c-0.072998-4.1012001-0.1710052-8.2018013-0.2949982-12.3018017c-0.0270081-0.8500996,0.2330017-1.2164001,1.0429993-1.2501984  c0.6900024-0.0299015,1.3779907-0.1513004,2.0659943-0.2469006c0.6889954-0.0956001,0.9880066,0.2169991,0.9710083,0.9417  c-0.0299988,1.5926991-0.0410004,3.1854-0.0570068,4.7621994C136.9720001,27.1051006,136.9900055,27.2563992,137.0119934,27.6306992  z"/>
    <path d="M53.0597,28.7178001c0.7584,0.1075001,1.0922012-0.0855999,1.0750999-0.8740005  c-0.0321999-1.6205997,0.024601-3.2432003,0-4.8638c0-0.7724991,0.2825012-1.0711002,1.0219994-1.0272999  c3.4131012,0.1991005,2.7817001-0.2547989,2.8139,3.0282001c0.038002,3.8045998,0,7.6132011,0,11.4197998  c0,1.4513016-0.0531006,1.5010986-1.467598,1.3656998l-0.0948029-0.0098991  c-2.7152977-0.1991005-2.2241974,0.2747002-2.4347-2.7256012c-0.0454979-0.6590004-0.0719986-1.3218994-0.0587997-1.9908981  c0.0133018-0.6688995-0.3204002-0.7584991-0.947998-0.6152c0.075798,1.4533997,0.157299,2.896801,0.2217979,4.3421974  c0.0550003,1.2144012,0,1.2702026-1.1907997,1.314003c-0.4417992,0.0158997-0.8835983,0.0278969-1.3272972,0.0317993  c-1.1567001,0-1.2458-0.0856018-1.2799034-1.2582016c-0.1251984-4.6891975-0.2591972-9.3797989-0.4019966-14.0716991  c-0.0379028-1.2105007,0.0909996-1.3777008,1.2779999-1.3717003c2.7759972,0.0139008,2.4650002-0.5335999,2.5863991,2.4925995  C52.9155998,25.4806004,52.9875984,27.0613995,53.0597,28.7178001z"/>
    <path d="M111.5719986,27.5333004c0.8600006-1.6146011,1.5159988-3.1855011,1.6090012-4.9314995  c0.0439987-0.9178009,0.3909988-1.2523003,1.2099991-1.2104015c0.2529984,0.0036011,0.5070038-0.0077,0.7590027-0.0338993  c1.651001-0.0974998,1.6660004-0.0974998,1.6189957,1.6026993c-0.0759964,2.6738014-0.9789963,5.0290012-2.5999985,7.1672001  c1.5699997,1.7241001,2.2190018,3.8862991,2.6809998,6.132c0.223999,1.0830002,0.0540009,1.2961006-0.9909973,1.3717003  c-0.125,0-0.2519989,0-0.3800049,0.012001c-1.9169998,0.0358009-1.8649979,0.0178986-2.496994-1.8436012  c-0.3510056-1.039299-0.9000015-2.0047989-1.3610001-3.0042992l-0.4080048,0.0756989  c0,1.1527023-0.0449982,2.3094025,0.0149994,3.4582024c0.0440063,0.8440971-0.2419968,1.244297-1.0459976,1.2661972  c-0.3129959,0-0.6259995,0.0776024-0.939003,0.1155014c-1.5569992,0.1990013-1.5419998,0.1990013-1.5719986-1.5071983  c-0.0779953-4.3998013-0.1399994-8.7997017-0.2789993-13.1976013c-0.0319977-1.0333004,0.3110046-1.3718014,1.2290039-1.3240013  c0.6619949,0.0325012,1.3239975,0.0272007,1.9850006-0.0158997c0.7589951-0.0478001,0.9919968,0.3264999,0.9769974,1.0750999  C111.5510025,24.2782001,111.5719986,25.8230991,111.5719986,27.5333004z"/>
    <path d="M59.028801,27.9354992c0-1.8853989,0.018898-3.7826996,0-5.6581993  c-0.0114021-0.796299,0.3127975-1.0730991,1.0408974-0.9615993c0.6561012,0.0995998,1.3160019,0.1772003,1.9758034,0.2189999  c0.7243996,0.0478001,0.9480972,0.4140987,0.9291992,1.1646996c-0.0645027,3.1854-0.0816002,6.3530006-0.1043015,9.5304012  c-0.0276985,0.4623985,0.0093994,0.9265976,0.1100006,1.377697c0.0909996,0.3305016,0.3792,0.5973015,0.5934982,0.8920021  c0.1990013-0.2986984,0.547905-0.5853996,0.5688019-0.8959007c0.0967026-1.3180008,0.1232986-2.6439991,0.1250992-3.9659004  c0-2.4826984,0-4.9632988-0.0606003-7.4439983c-0.0208969-0.9019012,0.3089981-1.2144012,1.1471024-1.2742004  c2.7059021-0.1991005,2.5333023-0.5195999,2.4650955,2.4109993c-0.0758972,2.8450012-0.0966949,5.6900005-0.1896973,8.5349998  c-0.0124969,0.9590015-0.1212006,1.9139004-0.3242035,2.8490009c-0.5195999,2.1899986-2.2639999,3.2430992-4.6910973,2.9544983  c-0.9342003-0.1153984-1.7969971-0.5825005-2.4283981-1.3145981c-0.6313019-0.7321014-0.9886017-1.6796989-1.0056-2.667202  c-0.037899-1.2223969-0.0474014-2.4467983-0.0606003-3.6711979c-0.0095024-0.6949005,0-1.3937016,0-2.0845013L59.028801,27.9354992z  "/>
    <path d="M101.2109985,34.5410995v0.3981018c0.026001,2.8131981,0.0340042,2.3432999-2.322998,2.1899986  c-0.5896988-0.0377998-0.8627014-0.2946014-0.8703003-0.9057999c-0.0512009-4.6268997-0.1232986-9.2537003-0.1327972-13.8806  c0-0.3125,0.4474945-0.8700008,0.7243958-0.8978996c1.4656982-0.143301,2.9577026-0.3105011,4.4157028-0.1732006  c1.8799973,0.1791992,3.0909958,1.4692993,3.4459991,3.4183998c0.4000015,2.2059002,0.3959961,4.3500996-1.2330017,6.141901  c-0.1589966,0.1731987-0.1500015,0.6131992-0.0830002,0.8938999c0.3349991,1.4433994,0.7220001,2.8748989,1.0790024,4.3142986  c0.2369995,0.9556007,0.0790024,1.1725998-0.8670044,1.2523003c-2.0039978,0.1651993-2.0059967,0.167202-2.4909973-1.9053001  c-0.2170029-0.9297981-0.3970032-1.8733978-0.6579971-2.7873001c-0.0670013-0.2308998-0.3800049-0.3821983-0.5880051-0.5713997  c-0.1399994,0.2429008-0.3789978,0.4738998-0.3999939,0.7286987  C101.1930008,33.3510017,101.1869965,33.9464989,101.2109985,34.5410995z M101.2770004,28.6061993  c1.4509964-0.049799,2.2429962-0.8102989,2.1640015-2.040699c-0.0970001-1.4852009-0.7850037-2.1243-2.1580048-1.9311008  L101.2770004,28.6061993z"/>
    <path d="M79.9149017,29.2773991c0-2.3472996,0-4.6945992,0-7.0417995c0-0.7625999,0.2635956-1.2164993,1.063797-1.1110001  c1.3083038,0.1732006,2.6546021,0.1991005,3.9136047,0.5674c1.9682999,0.5694008,3.2670975,2.0327015,3.3675995,4.1928997  c0.0874939,2.3376007,0.0165939,4.6789017-0.2123032,7.0059013c-0.178299,1.9908981-1.4468002,3.2532005-3.2235031,3.7270012  c-1.418396,0.3782997-2.9143982,0.4498978-4.3782959,0.6171989c-0.6731033,0.0775986-0.947998-0.2826996-0.9328995-1.0153999  c0.0341949-2.3134003,0.013298-4.6288013,0.013298-6.9422016H79.9149017z M83.3753967,24.5748997  c-0.1269989,3.1476002-0.2483978,6.1378994-0.3696976,9.1281986l0.3451004,0.0657005  c1.9682007-1.511097,1.446701-3.8742981,1.5737991-5.9726982C84.9965973,26.5976009,84.8809967,25.2915993,83.3753967,24.5748997z"/>
    <path d="M122.8270035,29.2493992c0.060997-1.0810986,0.1079941-2.3691998,0.2129974-3.6532993  c0.2040024-2.4906006,1.7060013-4.1212006,3.8659973-4.2206993c2.9899979-0.1373997,4.9300003,1.2123985,5.3530045,3.7031002  c0.1679993,1.0073986-0.0310059,1.2700996-0.9860077,1.2880993c-0.4099884,0-0.8190002-0.0139999-1.2289886,0  c-0.8209991,0.0338001-1.5299988,0-1.4680023-1.2124996c0.0099945-0.217001-0.4909973-0.6431007-0.7580032-0.651001  c-0.1880035,0.0153008-0.3700027,0.0703011-0.5370026,0.1616001c-0.1669998,0.0914001-0.3149948,0.2172012-0.4339981,0.3700008  c-0.1900024,0.2488003-0.1900024,0.6907997-0.2030029,1.0492001c-0.0999985,2.1460991-0.2070007,4.2922993-0.2539978,6.4384995  c-0.0220032,0.5607986,0.0849991,1.1188011,0.3130035,1.6265984c0.1629944,0.3305016,0.6809998,0.7028008,0.9860001,0.6570015  s0.7009964-0.5514984,0.7770004-0.9197998c0.3280029-1.592701,0.2899933-1.6086998,1.8529968-1.7122002  c1.3609924-0.0876007,1.5,0.0537987,1.4960022,1.5250015c0,2.0625992-0.9880066,3.3546982-2.9029999,3.816597  c-3.5350037,0.8501015-5.8610001-0.9336967-6.0680008-4.6964989  C122.7720032,31.7042007,122.8270035,30.5792999,122.8270035,29.2493992z"/>
    <path d="M93.0570984,25.0007v3.4085007c0.6788025-0.0339012,1.2989044-0.0618,1.9169998-0.0995998  c0.6977997-0.0418015,0.9785004,0.2866993,0.8988037,1.0193996c-0.2768021,2.534399,0,2.1679993-2.1142044,2.2954998  c-0.225296,0.0296001-0.4487991,0.0727997-0.6692963,0.1294003c0.0417023,0.9714985,0.0833969,1.9410992,0.1326981,3.0300999  c0.9822006-0.0835991,1.8582001-0.1273994,2.7248001-0.2409019c0.8001022-0.1054993,1.1585007,0.1374016,1.1377029,1.0592003  c-0.0361023,2.0944023,0,2.0944023-2.0175018,2.0944023c-1.5169983,0-3.0338974-0.0158997-4.5394974,0  c-0.7205048,0.011898-1.0068054-0.2867012-1.0125046-1.0572014c-0.0391998-4.5950012-0.1024017-9.1886005-0.1895981-13.7810001  c-0.013298-0.796299,0.2445984-1.1208,1.0334015-1.1267986c1.8259964-0.0140018,3.6520004-0.1035004,5.4779968-0.1672001  c0.5688019-0.0219002,0.8892975,0.2109985,0.9481049,0.8340988c0.3146973,3.137701,0.3470001,2.5503998-2.0706024,2.5881996  C94.1948013,25.0086994,93.6677017,25.0007,93.0570984,25.0007z"/>
    <path d="M41.0113983,25.3871002c-0.747097,0-1.3746986-0.0198994-2.0004997,0  c-0.5839996,0.0219002-0.8759995-0.2389011-0.9176979-0.8540993c-0.2427025-3.4800014-0.4342003-2.8450012,2.3778-2.9863014  c2.1065979-0.1054993,4.2170982-0.1233997,6.3255997-0.2209988c0.7584-0.0338001,1.1376991,0.2189999,1.1091995,1.051199  c-0.037899,0.8999004,0.2522011,2.074501-0.1895981,2.6219997c-0.3792,0.4818001-1.5681,0.264801-2.4650002,0.3663006  c0,1.4095993-0.0208015,2.8470001,0,4.2845001c0.0416985,2.2437,0.0985985,4.489399,0.1895981,6.7332001  c0.0303993,0.7565002-0.2141991,1.1068993-0.947998,1.1109009c-0.5988998,0.0023003-1.1970024,0.0475006-1.7900009,0.1353989  c-0.8324013,0.1254005-1.1245003-0.2429008-1.1567001-1.0890007c-0.1289024-3.3348007-0.297699-6.6675987-0.4532013-10.0002995  C41.0778008,26.1895008,41.0435982,25.8330994,41.0113983,25.3871002z"/>
    <path d="M121.9089966,29.0084c0,2.2476997-0.0449982,4.4953995,0.0210037,6.7411995  c0.0289993,0.9317017-0.3010025,1.2542-1.1259995,1.2621994c-0.6920013,0-1.3840027,0.0796013-2.0859985,0.1273994  c-0.5690002,0.0418015-0.8800049-0.1830978-0.878006-0.8440971c0.0110016-4.6946011,0-9.3871002,0.0400009-14.0797005  c0-0.3085003,0.4280014-0.7723999,0.7450027-0.8799c0.6200027-0.2091007,1.3069992-0.1991005,1.9550018-0.3166008  c0.8310013-0.1592999,1.1619949,0.1812,1.1549988,1.0531998c-0.0210037,2.3113995,0,4.6249008,0,6.9363003H121.9089966z"/>
    <path class="st0" d="M32.1795006,30.8731003l-3.8614998,0.1007004l-0.1393013,4.1941986l-0.2082996,2.4831009l-3.364399-0.0335999  v-2.3820992l-0.278101-4.1612015l-4.035099,0.1676998l-0.139101-4.0266991l5.9431-0.0335007l6.1522999-0.1676006  l0.1041985,0.5370007L32.1795006,30.8731003z M35.1267014,33.3688011l0.6665993-4.4957008l-2.7890015-5.641901l-1.8946991,0.6267014  l-2.4727993-2.5596008L24.2686005,19l-0.9563007,3.4090004l-0.674799-1.7898998l-3.3553009,3.1644993l-1.8770008,3.1665993  L17.3223,30.2311993L16,29.6236992l0.9013996,5.2565994l2.0440006,3.3852005l4.8228989,1.5958023L27.7185993,40l6.8117008-2.4033012  l1.9599991-4.678997L35.1267014,33.3688011z"/>
</svg>