<svg width="147" height="40" viewBox="0 0 147 40" fill="none" xmlns="http://www.w3.org/2000/svg">
<path d="M59.4523 8C59.6505 8.04248 59.8629 8.08496 60.0612 8.1416C60.9674 8.39647 61.6046 8.97703 62.0719 9.76998C62.5392 10.5488 62.7799 11.4125 62.9356 12.2904C63.1905 13.7064 63.233 15.1366 63.1763 16.5667C63.1339 17.7986 62.9923 19.0022 62.6241 20.1775C62.3834 20.9421 62.0436 21.6501 61.463 22.2306C60.7692 22.9386 59.9196 23.2218 58.9567 23.2218C57.3991 23.2077 56.3796 22.4006 55.7283 21.0554C55.3318 20.2341 55.1194 19.3562 54.992 18.45C54.7796 17.034 54.7654 15.618 54.8504 14.1879C54.9212 12.9559 55.0911 11.7382 55.5442 10.5771C55.7283 10.0957 55.969 9.6567 56.2947 9.24607C56.8469 8.55223 57.569 8.1416 58.447 8.02832C58.4753 8.02832 58.5036 8.04248 58.5178 8C58.8434 8 59.1408 8 59.4523 8ZM56.4363 15.349C56.4363 16.9773 56.4929 17.8694 56.6911 18.9597C56.8044 19.6394 57.0026 20.3049 57.3566 20.9138C58.1071 22.174 59.8913 22.1599 60.6417 20.9846C60.9391 20.5173 61.1232 20.0076 61.2506 19.4695C61.5196 18.3225 61.5904 17.1473 61.6046 15.972C61.6188 14.9383 61.5904 13.9188 61.463 12.8993C61.378 12.2055 61.2506 11.5258 60.9816 10.8744C60.7833 10.393 60.5285 9.95406 60.0895 9.6567C59.1833 9.04783 57.9655 9.33103 57.3708 10.2939C57.031 10.8461 56.8469 11.455 56.7336 12.078C56.4787 13.2533 56.4363 14.4144 56.4363 15.349Z" fill="white"/>
<path d="M49.2148 8C49.3847 8.04248 49.5546 8.0708 49.7245 8.11328C50.8715 8.39647 51.6078 9.13279 52.0326 10.1948C52.2591 10.747 52.3441 11.3276 52.3866 11.9223C52.3866 11.9931 52.3724 12.0214 52.3016 12.0214C51.8626 12.0214 51.4378 12.0214 50.9989 12.0214C50.8998 12.0214 50.8998 11.9506 50.8998 11.894C50.8573 11.4408 50.7582 10.9877 50.5741 10.5629C50.0077 9.31687 48.351 8.93455 47.289 9.7983C46.7934 10.2089 46.5952 10.7612 46.6235 11.3842C46.6518 12.3188 47.1757 12.9984 47.8554 13.579C48.4784 14.1171 49.1864 14.5418 49.8519 15.0091C50.475 15.4481 51.0839 15.9295 51.5794 16.5384C52.3016 17.4163 52.599 18.4358 52.5848 19.5686C52.5706 20.1067 52.4998 20.6306 52.3016 21.1262C51.9618 21.9758 51.3812 22.5988 50.5175 22.9245C49.5971 23.2785 48.6484 23.3351 47.6855 23.0802C46.4961 22.7687 45.7597 21.9899 45.3208 20.8855C45.1084 20.3474 45.0234 19.781 44.9951 19.2004C44.9951 19.073 45.0234 19.0305 45.1509 19.0305C45.519 19.0447 45.9013 19.0447 46.2695 19.0305C46.4253 19.0305 46.4819 19.073 46.4961 19.2288C46.5102 19.6819 46.5952 20.1067 46.7793 20.5315C47.1474 21.3669 47.7988 21.7917 48.705 21.8625C49.1581 21.8908 49.6112 21.8483 50.0219 21.6218C50.6449 21.2819 50.9423 20.7297 51.0697 20.05C51.2821 18.9031 50.8715 17.9827 50.0502 17.2181C49.3705 16.5809 48.5776 16.0853 47.8271 15.533C47.2182 15.0941 46.6093 14.6268 46.1279 14.0321C45.1226 12.786 44.8818 11.3984 45.4907 9.91158C45.9297 8.82127 46.8359 8.26904 47.9687 8.05664C48.0678 8.04248 48.1669 8.04248 48.2519 8C48.5634 8 48.8891 8 49.2148 8Z" fill="white"/>
<path d="M109.762 9.58591C108.87 9.58591 107.964 9.58591 107.072 9.58591C106.718 9.58591 106.718 9.58591 106.718 9.92574C106.718 14.2445 106.718 18.5491 106.718 22.8678C106.718 22.9953 106.704 23.0378 106.548 23.0236C106.109 23.0094 105.67 23.0236 105.231 23.0236C105.118 23.0236 105.103 22.9953 105.103 22.8962C105.103 18.5349 105.103 14.1737 105.103 9.82662C105.103 9.7983 105.103 9.76998 105.103 9.74167C105.118 9.62839 105.075 9.58591 104.948 9.58591C104.211 9.58591 103.475 9.58591 102.725 9.58591C102.541 9.58591 102.371 9.58591 102.187 9.58591C102.073 9.58591 102.045 9.54343 102.045 9.44431C102.045 9.07615 102.045 8.708 102.045 8.33984C102.045 8.24072 102.087 8.19824 102.172 8.2124C102.215 8.2124 102.257 8.2124 102.3 8.2124C104.707 8.2124 107.114 8.2124 109.535 8.2124C109.606 8.2124 109.663 8.19824 109.734 8.19824C109.762 8.65136 109.762 9.11863 109.762 9.58591Z" fill="#FAAF1A"/>
<path d="M40.9736 8C41.0302 8.11328 41.1576 8.08496 41.2568 8.11328C42.0639 8.354 42.6586 8.84959 42.9276 9.6567C43.2533 10.6479 43.0975 11.5683 42.3754 12.3329C42.0497 12.6727 41.6391 12.8993 41.1718 12.9984C40.8744 13.0692 40.5771 13.0975 40.2656 13.0551C39.2885 12.9276 38.5947 12.432 38.1841 11.54C38.0991 11.3559 38.0991 11.1576 38 10.9736C38 10.6337 38 10.3081 38 9.96822C38.0566 9.95406 38.0566 9.91158 38.0708 9.85494C38.1841 9.47262 38.354 9.11863 38.623 8.82127C38.9629 8.48144 39.3593 8.22656 39.8408 8.09912C39.9257 8.0708 40.0673 8.11328 40.124 8C40.4072 8 40.6904 8 40.9736 8ZM41.8232 10.5346C41.8515 9.76998 41.2568 9.24606 40.5346 9.24606C39.7983 9.24606 39.2602 9.74166 39.2319 10.478C39.2036 11.3559 39.8408 11.8232 40.5629 11.8232C41.2284 11.8232 41.8656 11.3134 41.8232 10.5346Z" fill="#FAAF1A"/>
<path d="M54.7652 32.2133C54.6094 32.1425 54.4254 32.1284 54.2696 32.0576C54.043 31.9584 53.8448 31.831 53.6891 31.6328C53.5758 31.477 53.5899 31.3496 53.7032 31.2363C53.7882 31.1513 53.859 31.1372 53.9439 31.2646C54.3121 31.8027 55.0626 32.0009 55.6573 31.746C55.9263 31.6186 56.0679 31.4204 56.0821 31.123C56.0962 30.8398 55.9405 30.6557 55.6856 30.5283C55.4449 30.4009 55.1758 30.3442 54.9068 30.2876C54.751 30.2451 54.5811 30.2026 54.4254 30.146C54.0147 29.9761 53.7457 29.707 53.7174 29.2397C53.689 28.7583 53.9156 28.4043 54.3404 28.2061C54.9493 27.9229 55.544 27.9795 56.1245 28.3335C56.2378 28.4043 56.3369 28.5034 56.3936 28.6167C56.4502 28.7442 56.4219 28.8574 56.3228 28.9424C56.2378 29.0132 56.1812 29.0273 56.1104 28.9141C55.7705 28.4468 55.0767 28.2769 54.5528 28.5318C54.213 28.7017 54.0714 29.0273 54.1705 29.3672C54.2271 29.5513 54.3687 29.6504 54.5386 29.7353C54.7794 29.8345 55.0342 29.8911 55.275 29.9477C55.4873 30.0044 55.6997 30.061 55.8838 30.1601C56.2803 30.3584 56.5069 30.6699 56.4927 31.123C56.4927 31.5903 56.2661 31.9018 55.8555 32.1C55.6997 32.1708 55.544 32.1992 55.3882 32.2416C55.19 32.2133 54.9776 32.2133 54.7652 32.2133Z" fill="white"/>
<path d="M88.6073 15.165C88.8197 15.2641 89.0321 15.3208 89.2303 15.4057C89.9525 15.7314 90.4764 16.2553 90.8021 16.9916C91.1986 17.8837 91.241 18.8183 91.1136 19.767C91.0286 20.4042 90.8304 20.9989 90.4481 21.537C90.0516 22.075 89.5135 22.429 88.9047 22.6556C88.0834 22.9671 87.2196 23.0379 86.3417 23.0237C85.4072 23.0237 84.4585 23.0237 83.5239 23.0237C83.4248 23.0237 83.3965 22.9954 83.3965 22.9105C83.3965 22.7547 83.3965 22.5989 83.3965 22.4432C83.3965 17.7704 83.3965 13.0835 83.3965 8.41078C83.3965 8.21254 83.3965 8.21254 83.5947 8.21254C84.8974 8.21254 86.186 8.18422 87.4887 8.21254C88.6073 8.24086 89.556 8.62317 90.2215 9.58604C90.5614 10.0816 90.7313 10.648 90.8162 11.2427C90.8729 11.6817 90.8729 12.1348 90.8021 12.5738C90.7171 13.0977 90.5472 13.5933 90.2357 14.0322C89.8392 14.5845 89.3153 14.9385 88.6781 15.1367C88.6498 15.1225 88.6356 15.1367 88.6073 15.165ZM85.0249 18.7899C85.0249 19.6962 85.0249 20.5882 85.0249 21.4945C85.0249 21.6219 85.0673 21.6644 85.1948 21.6644C85.6621 21.6644 86.1293 21.6644 86.5966 21.6644C87.0922 21.6502 87.5736 21.6078 88.0551 21.4378C89.0038 21.1122 89.4003 20.3758 89.5277 19.5404C89.5985 19.1015 89.5843 18.6483 89.5277 18.2094C89.4852 17.8696 89.4003 17.5439 89.2587 17.2465C88.848 16.3969 88.1117 16.0571 87.2196 15.958C86.54 15.8872 85.8603 15.9438 85.1806 15.9155C85.0532 15.9155 85.0249 15.958 85.0249 16.0854C85.0249 16.9916 85.0249 17.8837 85.0249 18.7899ZM85.0249 12.064C85.0249 12.8428 85.0249 13.6358 85.0249 14.4146C85.0249 14.5278 85.039 14.5703 85.1665 14.5561C85.4638 14.542 85.7753 14.5561 86.0727 14.5561C86.6957 14.542 87.3188 14.4854 87.9135 14.2588C88.5223 14.0181 88.933 13.5791 89.1029 12.9561C89.3011 12.2481 89.3011 11.5401 89.1029 10.8321C88.9896 10.4073 88.7206 10.0816 88.3241 9.8834C87.8568 9.64268 87.3612 9.58604 86.8515 9.58604C86.2851 9.58604 85.7329 9.58604 85.1665 9.58604C85.039 9.58604 85.0107 9.62852 85.0107 9.7418C85.0249 10.5064 85.0249 11.2852 85.0249 12.064Z" fill="#FAAF1A"/>
<path d="M93.6621 15.6038C93.6621 13.1967 93.6621 10.7895 93.6621 8.39648C93.6621 8.19824 93.6621 8.19824 93.8603 8.19824C95.9985 8.19824 98.1366 8.19824 100.275 8.19824C100.416 8.19824 100.473 8.24072 100.473 8.38232C100.459 8.708 100.473 9.03367 100.473 9.37351C100.473 9.58591 100.473 9.58591 100.275 9.58591C98.8588 9.58591 97.4428 9.58591 96.0268 9.58591C95.8286 9.58591 95.6445 9.60007 95.4462 9.58591C95.333 9.58591 95.3046 9.62839 95.3046 9.72751C95.3046 10.8886 95.3046 12.0497 95.3046 13.225C95.3046 13.6356 95.3188 14.0321 95.3046 14.4427C95.3046 14.5843 95.3471 14.6268 95.4887 14.6268C96.6498 14.6268 97.7968 14.6268 98.9579 14.6268C99.0853 14.6268 99.1278 14.6551 99.1278 14.7967C99.1136 15.1366 99.1136 15.4764 99.1278 15.8162C99.1278 15.9437 99.0995 16.0003 98.9579 16.0003C97.7968 16.0003 96.6498 16.0003 95.4887 15.9862C95.3471 15.9862 95.3046 16.0145 95.3046 16.1702C95.3046 17.9402 95.3046 19.7102 95.3046 21.4802C95.3046 21.6926 95.3046 21.6926 95.517 21.6926C97.1879 21.6926 98.8729 21.6926 100.544 21.6926C100.685 21.6926 100.728 21.7351 100.714 21.8767C100.7 22.2165 100.7 22.5422 100.714 22.882C100.714 23.0236 100.671 23.0661 100.544 23.0661C98.5897 23.0661 96.6357 23.0661 94.6816 23.0661C94.3984 23.0661 94.1152 23.0661 93.832 23.0661C93.7046 23.0661 93.6763 23.0236 93.6763 22.8962C93.6621 20.4465 93.6621 18.0252 93.6621 15.6038Z" fill="#FAAF1A"/>
<path d="M65.6968 15.6038C65.6968 13.1967 65.6968 10.7895 65.6968 8.39648C65.6968 8.25488 65.7251 8.19824 65.8809 8.19824C67.8916 8.19824 69.8881 8.19824 71.8988 8.19824C72.0545 8.19824 72.0829 8.24072 72.0829 8.38232C72.0687 8.72216 72.0687 9.04783 72.0829 9.38767C72.0829 9.52927 72.0545 9.57175 71.9129 9.57175C70.4403 9.57175 68.9819 9.57175 67.5092 9.55759C67.3535 9.55759 67.311 9.58591 67.311 9.74167C67.311 11.2993 67.311 12.871 67.311 14.4286C67.311 14.556 67.3393 14.5843 67.4668 14.5843C68.5571 14.5843 69.6332 14.5843 70.7235 14.5843C70.851 14.5843 70.8934 14.6127 70.8793 14.7401C70.8651 15.0941 70.8793 15.4622 70.8793 15.8162C70.8793 15.9154 70.851 15.9437 70.7518 15.9437C69.6615 15.9437 68.5712 15.9437 67.4809 15.9437C67.3393 15.9437 67.311 15.9862 67.311 16.1136C67.311 18.3509 67.311 20.5881 67.311 22.8254C67.311 22.967 67.2827 23.0094 67.1269 23.0094C66.7021 22.9953 66.2915 22.9953 65.8667 23.0094C65.7251 23.0094 65.6968 22.9811 65.6968 22.8395C65.6968 20.4465 65.6968 18.0252 65.6968 15.6038Z" fill="white"/>
<path d="M77.0385 16.2835C77.0385 14.1029 77.0385 11.9223 77.0385 9.74167C77.0385 9.58591 76.996 9.55759 76.8544 9.55759C75.9482 9.55759 75.0561 9.55759 74.1499 9.55759C74.0225 9.55759 73.9941 9.51511 73.9941 9.40183C74.0083 9.06199 74.0083 8.708 73.9941 8.36816C73.9941 8.24072 74.0225 8.19824 74.1641 8.19824C75.6367 8.19824 77.1235 8.19824 78.5961 8.19824C79.5731 8.19824 80.5502 8.19824 81.5272 8.19824C81.6688 8.19824 81.6971 8.24072 81.6971 8.36816C81.6829 8.72216 81.6829 9.06199 81.6971 9.41599C81.6971 9.54343 81.6546 9.57175 81.5413 9.55759C80.6351 9.55759 79.743 9.55759 78.8368 9.55759C78.6811 9.55759 78.6527 9.60007 78.6527 9.75583C78.6527 14.0746 78.6527 18.4075 78.6527 22.7263C78.6527 22.797 78.6527 22.8537 78.6527 22.9245C78.6527 22.9953 78.6386 23.0236 78.5678 23.0236C78.0863 23.0236 77.6191 23.0236 77.1376 23.0236C77.0668 23.0236 77.0385 22.9953 77.0385 22.9245C77.0385 22.8537 77.0385 22.7687 77.0385 22.6979C77.0385 20.5598 77.0385 18.4217 77.0385 16.2835Z" fill="white"/>
<path d="M41.2851 18.6339C41.2851 20.0499 41.2851 21.48 41.2851 22.896C41.2851 23.0235 41.2568 23.066 41.1152 23.066C40.7046 23.0518 40.3081 23.0518 39.8975 23.066C39.7417 23.066 39.7134 23.0235 39.7134 22.8819C39.7134 21.1119 39.7134 19.3419 39.7134 17.5861C39.7134 16.5241 39.7134 15.4763 39.7134 14.4143C39.7134 14.2868 39.7275 14.216 39.8833 14.2585C40.3223 14.3576 40.7612 14.3576 41.2002 14.2302C41.2568 14.216 41.271 14.2302 41.271 14.2868C41.271 14.3293 41.271 14.3576 41.271 14.4001C41.2851 15.802 41.2851 17.2179 41.2851 18.6339Z" fill="#FAAF1A"/>
<path d="M61.8593 30.7264C62.1284 30.1317 62.3832 29.5795 62.6381 29.0272C62.7514 28.7865 62.8505 28.5458 62.9638 28.2909C63.0629 28.0644 63.332 27.9794 63.5444 28.0927C63.6576 28.1493 63.686 28.2484 63.686 28.3617C63.686 29.1405 63.686 29.9335 63.686 30.7123C63.686 31.1229 63.686 31.5194 63.686 31.93C63.686 32.0999 63.6435 32.1566 63.4877 32.1566C63.332 32.1566 63.2753 32.0999 63.2753 31.93C63.2753 30.8963 63.2753 29.8485 63.2753 28.8148C63.2753 28.7582 63.2753 28.7016 63.2753 28.6449C63.2045 28.6874 63.1904 28.744 63.1762 28.7865C62.8647 29.4803 62.539 30.16 62.2275 30.8539C62.1142 31.0946 61.9726 31.1654 61.7461 31.1229C61.5903 31.0946 61.5337 30.9813 61.477 30.868C61.1797 30.2167 60.8823 29.5795 60.5849 28.9281C60.5425 28.8432 60.5 28.7582 60.4575 28.6449C60.415 28.7299 60.4292 28.7865 60.4292 28.8573C60.4292 29.8768 60.4292 30.8963 60.4292 31.93C60.4292 32.0574 60.4292 32.1707 60.2593 32.1849C60.0752 32.199 60.0044 32.1424 60.0044 31.9442C60.0044 31.0238 60.0044 30.1175 60.0044 29.1972C60.0044 28.9423 60.0044 28.6874 60.0044 28.4184C60.0044 28.206 60.061 28.121 60.2451 28.0785C60.4717 28.0219 60.6557 28.0927 60.7265 28.2484C60.9106 28.6591 61.0947 29.0697 61.2788 29.4804C61.477 29.8768 61.6611 30.2875 61.8593 30.7264Z" fill="white"/>
<path d="M89.9527 32.1708C89.8111 32.1708 89.7403 32.0858 89.6836 31.9584C89.5562 31.6327 89.4288 31.2929 89.3155 30.9672C89.273 30.8681 89.2305 30.8256 89.1173 30.8256C88.6358 30.8398 88.1402 30.8398 87.6588 30.8256C87.5597 30.8256 87.503 30.8539 87.4747 30.9531C87.3473 31.2929 87.2198 31.6327 87.0924 31.9726C87.0216 32.1708 86.88 32.2133 86.7101 32.1425C86.611 32.1 86.5968 32.0575 86.6393 31.9584C86.9508 31.1796 87.2482 30.3867 87.5597 29.5937C87.7296 29.1548 87.8995 28.73 88.0553 28.291C88.1402 28.0928 88.1827 28.0503 88.4093 28.0503C88.65 28.0503 88.6925 28.0786 88.7774 28.291C89.2447 29.4946 89.712 30.6982 90.1651 31.8876C90.2217 32.0858 90.1509 32.1708 89.9527 32.1708ZM88.3951 28.5459C88.1544 29.1689 87.9278 29.7636 87.7013 30.3442C87.6588 30.4433 87.7154 30.4291 87.7721 30.4291C88.1827 30.4291 88.5933 30.4291 89.004 30.4291C89.1173 30.4291 89.1031 30.3867 89.0748 30.3159C88.919 29.9336 88.7774 29.5512 88.6358 29.1548C88.5509 28.9707 88.4801 28.7724 88.3951 28.5459Z" fill="white"/>
<path d="M65.2861 30.1464C65.2861 29.5658 65.2861 28.9711 65.2861 28.3906C65.2861 28.164 65.3569 28.0791 65.5835 28.0932C66.0366 28.1074 66.4897 28.0649 66.9287 28.1215C67.4951 28.1923 67.8915 28.4897 68.0048 28.957C68.1747 29.7074 67.9057 30.4154 66.9004 30.557C66.6313 30.5995 66.3481 30.5853 66.0791 30.5853C65.7109 30.5853 65.7109 30.5853 65.7109 30.9535C65.7109 31.2792 65.7109 31.6049 65.7109 31.9305C65.7109 32.058 65.6826 32.1712 65.5269 32.1854C65.3428 32.2137 65.272 32.1429 65.272 31.9589V31.9447C65.2861 31.3358 65.2861 30.7411 65.2861 30.1464ZM65.7251 29.3393C65.7251 29.58 65.7251 29.8349 65.7251 30.0756C65.7251 30.1322 65.7251 30.1889 65.8101 30.1747C66.1782 30.1605 66.5464 30.203 66.9145 30.1464C67.3676 30.0614 67.6225 29.7641 67.6225 29.3251C67.6225 28.872 67.3676 28.5888 66.9145 28.5038C66.5464 28.4472 66.1924 28.4897 65.8242 28.4755C65.7392 28.4755 65.7392 28.518 65.7392 28.5746C65.7251 28.8295 65.7251 29.0844 65.7251 29.3393Z" fill="white"/>
<path d="M79.007 30.1464C79.007 29.5517 79.007 28.957 79.007 28.3764C79.007 28.1782 79.092 28.0932 79.2902 28.0932C79.7433 28.1074 80.1964 28.0649 80.6495 28.1215C81.485 28.2206 81.9522 28.9003 81.7257 29.7074C81.6124 30.1322 81.3151 30.3729 80.9186 30.4862C80.5504 30.5995 80.1823 30.5712 79.7999 30.5712C79.4318 30.5712 79.4318 30.5712 79.4318 30.9393C79.4318 31.2792 79.4318 31.6049 79.4318 31.9447C79.4318 32.1146 79.361 32.1854 79.1911 32.1854C79.0495 32.1854 78.9928 32.1004 79.007 31.973C79.007 31.35 79.007 30.7553 79.007 30.1464ZM79.4459 29.311C79.4459 29.5658 79.4459 29.8207 79.4459 30.0756C79.4459 30.1322 79.4318 30.1889 79.5309 30.1889C79.9132 30.1747 80.2955 30.2172 80.6637 30.1464C81.1168 30.0614 81.3434 29.7782 81.3434 29.2826C81.3434 28.8578 81.0885 28.5746 80.6495 28.5038C80.2814 28.4472 79.8991 28.4897 79.5309 28.4755C79.4459 28.4755 79.4601 28.518 79.4601 28.5746C79.4459 28.8295 79.4459 29.0702 79.4459 29.311Z" fill="white"/>
<path d="M92.657 30.0607C92.9543 29.6076 93.2234 29.1686 93.5066 28.7438C93.6198 28.5598 93.7331 28.3898 93.8464 28.2058C93.9455 28.05 94.0871 28.0217 94.2287 28.1208C94.3137 28.1774 94.3278 28.2482 94.257 28.3332C93.8464 28.9704 93.4358 29.6076 93.011 30.2306C92.9119 30.3864 92.8552 30.5421 92.8694 30.7262C92.8835 31.1227 92.8694 31.5192 92.8694 31.9298C92.8694 32.1139 92.8269 32.1705 92.657 32.1705C92.4871 32.1705 92.4304 32.1139 92.4304 31.9298C92.4304 31.4908 92.4304 31.0377 92.4304 30.5988C92.4304 30.4997 92.4021 30.4289 92.3596 30.3439C91.9348 29.6925 91.4959 29.027 91.0711 28.3757C91.0286 28.3049 90.9436 28.2482 91.0427 28.1491C91.1277 28.0642 91.2268 28.0358 91.3543 28.0925C91.4251 28.1208 91.4534 28.1774 91.4959 28.2482C91.864 28.8288 92.2605 29.4377 92.657 30.0607Z" fill="white"/>
<path d="M74.5039 30.0467C74.8863 29.4378 75.2686 28.8573 75.6367 28.2626C75.6792 28.2059 75.7075 28.1351 75.7642 28.0927C75.8774 28.0077 76.0474 28.0502 76.1182 28.1635C76.1606 28.2342 76.1182 28.2626 76.0898 28.3051C75.6509 28.9847 75.2119 29.6502 74.773 30.3299C74.7163 30.4149 74.7022 30.4857 74.7022 30.5848C74.7022 31.0237 74.7022 31.4769 74.7022 31.9158C74.7022 32.0999 74.6455 32.1565 74.4615 32.1424C74.3057 32.1282 74.2632 32.0857 74.2632 31.9158C74.2632 31.4627 74.2632 31.0096 74.2632 30.5565C74.2632 30.4715 74.2491 30.4149 74.2066 30.3441C73.7676 29.6786 73.3428 29.0272 72.918 28.3617C72.8614 28.2767 72.7764 28.1918 72.9039 28.0927C73.0172 28.0077 73.1729 28.0219 73.2579 28.121C73.2862 28.1493 73.3004 28.1918 73.3287 28.2201C73.6968 28.7865 74.065 29.367 74.419 29.9334C74.4473 29.9901 74.4615 30.0042 74.5039 30.0467Z" fill="white"/>
<path d="M83.085 30.0754C83.085 29.4807 83.085 28.886 83.085 28.3054C83.085 28.1213 83.1416 28.0647 83.2974 28.0647C83.4531 28.0647 83.5098 28.1213 83.5098 28.2771C83.5098 28.4329 83.5098 28.6028 83.5098 28.7585C83.5098 29.7072 83.5098 30.656 83.5098 31.5905C83.5098 31.7038 83.5381 31.7463 83.6655 31.7463C84.2461 31.7463 84.8408 31.7463 85.4213 31.7463C85.5488 31.7463 85.6479 31.7604 85.6621 31.9162C85.6762 32.0719 85.6054 32.1427 85.4213 32.1569C85.0957 32.1569 84.77 32.1569 84.4443 32.1569C84.1045 32.1569 83.7788 32.1569 83.439 32.1569C83.1416 32.1569 83.0708 32.0861 83.0708 31.7887C83.085 31.2082 83.085 30.6418 83.085 30.0754Z" fill="white"/>
<path d="M69.3784 30.0754C69.3784 29.4948 69.3784 28.9001 69.3784 28.3196C69.3784 28.1213 69.4209 28.0647 69.5908 28.0647C69.7607 28.0647 69.8174 28.1213 69.8174 28.3196C69.8174 29.4099 69.8174 30.5002 69.8174 31.5763C69.8174 31.7179 69.8599 31.7463 69.9873 31.7463C70.5678 31.7463 71.1484 31.7463 71.7289 31.7463C71.8989 31.7463 71.9697 31.8171 71.9555 31.9728C71.9413 32.1144 71.8422 32.1569 71.7148 32.1569C71.4458 32.1569 71.1626 32.1569 70.8935 32.1569C70.497 32.1569 70.1006 32.1569 69.6899 32.1569C69.4492 32.1569 69.3643 32.0861 69.3643 31.8454C69.3784 31.2507 69.3784 30.6559 69.3784 30.0754Z" fill="white"/>
<path d="M57.937 30.1177C57.937 29.5088 57.937 28.8999 57.937 28.2911C57.937 28.107 58.0078 28.0362 58.1777 28.0503C58.291 28.0645 58.3476 28.1211 58.3618 28.2344C58.3618 28.2769 58.3618 28.3194 58.3618 28.3619C58.3618 29.5513 58.3618 30.7265 58.3618 31.916C58.3618 32.1142 58.3052 32.1709 58.1494 32.1709C57.9795 32.1709 57.9229 32.1142 57.9229 31.9443C57.937 31.3354 57.937 30.7265 57.937 30.1177Z" fill="white"/>
</svg>
