<svg width="147" height="40" viewBox="0 0 147 40" fill="none" xmlns="http://www.w3.org/2000/svg">
<path fill-rule="evenodd" clip-rule="evenodd" d="M121.98 21.2142L124.817 25.7374L121.584 25.74L118.91 21.4925H118.88V25.74H115.966V14.7259H120.316C121.326 14.6666 122.325 14.955 123.148 15.5429C123.514 15.8569 123.802 16.2506 123.988 16.6926C124.173 17.1347 124.252 17.6132 124.217 18.0909C124.234 18.827 124.007 19.5479 123.57 20.1409C123.399 20.423 123.168 20.6647 122.895 20.8493C122.62 21.0351 122.308 21.1595 121.98 21.2142ZM121.014 17.5666C120.903 17.3849 120.743 17.2379 120.552 17.1423C120.351 17.0423 120.136 16.9756 119.913 16.9446C119.665 16.9094 119.414 16.8924 119.162 16.8937H118.881V19.647H119.162C119.414 19.6485 119.665 19.6315 119.913 19.5961C120.136 19.5647 120.352 19.4986 120.552 19.3984C120.744 19.3026 120.904 19.1549 121.014 18.9742C121.126 18.7565 121.184 18.5152 121.184 18.2704C121.184 18.0256 121.126 17.7843 121.014 17.5666ZM107.793 14.7259H114.167V17.1652H110.717V18.9386H114.167V21.4509H110.717V23.2242H114.167V25.7374H107.793V14.7259ZM65.6453 17.1652H62.1946V18.9386H65.6453V21.4509H62.1946V23.2242H65.6453V25.7374H59.2699V14.7259H65.6453V17.1652ZM54.8374 25.74L52.163 21.4925H52.1341V25.74H49.2204V14.7259H53.5706C54.5798 14.6669 55.5787 14.9553 56.4011 15.5429C56.7685 15.8569 57.0562 16.2506 57.2411 16.6926C57.4278 17.1347 57.5059 17.6132 57.4702 18.0909C57.488 18.8269 57.2609 19.5479 56.8245 20.1409C56.609 20.4284 56.3388 20.6706 56.0295 20.8536C55.7198 21.0369 55.3762 21.1582 55.0181 21.2099L58.0709 25.734L54.8374 25.74ZM54.2672 17.5683C54.1561 17.3857 53.9958 17.2381 53.8048 17.1423C53.6042 17.0426 53.3887 16.9761 53.1667 16.9455C52.9177 16.9103 52.6665 16.8933 52.415 16.8946H52.1341V19.6479H52.415C52.6665 19.6493 52.9177 19.6323 53.1667 19.597C53.3887 19.5661 53.6042 19.4993 53.8048 19.3993C53.9974 19.3043 54.1569 19.1566 54.2672 18.975C54.3792 18.7573 54.4376 18.516 54.4376 18.2712C54.4376 18.0264 54.3792 17.786 54.2672 17.5683ZM73.2944 15.1433C73.9303 15.4183 74.5044 15.8182 74.9829 16.3193C75.4705 16.83 75.8548 17.4302 76.1147 18.0867C76.656 19.4673 76.6538 21.0017 76.1088 22.3808C75.8452 23.0354 75.4577 23.6329 74.9676 24.1406C74.4874 24.6394 73.9136 25.0387 73.2791 25.3157C72.6435 25.5972 71.9557 25.7417 71.2606 25.74H67.4441V14.7267H71.2606C71.96 14.7233 72.6524 14.8649 73.2944 15.1425V15.1433ZM70.1363 17.1517V23.315H70.7405C71.1316 23.3184 71.5211 23.2565 71.8935 23.1335C72.2584 23.0121 72.591 22.811 72.8668 22.5455C73.1425 22.2799 73.3538 21.9566 73.4844 21.5994C73.6482 21.1624 73.728 20.7 73.7186 20.2333C73.7428 19.8219 73.6836 19.4098 73.5447 19.0217C73.4053 18.6321 73.1892 18.2743 72.9092 17.9696C72.6278 17.6944 72.2928 17.48 71.9249 17.34C71.5554 17.1994 71.1609 17.1358 70.7659 17.1534L70.1363 17.1517ZM88.6689 17.1517H86.2617V25.74H83.3497V17.1517H80.9417V14.7276H88.668L88.6689 17.1517ZM93.3584 25.7425H90.4447V14.6953H93.3584V25.7425ZM96.6802 16.248C97.1898 15.7487 97.7998 15.3634 98.4696 15.1179C99.1993 14.8523 99.9715 14.7191 100.749 14.7276C101.739 14.7031 102.716 14.9546 103.571 15.4539C104.4 15.9714 105.048 16.7266 105.43 17.6175L102.87 18.6849C102.702 18.2084 102.4 17.7902 102.001 17.48C101.604 17.1838 101.12 17.0296 100.625 17.0422C100.227 17.0361 99.8345 17.1301 99.4827 17.3154C99.1433 17.497 98.8515 17.7524 98.6283 18.0621C98.3964 18.3818 98.2195 18.738 98.1048 19.1159C97.8672 19.888 97.8672 20.7136 98.1048 21.4857C98.2193 21.8624 98.3984 22.2171 98.6351 22.5336C98.8642 22.839 99.1612 23.0902 99.5031 23.2658C99.8629 23.4474 100.262 23.539 100.666 23.5322C101.204 23.5535 101.734 23.3894 102.166 23.0673C102.366 22.9061 102.529 22.7043 102.645 22.4753C102.762 22.2462 102.828 21.9951 102.84 21.7385H100.638V19.6301H105.992C105.989 20.3937 105.913 21.1539 105.767 21.9032C105.618 22.5577 105.334 23.1738 104.933 23.7113C104.466 24.3722 103.829 24.8991 103.09 25.2385C102.324 25.5779 101.493 25.7485 100.653 25.7391C99.8916 25.7472 99.1354 25.6149 98.4221 25.3488C97.7644 25.1015 97.1647 24.7211 96.6607 24.2314C96.1608 23.7424 95.7711 23.1523 95.5178 22.5005C95.2453 21.7958 95.1097 21.0457 95.1182 20.2902C95.1084 19.5134 95.246 18.7418 95.5237 18.0163C95.7807 17.3517 96.1748 16.7486 96.6802 16.2463V16.248ZM37.1271 17.133C37.1169 17.4325 37.1415 17.7685 36.6663 17.9221C36.3846 18.0129 36.0385 17.6336 36.0198 17.3689C36.1606 17.1839 36.3532 17.0439 36.5738 16.965C37.0159 16.8012 37.1211 16.7698 37.1271 17.133ZM28.9596 17.9221C28.4844 17.7677 28.509 17.4325 28.4989 17.133C28.5048 16.7698 28.6092 16.8012 29.0521 16.9658C29.2727 17.0439 29.4653 17.1848 29.6061 17.3689C29.5866 17.6353 29.2413 18.0137 28.9596 17.9221ZM39.7293 26.6954C40.0204 26.5596 40.2851 26.3738 40.5099 26.1473C41.6198 24.9806 41.8361 23.6366 41.9693 22.0805C42.0033 21.6758 41.9956 21.2668 42.0177 20.851C42.0202 20.7874 42.0304 20.4989 42.0601 20.4989C42.1475 20.5939 42.2162 20.7026 42.2638 20.8213C42.4004 21.1836 42.4869 21.5621 42.5217 21.9464C42.649 22.7033 42.671 23.4737 42.587 24.2356C42.5488 24.5012 42.4598 24.7574 42.324 24.9891C41.6299 26.1337 40.8629 27.1951 40.1307 28.3202C40.0696 28.4135 40.0255 28.2354 39.9839 28.2048L39.9253 28.1463C39.759 28.058 39.6946 28.047 39.6148 28.1013C39.5885 28.1488 39.5656 28.1972 39.541 28.2455C39.3696 28.6189 39.0599 29.2171 38.8452 29.6031C38.8347 29.621 38.8201 29.636 38.8025 29.6469C38.7849 29.6577 38.7649 29.6642 38.7442 29.6656C38.7236 29.667 38.7029 29.6634 38.684 29.655C38.6651 29.6466 38.6485 29.6338 38.6357 29.6175C38.6183 29.5958 38.6087 29.569 38.6085 29.5412C38.6085 29.1118 38.611 28.6825 38.6051 28.2532C38.6017 27.9859 38.6085 27.6592 38.2318 27.6592C37.8635 27.6592 37.8525 27.9757 37.8483 28.2498C37.844 28.5009 37.8483 28.7512 37.8483 29.0397C37.8486 29.0625 37.8427 29.0849 37.8312 29.1045C37.8197 29.1241 37.803 29.1401 37.7829 29.1509C37.763 29.1619 37.7404 29.1674 37.7176 29.1668C37.6947 29.1662 37.6725 29.1596 37.6531 29.1475C37.343 28.9179 37.0016 28.7342 36.6392 28.6019C36.35 28.488 36.0375 28.446 35.7285 28.4794C35.4195 28.5128 35.1232 28.6206 34.865 28.7937L34.9439 28.7232C35.1646 28.5276 35.4281 28.3866 35.7133 28.3114C35.9985 28.2362 36.2973 28.2291 36.5857 28.2905C36.7469 28.3245 36.9107 28.338 37.0744 28.3287C37.094 28.3279 37.1131 28.3225 37.1302 28.3129C37.1473 28.3033 37.1619 28.2898 37.1727 28.2735C37.1836 28.2572 37.1904 28.2385 37.1926 28.2191C37.1949 28.1996 37.1925 28.1799 37.1856 28.1615C36.9582 27.5659 36.2472 25.3828 37.7083 24.642C37.7272 24.633 37.7436 24.6195 37.756 24.6026C37.7685 24.5858 37.7765 24.5661 37.7795 24.5453C37.8304 24.1448 38.5729 22.4114 36.556 21.2812C36.2395 21.5578 35.8501 22.2044 35.3529 22.6184C36.2311 22.8051 36.6952 22.2816 37.1203 21.9218C36.9463 22.9315 36.1479 23.0036 35.5115 23.3702C36.0597 23.1385 36.6044 23.4533 37.2552 23.1148C36.7843 24.0023 35.8526 23.5645 35.2799 24.032C35.8297 24.3816 36.3363 24.1907 36.8403 24.1372C36.982 24.1177 37.1262 24.1236 37.2671 24.1525C37.1483 24.3222 37.0108 24.4774 36.8572 24.6166C36.6621 24.7608 36.4415 24.8686 36.2065 24.9339C35.9669 25.0083 35.7114 25.015 35.4683 24.9534C34.7502 24.7262 34.0404 24.4734 33.3403 24.1957C33.2734 24.1641 33.214 24.1186 33.1661 24.0623C33.1181 24.006 33.0826 23.9401 33.062 23.8691C33.0187 23.6434 33.0705 23.4024 33.0493 23.1708C33.036 23.1007 33.0368 23.0286 33.0516 22.9589C33.0665 22.8891 33.0951 22.823 33.1358 22.7644C33.2189 22.6451 33.3458 22.5634 33.4888 22.537C34.1472 22.358 34.727 21.9644 35.1365 21.4187C35.2723 21.2244 35.3707 21.0063 35.425 20.7764V20.7636C35.4266 20.5513 35.3892 20.3405 35.3147 20.1417C35.2725 19.9839 35.2763 19.8172 35.3257 19.6615L35.3385 19.6106V19.6021H35.341L35.4844 18.9971C35.5325 18.8089 35.647 18.6444 35.8068 18.5338L35.8492 18.5084C35.8665 18.4949 35.885 18.4829 35.9044 18.4727C36.1734 18.3341 36.4546 18.2205 36.7444 18.1334C37.2477 17.9383 37.701 17.6334 38.0714 17.2408C38.4396 16.8503 38.7146 16.3815 38.8758 15.8696C38.9988 15.526 39.0285 15.1569 38.9632 14.798C38.8656 14.9931 38.7146 15.386 38.6212 15.5837C38.565 15.7379 38.4582 15.8685 38.3183 15.9545C38.1774 16.041 38.0118 16.0783 37.8474 16.0605C36.9132 16.0673 36.013 16.2226 35.5014 17.1822C35.2821 17.6981 34.8871 18.1196 34.3865 18.3718C34.378 18.0935 34.4204 17.816 34.5137 17.5521C34.0793 17.3765 34.2507 17.1279 34.4823 16.8793C34.798 16.5433 35.117 16.2099 35.4522 15.8586C35.1702 15.7897 34.9113 15.6481 34.7012 15.4479H36.5289C36.5289 15.4301 36.5323 15.4123 36.534 15.3936C35.9756 15.2939 35.4372 15.1042 34.9397 14.8319C35.7882 14.316 37.553 14.5723 37.8517 14.479C37.8551 14.4085 37.6073 14.3568 37.3536 14.2753C36.7681 14.1268 36.5475 14.0802 35.9638 13.924C35.3842 13.7694 34.8251 13.5463 34.2982 13.2597H36.6977C35.8798 12.8021 34.9807 12.5081 34.0505 12.3942C33.6406 12.3679 33.2299 12.3589 32.8193 12.3671L32.8168 12.2161V12.3671C32.4918 12.362 32.1125 12.3611 31.5865 12.3942C30.6557 12.508 29.7559 12.802 28.9375 13.2597H31.3379C30.8118 13.5465 30.2518 13.7688 29.6723 13.924C29.0869 14.0793 28.8679 14.126 28.2825 14.2762C28.0279 14.3568 27.7819 14.4085 27.7853 14.479C28.0823 14.5748 29.8471 14.3169 30.6956 14.8319C30.2001 15.1034 29.6613 15.2935 29.103 15.3936C29.103 15.4123 29.1064 15.4301 29.1081 15.4479H30.9357C30.7261 15.6482 30.4682 15.789 30.1856 15.8586C30.5199 16.2099 30.839 16.5425 31.1554 16.8793C31.3871 17.1262 31.5585 17.3757 31.1241 17.5521C31.2174 17.8152 31.2598 18.0935 31.2513 18.3718C30.7507 18.1196 30.3557 17.6981 30.1364 17.1822C29.6256 16.2209 28.7246 16.0665 27.7895 16.0605C27.625 16.078 27.4594 16.0404 27.3186 15.9536C27.1789 15.8679 27.0722 15.7375 27.0157 15.5837C26.9224 15.386 26.7713 14.994 26.6738 14.798C26.6084 15.156 26.639 15.526 26.762 15.8696C26.9224 16.3795 27.1973 16.8488 27.5664 17.2408C27.9355 17.6328 28.3894 17.9374 28.8934 18.1334C29.1836 18.2207 29.4644 18.3344 29.7334 18.4727C29.7525 18.483 29.7707 18.4949 29.7877 18.5084L29.831 18.5338C29.9908 18.6444 30.1053 18.8089 30.1534 18.9971L30.2959 19.6029H30.2985V19.6097L30.3104 19.6606C30.3604 19.8176 30.3638 19.9839 30.3222 20.1417C30.2464 20.3446 30.2089 20.5598 30.2119 20.7764C30.2662 21.0063 30.3647 21.2244 30.5004 21.4187C30.9097 21.9646 31.4897 22.3582 32.1482 22.537C32.2909 22.5635 32.4174 22.6452 32.5003 22.7644C32.5826 22.8831 32.614 23.0299 32.5868 23.1716C32.5656 23.4024 32.6182 23.6434 32.5741 23.8691C32.5541 23.9404 32.5189 24.0066 32.4709 24.063C32.4228 24.1194 32.3631 24.1647 32.2958 24.1957C31.5941 24.4673 30.8873 24.732 30.1678 24.9534C29.9247 25.015 29.6692 25.0082 29.4296 24.9339C29.195 24.8693 28.9743 24.7617 28.7789 24.6166C28.6256 24.478 28.4884 24.3226 28.3699 24.1533C28.5099 24.1236 28.6541 24.1185 28.7967 24.1372C29.2998 24.1915 29.8064 24.3824 30.3579 24.0328C29.7852 23.5645 28.8535 24.0023 28.3835 23.1148C29.0342 23.4516 29.5798 23.1394 30.1262 23.371C29.4924 23.0036 28.6923 22.9307 28.5184 21.9227C28.9443 22.2816 29.4093 22.8051 30.2866 22.6184C29.7885 22.2052 29.3991 21.5578 29.0818 21.2812C27.0658 22.4122 27.8073 24.1457 27.8591 24.5462C27.862 24.5668 27.8701 24.5864 27.8825 24.6032C27.895 24.6199 27.9114 24.6333 27.9304 24.642C29.3906 25.3836 28.6796 27.5668 28.4522 28.1624C28.4455 28.1807 28.4433 28.2003 28.4455 28.2196C28.4478 28.2389 28.4546 28.2575 28.4653 28.2737C28.476 28.29 28.4904 28.3035 28.5073 28.3132C28.5241 28.3229 28.5431 28.3285 28.5625 28.3295C28.7262 28.338 28.8909 28.3253 29.0504 28.2914C29.3389 28.2297 29.638 28.2367 29.9233 28.3118C30.2086 28.387 30.4723 28.5282 30.693 28.7241L30.7719 28.7945C30.5142 28.6208 30.218 28.5125 29.909 28.4791C29.6 28.4457 29.2875 28.4882 28.9986 28.6028C28.6355 28.7351 28.2935 28.9192 27.9838 29.1483C27.9694 29.1574 27.9533 29.1636 27.9365 29.1663C27.9196 29.1691 27.9024 29.1685 27.8858 29.1646C27.8692 29.1606 27.8536 29.1534 27.8398 29.1433C27.826 29.1333 27.8144 29.1205 27.8056 29.1059C27.7942 29.0864 27.7883 29.0641 27.7887 29.0414V28.2515C27.7844 27.9757 27.7734 27.6609 27.406 27.6601C27.0284 27.6601 27.0352 27.9868 27.0318 28.254C27.0259 28.6834 27.0276 29.1127 27.0284 29.542C27.0284 29.57 27.02 29.5963 27.0021 29.6184C26.985 29.6404 26.961 29.6561 26.9341 29.6631C26.9071 29.6702 26.8785 29.6682 26.8528 29.6574C26.8274 29.6466 26.8063 29.6279 26.7926 29.604C26.5454 29.1593 26.313 28.7065 26.096 28.2464C26.0739 28.198 26.0467 28.1505 26.0221 28.1022C25.9424 28.0479 25.8762 28.058 25.7116 28.1471L25.6522 28.2057C25.6115 28.2354 25.5674 28.4144 25.5063 28.3211C24.774 27.1951 24.0062 26.1345 23.3129 24.9899C23.177 24.7586 23.0876 24.503 23.0499 24.2373C22.966 23.4749 22.988 22.7045 23.1152 21.9481C23.1492 21.5629 23.2366 21.1845 23.3723 20.8222C23.4199 20.7034 23.4894 20.5948 23.576 20.4998C23.6057 20.4998 23.6159 20.7883 23.6184 20.8519C23.6405 21.2676 23.6328 21.6766 23.6676 22.0822C23.8008 23.6374 24.0155 24.9814 25.1253 26.1481C25.351 26.3746 25.6157 26.5605 25.9067 26.6971C25.9306 26.7063 25.9566 26.7082 25.9815 26.7026C26.0064 26.697 26.0291 26.6842 26.0467 26.6657C26.064 26.6474 26.0752 26.6243 26.079 26.5994C26.0828 26.5746 26.079 26.5491 26.068 26.5265C25.7294 25.8477 25.3637 25.18 25.0922 24.4766C24.8139 23.7605 24.6281 23.0079 24.4143 22.2655C24.4079 22.2437 24.4077 22.2206 24.4136 22.1987C24.4196 22.1768 24.4316 22.157 24.4482 22.1416C24.4648 22.1259 24.4852 22.1149 24.5075 22.1098C24.5297 22.1048 24.5529 22.1058 24.5746 22.1127C24.7325 22.1662 24.9446 22.2519 25.1117 22.3147C25.1337 22.3228 25.1574 22.3248 25.1805 22.3205C25.2035 22.3162 25.2249 22.3056 25.2424 22.2901C25.2596 22.2744 25.272 22.2543 25.2783 22.232C25.2846 22.2096 25.2845 22.1859 25.278 22.1636C25.0659 21.4475 24.3803 19.3526 24.3803 19.3526C24.4211 19.4001 24.8232 19.9771 24.8512 20.0289C25.1737 20.5396 25.4571 21.0742 25.698 21.6274C25.8126 21.9201 25.9067 22.1305 25.9577 22.2417C25.9806 22.2892 25.9891 22.3469 25.9475 22.3817C25.3773 22.8577 25.838 23.7647 26.0798 24.0481C26.4141 24.4435 26.6543 24.9068 26.7841 25.4048C26.818 25.5067 26.8621 25.6526 26.9113 25.8053C26.9215 25.8333 26.941 25.8562 26.9673 25.8706C26.9933 25.8853 27.0236 25.8903 27.0529 25.8849C27.0822 25.8794 27.1087 25.8639 27.1277 25.841C27.1464 25.8183 27.1563 25.7897 27.1557 25.7603C27.1124 25.1189 26.9979 24.2501 26.7824 24.0507C26.4515 23.7435 26.5219 22.6863 26.8927 22.4979C27.238 22.3232 27.3152 22.1373 27.1413 21.8387C27.1282 21.817 27.1221 21.7918 27.1236 21.7665C27.1251 21.7412 27.1342 21.717 27.1498 21.697C27.1599 21.6836 27.1726 21.6723 27.1871 21.6639L28.7738 20.7696C28.7964 20.7569 28.8145 20.7375 28.8257 20.7141C28.837 20.6908 28.8407 20.6645 28.8366 20.6389C28.832 20.6131 28.8195 20.5894 28.8008 20.5712C28.7821 20.5529 28.7581 20.541 28.7322 20.5371C28.1826 20.4872 27.6344 20.6459 27.1964 20.9817C27.0598 21.0612 26.9005 21.0927 26.7439 21.071C26.5873 21.0493 26.4425 20.9757 26.3327 20.8621C26.2607 20.7869 26.2067 20.6964 26.1749 20.5973C26.1413 20.5182 26.1133 20.4368 26.0909 20.3538C26.0731 20.286 26.135 20.2283 26.2037 20.2096C26.9843 20.017 27.1014 19.978 27.1404 19.7446C27.1449 19.7178 27.1403 19.6902 27.1274 19.6663C27.1145 19.6423 27.094 19.6233 27.0692 19.6123C27.0527 19.6047 27.0347 19.6006 27.0166 19.6004C26.745 19.6394 26.4676 19.6063 26.213 19.5045C26.0623 19.3537 25.9636 19.1587 25.9314 18.9479C25.9249 18.9253 25.925 18.9012 25.9318 18.8787C25.9386 18.8561 25.9517 18.836 25.9695 18.8206C25.9875 18.8049 26.0095 18.7945 26.033 18.7906C26.0565 18.7867 26.0807 18.7895 26.1027 18.7986C26.3777 18.914 26.4532 18.9097 26.6042 18.796C26.6179 18.7856 26.6293 18.7726 26.6378 18.7577C26.6463 18.7428 26.6517 18.7264 26.6537 18.7093C26.6557 18.6923 26.6542 18.675 26.6493 18.6586C26.6445 18.6421 26.6363 18.6268 26.6254 18.6136C26.5916 18.571 26.5532 18.5323 26.5109 18.4982C25.9381 18.0587 25.0583 15.6286 25.088 14.9117C24.8586 15.1042 24.6866 15.356 24.5908 15.6397C23.9858 15.397 23.5242 15.3206 23.6108 14.4806L24.2811 14.8217C24.2811 14.8217 24.315 14.5672 23.9561 14.2702C23.1857 13.6373 23.0694 12.7939 23.0448 11.8775C23.0314 11.7282 23.0603 11.5782 23.1283 11.4446C23.1963 11.311 23.3006 11.1993 23.4292 11.1224C23.5582 11.0432 23.7065 11.001 23.8579 11.0003C24.0093 10.9995 24.158 11.0403 24.2878 11.1181C25.7829 11.8105 27.843 12.5079 29.5442 12.2924L29.6002 12.2814L29.6053 12.278L29.601 12.2805C30.66 12.0656 31.7371 11.9531 32.8176 11.9445H32.8261C33.9071 11.953 34.9846 12.0659 36.0435 12.2805L36.0393 12.278L36.0444 12.2814L36.1004 12.2924C37.8007 12.5079 39.8592 11.8122 41.3567 11.1181C41.4536 11.0604 41.5611 11.023 41.6729 11.0082C41.7847 10.9935 41.8983 11.0017 42.0067 11.0324C42.1152 11.063 42.2163 11.1155 42.3038 11.1865C42.3914 11.2576 42.4635 11.3458 42.5158 11.4456C42.5836 11.5788 42.6125 11.7282 42.5998 11.8775C42.5751 12.7939 42.4589 13.6373 41.6876 14.2702C41.3287 14.5672 41.3644 14.8217 41.3644 14.8217L42.0347 14.4806C42.1195 15.3206 41.6579 15.397 41.0538 15.6397C40.958 15.356 40.786 15.1041 40.5566 14.9117C40.5863 15.6286 39.7073 18.0587 39.1346 18.4982C39.092 18.5324 39.0533 18.5711 39.0192 18.6136C39.0024 18.6334 38.9922 18.6579 38.9899 18.6837C38.9876 18.7095 38.9934 18.7354 39.0064 18.7578C39.0148 18.7726 39.0261 18.7856 39.0395 18.796C39.1906 18.9106 39.2652 18.9148 39.5418 18.7986C39.5582 18.7919 39.5758 18.7887 39.5934 18.7892C39.6111 18.7897 39.6285 18.7939 39.6444 18.8015C39.6604 18.8091 39.6746 18.8199 39.6862 18.8333C39.6977 18.8466 39.7064 18.8623 39.7115 18.8792C39.7182 18.9019 39.7182 18.926 39.7115 18.9487C39.6794 19.159 39.5813 19.3536 39.4315 19.5045C39.177 19.6063 38.8987 19.6403 38.6272 19.6012C38.6 19.6016 38.5736 19.6106 38.5518 19.6269C38.53 19.6432 38.5139 19.666 38.5058 19.692C38.5011 19.7094 38.5002 19.7277 38.5033 19.7455C38.5423 19.978 38.6569 20.017 39.44 20.2096C39.5079 20.2266 39.5707 20.2843 39.552 20.3538C39.5294 20.4371 39.501 20.5188 39.4672 20.5982C39.4353 20.6974 39.3813 20.788 39.3093 20.8633C39.2373 20.9385 39.1491 20.9964 39.0514 21.0326C38.9531 21.0695 38.8478 21.084 38.7432 21.0752C38.6386 21.0664 38.5372 21.0345 38.4464 20.9817C38.0084 20.6462 37.4602 20.4878 36.9107 20.5379C36.885 20.5422 36.8612 20.5542 36.8425 20.5724C36.8238 20.5906 36.8112 20.6141 36.8063 20.6398C36.8018 20.6653 36.8054 20.6915 36.8167 20.7148C36.828 20.7381 36.8463 20.7573 36.8691 20.7696L38.4558 21.6647C38.4854 21.6817 38.5071 21.7098 38.516 21.7428C38.5243 21.7753 38.5194 21.8097 38.5024 21.8387C38.3285 22.1382 38.4049 22.324 38.7502 22.4988C39.1218 22.6863 39.1897 23.7444 38.8605 24.0515C38.6458 24.2501 38.5313 25.1206 38.4872 25.7603C38.4871 25.7899 38.4974 25.8185 38.5162 25.8413C38.5351 25.864 38.5613 25.8794 38.5903 25.8849C38.6193 25.8903 38.6493 25.8854 38.6751 25.8711C38.7009 25.8567 38.7209 25.8337 38.7315 25.8062C38.7807 25.6534 38.8249 25.5075 38.8588 25.4048C38.9894 24.9057 39.23 24.4422 39.563 24.0481C39.8074 23.7656 40.2664 22.8585 39.6963 22.3825C39.6785 22.3639 39.6677 22.3397 39.6657 22.3141C39.6637 22.2884 39.6706 22.2629 39.6852 22.2417C39.7344 22.1314 39.832 21.9201 39.9449 21.6282C40.1866 21.0746 40.4696 20.54 40.7916 20.0289C40.8205 19.9754 41.2218 19.3993 41.2634 19.3526C41.2634 19.3526 40.5761 21.4484 40.3657 22.1645C40.3593 22.1867 40.3592 22.2102 40.3655 22.2324C40.3718 22.2546 40.3842 22.2746 40.4013 22.2901C40.4186 22.3058 40.4398 22.3165 40.4627 22.321C40.4856 22.3255 40.5093 22.3236 40.5312 22.3155C40.6983 22.2519 40.9104 22.167 41.0682 22.1127C41.0901 22.1056 41.1135 22.1045 41.1359 22.1096C41.1583 22.1147 41.1789 22.1257 41.1955 22.1416C41.212 22.1573 41.2239 22.1772 41.2297 22.1993C41.2356 22.2213 41.2352 22.2445 41.2286 22.2663C41.0156 23.007 40.8298 23.7596 40.5515 24.4774C40.2783 25.18 39.9126 25.8486 39.5758 26.5265C39.564 26.5492 39.5597 26.575 39.5633 26.6002C39.567 26.6255 39.5785 26.649 39.5961 26.6674C39.6138 26.6858 39.6366 26.6985 39.6616 26.7038C39.6865 26.7091 39.7125 26.7067 39.7361 26.6971L39.7293 26.6954ZM29.2964 21.1599L29.2269 21.1947C29.2523 21.1828 29.2752 21.1718 29.2964 21.1599ZM26.432 12.0048C26.5635 12.037 26.6907 12.0667 26.8129 12.093C26.6882 12.0547 26.5609 12.0252 26.432 12.0048ZM26.2648 12.1838C24.5025 12.0481 24.8292 13.3284 25.1703 14.0886L25.4554 14.5528C25.4723 14.5714 25.4859 14.5926 25.4961 14.6156C25.4961 14.6198 25.4995 14.624 25.5012 14.6283C25.9407 15.649 26.3055 17.8186 28.4199 18.6509C28.337 18.6038 28.2563 18.5528 28.1781 18.4982C27.5699 17.9914 27.0709 17.3665 26.7111 16.6612C25.7676 14.7903 26.0154 13.6177 25.9 13.1519C26.0824 13.2139 26.7298 13.3505 26.857 13.3954C26.8689 13.3666 25.7201 12.8762 25.3926 12.7056C25.5377 12.6165 25.7006 12.558 25.8711 12.5359C26.6161 12.4596 26.8961 12.6929 27.378 12.7608C27.7004 12.7888 28.0263 12.7642 28.3402 12.6861L26.2648 12.1838ZM36.3278 21.1607C36.349 21.1726 36.3736 21.1836 36.3982 21.1947L36.3278 21.1607ZM38.813 12.093C38.9352 12.0667 39.0616 12.037 39.1948 12.0056C39.0656 12.0257 38.938 12.0549 38.813 12.093ZM40.1239 14.6291C40.1239 14.6249 40.1281 14.6206 40.1298 14.6164C40.1398 14.5934 40.1536 14.5721 40.1706 14.5536L40.4548 14.0895C40.7959 13.3293 41.1225 12.0489 39.3603 12.1847L37.284 12.6861C37.598 12.7642 37.9238 12.7888 38.2462 12.7608C38.7281 12.6929 39.009 12.4604 39.7539 12.5359C39.9236 12.5588 40.0866 12.6165 40.2316 12.7056C39.9041 12.8753 38.7561 13.3666 38.7672 13.3954C38.8961 13.3513 39.5418 13.2139 39.7243 13.1519C39.6089 13.6203 39.8566 14.7929 38.9123 16.6612C38.5525 17.3665 38.0534 17.9914 37.4452 18.4982C37.3655 18.5542 37.284 18.6051 37.2034 18.6509C39.3195 17.8177 39.6844 15.6499 40.1239 14.6291ZM32.8083 21.2753C32.5546 21.2753 32.2805 21.2753 31.9293 21.2685C31.6102 21.2735 31.2935 21.2134 30.9985 21.092C30.9187 21.0367 30.8565 20.9596 30.8194 20.87C30.7822 20.7803 30.7716 20.6818 30.7889 20.5863C30.8059 20.3241 31.1529 20.1392 31.1529 20.1392C31.1402 20.7526 31.6798 20.9164 32.8074 20.9266H32.8176C33.9444 20.9164 34.484 20.7518 34.4722 20.1392C34.4722 20.1392 34.8166 20.3241 34.8353 20.5863C34.8536 20.6819 34.8434 20.7808 34.806 20.8707C34.7686 20.9606 34.7056 21.0376 34.6249 21.092C34.3305 21.2133 34.014 21.2736 33.6941 21.2693C33.3437 21.2753 33.0696 21.2778 32.8151 21.2753L32.81 21.2481L32.8083 21.2753ZM32.8125 27.8417C32.8465 28.6503 31.4354 28.7198 30.2442 28.0173C30.1763 27.767 30.307 27.3368 30.1695 27.2426C29.9633 27.1026 29.6367 27.2876 29.4296 27.4174C29.2226 27.5464 29.0877 27.7967 28.8849 27.952C28.9732 26.7022 30.2382 25.5686 32.183 25.4617C32.3968 25.4507 32.6123 25.4362 32.8134 25.4371C33.0136 25.4388 33.23 25.4507 33.4438 25.4625C35.3885 25.5677 36.6545 26.703 36.7418 27.952C36.5365 27.7967 36.405 27.5472 36.1971 27.4174C35.9892 27.2868 35.6626 27.1035 35.4572 27.2426C35.3189 27.3385 35.4496 27.767 35.3826 28.0173C34.1905 28.7198 32.7794 28.6503 32.8125 27.8417Z" fill="#EE1C25"/>
</svg>
