<svg xmlns="http://www.w3.org/2000/svg" xmlns:xlink="http://www.w3.org/1999/xlink" version="1.1" id="Layer_1" x="0px" y="0px" viewBox="0 0 160 60" style="enable-background:new 0 0 160 60;" xml:space="preserve">
<style type="text/css">
	.st0{fill-rule:evenodd;clip-rule:evenodd;fill:#2C4C95;}
	.st1{fill:#2C4C95;}
</style>
    <path class="st0" d="M40,28.0286999C42.0290985,18.4869995,58.9037018,11,79.3098984,11  c21.7551041,0,39.5150986,8.5272007,39.5150986,18.9678993c-0.0089951,1.2334003-0.2529984,2.4538002-0.7189941,3.5958023  c0.1329956-0.633503,0.2019958-1.2789001,0.2059937-1.926302c0.0250015-10.4535999-17.760994-18.9678993-39.5157928-18.9678993  c-19.1990051,0-35.2774048,6.6266003-38.7962036,15.3720989V28.0286999z"/>
    <path class="st0" d="M119.3130035,31.9584999c-2.029007,9.5418015-18.9550018,17.0415993-39.3095016,17.0415993  c-21.7547035,0-39.5154037-8.4629974-39.5154037-18.9678993c-0.0006981-1.2427006,0.2437019-2.473299,0.7192001-3.6215  c-0.1324997,0.6380005-0.2012978,1.2875996-0.2054977,1.9391994c0,10.4534988,17.7607002,18.9678993,39.5153961,18.9678993  c19.2632065,0,35.2778015-6.6265984,38.7958069-15.4105988V31.9584999z"/>
    <path class="st1" d="M45.5736008,35.5289001v-0.3723984h0.487999c0.3739014,0.0396996,0.7493019-0.0610008,1.0531006-0.2825012  c0.2785988-0.3782005,0.4594994-0.8193016,0.5265007-1.2841988L49.7472992,24.0737c0-0.1798,0.0642014-0.3339005,0.089901-0.4880009  c0.0256996-0.1540985,0-0.2953987,0-0.4237995c0.0293007-0.101099,0.036499-0.2073994,0.0209999-0.3115997  s-0.053299-0.2038002-0.1109009-0.2919998c-0.1869011-0.1196003-0.4081993-0.1737995-0.6292-0.1541004h-0.6420975  l0.0641975-0.3724003h7.1659012l-0.0769997,0.3724003h-0.449501c-0.3721008-0.0419998-0.7458,0.0641003-1.0401993,0.2954006  c-0.2784996,0.3769989-0.4552994,0.8192005-0.5136986,1.2842007l-2.0676003,9.5930996  c0,0.1797981-0.0771027,0.3467979-0.1028023,0.5009003c-0.0256004,0.1540985,0,0.2824974,0,0.3852005  c-0.0080986,0.0984993,0.0049019,0.1974983,0.0381012,0.2905006c0.0331993,0.0929985,0.0858994,0.1778984,0.1545982,0.2488976  c0.1912003,0.1206017,0.4169006,0.1748009,0.6421013,0.1541023h0.5522003l-0.0642014,0.3723984H45.5736008z"/>
    <path class="st1" d="M64.1047974,26.5907001L62.088501,34.950901c-0.1856003,0.8031998-0.4127998,1.596199-0.6805992,2.3757973  c-0.1547012,0.4577026-0.3754005,0.8903008-0.6550026,1.2843018c-0.3763008,0.5112991-0.8694,0.9252014-1.4382973,1.2070999  c-0.597702,0.2835999-1.2519035,0.4285011-1.9135017,0.4238014c-0.7120018,0.0402985-1.415802-0.1685028-1.9905014-0.5907021  c-0.2375984-0.2057991-0.4247971-0.4631996-0.5471992-0.7527008c-0.1225014-0.2893982-0.176899-0.6029968-0.1590996-0.9167976  c-0.0219002-0.3880005,0.0965996-0.7709007,0.3339005-1.078701c0.1035995-0.1264,0.2338982-0.228199,0.3815994-0.2980003  c0.1477013-0.0699005,0.3090019-0.1062012,0.4724007-0.1062012s0.3246994,0.0363007,0.4724007,0.1062012  c0.1476974,0.0698013,0.2779999,0.1716003,0.3815994,0.2980003c0.2155991,0.2979012,0.3241997,0.6599007,0.3082008,1.0273018  c0.0168991,0.3476982-0.0825005,0.6910973-0.2825012,0.9759979c-0.0738983,0.1203003-0.1780014,0.219101-0.301899,0.2867012  c-0.1239014,0.0676003-0.2633018,0.1016006-0.4045029,0.0985985h-0.3851967  c0.0820999,0.2098999,0.2370987,0.3831024,0.4365997,0.487999c0.2213974,0.118,0.4682999,0.1798019,0.7192001,0.1798019  c0.886097,0,1.6565971-1.4511986,2.324398-4.3792c0.1156006-0.5265007,0.2182999-0.9375,0.2825012-1.2841988l0.2696991-1.1430016  c-0.3078995,0.7415009-0.7424011,1.4236984-1.2841988,2.0163002c-0.1879005,0.1960983-0.413002,0.3527985-0.6622009,0.4608002  c-0.2490997,0.1081009-0.5173988,0.1652985-0.7890015,0.1683998c-0.3232002,0.0008011-0.6403999-0.0873985-0.9167976-0.2551003  c-0.2764015-0.1675987-0.5013008-0.4081993-0.6499023-0.6951981c-0.4249001-0.7172012-0.6302986-1.5431023-0.5906982-2.3758011  c-0.0031013-0.8749008,0.1445999-1.7437,0.4365997-2.5684013c0.2775993-0.787199,0.714798-1.5086002,1.2841988-2.1189995  c0.3623009-0.4106007,0.797802-0.7502995,1.2842026-1.0016994c0.3953972-0.2152996,0.8344994-0.3383007,1.2841988-0.3596001  c0.2242012-0.0170994,0.4488983,0.0247993,0.6516991,0.1217003c0.2028008,0.0970001,0.3767014,0.2453995,0.5041008,0.4305  c0.3031998,0.473999,0.4513016,1.0304985,0.4238014,1.5924988l0.487999-1.9391994L64.1047974,26.5907001z M58.9678993,28.4528008  l-1.2841988,5.368c-0.0425987,0.1251984-0.0727005,0.2542-0.089901,0.3852997c-0.0115013,0.0852013-0.0115013,0.1716003,0,0.2567978  c-0.0093994,0.1203003,0.0273018,0.2397003,0.1026993,0.3339005c0.0284004,0.0415001,0.066803,0.0750999,0.1118011,0.0976028  c0.044899,0.0223999,0.0948982,0.0331001,0.1450996,0.030899c0.1540985,0,0.3338013-0.1156006,0.5522003-0.3468018  c0.2563019-0.3027992,0.4761009-0.634697,0.6548996-0.9888c0.4309998-0.8150978,0.7671013-1.6767979,1.0017014-2.5684986  c0.230999-0.771801,0.3605003-1.5704994,0.3852997-2.3758011c0.0116997-0.3845997-0.0493011-0.7680988-0.1798019-1.1300983  c-0.1155968-0.2954006-0.2696991-0.4366016-0.4494972-0.4366016c-0.1039009,0.0065002-0.2040024,0.0410004-0.2899017,0.0998001  c-0.0858994,0.0588017-0.1543999,0.1396008-0.198101,0.2341003c-0.2043991,0.3205013-0.3561974,0.6716995-0.4494972,1.0402012  H58.9678993z"/>
    <path class="st1" d="M64.5417023,35.5284004l1.7465973-7.3071995v-0.2440014c0.0063019-0.0769005,0.0063019-0.1541996,0-0.2311001  c0.0121994-0.1070004-0.0102997-0.2150993-0.0643005-0.3081989c-0.0191956-0.0335007-0.0474014-0.0608997-0.0814972-0.0790997  c-0.0341034-0.0182018-0.0726013-0.0264015-0.1110992-0.0237007c-0.1669006,0-0.3852997,0.2824993-0.6678009,0.847599  c-0.335701,0.6971016-0.6064987,1.4236012-0.8089981,2.1703014l-0.1541061-0.089901  c0.2684021-1.0464993,0.7019043-2.0436001,1.2842026-2.9536991c0.1644974-0.2637005,0.3908005-0.4834003,0.6593018-0.6400013  c0.2685013-0.1567001,0.5711975-0.2454987,0.8816986-0.2588997c0.2220993-0.0149002,0.4440994,0.0282001,0.6445007,0.125  s0.3721008,0.2439995,0.498497,0.4272003c0.290802,0.4736004,0.4297028,1.0247993,0.3981018,1.5795994  c0,0.1926003,0,0.4623013,0,0.7834015c0,0.3209991-0.0642014,0.7319984-0.1156006,1.2199993  c0.326004-1.1774006,0.7826004-2.3145008,1.3612976-3.3903999c0.1322021-0.2238998,0.3197021-0.4099998,0.5446014-0.5403996  c0.2248993-0.1305008,0.479599-0.200901,0.7396011-0.204401c0.186203-0.0046005,0.3703995,0.0391998,0.5346985,0.1268997  c0.164299,0.087801,0.3031006,0.2166004,0.4028015,0.3739014c0.2492981,0.4035988,0.3659973,0.8750992,0.3339005,1.3484993  c-0.0189972,0.4929008-0.1794968,0.9699001-0.4623032,1.3740997c-0.0871964,0.1589012-0.2153931,0.2916012-0.3712006,0.3841  c-0.155899,0.0925999-0.3336945,0.1417999-0.5148926,0.1424007c-0.1674042,0.0021-0.3323059-0.0395012-0.4787064-0.1205006  c-0.1464005-0.0811005-0.2690964-0.1989002-0.3560944-0.3418007c-0.3148041-0.5817986-0.3930054-1.2625999-0.2182999-1.9006996  c0.0546951-0.2150993,0.1458969-0.4193001,0.2696991-0.6035004c-0.2825012,0-0.7320023,0.7962017-1.2842026,2.4014015  c-0.6837006,1.9354992-1.2246017,3.9185009-1.6182022,5.9330997H64.5417023z"/>
    <path class="st1" d="M77.2422028,26.4108009c0.517395-0.0129013,1.031395,0.0873985,1.5059967,0.2935982  c0.4747009,0.2063007,0.8985977,0.5137005,1.2423019,0.9007015c0.7370987,0.8143997,1.1325989,1.8813,1.1044006,2.9793987  c0.0178986,1.3401012-0.4785004,2.6361008-1.387001,3.6215019c-0.4054031,0.4883003-0.9139023,0.8808975-1.4889984,1.149498  c-0.5750046,0.2686996-1.2024002,0.4067993-1.8371048,0.4043999c-0.5126953,0.0149994-1.0223999-0.0830002-1.4929962-0.2872009  c-0.4705048-0.2041969-0.8903046-0.5095978-1.2294998-0.8942986c-0.7230988-0.8406982-1.1035995-1.9225006-1.0659027-3.0307999  c-0.0317001-1.3391991,0.450798-2.6397991,1.3484039-3.6343002c0.4080963-0.4748993,0.9147949-0.855299,1.4846954-1.1147995  S76.6159973,26.4067001,77.2422028,26.4108009z M78.2953033,28.5296993c0-0.2696991,0.0898972-0.4493999,0.1026993-0.5649986  c0.0111008-0.0939007,0.0111008-0.1887016,0-0.2826004c0.0130997-0.2360001-0.059906-0.4687004-0.2054062-0.6548996  c-0.0668945-0.077301-0.1497955-0.139101-0.242897-0.1812c-0.0932007-0.0422001-0.1942978-0.0636005-0.2965012-0.0628014  c-0.1244965-0.0012989-0.2472,0.0285015-0.3572006,0.0868015c-0.1099014,0.0583992-0.2033997,0.1432991-0.2720947,0.2470989  c-0.2080002,0.3203011-0.3519058,0.6779003-0.4238052,1.0529995l-1.2841949,5.5093021  c-0.0031052,0.0513992-0.0031052,0.1027985,0,0.1540985c-0.0620041,0.2223015-0.1007996,0.4504013-0.1156006,0.6806984  c-0.0065994,0.2350998,0.0657959,0.4657021,0.2054977,0.6549034c0.0677032,0.0788994,0.1529007,0.1407967,0.2488022,0.1809998  c0.0957947,0.0401001,0.1996994,0.0572968,0.3033981,0.0501976c0.1259995,0.0000992,0.2501984-0.030201,0.3619003-0.088398  c0.1118011-0.0581017,0.207901-0.1422997,0.2801971-0.2455025c0.2134018-0.3174973,0.3577042-0.6763,0.4238052-1.0530968  L78.2953033,28.5296993z"/>
    <path class="st1" d="M82.6871033,34.4109993c0.1800995,0.3160019,0.4669952,0.5573006,0.8090973,0.6807022  c0.4553986,0.2073975,0.9506989,0.3125992,1.4511032,0.308197c0.4011993,0.030201,0.7979965-0.0990982,1.1044998-0.3596001  c0.1296997-0.1362,0.2296982-0.2977982,0.2937927-0.4746971c0.0641022-0.1767998,0.0909042-0.3650017,0.0786057-0.5527  c0-0.5778999-0.4365997-1.1044006-1.2842026-1.618103l-0.7062988-0.4108982  c-0.5486984-0.2957001-1.0332031-0.6973-1.425499-1.1814995c-0.2561035-0.3789005-0.3905029-0.8269005-0.3852997-1.2842007  c-0.0103989-0.4218006,0.074295-0.8404007,0.2476959-1.2250004s0.4310989-0.7251987,0.7540054-0.9967003  c0.7301941-0.6063995,1.658493-0.921999,2.6069946-0.8860989c0.8081055-0.0310001,1.6035004,0.2085991,2.2602005,0.6805992  c0.2713013,0.1853008,0.4927979,0.4344997,0.6451035,0.7257004c0.152298,0.2910995,0.2305984,0.6152,0.228096,0.9438  c0.0215988,0.3005009-0.0699997,0.5983009-0.2567978,0.8346996c-0.092598,0.1002007-0.2062988,0.1786995-0.332901,0.2297001  c-0.1264954,0.0510998-0.2628021,0.0734997-0.3991013,0.0657005C88.2037964,29.8966999,88.0318985,29.868,87.870903,29.8062  c-0.1611023-0.0618-0.3081055-0.1553993-0.4322052-0.2751999c-0.1181946-0.1226006-0.2108994-0.2674007-0.2726974-0.4262009  c-0.0616989-0.158699-0.0912018-0.3281994-0.0868988-0.4983997c-0.0199051-0.2903996,0.0667953-0.5781002,0.2439957-0.8090992  c0.0736008-0.1000004,0.1707001-0.1805,0.2826004-0.2341995c0.1119995-0.0538006,0.2355042-0.0792007,0.3596039-0.0740013h0.4365997  c-0.1858978-0.2475986-0.4403992-0.4351997-0.7320023-0.5394001c-0.3583984-0.1474991-0.7425995-0.2216988-1.1300964-0.2182999  c-0.3906021-0.0219002-0.7740021,0.1119995-1.0659027,0.3724003c-0.1304016,0.1305008-0.231102,0.2875004-0.2954025,0.4603004  c-0.0641937,0.1728992-0.0904999,0.3575001-0.077095,0.541399c0,0.5778999,0.4623947,1.1430016,1.3741989,1.6952  l0.3723984,0.2182999c0.5653992,0.330801,1.0623016,0.7667007,1.4639969,1.2842007  c0.2846069,0.4148006,0.4287033,0.9099007,0.4109039,1.4127007c0.0133972,0.4159012-0.0674973,0.8294983-0.2365036,1.2096977  c-0.1689987,0.3803024-0.4217987,0.7175026-0.7394943,0.9863014c-0.707901,0.5327988-1.5639038,0.8326988-2.4496002,0.8580017  c-0.885704,0.0252991-1.7574005-0.2252007-2.494606-0.7167015c-0.2858963-0.2016983-0.5190964-0.4692001-0.6799927-0.7798004  c-0.1609039-0.3106995-0.2448044-0.6554985-0.244606-1.0052986c-0.018898-0.3419991,0.0858994-0.6793022,0.2953033-0.9503021  c0.1027985-0.1142998,0.2302017-0.2036972,0.3724976-0.2616005c0.1424026-0.0577984,0.2961044-0.0825977,0.4494019-0.072298  c0.1720963-0.0135994,0.3451004,0.0104008,0.5069962,0.0701008c0.1620026,0.0597992,0.3091049,0.1539001,0.4311066,0.276001  c0.1220932,0.122097,0.2161942,0.2690964,0.2759933,0.4310989c0.0597,0.1618996,0.0837021,0.3348999,0.0701065,0.507  c0.0177994,0.3320007-0.0723038,0.6609001-0.2568054,0.9375c-0.0862961,0.110199-0.1978989,0.198101-0.3252945,0.2561989  c-0.1274033,0.0581017-0.2669067,0.0848007-0.4067001,0.0777016c-0.1616058-0.0096016-0.3213043-0.0399017-0.4752045-0.089901  L82.6871033,34.4109993z"/>
    <path class="st1" d="M94.6309967,26.4108009c0.5174026-0.0129013,1.0313034,0.0873985,1.5060043,0.2935982  c0.4746017,0.2063007,0.8985977,0.5137005,1.2422028,0.9007015c0.7340927,0.8248997,1.1205978,1.9016991,1.0786972,3.0051003  c0.0178986,1.3400993-0.4784012,2.6360989-1.3869019,3.6215c-0.4055023,0.4883003-0.9139023,0.8808975-1.4889984,1.149498  c-0.5751038,0.2686996-1.2024002,0.4067001-1.8370972,0.4043999c-0.5129013,0.0158997-1.0229034-0.0817986-1.4936066-0.2859993  c-0.4705963-0.2042999-0.8902969-0.5101013-1.2289963-0.8955002c-0.7245026-0.8491974-1.1007996-1.9412003-1.0530014-3.0564995  c-0.0354004-1.3570004,0.4679031-2.6728992,1.3998032-3.6599998c0.4045944-0.4673004,0.9057999-0.8412991,1.468895-1.096199  C93.4011002,26.5363998,94.0128021,26.406601,94.6309967,26.4108009z M95.6839981,28.5296993  c0-0.2696991,0.0899048-0.4493999,0.1027985-0.5649986c0.0128021-0.1156006,0-0.2055016,0-0.2826004  c0.0130005-0.2360001-0.0599976-0.4687004-0.2054977-0.6548996c-0.0669022-0.077301-0.1497955-0.139101-0.242897-0.1812  c-0.0931015-0.0422001-0.1943054-0.0636005-0.2965012-0.0628014c-0.1243973-0.0012989-0.2472,0.0285015-0.3571014,0.0868015  c-0.1099014,0.0583992-0.2034988,0.1432991-0.2721024,0.2470989c-0.2080994,0.3203011-0.3519974,0.6779003-0.4237976,1.0529995  l-1.2842026,5.5093021c-0.0030975,0.0513992-0.0030975,0.1027985,0,0.1540985  c-0.0620956,0.2223015-0.1007996,0.4504013-0.115593,0.6806984c-0.0131073,0.2360001,0.0598984,0.4687004,0.2053986,0.6549034  c0.065094,0.0793991,0.1476974,0.1426964,0.2411957,0.1850967c0.093605,0.0423012,0.1956024,0.0625,0.2982025,0.0589027  c0.1259995,0.0000992,0.2501984-0.030201,0.3619003-0.0883026c0.1118011-0.0580978,0.207901-0.1423988,0.2801971-0.2455978  c0.2080002-0.3203011,0.352005-0.6779022,0.4238052-1.0530014L95.6839981,28.5296993z"/>
    <path class="st1" d="M103.5039978,27.1427994c-0.4499969,2.7097015-0.8989944,5.1369019-1.2839966,7.2300987  c-0.3860016,2.0933037-0.8740005,4.071003-1.2850037,5.8689003h-3.7751999L97.2624969,39.8694  c0.1217041-0.0078011,0.2392044-0.0474014,0.3407059-0.1151009c0.1014938-0.0676003,0.1832962-0.1608009,0.2371979-0.2701988  c0.281601-0.5984993,0.4927979-1.2276993,0.629303-1.8749008l2.7222977-10.4664001h-1.5792999l0.1155014-0.5522003h1.5927963  c0.3280029-1.2210999,0.8950043-2.3647995,1.6689987-3.3646984c0.2610016-0.3416004,0.5950012-0.6212006,0.977005-0.8188  c0.3809967-0.1976013,0.8019943-0.3083,1.2319946-0.3241005c0.2400055-0.0030003,0.477005,0.0433006,0.6980057,0.1361008  c0.220993,0.0927982,0.4209976,0.2299995,0.5859985,0.4031982c0.3300018,0.3463001,0.5139999,0.8061008,0.5139999,1.2842007  c0.0189972,0.3619003-0.0849991,0.7194004-0.2949982,1.0146008c-0.0820007,0.1231003-0.1920013,0.223999-0.3220062,0.293499  c-0.1299973,0.0695-0.276001,0.1055012-0.4229965,0.1046009c-0.151001,0.0024986-0.3000031-0.0298004-0.435997-0.0944004  c-0.1360016-0.0646-0.2550049-0.1597996-0.3480072-0.2779999c-0.2049942-0.2779999-0.3089981-0.6179008-0.2949982-0.9631996  c-0.0130005-0.3494015,0.0810013-0.6942997,0.2700043-0.9888c0.0680008-0.1163998,0.1660004-0.2130013,0.2829971-0.2805004  c0.1169968-0.0675011,0.2490005-0.1035995,0.3840027-0.1047993c-0.0790024-0.0243015-0.1610031-0.0415001-0.2440033-0.0514011  c-0.1060028-0.0194988-0.2139969-0.0194988-0.3209991,0c-0.3460007,0-0.6419983,0.2312012-0.8600006,0.6935005  c-0.3809967,1.1173992-0.6480026,2.2705002-0.7959976,3.4417h1.7589951l-0.1409988,0.5522003L103.5039978,27.1427994z"/>
    <path class="st1" d="M107.0230026,27.1425991h-1.387001l0.1289978-0.5521984h1.3740005l1.0400009-4.3663998h2.7999954  l-1.0409927,4.3663998h1.4389954l-0.1289978,0.5521984h-1.4250031l-1.5410004,6.4853001  c0,0.1884003-0.026001,0.3296013-0.0769958,0.4238014c-0.0070038,0.0769005-0.0070038,0.1541977,0,0.2312012  c-0.0040054,0.1437988,0.0309982,0.2859993,0.1019974,0.4109001c0.0279999,0.0472984,0.0670013,0.0863991,0.1139984,0.1134987  c0.0480042,0.0270996,0.1010056,0.0410995,0.1560059,0.0405998c0.2309952,0,0.5009995-0.2825012,0.8089981-0.8218994  c0.3850021-0.7451019,0.7029953-1.5228996,0.9499969-2.3244019l0.2060013,0.1156006  c-0.2360001,1.077301-0.6719971,2.1008987-1.2839966,3.0178986c-0.2070007,0.2871017-0.4790039,0.5208015-0.7940063,0.6816025  c-0.3149948,0.1608009-0.6629944,0.2440987-1.0169983,0.243c-0.2399979,0.0130005-0.4789963-0.0275002-0.7009964-0.1185989  c-0.2229996-0.0910034-0.4220047-0.2304001-0.5830002-0.4079018c-0.3310013-0.4188004-0.4950027-0.9445-0.4630051-1.4768982  c0.0040054-0.2926025,0.0300064-0.5845032,0.0770035-0.8732033c0-0.3339005,0.1549988-0.7705994,0.2959976-1.2842979  L107.0230026,27.1425991z"/>
    <path class="st1" d="M114.8949966,11.4371004c0.6120071,0.0045996,1.2130051,0.1636,1.7470016,0.4622993  c0.5390015,0.3001003,0.9840012,0.7449007,1.2840042,1.2842007c0.3079987,0.5447998,0.4720001,1.1592999,0.4749985,1.7851  c-0.0070038,0.6170998-0.1709976,1.2222996-0.4749985,1.7593002c-0.2939987,0.5440998-0.7400055,0.9904995-1.2840042,1.2842999  c-0.5390015,0.3111-1.1500015,0.4748001-1.7719955,0.4748001c-0.6220016,0-1.2340012-0.1637001-1.7720032-0.4748001  c-0.5410004-0.2985001-0.9860001-0.7437-1.284996-1.2842999c-0.3100052-0.5345001-0.4740067-1.1413002-0.4750061-1.7593002  c0.0019989-0.6277008,0.1710052-1.2435007,0.487999-1.7851c0.2990036-0.5406008,0.7440033-0.9858007,1.2840042-1.2842007  C113.6559982,11.5959997,114.2710037,11.4369001,114.8949966,11.4371004z M114.8949966,12.0277996  c-0.5119934,0.0031004-1.0159988,0.1356001-1.4639969,0.3853006c-0.4690018,0.2510996-0.8529968,0.6353998-1.1039963,1.1043997  c-0.2670059,0.4512997-0.4090042,0.9654999-0.4110031,1.4897003c0.0039978,0.5142002,0.1409988,1.0184994,0.3980026,1.4640007  c0.2579956,0.4637985,0.6409988,0.8462982,1.1049957,1.1043987c0.4500046,0.2551994,0.9580002,0.3922005,1.4759979,0.3980999  c0.5139999-0.0058002,1.0180054-0.1429005,1.4640045-0.3980999c0.4669952-0.2546997,0.8499985-0.6380997,1.1049957-1.1043987  c0.2570038-0.4455013,0.3940048-0.9498005,0.3980026-1.4640007c-0.0130005-0.5047998-0.1500015-0.9987001-0.3980026-1.4383001  c-0.2599945-0.4673004-0.6469955-0.8505001-1.1169968-1.1044998  C115.9079971,12.1983995,115.4079971,12.0481005,114.8949966,12.0277996z M113.3290024,16.9720001V13.1194h1.2839966  c0.3339996-0.0165005,0.6679993,0.0226002,0.9889984,0.1155996c0.1920013,0.0668001,0.3580017,0.1918001,0.4750061,0.3575001  c0.1179962,0.1658001,0.1800003,0.3640003,0.1800003,0.5671005c0.0009995,0.2733002-0.1050034,0.5362997-0.2960052,0.7319994  c-0.2129974,0.2104006-0.4970016,0.3339005-0.7959976,0.3468008c0.1210022,0.0435991,0.2310028,0.1137991,0.3209991,0.2053995  c0.2249985,0.2261,0.4199982,0.4808998,0.5780029,0.7577l0.461998,0.7577h-0.7570038l-0.3339996-0.6163998  c-0.1609955-0.3339996-0.3829956-0.6346998-0.6549988-0.8860998c-0.1469955-0.1019001-0.322998-0.1515999-0.5009995-0.1413002  h-0.3600006v1.6566H113.3290024z M113.9449997,14.8530998h0.7450027c0.2579956,0.0250006,0.5179977-0.0286999,0.7449951-0.1540995  c0.0630035-0.0504999,0.112999-0.1152,0.1470032-0.1888008c0.0329971-0.0737,0.048996-0.1541996,0.0449982-0.2349997  c0.0039978-0.1097002-0.0270004-0.2177-0.0889969-0.3081999c-0.0670013-0.0916004-0.1620026-0.1590996-0.2700043-0.1927004  c-0.1989975-0.0646-0.4079971-0.0906992-0.6169968-0.0769997h-0.7060013V14.8530998z"/>
</svg>