<svg xmlns="http://www.w3.org/2000/svg" viewBox="0 0 162 40"><path fill="#C4C4C4" d="M62.463 21.335l.615-1.084h.493l.271 4.323h-.477c-.367-1.242-.8-2.142-1.299-2.699a2.87 2.87 0 00-2.185-1.062 2.843 2.843 0 00-1.727.537 3.333 3.333 0 00-1.148 1.603 7.178 7.178 0 00-.4 2.726 6.9 6.9 0 00.4 2.659c.204.62.589 1.163 1.105 1.562.483.338 1.06.513 1.649.501a2.636 2.636 0 001.985-.719 2.55 2.55 0 00.702-1.841v-1.02a.434.434 0 00-.188-.375 1.099 1.099 0 00-.615-.132h-.923v-.513h4.269v.513h-.332a.942.942 0 00-.588.141.509.509 0 00-.176.414v4.12h-.487a39.347 39.347 0 00-.551-1.842 3.88 3.88 0 01-1.311 1.351 3.31 3.31 0 01-1.723.451 4.857 4.857 0 01-2.545-.703 5.413 5.413 0 01-2.36-3.236 5.398 5.398 0 01.513-3.969 5.353 5.353 0 011.868-2.035 4.433 4.433 0 012.398-.755 3.77 3.77 0 011.317.231 5.5 5.5 0 011.45.853zm9.849 8.865l.113.203c0 .387-.467.344-.904.344-.333 0-1-.019-1.231-.191-.231-.172-.323-.371-.496-.826-.348.398-.765.73-1.231.98a3.002 3.002 0 01-1.271.245 2.459 2.459 0 01-1.609-.455 1.445 1.445 0 01-.551-1.164c0-.713.42-1.305 1.259-1.777a8.922 8.922 0 013.351-.943v-1.041a1.22 1.22 0 00-.449-.952 1.657 1.657 0 00-1.139-.396 2.195 2.195 0 00-1.102.264c-.22.133-.329.263-.329.39a.725.725 0 00.175.344.92.92 0 01.213.522.724.724 0 01-.213.537.765.765 0 01-.557.209.83.83 0 01-.805-.543.864.864 0 01-.057-.345c0-.483.273-.925.819-1.327a3.544 3.544 0 012.155-.613 2.899 2.899 0 011.874.528 1.624 1.624 0 01.646 1.296v3.751c-.012.227.045.451.163.645a.616.616 0 00.385.27c.262.036.527.05.791.045zm-2.558-3.1c-1.243.172-2.125.45-2.643.835a1.465 1.465 0 00-.579 1.247c-.017.323.093.639.308.881a1.022 1.022 0 00.785.306 2.013 2.013 0 001.502-.654 2.274 2.274 0 00.637-1.646l-.01-.969z"/><path fill="#C4C4C4" d="M72.066 23.882l1.97-.125c.103.481.173.968.212 1.458a3.785 3.785 0 011.117-1.13 2.379 2.379 0 011.231-.328c.423-.016.839.115 1.175.371.355.323.604.746.714 1.213a3.72 3.72 0 011.093-1.188 2.342 2.342 0 011.313-.393 1.748 1.748 0 011.407.556c.423.537.641 1.208.616 1.891v3.405a.485.485 0 00.153.418c.18.125.397.185.616.169h.323v.549h-3.459v-.549h.345a.988.988 0 00.616-.147.53.53 0 00.175-.442V26.2a1.709 1.709 0 00-.373-1.182 1.242 1.242 0 00-.981-.417 1.49 1.49 0 00-.835.245 1.64 1.64 0 00-.585.7 2.657 2.657 0 00-.307 1.109v2.956a.564.564 0 00.163.446.737.737 0 00.499.141h.471v.549h-3.521v-.549h.407a.886.886 0 00.557-.147.457.457 0 00.184-.375v-3.162a2.373 2.373 0 00-.357-1.459 1.156 1.156 0 00-.96-.454 1.434 1.434 0 00-1.197.528 2.712 2.712 0 00-.593 1.744v2.738a.535.535 0 00.138.433c.183.116.399.17.616.153h.353v.549h-3.471v-.549h.52a.644.644 0 00.453-.147.503.503 0 00.157-.374v-4.497a.736.736 0 00-.191-.556 1.316 1.316 0 00-.763-.233v-.508z"/><path fill="#C4C4C4" d="M84.159 23.883l2.462-.08v5.904a.432.432 0 00.117.344c.118.1.27.153.425.147h.779v.55h-4.205v-.549h1.013a.635.635 0 00.253-.028.633.633 0 00.22-.128.636.636 0 00.151-.457v-4.323a.788.788 0 00-.233-.614 1.03 1.03 0 00-.699-.209h-.28l-.003-.557zm1.624-3.245a.797.797 0 01.579.249.806.806 0 01.186.896.82.82 0 11-1.151-1.045.815.815 0 01.383-.102h.003z"/><path fill="#C4C4C4" d="M87.737 23.883l2.284-.139c.103.497.171 1.001.207 1.507a3.27 3.27 0 011.089-1.12 2.733 2.733 0 011.422-.375 2.25 2.25 0 011.145.267c.328.201.587.496.742.847.19.405.286.848.28 1.296v3.34a.696.696 0 00.17.531.815.815 0 00.567.157h.2v.55H92.78v-.55h.061c.237.023.473-.031.677-.153a.56.56 0 00.191-.46v-2.939a2.707 2.707 0 00-.308-1.421 1.371 1.371 0 00-1.249-.66 1.73 1.73 0 00-1.386.667 2.625 2.625 0 00-.553 1.737v2.542a.684.684 0 00.172.531c.164.12.367.176.569.157h.193v.55h-3.345v-.55h.477a.88.88 0 00.548-.147.45.45 0 00.188-.368v-4.427a.87.87 0 00-.24-.667.955.955 0 00-.687-.227h-.353l.002-.476zm13.316.384c.489-.495 1.846-1.228 2.296-1.228a.933.933 0 01.698.193c.163.157-.129.509-.129.733a.637.637 0 01-.34.582.496.496 0 01-.211.047c-.279 0-.468-.171-.567-.513-.04-.147-.104-.217-.197-.217a3.705 3.705 0 00-1.206.7c.178.23.324.483.434.752.08.219.119.451.117.684.008.396-.099.787-.308 1.124a2.599 2.599 0 01-1.025.86 2.96 2.96 0 01-1.369.374h-.8a2.414 2.414 0 00-1.13.175.61.61 0 00-.28.533.493.493 0 00.227.44c.268.126.564.179.859.153l1.813-.037c.915 0 1.575.153 1.979.457a1.493 1.493 0 01.616 1.256 1.887 1.887 0 01-.69 1.48c-.642.567-1.599.85-2.871.85-1.053 0-1.833-.193-2.342-.58a1.287 1.287 0 01-.616-1.02 1.066 1.066 0 01.385-.791 2.643 2.643 0 011.295-.534 2.438 2.438 0 01-1.095-.516 1.122 1.122 0 01-.367-.848 1.23 1.23 0 01.308-.817 2.328 2.328 0 011.031-.599 2.558 2.558 0 01-.939-.832 2.004 2.004 0 01-.307-1.117 2.113 2.113 0 01.785-1.67 3.032 3.032 0 012.04-.673c.336-.001.67.049.991.147.325.108.633.258.915.452zm-1.5 6.483c-.9 0-1.543.125-1.927.375a1.066 1.066 0 00-.575.903.897.897 0 00.433.783 2.937 2.937 0 001.632.381 3.507 3.507 0 001.902-.417c.426-.279.64-.585.64-.921a.915.915 0 00-.197-.559 1.232 1.232 0 00-.631-.396 4.528 4.528 0 00-1.274-.147l-.003-.002zm-.433-6.609a1.38 1.38 0 00-1.081.478c-.304.38-.455.859-.425 1.345a2.166 2.166 0 00.425 1.433 1.42 1.42 0 002.17.001c.306-.407.456-.911.422-1.419a2.015 2.015 0 00-.428-1.357 1.368 1.368 0 00-1.081-.482h-.002z"/><path fill="#C4C4C4" d="M103.607 23.078a.797.797 0 01.578.249.809.809 0 01.25.586.772.772 0 01-.244.571.816.816 0 01-.925.152.816.816 0 01-.467-.814.82.82 0 01.805-.745h.003zM50.695 8.735h8.309l.207 2.806h-.493c-.193-1.154-.219-1.391-.643-1.842-.425-.451-1.259-.405-1.939-.405h-2.127a.497.497 0 00-.388.142.617.617 0 00-.132.423v3.559h.923a1.546 1.546 0 001.213-.534 2.586 2.586 0 00.501-1.642h.508v5.019h-.508c-.025-.831-.193-1.426-.508-1.784a1.62 1.62 0 00-1.286-.537h-.849v4.025a.44.44 0 00.157.36c.156.097.34.141.523.125h1.68c1.825 0 2.875-.595 3.155-2.92h.529l-.185 3.469h-8.648v-.547h.459a.942.942 0 00.615-.15.55.55 0 00.176-.436V9.847a.537.537 0 00-.154-.423.706.706 0 00-.484-.141h-.615l.004-.548z"/><path fill="#C4C4C4" d="M58.853 12.137h3.758v.497a2.229 2.229 0 00-.861.12.332.332 0 00-.188.307.773.773 0 00.073.307l1.825 4.053 1.662-3.93a.605.605 0 00.037-.206c0-.356-.352-.578-1.056-.666v-.497h2.85v.497a1.378 1.378 0 00-.689.233 1.229 1.229 0 00-.397.513l-2.521 5.832h-.396l-2.708-5.987a.995.995 0 00-.357-.451 3.538 3.538 0 00-1.028-.135l-.004-.487zm10.751-.203a3.096 3.096 0 012.334 1.001 3.68 3.68 0 01.945 2.633 4.06 4.06 0 01-.422 1.922 3.147 3.147 0 01-1.203 1.256 3.262 3.262 0 01-1.687.46 2.957 2.957 0 01-2.265-1.01 4.173 4.173 0 010-5.254 2.996 2.996 0 012.298-1.008zm0 .522a1.604 1.604 0 00-1.351.744c-.353.495-.529 1.278-.529 2.348 0 1.071.175 1.867.526 2.389a1.578 1.578 0 001.354.756 1.634 1.634 0 001.392-.756c.355-.503.533-1.322.533-2.456 0-1.06-.176-1.827-.527-2.299a1.654 1.654 0 00-1.398-.728v.002z"/><path fill="#C4C4C4" d="M75.168 8.609v9.382a.399.399 0 00.127.306c.128.1.287.153.449.148h.443v.549h-3.333v-.543h.407a.697.697 0 00.501-.163.614.614 0 00.166-.454V10.04a.661.661 0 00-.198-.534.981.981 0 00-.667-.233h-.616v-.55l2.721-.114zm3.488 3.405v4.55c-.029.468.122.929.422 1.289a1.403 1.403 0 001.089.454 1.786 1.786 0 001.397-.664c.39-.463.595-1.055.575-1.661v-2.567a.642.642 0 00-.252-.547 1.811 1.811 0 00-.973-.215v-.513l2.417-.122v5.633a.772.772 0 00.222.599c.17.147.391.222.615.209h.434v.482l-2.314.052-.148-1.347c-.347.43-.763.799-1.231 1.093-.38.233-.816.36-1.261.365a2.14 2.14 0 01-1.564-.614c-.425-.409-.637-1.105-.637-2.087v-2.987a.673.673 0 00-.308-.614 1.914 1.914 0 00-.905-.16v-.513l2.422-.115zm7.337-2.674h.492v2.8h4.189v.663h-4.189v4.402c-.021.315.075.627.271.875a.882.882 0 00.689.307 1.046 1.046 0 00.853-.46c.282-.461.425-.995.412-1.535h.493c-.029.913-.234 1.59-.616 2.032a1.915 1.915 0 01-1.504.663 1.85 1.85 0 01-1.333-.463 1.62 1.62 0 01-.48-1.228v-4.593h-1.196v-.512a1.922 1.922 0 001.231-.682 3.861 3.861 0 00.688-2.269z"/><path fill="#C4C4C4" d="M89.193 12.137l2.74-.08v5.903a.448.448 0 00.117.344.615.615 0 00.425.147h.495v.55h-3.345v-.55h.443a.624.624 0 00.474-.156.64.64 0 00.151-.457v-4.191a.783.783 0 00-.233-.613 1.021 1.021 0 00-.699-.209h-.567v-.688zm1.909-3.245a.802.802 0 01.582.248.792.792 0 01.252.593.784.784 0 01-.242.57.826.826 0 01-1.287-.181.812.812 0 01.155-1.007.824.824 0 01.545-.218l-.005-.005zm5.328 3.042a3.08 3.08 0 012.333 1.002 3.68 3.68 0 01.944 2.633 4.048 4.048 0 01-.421 1.922 3.147 3.147 0 01-1.203 1.256 3.262 3.262 0 01-1.687.46 2.971 2.971 0 01-2.265-1.009 4.168 4.168 0 010-5.254 2.984 2.984 0 011.039-.757 2.98 2.98 0 011.26-.253zm0 .522a1.597 1.597 0 00-1.351.744c-.353.495-.529 1.278-.529 2.348 0 1.071.175 1.867.527 2.389a1.583 1.583 0 001.353.755 1.637 1.637 0 001.391-.755c.355-.503.533-1.322.533-2.456 0-1.06-.176-1.827-.527-2.299a1.651 1.651 0 00-1.397-.727v.001z"/><path fill="#C4C4C4" d="M99.563 12.137l2.284-.137c.102.499.172 1.003.206 1.511.267-.456.64-.841 1.09-1.121.43-.253.922-.383 1.421-.375a2.27 2.27 0 011.145.267c.328.201.587.497.742.848.19.405.286.848.28 1.295v3.34a.714.714 0 00.169.531c.163.12.365.176.567.157h.2v.549h-3.06v-.549h.062a1.11 1.11 0 00.677-.153.561.561 0 00.191-.461V14.9a2.697 2.697 0 00-.308-1.421 1.367 1.367 0 00-1.25-.66 1.721 1.721 0 00-1.384.666 2.62 2.62 0 00-.554 1.737v2.542a.684.684 0 00.172.531c.164.12.366.175.569.157h.194v.549h-3.077v-.549h.193a.88.88 0 00.548-.147.453.453 0 00.188-.365v-4.43a.87.87 0 00-.24-.667.961.961 0 00-.687-.227h-.351l.013-.479z"/><linearGradient id="a" gradientUnits="userSpaceOnUse" x1="39.942" y1="24.955" x2="38.547" y2="11.881" gradientTransform="matrix(1 0 0 -1 0 39.89)"><stop offset="0" stop-color="#dadcdf"/><stop offset="1" stop-color="#a8a8a8"/></linearGradient><path fill="url(#a)" d="M31.682 9.061c7.009-3.733 16.055.206 16.738 9.706-12.996 1.017-14.564-4.82-16.736-9.706h-.002z"/><linearGradient id="b" gradientUnits="userSpaceOnUse" x1="-163.237" y1="-2818.215" x2="-181.256" y2="-3069.376" gradientTransform="matrix(1 0 0 -1 0 39.89)"><stop offset="0" stop-color="#dadcdf"/><stop offset="1" stop-color="#a8a8a8"/></linearGradient><path fill="url(#b)" d="M31.682 29.432c7.007 3.733 16.054-.207 16.738-9.706-12.996-1.047-14.564 4.831-16.736 9.706h-.002z"/><radialGradient id="c" cx="-192.8" cy="382.764" r="1.915" gradientTransform="matrix(6.9896 0 0 -6.9719 1383.612 2685.128)" gradientUnits="userSpaceOnUse"><stop offset="0" stop-color="#c2c2c2"/><stop offset=".22" stop-color="#bdbdbd"/><stop offset=".46" stop-color="#b0b0b0"/><stop offset=".72" stop-color="#999"/><stop offset=".99" stop-color="#7a7a7a"/><stop offset="1" stop-color="#787878"/></radialGradient><path fill="url(#c)" d="M45.985 12.027a11.22 11.22 0 00-14.327-2.939c1.951 4.372 3.412 9.504 13.025 9.804a10.932 10.932 0 001.302-6.849v-.016zM34.021 24.613c.277 0 .554.041.838.041 1.85.002 3.672-.453 5.304-1.325a11.185 11.185 0 004.043-3.672c-5.77.276-8.487 2.37-10.185 4.956z"/><path fill="#A3A3A3" d="M47.09 29.748h-.299v-.459h.126a.68.68 0 01.294.029.208.208 0 01.115.194.226.226 0 01-.162.222.228.228 0 01-.097.008l.023.006zm.511-.229a.436.436 0 00-.166-.363.642.642 0 00-.455-.103h-.47v1.47h.282v-.546h.247l.294.546h.317l-.328-.574a.398.398 0 00.293-.402l-.014-.028zm-.563 1.452a1.152 1.152 0 01-1.015-1.691 1.15 1.15 0 011.746-.345 1.157 1.157 0 01.423.887 1.16 1.16 0 01-.712 1.062 1.164 1.164 0 01-.442.087zm0-2.556a1.43 1.43 0 00-1.259 2.099 1.42 1.42 0 00.981.724c.277.055.563.026.824-.082s.484-.291.642-.524a1.42 1.42 0 00.073-1.466 1.419 1.419 0 00-1.261-.75v-.001z"/></svg>