<svg width="147" height="40" viewBox="0 0 147 40" fill="none" xmlns="http://www.w3.org/2000/svg">
<path d="M65.3751 21.2577C65.3751 22.0145 65.9701 22.6095 66.7099 22.6095C66.8725 22.6095 67.0343 22.5738 67.431 22.429L67.9894 23.8175C67.4488 24.0337 67.0888 24.1061 66.7099 24.1061C66.3357 24.1068 65.965 24.0336 65.6191 23.8907C65.2732 23.7478 64.9589 23.538 64.6943 23.2734C64.4296 23.0087 64.2199 22.6945 64.077 22.3486C63.9341 22.0027 63.8609 21.632 63.8616 21.2577V12.0443H65.376V14.3521H67.9894V15.8487H65.376V21.2577H65.3751ZM68.9874 21.2577V16.6412C68.9874 15.0544 70.2668 13.7919 71.8357 13.7919C73.4046 13.7919 74.6841 15.0544 74.6841 16.6412V21.2568C74.6848 21.6311 74.6116 22.0018 74.4687 22.3477C74.3258 22.6936 74.116 23.0078 73.8514 23.2725C73.5868 23.5371 73.2725 23.7469 72.9266 23.8898C72.5807 24.0327 72.21 24.1059 71.8357 24.1052C71.4615 24.1059 71.0908 24.0327 70.7449 23.8898C70.399 23.7469 70.0847 23.5371 69.8201 23.2725C69.5554 23.0078 69.3456 22.6936 69.2028 22.3477C69.0599 22.0018 68.9867 21.6311 68.9874 21.2568V21.2577ZM71.8357 15.2885C71.1147 15.2885 70.5018 15.9014 70.5018 16.6412V21.2568C70.5018 21.9957 71.1147 22.6086 71.8357 22.6086C72.5746 22.6086 73.1697 22.0136 73.1697 21.2568V16.6412C73.1697 15.8835 72.5746 15.2885 71.8357 15.2885V15.2885ZM83.2533 16.3356C83.2533 15.7763 82.7851 15.2903 82.2079 15.2903C81.6495 15.2903 81.1626 15.7763 81.1626 16.3356V23.9077H79.666V16.3356C79.666 15.7763 79.197 15.2903 78.6207 15.2903C78.0614 15.2903 77.5753 15.7763 77.5753 16.3356V23.9077H76.0788V16.3356C76.0783 16.0016 76.1437 15.6708 76.2713 15.3622C76.3989 15.0535 76.5861 14.7731 76.8222 14.5369C77.0583 14.3007 77.3387 14.1134 77.6473 13.9857C77.9559 13.858 78.2867 13.7925 78.6207 13.7928C78.9553 13.7902 79.287 13.8543 79.5966 13.9813C79.9062 14.1084 80.1873 14.2958 80.4237 14.5326C80.6553 14.2947 80.933 14.1064 81.2397 13.9792C81.5465 13.8521 81.8759 13.7886 82.2079 13.7928C82.5434 13.7905 82.8759 13.8545 83.1865 13.9812C83.4971 14.108 83.7795 14.2949 84.0175 14.5312C84.2555 14.7676 84.4444 15.0487 84.5733 15.3584C84.7022 15.6681 84.7686 16.0002 84.7686 16.3356V23.9077H83.2533V16.3356V16.3356ZM92.8276 16.6412C92.828 16.4659 92.7937 16.2923 92.7268 16.1303C92.6599 15.9683 92.5617 15.8211 92.4377 15.6972C92.3138 15.5732 92.1666 15.475 92.0046 15.4081C91.8426 15.3412 91.669 15.3069 91.4937 15.3072C90.7727 15.3072 90.1598 15.9023 90.1598 16.6421V23.9077H88.6444V10.1689H90.1598V14.1359C90.5684 13.9111 91.0272 13.793 91.4937 13.7928C91.868 13.7921 92.2388 13.8653 92.5847 14.0083C92.9307 14.1512 93.245 14.3611 93.5097 14.6258C93.7743 14.8906 93.9841 15.2049 94.1269 15.551C94.2698 15.897 94.3429 16.2678 94.342 16.6421V23.9077H92.8276V16.6412V16.6412ZM95.6858 21.2577V16.6412C95.685 16.2669 95.7581 15.8961 95.9009 15.5501C96.0438 15.2041 96.2535 14.8897 96.5182 14.6249C96.7828 14.3602 97.0971 14.1503 97.4431 14.0074C97.7891 13.8645 98.1598 13.7912 98.5342 13.7919C98.9085 13.7912 99.2793 13.8645 99.6252 14.0074C99.9712 14.1503 100.286 14.3602 100.55 14.6249C100.815 14.8897 101.025 15.2041 101.167 15.5501C101.31 15.8961 101.383 16.2669 101.383 16.6412V21.2568C101.383 21.6311 101.31 22.0018 101.167 22.3477C101.024 22.6936 100.814 23.0078 100.55 23.2725C100.285 23.5371 99.9709 23.7469 99.625 23.8898C99.2791 24.0327 98.9084 24.1059 98.5342 24.1052C98.1599 24.1059 97.7892 24.0327 97.4433 23.8898C97.0974 23.7469 96.7831 23.5371 96.5185 23.2725C96.2539 23.0078 96.0441 22.6936 95.9012 22.3477C95.7583 22.0018 95.6851 21.6311 95.6858 21.2568V21.2577ZM98.5342 15.2885C97.8131 15.2885 97.2002 15.9014 97.2002 16.6412V21.2568C97.2002 21.9957 97.8131 22.6086 98.5342 22.6086C99.2731 22.6086 99.8681 22.0136 99.8681 21.2568V16.6412C99.8681 15.8835 99.2731 15.2885 98.5342 15.2885V15.2885ZM105.571 15.2894C104.85 15.2894 104.237 15.9023 104.237 16.6421V23.9077H102.74V16.6412C102.737 16.2678 102.808 15.8976 102.949 15.5518C103.09 15.2061 103.298 14.8917 103.561 14.6268C103.824 14.3619 104.137 14.1517 104.482 14.0084C104.827 13.8652 105.197 13.7916 105.57 13.7919C106.562 13.7919 107.5 14.3146 108.112 15.3609L106.832 16.1176C106.472 15.5413 106.057 15.2885 105.57 15.2885L105.571 15.2894ZM76.4719 31.0894V28.4617C76.4719 27.847 76.9651 27.3538 77.5798 27.3538C78.023 27.3538 78.4223 27.6192 78.6314 28.0945L78.1436 28.3035C78.023 28.0176 77.8076 27.8854 77.5798 27.8854C77.4262 27.8847 77.2785 27.945 77.1693 28.053C77.0601 28.1611 76.9982 28.3081 76.9973 28.4617V31.0894C76.9989 31.2434 77.0607 31.3908 77.1696 31.4998C77.2785 31.6088 77.4257 31.6709 77.5798 31.6728C77.7339 31.6709 77.8811 31.6088 77.99 31.4998C78.0988 31.3908 78.1607 31.2434 78.1623 31.0894V30.5193H77.3198V29.9877H78.6877V31.0894C78.6877 31.7041 78.1936 32.1973 77.5798 32.1973C76.9651 32.1973 76.4719 31.7041 76.4719 31.0894ZM82.7351 30.6525H81.5763V32.1347H81.05V28.4742C81.05 27.8604 81.5441 27.3663 82.1579 27.3663C82.7726 27.3663 83.2667 27.8604 83.2667 28.4742V32.1347H82.7351V30.6525V30.6525ZM82.1588 27.8917C82.0045 27.8924 81.8567 27.954 81.7477 28.0631C81.6386 28.1722 81.577 28.3199 81.5763 28.4742V30.1271H82.7351V28.4742C82.7358 28.3206 82.6755 28.1729 82.5675 28.0637C82.4594 27.9545 82.3124 27.8926 82.1588 27.8917V27.8917ZM88.0038 29.0192L87.2694 31.134H86.9781L86.2491 29.0192V32.1347H85.7237V27.4101H86.2553L87.1238 29.9431L87.9976 27.4101H88.5292V32.1347H88.0038V29.0192ZM91.3722 27.4101H91.8975V32.1347H91.3722V27.4101ZM95.2293 28.962V32.1338H94.6976V27.4101H95.2158L96.3881 30.5953V27.4101H96.9134V32.1347H96.3943L95.2293 28.962ZM99.3445 31.0894V28.4617C99.3445 27.847 99.8395 27.3538 100.453 27.3538C100.896 27.3538 101.296 27.6192 101.505 28.0945L101.017 28.3035C100.896 28.0176 100.681 27.8854 100.454 27.8854C100.378 27.8849 100.303 27.8995 100.232 27.9282C100.162 27.9569 100.097 27.9992 100.043 28.0527C99.989 28.1062 99.9459 28.1699 99.9163 28.2401C99.8867 28.3102 99.8713 28.3855 99.8708 28.4617V31.0894C99.8724 31.2434 99.9343 31.3908 100.043 31.4998C100.152 31.6088 100.299 31.6709 100.453 31.6728C100.607 31.6709 100.755 31.6088 100.863 31.4998C100.972 31.3908 101.034 31.2434 101.036 31.0894V30.5193H100.194V29.9877H101.561V31.0894C101.561 31.7041 101.068 32.1973 100.453 32.1973C99.8395 32.1973 99.3454 31.7041 99.3454 31.0894" fill="white"/>
<path d="M37.71 10.6488C32.787 15.5378 32.7602 23.4905 37.6492 28.4126C37.2291 27.9677 36.9994 27.3763 37.009 26.7645C37.0187 26.1526 37.2671 25.5688 37.7011 25.1375C38.1351 24.7061 38.7205 24.4614 39.3323 24.4555C39.9442 24.4496 40.5342 24.683 40.9764 25.1059C39.5056 23.625 38.6833 21.6205 38.6905 19.5333C38.694 18.4998 38.901 17.4772 39.2998 16.5237C39.6985 15.5703 40.2812 14.7047 41.0144 13.9765C41.7477 13.2482 42.6172 12.6715 43.5734 12.2792C44.5295 11.887 45.5535 11.6869 46.587 11.6905C48.6742 11.6976 50.673 12.5335 52.1438 14.0144L52.1447 14.0162C52.5831 14.4577 53.1789 14.7069 53.801 14.7091C54.4232 14.7113 55.0207 14.4662 55.4622 14.0278C55.9036 13.5894 56.1528 12.9937 56.155 12.3715C56.1572 11.7494 55.9121 11.1519 55.4738 10.7104C54.3077 9.53303 52.9194 8.59886 51.3895 7.96207C49.8597 7.32527 48.2186 6.99852 46.5615 7.00074C43.3611 7.00074 40.1598 8.21585 37.71 10.6488" fill="url(#paint0_linear)"/>
<path d="M55.4623 14.0267C55.0212 14.4648 54.4242 14.7099 53.8024 14.7081C53.1807 14.7063 52.5851 14.4576 52.1467 14.0168C52.8749 14.7501 53.4517 15.6196 53.8439 16.5758C54.2361 17.5319 54.4362 18.5559 54.4327 19.5894C54.4291 20.6229 54.2221 21.6455 53.8233 22.5989C53.4246 23.5524 52.842 24.418 52.1087 25.1462C51.3754 25.8745 50.5059 26.4512 49.5498 26.8435C48.5936 27.2357 47.5696 27.4358 46.5361 27.4322C44.449 27.4251 42.4501 26.5892 40.9793 25.1083L40.9784 25.1065C40.9703 25.0984 40.9614 25.0922 40.9543 25.0841C40.9045 25.0352 40.8526 24.9884 40.7988 24.9439L40.7943 24.9403C40.735 24.8917 40.6733 24.8461 40.6094 24.8036L40.5978 24.7964C40.537 24.7563 40.4744 24.719 40.4101 24.6848L40.395 24.6776C40.0605 24.5041 39.6893 24.4136 39.3125 24.4136C38.9358 24.4136 38.5645 24.5041 38.2301 24.6776C38.2069 24.6901 38.1854 24.7044 38.1622 24.7178C37.9789 24.8204 37.8103 24.9472 37.661 25.0949C37.2196 25.5333 36.9705 26.1291 36.9683 26.7512C36.9661 27.3733 37.2111 27.9708 37.6493 28.4123C42.5384 33.3353 50.4911 33.3621 55.4132 28.473C60.3352 23.584 60.3629 15.6313 55.4739 10.7092C55.9122 11.1507 56.1572 11.7482 56.155 12.3703C56.1528 12.9924 55.9037 13.5882 55.4623 14.0267" fill="url(#paint1_linear)"/>
<path d="M112.651 16.6972C112.651 15.944 112.025 15.3186 111.29 15.3186C110.537 15.3186 109.93 15.9262 109.93 16.6972V24.1058H108.385V16.6972C108.385 15.08 109.691 13.7935 111.29 13.7935C112.889 13.7935 114.176 15.08 114.176 16.6972V24.1058H112.651V16.6972V16.6972Z" fill="white"/>
<defs>
<linearGradient id="paint0_linear" x1="34.0003" y1="17.7071" x2="56.1546" y2="17.7071" gradientUnits="userSpaceOnUse">
<stop stop-color="#223B86"/>
<stop offset="0.29" stop-color="#26B1E7"/>
<stop offset="1" stop-color="#C7E3F8"/>
</linearGradient>
<linearGradient id="paint1_linear" x1="36.9676" y1="21.4156" x2="59.1228" y2="21.4156" gradientUnits="userSpaceOnUse">
<stop stop-color="#C7E3F8"/>
<stop offset="0.677" stop-color="#26B1E7"/>
<stop offset="1" stop-color="#223B86"/>
</linearGradient>
</defs>
</svg>
