<svg xmlns="http://www.w3.org/2000/svg" xmlns:xlink="http://www.w3.org/1999/xlink" version="1.1" id="Layer_1" x="0px" y="0px" viewBox="0 0 160 60" style="enable-background:new 0 0 160 60;" xml:space="preserve">
<style type="text/css">
	.st0{fill:#009344;}
	.st1{fill:#939597;}
</style>
    <path class="st0" d="M106.5540009,21.4043007c-0.4629974,0-0.8330002,0.1850986-1.1110001,0.4626999  c-0.2770004,0.2775993-0.4629974,0.6477985-0.4629974,1.1105003c0,0.4626999,0.185997,0.8328991,0.4629974,1.1104984  c0.2779999,0.2777004,0.6480026,0.462801,1.1110001,0.462801c0.461998,0,0.8330002-0.1851006,1.1100006-0.462801  c0.2779999-0.2775993,0.4629974-0.6477985,0.4629974-1.1104984c0-0.4627018-0.1849976-0.832901-0.4629974-1.1105003  C107.387001,21.4967995,107.0159988,21.4043007,106.5540009,21.4043007z"/>
    <path class="st1" d="M63.1506996,17.8876991l-4.8121986,6.7556h1.0179977l-5.1823997,7.1258011l5.1823997,7.588501h-3.7016983  l-3.424099-4.9047012l-3.6092033,4.9047012h-0.7402992l-5.552597,7.8661995C45.1049004,48.9821014,48.3438988,50,51.8605003,50  c9.9020996,0,17.9532967-8.0512009,17.9532967-17.9533005v-0.2775993  C69.813797,26.2164993,67.2226028,21.1266994,63.1506996,17.8876991z M67.8703995,27.8822994  c0,1.2031002,0.092598,1.7583008-0.4626999,2.5911999c-0.5551987,0.832901-1.2030029,1.2031002-2.1285019,1.9434013  c-0.9253998,0.7403984-2.4060974,2.0359993-2.4060974,2.7762985c0,0.1851006,0,0.5553017,0,1.2029991h4.8122025v1.8509026  h-8.0512009c0-1.2029991,0-2.0359001,0-2.4986992c0-0.740303,0-1.0179024,0-1.2955017  c0-0.2776985,0.5552979-1.1105995,1.2955971-1.8508987c0.6478004-0.6478004,1.5732002-1.3881016,2.2210007-1.9434013  c0.832901-0.6478004,1.4807014-1.295599,1.5732994-1.4806995c0-0.2776012,0-0.4626999,0-0.7403011  c0-0.4626999,0-1.0179996,0-1.1104984c0-0.832901-0.6477966-0.832901-1.0179977-0.832901  c-0.6478004,0-1.0180016,0.3701-1.0180016,0.832901c0,0.3701,0,0.7402992,0,1.1104984l-3.1464005,2.3135014  c0-1.7583008,0-2.5911999,0-2.6837006c0-0.3701992,0-1.8509007,0.9253998-2.4986992  c0.832901-0.6478004,1.2031021-0.9254017,3.0539017-0.9254017c1.9434013,0,3.0538979,0.3702011,3.5165977,0.9254017  C67.5927963,26.1240005,67.8703995,26.6793003,67.8703995,27.8822994z"/>
    <path class="st0" d="M44.6423988,39.4500999l5.1823997-7.1258011l-5.2748985-7.5884991h3.8867989l3.4241028,4.9046993  l3.6090965-4.9046993h0.7404022l5.5524979-7.8661995c-2.7761993-1.8508005-6.1077995-2.8688002-9.7169991-2.8688002  C42.0512009,13.9082003,34,21.9594994,34,31.8614998v0.2776985c0,5.7376022,2.6837006,10.8275032,6.8482018,14.0665016  l4.8121986-6.7556H44.6423988z M43.8095016,38.3395004h-4.0718002V27.4195004c0-0.6478004-0.5553017-1.1105003-1.1105995-1.1105003  h-0.9254036v-1.6658001h3.4241028c1.4806976,0,2.6837006,1.2031002,2.6837006,2.6837997V38.3395004z"/>
    <path d="M107.9410019,25.2908993h-2.6829987v9.1616993h2.6829987V25.2908993z"/>
    <path d="M116.5479965,26.309c-0.2779999-0.3701-0.5559998-0.6478004-1.0179977-0.9253998  c-0.4629974-0.1851006-1.0179977-0.3702011-1.6660004-0.3702011c-0.3699951,0-0.647995,0-0.9249954,0.0926018  c-0.2779999,0.0924988-0.5559998,0.1850986-0.7410049,0.3701c-0.1849976,0.0925999-0.3699951,0.2776985-0.5550003,0.4627991  c-0.1849976,0.1849995-0.2779999,0.3701-0.3699951,0.5552006v-1.203001h-2.5910034v9.1617012h2.6829987v-4.5346012  c0-0.2775993,0-0.5552998,0.0930023-0.8328991c0-0.2776012,0.0920029-0.5552006,0.1849976-0.7403011  c0.0920029-0.1850986,0.2779999-0.3701992,0.4630051-0.5552998c0.1849976-0.1850986,0.461998-0.1850986,0.8330002-0.1850986  c0.3699951,0,0.6469955,0.0925999,0.8320007,0.1850986c0.1849976,0.1851006,0.3709946,0.3702011,0.3709946,0.5552998  c0.0920029,0.2776012,0.1850052,0.4626999,0.1850052,0.7403011c0,0.2775993,0,0.5552998,0,0.8328991v4.4419994h2.6829987v-4.9972992  c0-0.6478004,0-1.2029991-0.0920029-1.665699C117.0100021,27.1418991,116.8249969,26.6791992,116.5479965,26.309z"/>
    <path d="M124.2289963,26.4944c-0.0919952-0.1851006-0.2769928-0.2775993-0.3699951-0.4626999  c-0.1849976-0.1851006-0.3700027-0.2775993-0.6480026-0.4626999c-0.2770004-0.0925007-0.461998-0.2775993-0.8330002-0.3702011  c-0.3699951-0.0924988-0.6469955-0.0924988-1.0179977-0.0924988c-0.5550003,0-1.1100006,0.0924988-1.572998,0.3701992  c-0.4630051,0.2776012-0.8330002,0.6478004-1.2030029,1.0179005c-0.2770004,0.4626999-0.5550003,0.9255009-0.7399979,1.4806995  c-0.1850052,0.5552998-0.2779999,1.1105003-0.2779999,1.6658001c0,0.6478004,0.0929947,1.2956009,0.2779999,1.8507996  c0.1849976,0.5553017,0.4629974,1.0180016,0.8330002,1.4807014c0.3699951,0.4626999,0.7399979,0.7403984,1.2949982,0.925499  c0.5559998,0.1850014,1.0179977,0.3701019,1.6660004,0.3701019c0.3700027,0,0.8330002-0.0925026,1.2030029-0.2776031  c0.3699951-0.1850967,0.8330002-0.4626999,1.1110001-0.9253998v0.832901c0,0.6478004-0.1850052,1.1105003-0.5559998,1.5732002  c-0.2770004,0.3701019-0.7400055,0.6478004-1.4800034,0.6478004c-0.5559998,0-1.1110001,0-1.5739975-0.1851006  c-0.4620056-0.1851006-0.8320007-0.2775993-1.2950058-0.6478004L118.5839996,37.507  c0.7399979,0.3702011,0.5550003,0.3702011,1.2959976,0.5553017c0.7400055,0.1850967,1.5730057,0.2775993,2.3130035,0.2775993  c1.5739975,0,2.4990005-0.3702011,3.2389984-1.2956009c0.7409973-0.832901,1.2030029-2.1285019,1.2030029-3.7942009v-8.0513  h-2.4060059V26.4944z M123.8590012,30.7514c-0.0920029,0.2775993-0.1849976,0.5552998-0.3700027,0.7402992  c-0.1849976,0.1851006-0.3699951,0.3702011-0.5550003,0.5553017c-0.1849976,0.0924988-0.4629974,0.1851006-0.7409973,0.1851006  c-0.2770004,0-0.461998-0.0926018-0.7399979-0.1851006c-0.1850052-0.0925007-0.3700027-0.2776012-0.5550003-0.5553017  c-0.1850052-0.1849995-0.2779999-0.4626999-0.3700027-0.7402992c-0.0930023-0.2775993-0.0930023-0.5552998-0.0930023-0.9253998  c0-0.3702011,0-0.6478004,0.0930023-0.9255009c0.0920029-0.2775993,0.1849976-0.5551987,0.3700027-0.7402992  c0.1849976-0.1851006,0.3699951-0.3701992,0.5550003-0.5552998c0.1849976-0.0925007,0.4629974-0.1849995,0.7399979-0.1849995  c0.2779999,0,0.4629974,0.0924988,0.7409973,0.1849995c0.2770004,0.0925999,0.3700027,0.2777004,0.5550003,0.5552998  c0.1850052,0.1851006,0.2779999,0.4626999,0.3700027,0.7402992c0.0930023,0.2777004,0.0930023,0.5552998,0.0930023,0.9255009  C124.0439987,30.1961002,123.9520035,30.4738007,123.8590012,30.7514z"/>
    <path d="M103.6839981,26.2168007c-0.1849976-0.3702011-0.5550003-0.6478004-0.9249954-0.832901  c-0.3710022-0.1851006-0.9260025-0.2775993-1.4810028-0.2775993c-0.6480026,0-1.2030029,0.0924988-1.5734024,0.3701992  c-0.4626999,0.2776012-0.832901,0.6478004-1.1104965,1.2956009c-0.2776031-0.5552998-0.5552979-1.0179996-1.0179977-1.2031002  c-0.4626999-0.2775993-1.0179062-0.3702011-1.573204-0.3702011c-0.2775955,0-0.6477966,0-0.9253998,0.0926018  c-0.2777023,0.0924988-0.5552979,0.1850986-0.7404022,0.3701c-0.1850967,0.1850986-0.3700943,0.2776985-0.5551987,0.4627991  c-0.1850967,0.1849995-0.2776947,0.3701-0.3702011,0.5552006v-1.203001h-2.5911942v9.1616993h2.6837006v-4.5345993  c0-0.2775993,0-0.5552998,0.092598-0.8328991c0-0.2776012,0.0924988-0.5552006,0.1850967-0.7403011  c0.0924988-0.1850986,0.2776031-0.3701992,0.4626999-0.5552998c0.1851044-0.1850986,0.4626999-0.1850986,0.832901-0.1850986  c0.2776031,0,0.5551987,0.0925999,0.740303,0.1850986c0.1850967,0.1851006,0.2775955,0.3702011,0.3702011,0.5552998  c0.0924988,0.1851006,0.0924988,0.4626999,0.0924988,0.6478004c0,0.2775993,0,0.4626999,0,0.6478004v4.8121986h2.6837997v-4.9972992  c0-0.2775993,0-0.5552998,0.0924988-0.8328991c0.092598-0.2776012,0.1850967-0.4626999,0.2775955-0.6478004  c0.0926056-0.1851006,0.2777023-0.3701992,0.4628067-0.4626999c0.1849976-0.0925999,0.4627991-0.1851006,0.7397995-0.1851006  c0.4629974,0,0.7409973,0.1851006,0.9259949,0.4626999c0.1850052,0.2776012,0.2779999,0.6478004,0.2779999,1.1105003v5.3674984  h2.5910034v-5.3674984c0-0.5552006-0.0930023-1.1105003-0.1849976-1.5732002  C104.0540009,27.0496998,103.8690033,26.5869999,103.6839981,26.2168007z"/>
    <path d="M89.1552963,26.3092995c-0.2776947-0.3701-0.6477966-0.7402992-1.1104965-0.9253998  c-0.4627991-0.1851006-1.1106033-0.2775993-1.8508987-0.2775993c-0.6478043,0-1.2031021,0-2.0359039,0.1851006  c-0.8328934,0.1850986-0.925499,0.2775993-1.6657944,0.6477985l0.6477966,1.6657009  c0.5551987-0.1849995,1.1105042-0.4626999,1.573204-0.5552006c0.4626999-0.0925999,0.6477966-0.0925999,1.0179977-0.0925999  c0.4626999,0,0.832901,0.0925999,1.1104965,0.3701992c0.2776031,0.2776012,0.3702011,0.6478004,0.3702011,1.1105003  c-0.3702011,0-0.3702011,0.0925999-0.832901,0.0925999s-0.7403946,0.1851006-1.1104965,0.1851006  c-0.3702011,0.0925007-0.832901,0.1849995-1.2031021,0.2775993c-0.3702011,0.0925007-0.7402954,0.3702011-1.0179977,0.6478004  c-0.2776031,0.2776012-0.5551987,0.5552006-0.740303,0.9253998c-0.1850967,0.3702011-0.1850967,0.7404003-0.1850967,1.2956009  c0,0.4626999,0.092598,0.832901,0.2775955,1.2030983c0.1851044,0.3701019,0.3702011,0.6478004,0.6478043,0.9253998  c0.2777023,0.2776031,0.5552979,0.3702011,0.925499,0.5553017c0.3701019,0.0924988,0.740303,0.1850014,1.1104965,0.1850014  c0.5552063,0,1.0180054-0.0925026,1.4807053-0.2776031c0.4626999-0.1850967,0.832901-0.5551987,1.1104965-1.0179977v1.1105995  h2.3135986v-4.6271992c0-0.7403011-0.092598-1.3881016-0.1850967-2.0359001  C89.7105026,27.2348003,89.5253983,26.6795006,89.1552963,26.3092995z M87.3043976,30.8439007  c0,0.2776985,0,0.5552998-0.0924988,0.8328991c-0.092598,0.2777004-0.1850967,0.4626999-0.3702011,0.5553017  c-0.1850967,0.1850967-0.3702011,0.2775993-0.5552979,0.3701973c-0.1849976,0.0925026-0.3701019,0.0925026-0.6477966,0.0925026  c-0.2776031,0-0.4626999-0.0925026-0.6478043-0.2776031c-0.1849976-0.1850967-0.3701019-0.462698-0.3701019-0.8328991  c0-0.3701992,0.0925064-0.6477985,0.2776031-0.8328991s0.3702011-0.3701992,0.5552979-0.4626999  c0.1850052-0.0925999,0.4626999-0.1851006,0.740303-0.1851006c0.2775955,0,0.4626999,0,0.6477966,0h0.5553055v0.7403011H87.3043976z  "/>
    <path d="M79.3454971,26.4944c-0.092598-0.1851006-0.2776947-0.2775993-0.4626999-0.4626999  c-0.1850967-0.1851006-0.3701935-0.2775993-0.6477966-0.4626999c-0.2777023-0.0925007-0.4627991-0.2775993-0.832901-0.3702011  c-0.2777023-0.0924988-0.6477966-0.0924988-1.0179977-0.0924988c-0.5553055,0-1.1105042,0.0924988-1.573204,0.3701992  c-0.4626999,0.2776012-0.832901,0.6478004-1.2030945,1.0179005c-0.2776031,0.4626999-0.5552063,0.9255009-0.740303,1.4806995  c-0.1850967,0.5552998-0.2777023,1.1105003-0.2777023,1.6658001c0,0.6478004,0.0926056,1.2956009,0.2777023,1.8507996  c0.1850967,0.5553017,0.4626999,1.0180016,0.832901,1.4807014c0.3701019,0.4626999,0.7402954,0.7403984,1.2956009,0.925499  c0.4626999,0.1850014,1.0178986,0.3701019,1.6656952,0.3701019c0.3702011,0,0.832901-0.0925026,1.2031021-0.2776031  c0.4626999-0.1850967,0.832901-0.4626999,1.1105042-0.9253998v0.832901c0,0.6478004-0.1851044,1.1105003-0.5553055,1.5732002  c-0.3701019,0.3701019-0.7402954,0.6478004-1.5731964,0.6478004c-0.5551987,0-1.1105042,0-1.573204-0.1851006  s-0.832901-0.2775993-1.2956009-0.6478004L73.5152969,37.507c0.740303,0.3702011,0.5552063,0.3702011,1.2956009,0.5553017  c0.740303,0.1850967,1.573204,0.2775993,2.3134995,0.2775993c1.5733032,0,2.498703-0.3702011,3.239006-1.2956009  c0.7403946-0.832901,1.2030945-2.1285019,1.2030945-3.7942009v-8.0513h-2.2210007V26.4944z M78.9753036,30.7514  c-0.0925064,0.2775993-0.1851044,0.5552998-0.3702011,0.7402992c-0.1851044,0.1851006-0.3701019,0.3702011-0.5552063,0.5553017  c-0.1850967,0.0924988-0.4626999,0.1851006-0.7403946,0.1851006c-0.2776031,0-0.4626999-0.0926018-0.740303-0.1851006  c-0.1850967-0.0925007-0.3702011-0.2776012-0.5552979-0.5553017c-0.1851044-0.1849995-0.2776031-0.4626999-0.3701019-0.7402992  c-0.092598-0.2775993-0.092598-0.5552998-0.092598-0.9253998c0-0.3702011,0-0.6478004,0.092598-0.9255009  c0.0924988-0.2775993,0.1849976-0.5551987,0.3701019-0.7402992c0.1850967-0.1851006,0.3702011-0.3701992,0.5552979-0.5552998  c0.1851044-0.1849995,0.4626999-0.1849995,0.740303-0.1849995c0.2776947,0,0.4626999,0.0924988,0.7403946,0.1849995  c0.2776031,0.0925999,0.3701019,0.2777004,0.5552063,0.5552998c0.1850967,0.1851006,0.2776947,0.4626999,0.3702011,0.7402992  c0.0924988,0.2777004,0.0924988,0.5552998,0.0924988,0.9255009C79.0678024,30.1961002,79.0678024,30.4738007,78.9753036,30.7514z"/>
</svg>