<svg width="147" height="40" viewBox="0 0 147 40" fill="none" xmlns="http://www.w3.org/2000/svg">
<path d="M114.021 26.507C113.945 26.5451 113.86 26.6086 113.809 26.672C113.767 26.7269 113.712 26.8285 113.712 26.9892C113.712 27.2682 113.885 27.4628 114.148 27.4628C114.257 27.4628 114.321 27.4332 114.393 27.3573C114.477 27.2728 114.524 27.167 114.57 27.0615L114.689 26.791C114.761 26.626 114.837 26.4738 114.955 26.3554C115.099 26.2118 115.264 26.1526 115.466 26.1526C115.986 26.1526 116.333 26.5375 116.333 27.0447C116.333 27.2307 116.295 27.4631 116.105 27.6577C115.969 27.7974 115.775 27.8819 115.606 27.9197L115.521 27.6153C115.669 27.5943 115.796 27.5266 115.881 27.4464C116.003 27.3238 116.037 27.1844 116.037 27.0404C116.037 26.6555 115.762 26.4738 115.479 26.4738C115.352 26.4738 115.242 26.5119 115.149 26.6135C115.073 26.6937 115.022 26.8038 114.955 26.9517L114.836 27.2054C114.786 27.3152 114.727 27.4549 114.604 27.5818C114.486 27.7044 114.354 27.7763 114.143 27.7763C113.708 27.7763 113.416 27.4424 113.416 26.9858C113.416 26.8126 113.45 26.6729 113.543 26.5336C113.619 26.4195 113.733 26.3222 113.856 26.2588L114.021 26.507V26.507ZM113.759 24.596H116.283V24.9089H113.759V25.5939H113.463V23.9113H113.759V24.596V24.596ZM115.192 22.7103C115.428 22.7103 115.686 22.7103 115.877 22.4862C115.974 22.3721 116.037 22.1775 116.037 22.0211C116.037 21.8646 115.974 21.6701 115.877 21.556C115.686 21.3318 115.429 21.3318 115.192 21.3318H113.462V21.0189H115.276C115.513 21.0189 115.741 21.0442 115.953 21.1964C116.185 21.3654 116.333 21.6615 116.333 22.0208C116.333 22.3801 116.185 22.6762 115.953 22.8451C115.741 22.9973 115.513 23.0226 115.276 23.0226H113.462V22.7097H115.192V22.7103ZM113.463 19.8271V19.2522C113.463 18.9689 113.492 18.5672 113.792 18.2122C114.008 17.9542 114.367 17.7304 114.875 17.7304C115.467 17.7304 115.784 18.0222 115.957 18.225C116.177 18.483 116.283 18.7536 116.283 19.2565V19.8271H113.463V19.8271ZM115.987 19.5142V19.2394C115.987 19.0152 115.961 18.7066 115.733 18.4318C115.555 18.2205 115.276 18.0512 114.875 18.0512C114.198 18.0512 113.759 18.5248 113.759 19.2391V19.5139H115.987V19.5142ZM113.463 16.3772H116.283V16.6901H113.463V16.3772V16.3772ZM114.875 15.3372C114.033 15.3372 113.416 14.6818 113.416 13.8702C113.416 13.0587 114.033 12.4033 114.875 12.4033C115.712 12.4033 116.333 13.0544 116.333 13.8702C116.333 14.6861 115.712 15.3372 114.875 15.3372ZM114.875 15.0161C115.522 15.0161 116.037 14.5046 116.037 13.8702C116.037 13.2359 115.522 12.7244 114.875 12.7244C114.228 12.7244 113.712 13.2359 113.712 13.8702C113.712 14.5046 114.228 15.0161 114.875 15.0161V15.0161Z" fill="#C4C4C4"/>
<path d="M39.2189 12.4194V27.89H35.6492V12.4194H39.2189ZM34.5698 12.3928V27.89H31V12.3928H34.5698ZM68.2974 12.3855V21.7355C68.2974 21.7355 62.3752 15.0792 61.5628 14.3289C59.972 12.8615 57.9826 12.0806 55.5713 12.0806C52.488 12.0806 50.5591 13.3092 49.516 14.3523C48.1252 15.7431 47.1257 17.9915 47.1257 20.2172C47.1257 22.489 48.0518 24.5752 49.5354 25.966C50.6946 27.0784 52.6638 28.2377 55.5616 28.2377C58.1577 28.2377 60.1051 27.3567 61.5419 25.966C62.6802 24.8591 63.3869 23.5248 63.7208 22.134L68.7476 27.8892H71.78V12.3855H68.2974ZM58.9458 23.6248C58.2036 24.367 57.0912 24.9462 55.5148 24.9462C54.3096 24.9462 53.1971 24.6219 52.2 23.6716C51.2497 22.7447 50.7858 21.6088 50.7858 20.1946C50.7858 18.4795 51.4812 17.3437 52.1532 16.6942C52.9873 15.8601 54.1934 15.3728 55.5374 15.3728C56.9516 15.3728 58.1802 15.952 58.945 16.6942C59.6404 17.3896 60.2898 18.5723 60.2898 20.1712C60.2906 21.9557 59.5485 23.0456 58.9458 23.6248Z" fill="#C4C4C4"/>
<path d="M104.724 19.3959V22.296H108.541C108.239 23.4408 107.539 24.0338 107.423 24.1269C107.073 24.4291 106.257 24.961 104.718 24.961C103.529 24.961 102.503 24.6573 101.571 23.7499C100.41 22.6181 99.9998 21.2123 99.814 20.108C99.9998 19.0044 100.41 17.6002 101.571 16.4684C102.504 15.5602 103.53 15.2603 104.718 15.2603C106.257 15.2603 107.073 15.7991 107.423 16.1013C107.527 16.1845 108.101 16.6859 108.437 17.6162L111.462 16.1509C111.11 15.4061 110.66 14.7039 110.095 14.1171C108.369 12.3259 106.397 12 104.555 12C102.69 12 100.686 12.3022 98.8672 14.1636C98.6248 14.4116 98.3502 14.7276 98.0765 15.1153C98.0749 15.113 98.0734 15.1115 98.0719 15.1092L98.0711 15.1229L98.055 15.1458C97.8317 14.8123 97.5893 14.5101 97.3278 14.2575C95.7661 12.7456 93.738 12.0008 91.3137 12.0008C88.2134 12.0008 86.2793 13.2348 85.2293 14.2804C84.9746 14.5337 84.7352 14.868 84.5119 15.2534L84.4806 15.1985L84.4791 15.1977C84.4798 15.1969 84.4798 15.1962 84.4806 15.1954C84.2802 14.9451 84.0646 14.7238 83.8344 14.5009C81.9225 12.6632 79.7544 12.3747 77.7033 12.3747H72.7568V27.8672H77.8188C79.1242 27.8672 81.8055 27.7039 83.9498 25.5403C84.1188 25.3716 84.2787 25.1938 84.4309 25.0083C84.6764 25.3403 84.9425 25.6509 85.2285 25.9356C86.2785 26.9812 88.2126 28.2152 91.3129 28.2152C93.7372 28.2152 95.7654 27.4711 97.327 25.9585C97.5885 25.7059 97.8317 25.4029 98.055 25.0694C98.0604 25.077 98.065 25.0847 98.0703 25.0915L98.0711 25.1053C98.0726 25.103 98.0742 25.1015 98.0757 25.0992C98.3495 25.4869 98.624 25.8028 98.8664 26.0508C100.685 27.9122 102.689 28.2144 104.555 28.2144C106.396 28.2144 108.349 27.8886 110.075 26.0974C111.8 24.3062 112.448 21.4443 112.448 19.56V19.3952H104.724V19.3959ZM82.3737 21.1513C82.2268 21.558 81.8001 23.002 80.8725 23.7812C79.7085 24.7595 78.0757 24.8145 77.3293 24.8145H76.3512V15.3511H77.3293C78.4252 15.3511 79.9402 15.5251 81.1057 16.6882C81.7122 17.2934 82.2651 18.3985 82.5006 20.0263C82.522 20.1866 82.5473 20.3453 82.5748 20.5033C82.4968 20.7727 82.4295 20.994 82.3737 21.1513ZM95.4594 22.5837C95.2407 22.9852 94.9822 23.321 94.7169 23.585C93.9475 24.3291 92.7117 24.9114 91.29 24.9114C89.9379 24.9114 88.7258 24.423 87.886 23.585C87.7201 23.4248 87.5534 23.234 87.3951 23.0134L87.402 23.0126C87.402 23.0126 86.68 21.9793 86.2135 20.108C86.68 18.2359 87.402 17.2026 87.402 17.2026L87.3951 17.201C87.5534 16.9805 87.7201 16.7897 87.886 16.6294C88.725 15.7922 89.9371 15.303 91.29 15.303C92.7117 15.303 93.9475 15.8846 94.7169 16.6294C94.9822 16.8943 95.2407 17.2293 95.4594 17.6307C95.6613 17.9635 96.0475 18.6549 96.2732 19.6058C96.3129 19.773 96.3496 19.9401 96.3848 20.1072C96.3496 20.2744 96.3129 20.4415 96.2732 20.6086C96.0475 21.5595 95.6613 22.251 95.4594 22.5837Z" fill="#C4C4C4"/>
<path d="M43.5565 21.5517C44.414 21.3428 45.1788 20.8846 45.712 20.3747C46.7092 19.401 46.9173 18.1982 46.9173 17.2244C46.9173 15.5093 46.2219 14.3735 45.5725 13.7483C44.8303 13.0529 43.6024 12.3809 41.6316 12.3809H35.6489V15.1237H40.6127C41.0766 15.1237 42.0035 15.1326 42.5827 15.5731C42.8845 15.8046 43.3015 16.3306 43.3015 17.2115C43.3015 17.9763 42.9772 18.4273 42.7223 18.6822C42.1197 19.2848 41.2387 19.3187 40.5893 19.3187H39.7632V21.8196L43.9501 27.87H48.3081L43.5565 21.5517Z" fill="#C4C4C4"/>
</svg>
