<svg width="147" height="40" viewBox="0 0 147 40" fill="none" xmlns="http://www.w3.org/2000/svg">
<path d="M58.0625 10.7286C57.5312 11.3274 57.1584 11.7501 56.7328 12.2286C56.3043 11.7765 55.9256 11.3626 55.5264 10.9634C54.8718 10.3088 54.1057 9.89789 53.1458 9.89202C51.3904 9.88028 49.9228 11.2247 49.82 12.9565C49.7173 14.7207 51.0529 16.2941 52.8346 16.3851C53.3718 16.4115 54 16.2559 54.4579 15.9741C55.2974 15.4604 56.1311 14.8763 56.8062 14.1689C58.042 12.8773 59.1721 11.4859 60.3228 10.1151C61.1652 9.11121 62.1603 8.37443 63.4666 8.12199C64.9959 7.82552 66.3726 8.1807 67.6054 9.12002C67.7434 9.22569 67.8755 9.3343 68.0369 9.46345C68.3099 9.29027 68.577 9.12295 68.9645 8.87931C69.0907 10.1914 69.2111 11.4243 69.3432 12.7892C68.1074 12.2256 66.9743 11.709 65.762 11.1572C66.0291 10.9399 66.2141 10.7873 66.4019 10.6376C65.7297 9.85973 64.2738 9.57793 63.1994 10.1298C62.6447 10.4145 62.1368 10.8636 61.7171 11.3333C60.6926 12.481 59.7651 13.7168 58.7347 14.8616C57.7015 16.0123 56.4892 16.9428 55.133 17.7207C52.7671 19.0797 49.0656 17.7617 48.1733 14.4741C47.5862 12.3049 48.4844 10.0476 50.3895 8.84116C52.2593 7.65527 54.6575 7.80497 56.3688 9.22862C56.9207 9.68654 57.4461 10.1797 58.0625 10.7286Z" fill="#EC1C24"/>
<path d="M75.7535 27.2469C76.8631 25.0688 77.9403 22.9524 79.0294 20.8155C79.8425 20.8155 80.6027 20.8155 81.4305 20.8155C81.4305 24.1677 81.4305 27.5316 81.4305 30.9454C80.77 30.9454 80.1125 30.9454 79.3787 30.9454C79.3787 28.8584 79.3787 26.786 79.3787 24.7136C79.3317 24.7019 79.2818 24.6901 79.2348 24.6755C78.9208 25.2802 78.6067 25.8878 78.2926 26.4925C77.8259 27.3966 77.3474 28.2948 76.8954 29.2077C76.6488 29.7038 76.3053 29.9621 75.7271 29.9533C75.1752 29.9474 74.8582 29.6832 74.6263 29.2224C73.8631 27.7165 73.0882 26.2165 72.3162 24.7166C72.2839 24.6549 72.2369 24.605 72.1254 24.4436C72.1254 26.6686 72.1254 28.7821 72.1254 30.9454C71.4121 30.9454 70.7546 30.9454 70.0413 30.9454C70.0413 27.5639 70.0413 24.1999 70.0413 20.8008C70.8544 20.8008 71.6146 20.8008 72.4688 20.8008C73.549 22.9289 74.6351 25.0571 75.7535 27.2469Z" fill="#C4C4C4"/>
<path d="M73.2061 11.935C73.2061 13.9956 73.2061 16.0563 73.2061 18.1169C73.2061 18.1374 73.1855 18.158 73.1385 18.246C72.5251 18.246 71.8793 18.246 71.1836 18.246C71.1836 14.8909 71.1836 11.571 71.1836 8.18653C71.9409 8.18653 72.6924 8.18653 73.5671 8.18653C74.6473 10.3029 75.7481 12.4604 76.8665 14.659C77.9819 12.4722 79.068 10.3352 80.1658 8.18066C80.9907 8.18066 81.748 8.18066 82.5552 8.18066C82.5552 11.5446 82.5552 14.8792 82.5552 18.2666C81.8801 18.2666 81.249 18.2666 80.5592 18.2666C80.5592 16.1179 80.5592 14.0162 80.5592 11.9145C80.5181 11.9027 80.4799 11.888 80.4388 11.8763C80.3449 12.0289 80.2363 12.1757 80.1541 12.3342C79.4349 13.7226 78.7099 15.1081 78.0054 16.5054C77.7618 16.9926 77.4477 17.2862 76.8606 17.2832C76.2765 17.2803 75.9624 16.9926 75.7187 16.5024C75.0348 15.1258 74.3215 13.7608 73.617 12.3929C73.529 12.2227 73.435 12.0583 73.3411 11.891C73.3 11.8998 73.253 11.9174 73.2061 11.935Z" fill="#EC1C24"/>
<path d="M39 18.2408C39 14.8592 39 11.5452 39 8.1842C39.229 8.16071 39.4168 8.12549 39.6076 8.12255C40.7524 8.11668 41.8943 8.0844 43.0361 8.13723C43.6731 8.16659 44.3218 8.27226 44.9353 8.45425C45.9598 8.75953 46.541 9.49924 46.6466 10.5736C46.7523 11.6391 46.2709 12.3847 45.3404 12.872C45.2758 12.9043 45.2171 12.9483 45.1085 13.0158C45.2112 13.0833 45.2788 13.1479 45.3609 13.1802C46.7846 13.7819 47.2719 14.9708 46.6643 16.3915C46.1887 17.5099 45.2523 18.1292 44.1252 18.2085C42.4491 18.3288 40.7583 18.2408 39 18.2408ZM41.4129 14.052C41.4129 14.8856 41.4129 15.6635 41.4129 16.4796C42.1526 16.4796 42.8453 16.5295 43.5263 16.4649C44.1721 16.4062 44.5479 15.8837 44.5508 15.2173C44.5537 14.5628 44.2396 14.1371 43.5469 14.0667C42.8688 13.9962 42.1761 14.052 41.4129 14.052ZM41.3953 12.4669C42.1673 12.4023 42.86 12.3965 43.5263 12.2702C44.0782 12.1646 44.2983 11.7213 44.2719 11.0697C44.2484 10.4562 44.0107 10.0511 43.4676 9.98945C42.7984 9.91606 42.1115 9.97184 41.3953 9.97184C41.3953 10.7791 41.3953 11.5335 41.3953 12.4669Z" fill="#EC1C24"/>
<path d="M97.7837 18.2202C96.6682 18.4932 95.8845 18.2349 95.2123 17.3044C94.0176 15.6547 92.7055 14.0902 91.4403 12.4904C91.3376 12.3612 91.2231 12.2409 90.9971 11.9797C90.9971 14.1665 90.9971 16.1831 90.9971 18.2555C90.2838 18.2555 89.6527 18.2555 88.9629 18.2555C88.9629 14.9003 88.9629 11.5599 88.9629 8.12551C89.4267 8.12551 89.8817 8.05212 90.2985 8.14899C90.5979 8.21944 90.9061 8.46601 91.1086 8.71845C92.547 10.4973 93.9589 12.2967 95.3796 14.0872C95.4559 14.1841 95.5411 14.2722 95.7113 14.4688C95.7113 12.3202 95.7113 10.283 95.7113 8.18128C96.4363 8.18128 97.088 8.18128 97.7837 8.18128C97.7837 11.5423 97.7837 14.8592 97.7837 18.2202Z" fill="#EC1C24"/>
<path d="M58.6172 29.9887C57.2317 31.3331 53.5302 31.7382 51.2876 29.8185C49.3855 28.1864 48.9364 25.3009 50.2191 23.0994C51.0293 21.711 52.2768 20.9654 53.8238 20.7247C55.6114 20.4458 57.2787 20.7335 58.7581 22.0221C58.4499 22.4859 58.1534 22.9291 57.7953 23.4663C57.4254 23.343 57.0703 23.2697 56.7591 23.1111C55.9049 22.6796 55.0302 22.5241 54.0909 22.7501C53.4011 22.9145 52.8404 23.2873 52.5146 23.9037C51.7895 25.2774 51.769 26.6806 52.5997 28.0132C53.3394 29.1932 54.9157 29.5425 56.4392 28.9173C56.4392 28.4741 56.4392 28.0103 56.4392 27.4995C56.0047 27.4437 55.5527 27.385 55.0566 27.3205C55.0566 26.7627 55.0566 26.2784 55.0566 25.7177C56.2161 25.7177 57.3902 25.7177 58.6172 25.7177C58.6172 27.1355 58.6172 28.5621 58.6172 29.9887Z" fill="#C4C4C4"/>
<path d="M106.108 14.8503C105.662 14.7975 105.251 14.7476 104.767 14.6889C104.767 14.1429 104.767 13.6439 104.767 13.0891C105.923 13.0891 107.074 13.0891 108.275 13.0891C108.275 14.5128 108.275 15.8953 108.275 17.3278C107.567 17.9442 106.678 18.2935 105.736 18.3552C104.831 18.4139 103.877 18.408 103.009 18.1849C100.232 17.4775 98.7435 14.9355 99.2865 12.1028C99.8589 9.13224 102.454 7.78197 105.166 8.02854C106.349 8.13715 107.444 8.4982 108.333 9.37881C108.28 9.49036 108.248 9.58429 108.195 9.66355C107.415 10.8817 107.415 10.8817 106.123 10.2947C103.798 9.23792 101.647 10.5941 101.605 13.1449C101.564 15.6605 103.493 17.1898 105.768 16.4413C105.882 16.4032 105.988 16.3327 106.164 16.2417C106.164 15.9922 106.17 15.7222 106.161 15.455C106.155 15.2584 106.129 15.0646 106.108 14.8503Z" fill="#EC1C24"/>
<path d="M62.8236 20.7761C63.6866 20.7761 64.4527 20.7761 65.3098 20.7761C66.6073 24.1283 67.9106 27.4893 69.255 30.9648C68.4888 30.9648 67.8049 31.0235 67.1386 30.9325C66.9037 30.9002 66.6513 30.5392 66.5251 30.272C66.3049 29.8053 66.1758 29.2946 65.9938 28.7662C64.7286 28.7662 63.4723 28.7662 62.1484 28.7662C61.9723 29.2623 61.7756 29.7642 61.6171 30.2808C61.4616 30.7799 61.1416 31.0059 60.625 30.9971C60.0819 30.9883 59.5389 30.9941 58.8726 30.9941C60.2111 27.5363 61.5115 24.1753 62.8236 20.7761ZM64.1445 23.2565C64.1034 23.236 64.0623 23.2154 64.0212 23.1949C63.6014 24.4483 63.1846 25.7046 62.7443 27.0167C63.6748 27.0167 64.4879 27.0167 65.4038 27.0167C64.9723 25.7281 64.5584 24.4923 64.1445 23.2565Z" fill="#C4C4C4"/>
<path d="M90.0051 29.1108C90.0051 29.7801 90.0051 30.3378 90.0051 30.9484C87.8153 30.9484 85.6666 30.9484 83.4592 30.9484C83.4592 27.5697 83.4592 24.2087 83.4592 20.8008C85.649 20.8008 87.7977 20.8008 89.9992 20.8008C89.9992 21.3908 89.9992 21.9485 89.9992 22.5972C88.6519 22.5972 87.3251 22.5972 85.9367 22.5972C85.9367 23.4103 85.9367 24.1354 85.9367 24.9485C86.9699 24.9485 87.9768 24.9485 89.0218 24.9485C89.0218 25.5737 89.0218 26.1079 89.0218 26.7244C88.009 26.7244 87.0022 26.7244 85.9337 26.7244C85.9337 27.5492 85.9337 28.2977 85.9337 29.1108C87.2869 29.1108 88.5961 29.1108 90.0051 29.1108Z" fill="#C4C4C4"/>
<path d="M90.6714 29.6885C90.8475 29.4096 91.0207 29.1131 91.2144 28.8284C91.599 28.259 91.8631 28.1856 92.4532 28.5407C93.0344 28.8901 93.6126 29.2041 94.3259 29.1631C95.0451 29.119 95.4267 28.8666 95.547 28.303C95.6645 27.7423 95.4208 27.3402 94.7369 27.0672C94.276 26.8852 93.7917 26.7649 93.322 26.6063C91.7105 26.0692 90.9444 25.077 91.0148 23.6299C91.0853 22.1681 92.1538 20.9763 93.7359 20.7121C95.1889 20.4685 96.5363 20.7532 97.7398 21.763C97.4286 22.2767 97.138 22.7522 96.8034 23.3041C96.4365 23.1573 96.137 23.0633 95.867 22.9195C95.3445 22.6377 94.8015 22.5291 94.2144 22.6054C93.7447 22.6671 93.4365 22.9136 93.3308 23.3833C93.2222 23.8618 93.504 24.1436 93.8739 24.3314C94.2026 24.4987 94.5666 24.6015 94.913 24.7306C95.2388 24.851 95.5647 24.9684 95.8934 25.0858C97.0147 25.488 97.7691 26.2189 97.8513 27.4576C97.9364 28.7697 97.4462 29.8411 96.3161 30.5632C94.7163 31.573 91.9894 31.1591 90.6714 29.6885Z" fill="#C4C4C4"/>
<path d="M86.8874 18.2754C86.1301 18.2754 85.4168 18.2754 84.6301 18.2754C84.6301 14.9203 84.6301 11.5798 84.6301 8.18066C85.3522 8.18066 86.0831 8.18066 86.8874 8.18066C86.8874 11.5035 86.8874 14.841 86.8874 18.2754Z" fill="#EC1C24"/>
<path d="M59.8708 15.828C60.2994 15.3642 60.6839 14.9474 61.1008 14.4953C61.4618 14.8153 61.7818 15.1205 62.1223 15.3994C64.271 17.1459 66.5752 16.5559 67.6144 13.9963C67.6408 13.9317 67.6966 13.8818 67.7817 13.7673C68.2895 14.008 68.7973 14.2487 69.3785 14.5217C68.7474 16.3387 67.5967 17.5657 65.7504 18.05C63.3287 18.6811 61.5235 17.5892 59.8708 15.828Z" fill="#EC1C24"/>
</svg>
