<svg width="56" height="14" fill="none" xmlns="http://www.w3.org/2000/svg"><path d="M18.404 4.346l-1.634 6.49a2.473 2.473 0 01-.92 1.338 2.433 2.433 0 01-1.515.553l2.113-8.388h-2.614l-.276 1.273L11.46 14h2.542c1.24 0 2.42-.459 3.537-1.376 1.117-.918 1.83-1.995 2.142-3.234l.945-3.777.32-1.272h-2.544v.005z" fill="#E50539"/><path d="M23.064 11.786a.691.691 0 01.024-.096.593.593 0 00.024-.076l1.819-7.266h-4.219l-.32 1.272h1.686l-1.504 5.993a1.173 1.173 0 00-.055.23c-.109.657.058 1.179.502 1.565.443.386 1.101.579 1.973.578h.38l.323-1.272c-.512-.074-.722-.385-.633-.928zM25.448.383a1.052 1.052 0 00-.85-.38 1.451 1.451 0 00-.967.38c-.28.23-.467.553-.527.91a1.094 1.094 0 00.607 1.218c.147.066.306.097.467.091.363-.002.712-.141.977-.388.28-.235.468-.561.53-.921a1.087 1.087 0 00-.237-.91zm6.99 11.635a.354.354 0 01.023-.076.32.32 0 00.021-.075l1.878-7.515h-4.38a4.564 4.564 0 00-2.546.77c-.788.508-1.276 1.147-1.465 1.917l-1.06 4.252c-.027.08-.046.162-.057.246a1.797 1.797 0 00.62 1.755c.532.46 1.229.691 2.089.691h.398a3.248 3.248 0 002.082-.778c.32.519.923.778 1.807.778h.898l.32-1.272c-.49-.023-.699-.254-.627-.693h-.001zm-2.367-.72a1.88 1.88 0 01-.676 1.005c-.31.262-.7.409-1.106.415-.733 0-1.042-.353-.927-1.064 0-.01.011-.043.025-.094.011-.037.02-.076.028-.115l1.218-4.876c.166-.632.515-.948 1.047-.949h1.82l-1.428 5.678h-.001zM46.714 5.04c-.526-.462-1.218-.692-2.075-.692h-.398a4.51 4.51 0 00-2.567.778c-.775.52-1.256 1.158-1.443 1.916l-1.079 4.251c-.026.08-.046.163-.058.247-.119.72.088 1.309.621 1.764.533.456 1.236.684 2.108.684h.379a4.507 4.507 0 002.559-.787c.782-.526 1.267-1.162 1.452-1.908l1.069-4.254.04-.245a1.81 1.81 0 00-.608-1.755v.001zm-1.937 1.797l-.038.202-1.057 4.252c-.082.396-.273.76-.553 1.052a1.145 1.145 0 01-.8.367.634.634 0 01-.58-.343 1.28 1.28 0 01-.086-.975.954.954 0 00.025-.104l1.057-4.249c.087-.377.268-.726.528-1.014a1.105 1.105 0 01.83-.388.633.633 0 01.573.312c.125.21.16.505.101.883v.005zm9.759-2.491a4.39 4.39 0 00-2.658.816l.19-.816h-2.53l-2.429 9.64h2.543l1.321-5.273A4.435 4.435 0 0151.97 6.9a3.9 3.9 0 011.66-1.167l-.302 1.253h1.383l.678-2.64h-.853zM11.814.721c-.58-.478-1.365-.718-2.351-.72a5.087 5.087 0 00-2.845.806 3.498 3.498 0 00-1.563 2.137l-1.057 4.19h-2.36A1.642 1.642 0 000 8.785h3.58l-1.305 5.198h2.521l1.31-5.197h2.297l-.813 3.233c-.027.08-.046.162-.057.246-.09.545.017.968.324 1.273.307.304.765.453 1.383.453h1.007l.324-1.272c-.364-.025-.516-.221-.454-.585l2.297-9.189c.008-.051.019-.102.033-.152.014-.051.026-.103.034-.155.133-.794-.089-1.432-.667-1.916V.721zM6.506 7.164v-.03l1.166-4.551a1.75 1.75 0 01.54-.942c.251-.235.582-.367.926-.368a.81.81 0 01.708.324 1.067 1.067 0 01.152.815l-.029.171-1.166 4.552-.008.029h-2.29.001zm32.572-2.818l.582-2.237h-2.549l-.553 2.237h-1.245L34.99 5.62h1.244l-1.521 6.015c0 .025-.01.072-.032.138a1.3 1.3 0 00-.03.138c-.106.646.019 1.153.375 1.522.355.368.894.553 1.616.553h.894l.326-1.29c-.523-.048-.74-.345-.65-.89a.664.664 0 01.025-.095c.011-.039.02-.063.02-.076l1.522-6.015h1.083l.324-1.273h-1.108v-.001z" fill="#E50539"/></svg>