<svg width="55" height="25" fill="none" xmlns="http://www.w3.org/2000/svg"><path d="M53.636 2.235a9.04 9.04 0 01-4.965 2.025H7.636L0 15.217l7.636 9.666h41.1c2.54 0 4.53-1.4 4.535-3.124l.365-19.524z" fill="#000"/><path d="M54.275.135c0 1.729-2.061 3.13-4.6 3.13H8.635L1 14.222l7.636 9.66h41.1c2.54 0 4.53-1.4 4.535-3.124V.135h.004z" fill="url(#paint0_linear)"/><path d="M29.863 15.225c-.242 0-.439-.222-.44-.497 0-.275.196-.498.439-.5 1.104-.003 2.154-.758 2.957-2.126.77-1.313 1.224-3.03 1.293-4.88h-1.936c-.243 0-.44-.222-.44-.497s.197-.498.44-.498h2.384c.243 0 .44.223.44.498 0 2.231-.515 4.337-1.45 5.929-.97 1.653-2.279 2.566-3.685 2.57h-.002z" fill="#FF8E1D"/><path d="M25.137 15.225h-.002c-1.406-.005-2.715-.918-3.686-2.571C20.515 11.062 20 8.956 20 6.724c0-.274.197-.497.44-.497h2.384c.243 0 .44.223.44.498s-.197.498-.44.498h-1.936c.07 1.85.522 3.566 1.293 4.879.803 1.368 1.853 2.123 2.957 2.127.243 0 .439.224.438.5 0 .274-.197.496-.44.496z" fill="#FFB023"/><path d="M32.207 5h-9.414c-.243 0-.44.223-.44.498 0 2.926.507 5.684 1.426 7.767.588 1.335 1.308 2.303 2.105 2.858v2.712c0 .275.197.498.44.498h2.353c.243 0 .44-.223.44-.498v-2.712c.796-.555 1.516-1.523 2.104-2.858.92-2.083 1.426-4.841 1.426-7.767 0-.275-.197-.498-.44-.498z" fill="#FFD12B"/><path d="M29.116 18.835v-2.712c.797-.555 1.517-1.523 2.105-2.858.92-2.083 1.426-4.841 1.426-7.767 0-.275-.197-.498-.44-.498H27.5v14.333h1.177c.242 0 .44-.223.44-.498z" fill="#FFB023"/><path d="M29.854 18.336h-4.707c-.892 0-1.617.822-1.617 1.832v1.334c0 .275.197.498.44.498h7.06c.243 0 .44-.223.44-.498v-1.334c0-1.01-.725-1.832-1.616-1.832z" fill="#FF8E1D"/><path d="M29.854 18.336H27.5V22h3.53c.243 0 .44-.223.44-.498v-1.334c0-1.01-.725-1.832-1.616-1.832z" fill="#FF6D15"/><path d="M31.501 22h-8.002c-.243 0-.44-.223-.44-.498s.197-.498.44-.498h8.002c.243 0 .44.223.44.498s-.197.498-.44.498z" fill="#FFB023"/><path d="M31.501 21.004H27.5V22h4.001c.243 0 .44-.223.44-.498s-.197-.498-.44-.498z" fill="#FF8E1D"/><defs><linearGradient id="paint0_linear" x1="69.442" y1="12.006" x2="16.166" y2="12.006" gradientUnits="userSpaceOnUse"><stop stop-color="#C80406"/><stop offset=".094" stop-color="#C80406"/><stop offset=".226" stop-color="#E00"/><stop offset=".355" stop-color="#FD0002"/><stop offset=".479" stop-color="#F46D5B"/><stop offset=".598" stop-color="#FF3135"/><stop offset=".731" stop-color="#E00"/><stop offset=".936" stop-color="#C80406"/></linearGradient></defs></svg>