<svg width="30" height="30" viewBox="0 0 30 30" fill="none" xmlns="http://www.w3.org/2000/svg">
<path d="M29.7267 28.3988L20.6477 19.2309C22.3398 17.1968 23.3597 14.5799 23.3597 11.7225C23.3597 5.24838 18.1304 0 11.6799 0C5.22931 0 0 5.24838 0 11.7225C0 18.1965 5.22931 23.4449 11.6799 23.4449C14.6106 23.4449 17.2876 22.3589 19.3386 20.5687L28.405 29.7253C28.7698 30.0916 29.3618 30.0916 29.7267 29.7253C30.0911 29.3591 30.0911 28.7655 29.7267 28.3988H29.7267ZM11.6799 21.5848C6.25293 21.5848 1.85336 17.1692 1.85336 11.7225C1.85336 6.27573 6.25293 1.86012 11.6799 1.86012C17.1068 1.86012 21.5064 6.27573 21.5064 11.7225C21.5064 17.1692 17.1068 21.5848 11.6799 21.5848Z" fill="#494949"/>
</svg>
