<svg width="55" height="28" fill="none" xmlns="http://www.w3.org/2000/svg"><path d="M49.67 0c2.544 0 4.6 1.4 4.6 3.13s-2.06 3.13-4.6 3.13V0z" fill="url(#paint0_linear)"/><path d="M53.636 5.235a9.04 9.04 0 01-1.709 1.108 9.141 9.141 0 01-3.256.917H7.636L0 18.217l7.636 9.666h41.1c2.54 0 4.53-1.4 4.535-3.124l.365-19.524z" fill="#000"/><path d="M54.275 3.135c0 1.729-2.061 3.13-4.6 3.13H8.635L1 17.222l7.636 9.66h41.1c2.54 0 4.53-1.4 4.535-3.124V3.135h.004z" fill="url(#paint1_linear)"/><path d="M12.55 16.909l-.88-1.76h-.08l.256 1.76v5.84h-2.08v-11.28h1.6l4.24 5.968.848 1.712h.08l-.256-1.714v-5.887h2.08v11.28h-1.6l-4.208-5.919zm7.728-5.361h6.64V13.5H22.47v2.608h4.048v1.952H22.47v2.736h4.528v1.952h-6.72v-11.2zm11.26 6.257l.209 1.984h.064l.224-2.016 1.952-6.224h1.442l1.92 6.256.225 1.984h.065l.24-2.016 1.36-6.224h2.224l-3.088 11.28h-1.473l-2-6.224-.272-1.712h-.08l-.271 1.728-1.984 6.208h-1.556l-3.072-11.28h2.384l1.488 6.256z" fill="#000"/><path d="M11.55 15.909l-.88-1.76h-.08l.256 1.76v5.84h-2.08v-11.28h1.6l4.24 5.968.848 1.712h.08l-.256-1.714v-5.887h2.08v11.28h-1.6l-4.208-5.919zm7.728-5.361h6.64V12.5H21.47v2.608h4.048v1.952H21.47v2.736h4.528v1.952h-6.72v-11.2zm11.26 6.257l.209 1.984h.064l.224-2.016 1.952-6.224h1.442l1.92 6.256.225 1.984h.065l.24-2.016 1.36-6.224h2.224l-3.088 11.28h-1.473l-2-6.224-.272-1.712h-.08l-.272 1.728-1.984 6.208h-1.555l-3.072-11.28h2.384l1.488 6.256z" fill="#fff"/><defs><linearGradient id="paint0_linear" x1="52.898" y1="1.105" x2="42.354" y2="11.79" gradientUnits="userSpaceOnUse"><stop offset=".091" stop-color="#870406"/><stop offset=".491" stop-color="#C70000"/><stop offset=".867" stop-color="#870406"/></linearGradient><linearGradient id="paint1_linear" x1="69.442" y1="15.006" x2="16.166" y2="15.006" gradientUnits="userSpaceOnUse"><stop stop-color="#C80406"/><stop offset=".094" stop-color="#C80406"/><stop offset=".226" stop-color="#E00"/><stop offset=".355" stop-color="#FD0002"/><stop offset=".479" stop-color="#F46D5B"/><stop offset=".598" stop-color="#FF3135"/><stop offset=".731" stop-color="#E00"/><stop offset=".936" stop-color="#C80406"/></linearGradient></defs></svg>