<svg width="16" height="17" viewBox="0 0 16 17" fill="none" xmlns="http://www.w3.org/2000/svg">
<path d="M8.30337 12.9026L7.99994 12.6709L7.69651 12.9026L3.99651 15.7276L3.98983 15.7327L3.98332 15.738C3.88481 15.8186 3.80174 15.8414 3.71839 15.8383C3.59195 15.8337 3.49519 15.7992 3.41277 15.7411L3.41167 15.7404C3.3239 15.6789 3.25016 15.593 3.19276 15.4673C3.16227 15.4005 3.15098 15.3197 3.19624 15.192L3.19971 15.1821L3.20277 15.1722L4.62777 10.5472L4.73422 10.2017L4.43949 9.99236L0.814495 7.41736L0.808455 7.41306L0.802291 7.40896C0.698992 7.34009 0.656018 7.26937 0.637136 7.18755C0.605734 7.05148 0.615627 6.95118 0.644837 6.87085C0.678444 6.77843 0.740193 6.68545 0.849207 6.59257C0.918776 6.5333 1.00102 6.49963 1.12351 6.49998H1.12494H5.59994H5.97121L6.07858 6.14457L7.52462 1.35766C7.57854 1.21186 7.65016 1.12489 7.72871 1.06874C7.82606 0.999154 7.91242 0.974691 7.99827 0.974981H7.99994C8.08744 0.974981 8.17472 1.00008 8.27217 1.06974C8.35079 1.12594 8.42192 1.21253 8.47513 1.35725L9.9213 6.14457L10.0287 6.49998H10.3999H14.8749C14.9979 6.49998 15.0807 6.53396 15.1507 6.59358C15.26 6.68669 15.3217 6.77952 15.3552 6.87119C15.3843 6.95146 15.3941 7.05166 15.3627 7.18755C15.3439 7.26937 15.3009 7.34009 15.1976 7.40896L15.1914 7.41306L15.1854 7.41736L11.5604 9.99236L11.2657 10.2017L11.3721 10.5472L12.7971 15.1722L12.8004 15.1828L12.8041 15.1931C12.8497 15.3208 12.8384 15.4011 12.8081 15.4673C12.751 15.5925 12.6772 15.6783 12.589 15.7398L12.5882 15.7404C12.5052 15.7984 12.4075 15.8333 12.28 15.8384C12.1978 15.8417 12.1156 15.8194 12.0174 15.7387L12.0105 15.733L12.0034 15.7276L8.30337 12.9026Z" stroke="#FFCC15"/>
</svg>
