<svg width="16" height="17" viewBox="0 0 16 17" fill="none" xmlns="http://www.w3.org/2000/svg">
<path d="M8.30337 12.9026L7.99994 12.6709L7.69651 12.9026L3.99651 15.7276L3.98983 15.7327L3.98332 15.738C3.88481 15.8186 3.80174 15.8414 3.71839 15.8383C3.59195 15.8337 3.49519 15.7992 3.41277 15.7411L3.41167 15.7404C3.3239 15.6789 3.25016 15.593 3.19276 15.4673C3.16227 15.4005 3.15098 15.3197 3.19624 15.192L3.19971 15.1821L3.20277 15.1722L4.62777 10.5472L4.73422 10.2017L4.43949 9.99236L0.814495 7.41736L0.808455 7.41306L0.802291 7.40896C0.698992 7.34009 0.656018 7.26937 0.637136 7.18755C0.605734 7.05148 0.615627 6.95118 0.644837 6.87085C0.678444 6.77843 0.740193 6.68545 0.849207 6.59257C0.918776 6.5333 1.00102 6.49963 1.12351 6.49998H1.12494H5.59994H5.97121L6.07858 6.14457L7.52462 1.35766C7.57854 1.21186 7.65016 1.12489 7.72871 1.06874C7.82606 0.999154 7.91242 0.974691 7.99827 0.974981H7.99994C8.08744 0.974981 8.17472 1.00008 8.27217 1.06974C8.35079 1.12594 8.42192 1.21253 8.47513 1.35725L9.9213 6.14457L10.0287 6.49998H10.3999H14.8749C14.9979 6.49998 15.0807 6.53396 15.1507 6.59358C15.26 6.68669 15.3217 6.77952 15.3552 6.87119C15.3843 6.95146 15.3941 7.05166 15.3627 7.18755C15.3439 7.26937 15.3009 7.34009 15.1976 7.40896L15.1914 7.41306L15.1854 7.41736L11.5604 9.99236L11.2657 10.2017L11.3721 10.5472L12.7971 15.1722L12.8004 15.1828L12.8041 15.1931C12.8497 15.3208 12.8384 15.4011 12.8081 15.4673C12.751 15.5925 12.6772 15.6783 12.589 15.7398L12.5882 15.7404C12.5052 15.7984 12.4075 15.8333 12.28 15.8384C12.1978 15.8417 12.1156 15.8194 12.0174 15.7387L12.0105 15.733L12.0034 15.7276L8.30337 12.9026Z" stroke="#FFCC15"/>
<mask id="mask0_43_16" style="mask-type:alpha" maskUnits="userSpaceOnUse" x="0" y="0" width="16" height="17">
<path d="M7.99994 13.3L4.29994 16.125C4.11661 16.275 3.91661 16.346 3.69994 16.338C3.48327 16.33 3.29161 16.2673 3.12494 16.15C2.95827 16.0333 2.82927 15.875 2.73794 15.675C2.64661 15.475 2.64227 15.2583 2.72494 15.025L4.14994 10.4L0.524941 7.82498C0.324941 7.69165 0.199941 7.51665 0.149941 7.29998C0.0999407 7.08331 0.108274 6.88331 0.174941 6.69998C0.241607 6.51665 0.358274 6.35398 0.524941 6.21198C0.691607 6.06998 0.891607 5.99931 1.12494 5.99998H5.59994L7.04994 1.19998C7.13327 0.966647 7.26261 0.787314 7.43794 0.661981C7.61327 0.536648 7.80061 0.474314 7.99994 0.474981C8.19994 0.474981 8.38761 0.537648 8.56294 0.662981C8.73827 0.788314 8.86727 0.967314 8.94994 1.19998L10.3999 5.99998H14.8749C15.1083 5.99998 15.3083 6.07098 15.4749 6.21298C15.6416 6.35498 15.7583 6.51731 15.8249 6.69998C15.8916 6.88331 15.8999 7.08331 15.8499 7.29998C15.7999 7.51665 15.6749 7.69165 15.4749 7.82498L11.8499 10.4L13.2749 15.025C13.3583 15.2583 13.3543 15.475 13.2629 15.675C13.1716 15.875 13.0423 16.0333 12.8749 16.15C12.7083 16.2666 12.5166 16.3293 12.2999 16.338C12.0833 16.3466 11.8833 16.2756 11.6999 16.125L7.99994 13.3Z" fill="#FFCC15"/>
</mask>
<g mask="url(#mask0_43_16)">
<rect width="8" height="17" fill="#FFCC15"/>
</g>
</svg>
