<svg width="16" height="17" viewBox="0 0 16 17" fill="none" xmlns="http://www.w3.org/2000/svg">
<path d="M7.99994 13.3L4.29994 16.125C4.11661 16.275 3.91661 16.346 3.69994 16.338C3.48327 16.33 3.29161 16.2673 3.12494 16.15C2.95827 16.0333 2.82927 15.875 2.73794 15.675C2.64661 15.475 2.64227 15.2583 2.72494 15.025L4.14994 10.4L0.524941 7.82498C0.324941 7.69165 0.199941 7.51665 0.149941 7.29998C0.0999407 7.08331 0.108274 6.88331 0.174941 6.69998C0.241607 6.51665 0.358274 6.35398 0.524941 6.21198C0.691607 6.06998 0.891607 5.99931 1.12494 5.99998H5.59994L7.04994 1.19998C7.13327 0.966647 7.26261 0.787314 7.43794 0.661981C7.61327 0.536648 7.80061 0.474314 7.99994 0.474981C8.19994 0.474981 8.38761 0.537648 8.56294 0.662981C8.73827 0.788314 8.86727 0.967314 8.94994 1.19998L10.3999 5.99998H14.8749C15.1083 5.99998 15.3083 6.07098 15.4749 6.21298C15.6416 6.35498 15.7583 6.51731 15.8249 6.69998C15.8916 6.88331 15.8999 7.08331 15.8499 7.29998C15.7999 7.51665 15.6749 7.69165 15.4749 7.82498L11.8499 10.4L13.2749 15.025C13.3583 15.2583 13.3543 15.475 13.2629 15.675C13.1716 15.875 13.0423 16.0333 12.8749 16.15C12.7083 16.2666 12.5166 16.3293 12.2999 16.338C12.0833 16.3466 11.8833 16.2756 11.6999 16.125L7.99994 13.3Z" fill="#FFCC15"/>
</svg>
